<?xml version="1.0" encoding="utf-8"?>
<!-- Generator: Adobe Illustrator 17.0.0, SVG Export Plug-In . SVG Version: 6.00 Build 0)  -->
<!DOCTYPE svg PUBLIC "-//W3C//DTD SVG 1.1//EN" "http://www.w3.org/Graphics/SVG/1.1/DTD/svg11.dtd">
<svg version="1.1" id="Layer_1" xmlns="http://www.w3.org/2000/svg" xmlns:xlink="http://www.w3.org/1999/xlink" x="0px" y="0px"
	 width="500px" height="500px" viewBox="0 0 500 500" enable-background="new 0 0 500 500" xml:space="preserve">
<g id="layer1" transform="translate(-135.41925,583.0132)" inkscape:label="Layer 1" inkscape:groupmode="layer">
	<g id="text3141" transform="matrix(5.6956046,0,0,5.7603967,-1277.173,570.00134)">
	</g>
	<g id="text3145" transform="matrix(5.6956046,0,0,5.7603967,-1277.173,570.00134)">
	</g>
	<g id="g3328">
		<g id="g3278" transform="matrix(2.1501372,0,0,2.1509725,-155.7507,-1003.6328)">
			<path id="path3124" inkscape:connector-curvature="0" fill="#9E7FB3" d="M248.49,196.219c-0.328-0.002-0.666,0.007-0.993,0.011
				c-9.976,0.106-20.07,2.45-29.372,6.887c0,0,1.446-0.371,2.434-0.363c0.141,0.001,0.267,0.002,0.384,0.021
				c0.958,0.154,1.867,0.649,2.637,1.239c1.09,0.833,1.485,2.43,2.659,3.139c0.953,0.576,2.155,0.67,3.267,0.726
				c2.389,0.12,4.732-0.733,7.122-0.854c2.413-0.122,4.858-0.215,7.25,0.128c3.534,0.507,7.036,1.449,10.325,2.84
				c3.873,1.639,7.48,3.92,10.88,6.395c3.332,2.426,6.264,5.365,9.236,8.221c4.299,4.133,7.753,9.157,12.407,12.887
				c1.911,1.531,3.87,2.828,6.278,3.822c3.44,1.42,10.89,2.445,10.89,2.445l3.118,0.779c1.62,0.269,3.089,0.64,4.388,1.1
				l0.075,0.021c1.187,0.425,2.23,0.933,3.118,1.516c-2.408-7.95-6.58-15.53-11.179-22.304
				C291.888,207.9,269.171,196.363,248.49,196.219L248.49,196.219z"/>
			<path id="path3122" inkscape:connector-curvature="0" fill="#672989" d="M206.604,210.024
				c-6.166,4.539-11.695,10.148-16.229,16.795c-6.953,10.194-12.001,22.659-12.001,35.084v57.741
				c-0.005,1.275,0.708,1.922,1.612,1.922h17.51c-2.311-1.134-3.953-2.644-4.858-4.463c-6.734-13.535,14.803-37.421,48.292-55.755
				c1.434-1.05,2.786-2.156,2.744-2.584c-0.054-0.541-2.221,0.342-2.221,0.342c-15.979,6.333-30.067,16.311-42.964,27.119
				c0,0-2.581-11.587-3.673-17.297c-0.673-3.522-1.565-7.02-1.879-10.591c-0.29-3.29,0-9.908,0-9.908s0.156-6.659,1.153-9.908
				c1.044-3.402,4.975-9.812,4.975-9.812s3.205-4.507,5.712-7.015c0.637-0.637,1.282-1.873,1.303-2.819
				c0.017-0.777-0.491-1.251-0.673-2.007c-0.236-0.984-0.472-2.171-0.438-3.182c0.026-0.775,0.187-1.426,0.523-2.125
				C205.736,211.058,206.231,210.455,206.604,210.024z"/>
			<path id="path3094" inkscape:connector-curvature="0" fill="#672989" d="M316.747,261.807
				c-5.206,12.916-22.795,30.489-48.26,44.149c-14.727,7.9-28.092,12.925-39.387,15.61h86.088c1.046,0,1.591-0.507,1.591-1.89
				C316.765,302.426,316.751,281.972,316.747,261.807L316.747,261.807z"/>
			<path id="path3096" inkscape:connector-curvature="0" fill="#672989" d="M296.739,260.515
				c-9.337-0.015-28.172,6.563-48.003,17.788c-29.138,16.493-42.269,32.936-37.22,35.992c6.73,4.072,28.345,2.22,58.542-15.215
				c12.393-7.155,35.74-24.462,32.682-35.874C302.251,261.382,300.116,260.521,296.739,260.515z M251.789,280.802
				c0,0,6.556,12.537-3.587,20.243c-13.863,10.532-24.087-0.683-24.087-0.683C230.94,293.102,240.564,286.142,251.789,280.802z"/>
		</g>
		<g id="g3261" transform="matrix(2.1501372,0,0,2.1509725,-155.7507,-1003.6328)">
			<g id="text3143" transform="matrix(5.6956046,0,0,5.7603967,-1277.173,570.00134)">
				<path id="path3167" sodipodi:nodetypes="sscccsccscccccccccccccccccccccsscc" inkscape:connector-curvature="0" d="
					M260.007-26.366c0.267,0,0.471-0.056,0.614-0.169c0.142-0.113,0.213-0.275,0.213-0.487v-0.02c0-0.198-0.068-0.356-0.205-0.472
					c-0.136-0.116-0.35-0.174-0.64-0.174h-1.616v1.322H260.007z M259.458-29.082c0.267,0,0.47-0.051,0.609-0.154
					c0.139-0.102,0.209-0.26,0.209-0.472v-0.021c0-0.198-0.065-0.35-0.196-0.456c-0.13-0.106-0.326-0.159-0.587-0.159h-1.121v1.261
					H259.458z M256.692-31.942h3.193c0.391,0,0.726,0.055,1.005,0.164c0.279,0.109,0.498,0.192,0.683,0.374
					c0.125,0.143,0.28,0.266,0.372,0.513c0.071,0.191,0.108,0.485,0.108,0.732v0.057c0,0.417-0.159,0.738-0.34,0.994
					c-0.181,0.256-0.441,0.29-0.719,0.426c0.529,0.084,1.1,0.513,1.323,0.783c0.222,0.27,0.333,0.647,0.333,1.132v0.021
					c0,0.622-0.206,1.107-0.618,1.455c-0.412,0.348-1.382,0.523-2.129,0.523h-3.211V-31.942z"/>
				<path id="path3169" sodipodi:nodetypes="ccccccccccccc" inkscape:connector-curvature="0" d="M263.329-31.942h5.416v1.499
					h-3.672v1.324h3.129v1.405h-3.129v1.419h3.754v1.528h-5.499V-31.942z"/>
				<path id="path3171" sodipodi:nodetypes="ccccccc" inkscape:connector-curvature="0" d="M269.585-31.942h1.868v5.655h3.265v1.52
					h-5.133V-31.942z"/>
				<path id="path3187" sodipodi:nodetypes="ccccccc" inkscape:connector-curvature="0" d="M275.439-31.942h1.868v5.655h3.265v1.52
					h-5.133V-31.942z"/>
			</g>
			<g id="g3255">
				<path id="path3157" sodipodi:nodetypes="ccccccccc" inkscape:connector-curvature="0" d="M184.598,346.227H172.24v-8.618h35.602
					v8.618h-12.72v32.834h-10.524V346.227z"/>
				<path id="path3159" sodipodi:nodetypes="ccccccccccccc" inkscape:connector-curvature="0" d="M226.691,364.644l-5.062-14.173
					l-5.392,14.173H226.691z M217.802,337.436h8.539l16.865,41.625h-11.094l-2.394-6.099h-16.32l-2.533,6.099h-10.258
					L217.802,337.436z"/>
				<path id="path3163" inkscape:connector-curvature="0" d="M301.287,336.909c-2.881,0.092-6.036,0.871-8.456,1.922
					c-2.581,1.121-4.701,2.536-6.609,4.484c-1.908,1.948-2.906,4.108-3.972,6.726c-1.066,2.618-1.356,5.398-1.356,8.349v0.128
					c0,2.951,0.29,5.719,1.356,8.317c1.066,2.598,2.528,4.862,4.399,6.791c1.871,1.929,4.103,3.458,6.684,4.58
					c2.581,1.122,5.384,1.676,8.413,1.676c3.03,0,5.832-0.554,8.413-1.676c2.581-1.122,4.829-2.664,6.737-4.612
					c1.908-1.948,3.397-4.226,4.463-6.844c1.066-2.617,1.292-5.407,1.292-8.36v-0.117c0-2.953-0.226-5.72-1.292-8.317
					c-1.066-2.598-2.54-4.861-4.41-6.79c-1.87-1.929-4.092-3.459-6.673-4.58c-2.581-1.121-5.393-1.676-8.424-1.676
					C301.664,336.909,301.479,336.903,301.287,336.909z M301.736,345.973c1.605,0,3.075,0.335,4.399,1.014
					c1.323,0.68,2.464,1.594,3.427,2.733c0.963,1.14,1.71,2.45,2.231,3.94c0.521,1.49,0.779,3.064,0.779,4.73v0.139
					c0,1.666-0.258,3.24-0.779,4.73c-0.522,1.49-1.245,2.801-2.167,3.918c-0.923,1.118-2.05,2.001-3.374,2.659
					c-1.324,0.658-2.783,0.982-4.388,0.982c-1.604,0-3.075-0.335-4.399-1.014c-1.324-0.679-2.453-1.593-3.395-2.733
					c-0.943-1.14-1.678-2.449-2.199-3.94c-0.522-1.491-0.779-3.075-0.779-4.741v-0.128c0-1.667,0.246-3.24,0.747-4.73
					c0.501-1.49,1.225-2.801,2.167-3.918c0.943-1.118,2.07-2.001,3.374-2.659C298.683,346.298,300.131,345.973,301.736,345.973z"/>
				<path id="path3189" sodipodi:nodetypes="sssccsssssssccsss" inkscape:connector-curvature="0" d="M241.583,358.446
					c0-5.281,1.381-11.184,4.995-15.035c3.951-4.21,10.285-6.492,16.058-6.492c11.298,0,16.514,7.816,16.514,7.816l-8.033,5.798
					c0,0-2.156-2.448-3.563-3.201c-1.429-0.765-3.097-1.361-4.711-1.208c-3.013,0.285-6.209,1.599-8.214,3.865
					c-1.881,2.127-2.778,5.256-2.658,8.093c0.161,3.803,1.618,7.987,4.469,10.509c1.585,1.402,4.288,1.752,6.1,1.752
					c2.688,0,4.147-0.529,5.979-1.45c1.239-0.622,3.201-2.658,3.201-2.658l8.395,6.04c0,0-6.295,7.489-17.274,7.489
					c-4.828,0-10.086-1.154-13.452-4.001C244.413,371.556,241.583,368.124,241.583,358.446L241.583,358.446z"/>
			</g>
			<g id="g3217" transform="matrix(0.62500655,0,0,0.62500655,405.36411,842.34472)">
				<g id="text3219">
					<path id="path3231" inkscape:connector-curvature="0" d="M-129.278-677.368h-2.409v-0.748h5.637v0.748h-2.409v6.427h-0.82
						V-677.368z"/>
					<path id="path3233" inkscape:connector-curvature="0" d="M-125.622-678.116h0.82l2.614,3.916l2.614-3.916h0.82v7.175h-0.81
						v-5.811l-2.614,3.844h-0.041l-2.614-3.834v5.801h-0.789V-678.116z"/>
				</g>
				<g id="text3221">
				</g>
			</g>
		</g>
	</g>
</g>
</svg>
