<?xml version="1.0" encoding="utf-8"?>
<!-- Generator: Adobe Illustrator 17.0.0, SVG Export Plug-In . SVG Version: 6.00 Build 0)  -->
<!DOCTYPE svg PUBLIC "-//W3C//DTD SVG 1.1//EN" "http://www.w3.org/Graphics/SVG/1.1/DTD/svg11.dtd">
<svg version="1.1" id="Layer_1" xmlns="http://www.w3.org/2000/svg" xmlns:xlink="http://www.w3.org/1999/xlink" x="0px" y="0px"
	 width="500px" height="500px" viewBox="0 0 500 500" enable-background="new 0 0 500 500" xml:space="preserve">
<sodipodi:namedview  id="base" inkscape:pageopacity="0.0" inkscape:window-width="1920" inkscape:pageshadow="2" inkscape:window-height="1028" fit-margin-top="0.5" fit-margin-left="0.5" inkscape:cx="1622.876" borderopacity="1.0" inkscape:cy="161.32133" inkscape:zoom="0.35" pagecolor="#ffffff" bordercolor="#666666" showgrid="false" inkscape:window-maximized="1" inkscape:window-x="-8" inkscape:window-y="-8" inkscape:current-layer="g5644" fit-margin-bottom="0.5" inkscape:document-units="px" fit-margin-right="0.5">
	</sodipodi:namedview>
<g id="layer1" transform="translate(66.667256,88.430784)" inkscape:label="Layer 1" inkscape:groupmode="layer">
	<g id="g5644" transform="matrix(6.4588709,0,0,-6.4588709,-29.911876,5194.408)">
		<g id="g5984" transform="matrix(2.3896732,0,0,2.3896732,-72.538582,-1012.5229)">
			<g id="g3293">
				<g>
					<defs>
						<rect id="SVGID_1_" x="-206.704" y="475.379" width="499.007" height="548.809"/>
					</defs>
					<clipPath id="SVGID_2_">
						<use xlink:href="#SVGID_1_"  overflow="visible"/>
					</clipPath>
					<g id="g3295" clip-path="url(#SVGID_2_)">
						<g id="g3301" transform="translate(68.7272,726.257)">
							<path id="path3303" inkscape:connector-curvature="0" fill="#DC1838" d="M-21.162,18.492
								c-0.136-0.284-0.292-0.537-0.463-0.752c-0.169-0.215-0.345-0.386-0.521-0.509c-0.153-0.109-0.281-0.192-0.386-0.173
								c-0.068,0.017-0.059,0.137-0.051,0.214c0.024,0.22,0.094,0.443,0.21,0.663c0.117,0.224,0.262,0.434,0.43,0.622
								c0.171,0.188,0.356,0.345,0.552,0.466c0.154,0.096,0.307,0.162,0.456,0.198C-20.977,18.965-21.054,18.72-21.162,18.492
								 M-19.325,23.481c-0.44,0.07-0.758-0.265-0.898-0.596c-0.049-0.116-0.064-0.175-0.111-0.325
								c-0.047-0.147-0.066-0.258-0.102-0.41c-0.026-0.109-0.066-0.279-0.082-0.354c-0.03-0.137-0.034-0.158-0.072-0.367
								c-0.038-0.206-0.064-0.344-0.091-0.526c-0.021-0.139-0.042-0.254-0.064-0.393c-0.316-0.074-0.64-0.201-0.961-0.375
								c-0.347-0.188-0.671-0.435-0.962-0.734c-0.292-0.298-0.545-0.651-0.75-1.047c-0.208-0.401-0.34-0.849-0.392-1.331
								c-0.007-0.059-0.011-0.122-0.013-0.189c-0.041,0.036-0.081,0.074-0.113,0.122c-0.062,0.092-0.106,0.198-0.136,0.327
								c-0.03,0.126-0.047,0.285-0.046,0.41c0.001,0.137,0.006,0.225,0.016,0.316c0.011,0.104,0.025,0.201,0.043,0.29
								c0.01,0.058,0.017,0.111,0.024,0.163c0.005,0.034,0.009,0.068,0.015,0.101c0.063,0.386,0.09,0.645,0.053,0.908
								c-0.025,0.175-0.166,0.51-0.52,0.521c-0.028,0.001-0.056,0-0.087-0.003c-0.238-0.023-0.516-0.153-0.686-0.271
								c-0.227-0.158-0.439-0.354-0.632-0.584c-0.082-0.098-0.146-0.186-0.2-0.268c0.034,0.104,0.079,0.208,0.122,0.309
								c0.027,0.062,0.054,0.124,0.078,0.186c0.003,0.007,0.006,0.015,0.009,0.022c0.058,0.147,0.118,0.297,0.131,0.419
								c0.011,0.109-0.006,0.199-0.051,0.265c-0.038,0.054-0.085,0.095-0.141,0.123c-0.055,0.024-0.111,0.037-0.165,0.037
								c-0.039,0.001-0.073,0-0.096-0.002c-0.136-0.012-0.258-0.054-0.362-0.123c-0.091-0.059-0.168-0.122-0.239-0.196
								c-0.07-0.081-0.132-0.165-0.18-0.248c-0.075-0.121-0.145-0.286-0.214-0.505c-0.064-0.203-0.125-0.43-0.183-0.673
								c-0.056-0.235-0.107-0.478-0.153-0.723c-0.045-0.241-0.078-0.453-0.097-0.629c-0.023-0.216-0.04-0.426-0.05-0.624
								c-0.011-0.206-0.007-0.393,0.011-0.556c0.02-0.173,0.062-0.315,0.125-0.42c0.08-0.131,0.21-0.192,0.379-0.175
								c0.003,0,0.006,0.001,0.008,0.001c0.032,0.004,0.141,0.02,0.244,0.056c0.095,0.033,0.239,0.136,0.36,0.327
								c0.07,0.109,0.142,0.397,0.228,0.763c0.02,0.084,0.038,0.161,0.054,0.222c0.337,1.316,0.827,1.592,1.068,1.642
								c-0.017-0.149-0.034-0.297-0.05-0.445c-0.012-0.194-0.026-0.366-0.03-0.57c0.006-0.386,0.044-0.606,0.09-0.798
								c0.053-0.218,0.153-0.482,0.273-0.621c0.141-0.162,0.278-0.268,0.524-0.254c0.001,0,0.002,0,0.004,0c0.001,0,0.002,0,0.002,0
								c0.107,0.015,0.161,0.024,0.276,0.072c0.117,0.056,0.171,0.096,0.273,0.195c0.073,0.07,0.117,0.138,0.147,0.205
								c0.045-0.081,0.101-0.154,0.17-0.217c0.108-0.097,0.264-0.142,0.461-0.136c0.004,0,0.009,0,0.014,0.001
								c0.022,0.001,0.069,0.006,0.222,0.027c0.14,0.019,0.309,0.074,0.506,0.162c0.192,0.087,0.41,0.223,0.65,0.403
								c0.168,0.127,0.342,0.292,0.517,0.492c-0.017-0.28-0.031-0.547,0.092-0.914c0.05-0.151,0.116-0.275,0.218-0.414
								c0.114-0.153,0.287-0.232,0.517-0.233h0.002c0.009,0.001,0.018,0.001,0.027,0.002c0.109,0.018,0.2,0.047,0.276,0.087
								c0.078,0.041,0.152,0.101,0.219,0.178c0.081,0.093,0.129,0.212,0.145,0.356c0.004,0.043,0.002,0.093-0.008,0.153
								c-0.009,0.058-0.039,0.102-0.069,0.149c-0.013,0.018-0.026,0.038-0.039,0.06c-0.076,0.133-0.124,0.243-0.147,0.337
								c-0.058,0.244-0.072,0.448-0.061,0.842c0.005,0.188,0.02,0.394,0.035,0.591c0.015,0.192,0.037,0.389,0.059,0.598
								c0.015,0.135,0.03,0.271,0.045,0.407c0.005,0.049,0.009,0.09,0.015,0.127c0.009,0,0.018,0,0.028,0
								c0.101-0.001,0.207,0.034,0.313,0.106c0.124,0.087,0.2,0.244,0.224,0.467c0.021,0.191-0.026,0.346-0.14,0.461
								c-0.07,0.069-0.148,0.128-0.232,0.177c0.012,0.072,0.024,0.14,0.034,0.203c0.012,0.08,0.025,0.15,0.039,0.208
								c0.009,0.04,0.017,0.081,0.025,0.121c0.007,0.035,0.013,0.069,0.02,0.102c0.002,0.008,0.14,0.653,0.417,1.614
								c0.045,0.156,0.066,0.276,0.076,0.377C-19.012,23.19-19.048,23.438-19.325,23.481 M-15.358,20.095
								c0.022-0.09,0.026-0.2,0.013-0.336c-0.012-0.127-0.037-0.269-0.072-0.424c-0.002-0.006-0.199-0.78-0.277-1.151
								c-0.062-0.295-0.1-0.525-0.145-0.793c-0.001-0.006-0.002-0.011-0.003-0.017c-0.043-0.261-0.109-0.84-0.148-1.249
								c-0.076-0.79-0.094-0.978-0.311-1.586c-0.222-0.622-0.729-1.035-0.965-1.167c-0.429-0.239-0.911-0.364-1.435-0.375
								c-0.002,0-0.003,0-0.004,0c-0.001,0-0.003,0-0.004,0.001c-0.025,0.003-0.053,0.005-0.083,0.007
								c-0.056,0.004-0.121,0.008-0.183,0.019c-0.551,0.099-0.869,0.448-0.81,0.901c0.031,0.237,0.216,0.381,0.454,0.345
								c0.223-0.037,0.429-0.055,0.616-0.053c0.572,0.006,0.964,0.196,1.199,0.589c0.245,0.41,0.274,0.679,0.316,1.052
								c0.005,0.048,0.011,0.098,0.017,0.15c0.023,0.192,0.04,0.371,0.059,0.558c-0.092-0.122-0.183-0.226-0.27-0.309
								c-0.177-0.168-0.339-0.296-0.483-0.382c-0.173-0.101-0.341-0.16-0.501-0.176c-0.002,0-0.004,0-0.005,0
								c-0.002,0-0.004,0-0.006,0c-0.263,0.006-0.466,0.107-0.604,0.301c-0.121,0.168-0.215,0.381-0.276,0.631
								c-0.06,0.244-0.092,0.506-0.094,0.778c-0.003,0.265,0.007,0.514,0.028,0.739c0.067,0.699,0.211,1.256,0.428,1.654
								c0.24,0.443,0.546,0.667,0.908,0.659c0.019,0,0.047-0.003,0.098-0.009c0.065-0.009,0.122-0.031,0.172-0.065
								c0.055-0.036,0.1-0.088,0.137-0.161c0.038-0.075,0.05-0.169,0.04-0.285c-0.011-0.118-0.056-0.247-0.136-0.395
								c-0.072-0.137-0.139-0.292-0.201-0.459c-0.052-0.144-0.105-0.317-0.158-0.513c-0.053-0.192-0.09-0.398-0.11-0.614
								c-0.004-0.034-0.009-0.109-0.016-0.23c-0.007-0.097-0.006-0.198,0.003-0.311c0.008-0.096,0.026-0.178,0.055-0.244
								c0.016-0.039,0.066-0.065,0.082-0.068c0.021-0.005,0.044-0.009,0.073-0.009c0.051,0,0.103,0.017,0.154,0.049
								c0.04,0.025,0.136,0.108,0.249,0.26c0.079,0.107,0.232,0.332,0.358,0.631c0.059,0.139,0.134,0.367,0.214,0.608
								c0.09,0.271,0.247,0.804,0.337,1.028c0.058,0.143,0.122,0.268,0.196,0.383c0.067,0.104,0.176,0.211,0.262,0.267
								c0.127,0.084,0.268,0.128,0.426,0.12c0.036-0.002,0.074-0.011,0.124-0.023c0.067-0.017,0.126-0.054,0.175-0.107
								C-15.418,20.263-15.383,20.192-15.358,20.095 M-15.082,20.209c-0.015,0.064-0.027,0.143,0.004,0.249
								c0.014,0.047,0.058,0.158,0.084,0.262c0.031,0.137,0.043,0.274,0.01,0.401c-0.029,0.112-0.036,0.275-0.005,0.368
								c0.048,0.142,0.179,0.217,0.272,0.233c0.141,0.024,0.282,0.015,0.401-0.044c0.13-0.064,0.241-0.219,0.269-0.331
								c0.059-0.237,0.032-0.426,0.005-0.577c-0.032-0.181-0.107-0.345-0.188-0.48c-0.057-0.096-0.153-0.179-0.235-0.238
								c-0.101-0.072-0.267-0.1-0.441-0.036C-14.988,20.046-15.067,20.151-15.082,20.209 M-12.18,16.865
								c-0.042-0.303-0.165-0.554-0.365-0.749c-0.187-0.181-0.405-0.326-0.646-0.429c-0.238-0.101-0.483-0.168-0.728-0.198
								c-0.222-0.027-0.415-0.033-0.574-0.017c-0.015,0.001-0.03,0.003-0.043,0.005c-0.386,0.049-0.648,0.172-0.802,0.378
								c-0.153,0.206-0.214,0.42-0.184,0.635c0.036,0.256,0.169,0.38,0.276,0.439c0.129,0.072,0.241,0.103,0.341,0.094
								c0.004,0,0.008-0.001,0.012-0.002c0.101-0.011,0.217-0.063,0.355-0.157c0.093-0.064,0.217-0.107,0.369-0.127
								c0.205-0.026,0.361-0.015,0.461,0.034c0.072,0.034,0.114,0.073,0.119,0.108c0.002,0.016,0.007,0.048-0.049,0.101
								c-0.068,0.064-0.16,0.127-0.275,0.185c-0.121,0.061-0.254,0.125-0.408,0.194c-0.158,0.07-0.303,0.153-0.434,0.246
								c-0.141,0.1-0.256,0.217-0.341,0.349c-0.097,0.152-0.131,0.332-0.103,0.535c0.032,0.232,0.135,0.471,0.303,0.71
								c0.16,0.227,0.36,0.433,0.593,0.612c0.232,0.177,0.491,0.317,0.769,0.416c0.288,0.101,0.573,0.133,0.848,0.092
								c0.265-0.039,0.469-0.16,0.606-0.356c0.137-0.199,0.182-0.473,0.135-0.814c-0.023-0.165-0.083-0.315-0.178-0.448
								c-0.08-0.111-0.233-0.238-0.514-0.193c-0.191,0.028-0.267,0.132-0.298,0.214c-0.027,0.067-0.049,0.141-0.064,0.217
								c-0.011,0.05-0.014,0.115-0.047,0.149c-0.02,0.017-0.058,0.03-0.106,0.027c0,0-0.043,0.002-0.138-0.025
								c-0.083-0.026-0.167-0.062-0.247-0.108c-0.083-0.048-0.158-0.108-0.224-0.178c-0.052-0.056-0.083-0.114-0.093-0.173
								c-0.005-0.029-0.008-0.078,0.054-0.137c0.076-0.072,0.173-0.144,0.292-0.215c0.119-0.072,0.255-0.145,0.416-0.222
								c0.17-0.081,0.324-0.173,0.456-0.275c0.141-0.107,0.257-0.232,0.345-0.369C-12.188,17.253-12.151,17.069-12.18,16.865
								 M-28.796,18.132c-0.131-0.203-0.262-0.361-0.402-0.483c-0.156-0.136-0.272-0.21-0.42-0.292
								c-0.065-0.036-0.118-0.056-0.163-0.068c0.022,0.122,0.063,0.285,0.12,0.42c0.084,0.201,0.192,0.399,0.32,0.589
								c0.152,0.224,0.275,0.371,0.4,0.476c0.087,0.073,0.163,0.117,0.22,0.127c0.128,0.022,0.134-0.143,0.134-0.176
								C-28.588,18.527-28.7,18.282-28.796,18.132 M-27.951,19.8c-0.103,0.07-0.218,0.111-0.343,0.121
								c-0.107,0.007-0.237,0.002-0.334-0.014c-0.002,0-0.005,0-0.007-0.001c-0.207-0.035-0.425-0.108-0.578-0.194
								c-0.158-0.086-0.311-0.196-0.457-0.329c-0.123-0.112-0.264-0.248-0.385-0.41c-0.079-0.105-0.229-0.316-0.351-0.552
								c-0.164-0.317-0.307-0.685-0.437-1.125c-0.081,0-0.258,0.036-0.339,0.052c-0.057,0.011-0.077,0.015-0.089,0.016
								c-0.013,0-0.024,0-0.034,0.001c0.375,1.56,0.636,2.443,0.828,3.055c0.104,0.299,0.208,0.597,0.311,0.896
								c0.081,0.169,0.131,0.401,0.123,0.508c-0.021,0.313-0.237,0.629-0.621,0.544c-0.407-0.09-0.647-0.609-0.971-1.752
								c-0.273-0.962-0.428-1.575-0.65-2.615c-0.096-0.474-0.192-0.947-0.287-1.421c-0.015-0.071-0.029-0.143-0.043-0.213
								c-0.032-0.148-0.049-0.19-0.102-0.202c-0.026-0.006-0.059,0.012-0.074,0.073c-0.034,0.132-0.062,0.407-0.083,0.758
								c-0.026,0.81-0.093,1.649-0.064,2.711c0.017,0.607,0.016,0.704-0.024,0.86c-0.077,0.301-0.449,0.479-0.855,0.377
								c-0.406-0.103-0.525-0.559-0.76-1.181c-0.158-0.421-0.398-1.17-0.636-1.896c-0.223-0.752-0.486-1.674-0.486-1.674
								c-0.017-0.064-0.032-0.128-0.049-0.191c-0.016-0.064-0.032-0.127-0.049-0.191c-0.058-0.156-0.078-0.186-0.117-0.198
								c-0.04-0.011-0.062,0.021-0.073,0.069c-0.024,0.094-0.021,0.698-0.013,1.017c0.015,0.649,0.078,1.353,0.139,1.983
								c0.035,0.455,0.151,1.25,0.186,1.705c0.012,0.137,0.024,0.281,0.028,0.379c0.008,0.29-0.012,0.429-0.139,0.573
								c-0.198,0.174-0.439,0.161-0.718,0.098c-0.448-0.102-0.784-0.38-0.744-0.532c0.006-0.023,0.03-0.045,0.053-0.079
								c0.068-0.098,0.104-0.154,0.131-0.253c0.032-0.117,0.048-0.28,0.047-0.542c-0.01-0.234-0.02-0.469-0.03-0.704
								c-0.056-0.709-0.142-1.986-0.165-2.859c-0.02-0.754,0.006-1.278,0.065-2.024c0.03-0.375,0.109-0.681,0.152-0.846
								c0.076-0.295,0.226-0.622,0.485-0.688c0.192-0.049,0.341-0.037,0.594,0.029c0.233,0.06,0.585,0.283,0.663,0.633
								c0.099,0.39,0.198,0.781,0.297,1.171c0.088,0.417,0.289,1.155,0.459,1.796c0.098,0.381,0.226,0.808,0.295,1.029
								c0.041,0.112,0.061,0.142,0.087,0.149c0.026,0.007,0.042-0.002,0.048-0.026c0.003-0.012,0.007-0.03,0.008-0.071
								c0.001-0.026,0.002-0.053,0.003-0.079c0.002-0.08,0.004-0.16,0.006-0.24c0.019-0.784,0.169-2.133,0.311-2.685
								c0.092-0.361,0.118-0.806,0.674-0.888c0.257-0.039,0.471,0.034,0.471,0.034c0.41,0.125,0.516,0.361,0.608,0.764
								c0.06,0.255,0.245,0.958,0.347,1.411c0.031,0.137,0.061,0.27,0.09,0.399c0.075-0.024,0.417-0.077,0.559-0.09
								c0.002-0.043,0.004-0.066,0.008-0.093c0.004-0.026,0.007-0.05,0.01-0.072c0.005-0.035,0.009-0.066,0.017-0.101
								c0.01-0.046,0.02-0.091,0.03-0.136c0.059-0.237,0.152-0.439,0.274-0.601c0.118-0.158,0.241-0.265,0.41-0.358
								c0.161-0.088,0.436-0.126,0.697-0.099c0.037,0.001,0.071,0.004,0.107,0.011c0.007,0.001,0.014,0.002,0.021,0.004
								c0.018,0.003,0.035,0.007,0.053,0.01c0,0,0,0.001,0,0.002c0.039,0.009,0.086,0.02,0.122,0.031
								c0.41,0.118,0.938,0.482,1.128,1.016c0.074,0.21,0.033,0.342-0.015,0.415c-0.052,0.08-0.138,0.128-0.226,0.127
								c-0.03-0.001-0.058-0.004-0.087-0.008c-0.179-0.028-0.314-0.13-0.433-0.219c-0.107-0.081-0.209-0.157-0.335-0.181
								c-0.144-0.028-0.243-0.024-0.326,0.017c-0.093,0.046-0.124,0.08-0.162,0.175c-0.023,0.056-0.035,0.121-0.045,0.205
								c0.233,0.06,0.502,0.178,0.719,0.319c0.248,0.161,0.474,0.358,0.671,0.584c0.196,0.227,0.361,0.478,0.489,0.747
								c0.122,0.258,0.211,0.599,0.232,0.892c0.017,0.224-0.008,0.41-0.07,0.552C-27.764,19.625-27.849,19.732-27.951,19.8"/>
						</g>
					</g>
				</g>
			</g>
			<g id="g3093">
				<g>
					<defs>
						<rect id="SVGID_3_" x="-206.704" y="475.379" width="499.007" height="548.809"/>
					</defs>
					<clipPath id="SVGID_4_">
						<use xlink:href="#SVGID_3_"  overflow="visible"/>
					</clipPath>
					<g id="g3095" clip-path="url(#SVGID_4_)">
						<g id="g3101" transform="translate(45.2045,744.5733)">
							<path id="path3103" inkscape:connector-curvature="0" fill="#FFFFFF" d="M-6.933,7.412c0.105-0.055,0.224-0.072,0.192-0.092
								c-0.058-0.036-0.264,0-0.361,0.061c-0.042,0.026-0.058-0.035-0.02-0.084c0,0,0,0,0,0c0.015-0.023,0.032-0.043,0.068-0.076
								c0.374-0.327,0.857-0.425,1.292-0.35C-5.541,6.525-5.276,6.199-4.968,5.9c1.026-0.995,2.378-1.542,3.807-1.542
								c1.492,0,2.885,0.589,3.924,1.66C3.02,6.284,3.248,6.571,3.444,6.876c0.441-0.083,0.934,0.013,1.315,0.346
								c0.035,0.033,0.053,0.053,0.067,0.076v0c0.038,0.05,0.023,0.111-0.02,0.084C4.709,7.321,4.504,7.284,4.445,7.321
								C4.413,7.341,4.532,7.358,4.637,7.413C5.206,7.7,5.103,8.603,4.935,8.414C4.813,8.262,4.654,8.101,4.349,8.111
								c0.276,0.321,0.303,0.773,0.208,0.693C4.468,8.711,4.348,8.518,4.106,8.355c0.138,0.499,0.206,1.02,0.198,1.552
								c-0.022,1.461-0.612,2.824-1.66,3.841c-0.354,0.343-0.746,0.632-1.166,0.865c-0.23,0.418-0.518,0.721-1.037,0.839
								c-0.243,0.034-0.365,0.03-0.565-0.057c-0.023,0.081-0.057,0.136-0.092,0.173c-0.218,0.216-0.614,0.242-0.808,0.275
								c-0.228,0.022-0.627,0.028-1.007-0.068c-0.829-0.21-1.395-0.613-1.805-1.178c-0.455-0.256-0.876-0.579-1.251-0.966
								c-1.395-1.438-1.839-3.451-1.345-5.257c-0.222,0.158-0.336,0.339-0.421,0.428c-0.096,0.08-0.068-0.371,0.208-0.693
								C-6.949,8.099-7.109,8.26-7.23,8.413C-7.399,8.602-7.501,7.698-6.933,7.412"/>
						</g>
					</g>
				</g>
			</g>
			<g id="g3125" transform="translate(91.8998,718.8691)">
				<path id="path3127" inkscape:connector-curvature="0" d="M-35.18,22.961h0.031c0.036,0,0.064,0.012,0.064,0.041
					c0,0.026-0.019,0.043-0.059,0.043c-0.017,0-0.03-0.002-0.036-0.004V22.961z M-35.181,22.804h-0.065v0.279
					c0.025,0.003,0.061,0.009,0.107,0.009c0.053,0,0.076-0.009,0.095-0.023c0.017-0.012,0.029-0.032,0.029-0.059
					c0-0.034-0.025-0.056-0.058-0.066V22.94c0.027-0.008,0.041-0.03,0.049-0.068c0.008-0.043,0.015-0.058,0.021-0.068h-0.068
					c-0.008,0.011-0.013,0.034-0.022,0.068c-0.005,0.029-0.022,0.043-0.058,0.043h-0.03C-35.181,22.915-35.181,22.804-35.181,22.804
					z M-35.139,23.172c-0.12,0-0.215-0.1-0.215-0.223c0-0.124,0.094-0.223,0.218-0.223c0.121-0.002,0.213,0.099,0.213,0.221
					c0,0.124-0.092,0.224-0.214,0.224C-35.137,23.172-35.139,23.172-35.139,23.172z M-35.136,23.228
					c0.158,0,0.284-0.122,0.284-0.279c0-0.157-0.126-0.281-0.286-0.281c-0.16,0-0.288,0.124-0.288,0.281
					c0,0.156,0.127,0.279,0.288,0.279C-35.137,23.228-35.136,23.228-35.136,23.228z"/>
			</g>
			<g id="g3133" transform="translate(59.8112,763.4241)">
				<path id="path3135" inkscape:connector-curvature="0" fill="#2F1E18" d="M-15.769-3.992c-1.374,0-2.657-0.543-3.614-1.529
					c-1.933-1.992-1.884-5.186,0.109-7.119c0.945-0.916,2.19-1.421,3.506-1.421c1.374,0,2.657,0.543,3.613,1.529
					c0.936,0.965,1.44,2.238,1.42,3.583c-0.02,1.345-0.563,2.601-1.529,3.537C-13.208-4.497-14.453-3.992-15.769-3.992
					 M-15.768-14.493c-1.429,0-2.781,0.548-3.807,1.543c-2.164,2.099-2.217,5.567-0.118,7.73c1.039,1.071,2.432,1.661,3.924,1.661
					c1.429,0,2.78-0.548,3.806-1.543c1.048-1.017,1.638-2.38,1.66-3.841c0.023-1.461-0.525-2.842-1.542-3.89
					C-12.883-13.904-14.276-14.493-15.768-14.493"/>
			</g>
			<g id="g3137" transform="translate(74.9172,744.4981)">
				<path id="path3139" inkscape:connector-curvature="0" fill="#DC1838" d="M-24.907,7.457c-0.097-0.061-0.302-0.098-0.361-0.061
					c-0.032,0.021,0.086,0.038,0.192,0.092c0.568,0.287,0.466,1.19,0.297,1.001c-0.122-0.153-0.281-0.313-0.586-0.303
					c0.276,0.322,0.303,0.773,0.208,0.693c-0.198-0.206-0.545-0.91-2.06-0.666c0.042,0.053,0.087,0.105,0.136,0.154
					c-0.077,0.046-0.155,0.12-0.235,0.237c-0.232,0.365-0.429,0.427-0.548,0.46c0.194,0.186,0.324,0.382,0.441,0.604
					c0.392,0.838,0.347,1.75,0.304,1.99c-0.045,0.371-0.14,0.951-0.432,1.493c-0.33,0.616-0.653,1.741-1.764,2.118
					c-0.226,0.011-0.345,0-0.543-0.087c-0.019,0.039-0.207,0.194-0.227,0.229c-0.118,0.107-0.464,0.201-0.619,0.252
					c-0.319,0.006-0.6,0.085-0.952-0.01c-1.49-0.403-2.154-1.147-2.595-2.515c-0.036-0.113-0.088-0.483-0.094-0.596
					c0.013,0.038-0.484-1.472-0.154-2.3c0.061-0.07,0.066-0.202,0.128-0.271c0.156-0.366,0.407-0.591,0.558-0.927
					c-0.489-0.02-0.66-0.766-0.674-0.829c-1.533-0.254-1.882,0.456-2.081,0.663c-0.095,0.08-0.068-0.371,0.208-0.693
					c-0.305-0.01-0.464,0.151-0.586,0.303c-0.169,0.189-0.271-0.715,0.297-1.001c0.106-0.055,0.224-0.072,0.192-0.092
					c-0.058-0.037-0.264,0-0.361,0.061c-0.045,0.028-0.061-0.043-0.012-0.094c1.463-0.971,2.137,0.097,2.359,0.128
					c0.807-0.232,2.237,0.338,1.602,0.829c-0.173,0.27-0.433,0.733-0.443,1.267c-0.036,0.3-0.001,0.393-0.33,0.365
					c0.117,0.364,0.237,0.683,0.116,1.237c-0.022-0.008-0.044-0.028-0.061-0.043c0.65,0.634,1.932,0.71,2.633,1.403
					c0.091,0.158,0.45,0.211,0.536,0.375c-0.08-0.57-0.334-1.072-0.862-1.576c0,0,0.371-0.001,0.666,0.209
					c0.503,0.359,0.739,0.796,1.086,1.173c0.002,0.019,0.098,0.104,0.094,0.127c0.057-0.029,0.168-0.12,0.205-0.178
					c0.41-0.634,0.077-0.479,0.531-1.056c0.026-0.03,0.075-0.162,0.101-0.194c0.099-0.186,0.146-0.301,0.272-0.472
					c0.163-0.112,0.131-0.302,0.226-0.626c-0.028-0.402-0.111-0.715-0.378-0.894c-0.015-0.35-0.31-1.162-0.31-1.162
					c0.026-0.08-0.31-0.618,0.485-0.779c0.209-0.042,0.524,0,0.792,0.047c0.022,0.173,0.08,0.337,0.166,0.488
					c-0.006-0.049-0.011-0.098-0.011-0.149c0-0.138,0.026-0.271,0.072-0.396c0.008,0.002,0.016,0.004,0.024,0.006
					c0.223-0.031,0.897-1.1,2.359-0.128C-24.845,7.414-24.861,7.486-24.907,7.457"/>
			</g>
			<g id="g3141" transform="translate(64.3698,741.5831)">
				<path id="path3143" inkscape:connector-curvature="0" fill="#28A4CA" d="M-18.526,9.22c-0.061,0.141-0.102,0.235-0.099,0.36
					c-0.008,0.02-0.03,0.038-0.059,0.052l0.002-0.145l-0.256,0.105c-0.024-0.034-0.038-0.084-0.03-0.154
					c0.083-0.492,0.314-0.746,0.373-0.808c0.062-0.064,0.11-0.07,0.164-0.074c0.067-0.006,0.113,0.015,0.154,0.06
					C-18.185,8.752-18.415,8.963-18.526,9.22"/>
			</g>
			<g id="g3145" transform="translate(57.6847,741.1719)">
				<path id="path3147" inkscape:connector-curvature="0" fill="#28A4CA" d="M-14.482,9.469l-0.138,0.16
					c-0.096-0.591-0.314-0.747-0.245-0.898c0.022-0.047,0.072-0.087,0.072-0.087c0.034-0.021,0.066-0.031,0.097-0.032
					c0.048,0,0.098,0.011,0.136,0.056c0.162,0.199,0.275,0.532,0.311,0.747c0.008,0.046,0.008,0.092,0.003,0.137L-14.482,9.469z"/>
			</g>
			<g id="g3149" transform="translate(56.4821,741.8857)">
				<path id="path3151" inkscape:connector-curvature="0" fill="#28A4CA" d="M-13.755,9.037l-0.226,0.054l-0.028,0.138
					c-0.017-0.019-0.033-0.041-0.045-0.067c-0.023-0.09-0.043-0.173-0.132-0.369c-0.098-0.218-0.387-0.448-0.093-0.535
					c0.094-0.023,0.152,0.014,0.19,0.049c0.177,0.16,0.339,0.523,0.41,0.742c0.013,0.04,0.021,0.081,0.027,0.124L-13.755,9.037z"/>
			</g>
			<g id="g3153" transform="translate(62.3141,741.1508)">
				<path id="path3155" inkscape:connector-curvature="0" fill="#28A4CA" d="M-17.283,9.482l-0.268,0.142
					c0.081-0.469,0.25-0.801,0.345-0.921c0.038-0.043,0.088-0.071,0.145-0.081c0.038-0.002,0.065,0.003,0.098,0.02
					c0,0,0.072,0.033,0.089,0.081c0.055,0.152-0.2,0.404-0.265,0.976L-17.283,9.482z"/>
			</g>
			<g id="g3157" transform="translate(59.6079,738.833)">
				<path id="path3159" inkscape:connector-curvature="0" fill="#28A4CA" d="M-15.646,10.884c0.281-0.071,0.532,0.146,0.537,0.22
					c0.004,0.058-0.142,0.292-0.196,0.343c-0.033,0.032-0.15,0.113-0.305,0.06c-0.086-0.029-0.253-0.2-0.25-0.358
					C-15.858,11.019-15.646,10.884-15.646,10.884"/>
			</g>
			<g id="g3161" transform="translate(54.7429,756.676)">
				<path id="path3163" inkscape:connector-curvature="0" fill="#9C112B" d="M-12.703,0.09c0.798,0.239,1.13,0.87,1.88,1.391
					c-0.124-0.017-0.278-0.087-0.382-0.146c-0.633-0.363-0.832-0.52-1.127-0.723c-0.297-0.205-0.679-0.448-0.956-0.545
					C-13.288,0.068-13.09-0.041-12.703,0.09 M-9.097,3.349c-0.243,0.034-0.366,0.03-0.565-0.057
					c-0.023,0.081-0.057,0.136-0.092,0.173c-0.219,0.217-0.614,0.242-0.808,0.275c-0.229,0.022-0.627,0.028-1.008-0.068
					c-1.446-0.367-2.091-1.316-2.503-2.699c-0.083-0.28-0.164-0.682-0.213-1.061c-0.179-0.411-0.519-1.476,0.179-2.508
					c0.125-0.186,0.539-0.701,0.646-0.984c0.149-0.682-0.709-0.274-1.312-0.886c0,0-0.496-0.644-1.458-0.513
					c-0.164,0.028-0.312,0.076-0.429,0.173c0.015-0.023,0.032-0.043,0.068-0.076c0.61-0.534,1.509-0.458,2.02-0.016
					c0.112,0.096,0.115,0.158,0.498,0.158c0.666,0.001,1.266,0.049,1.614,0.557c-0.271,0.353-0.393,0.477-0.498,0.695
					c0,0.11-0.034,0.253-0.12,0.438c-0.056,0.688-0.128,0.778-0.116,1.123c-0.027,0.441-0.007,0.949,0.45,1.137
					c0.459,0.189,0.582,0.13,1.364,0.537c1.444,0.749,1.48,1.668,1.331,1.783c0,0-0.336-0.589-0.764-0.96
					c-0.64-0.555-1.453-0.763-2.313-1.087c-0.864-0.326-0.968-0.657-0.968-0.657c-0.218,1.239,0.518,1.956,0.518,1.956
					c-0.074,0.025-0.444-0.418-0.609-0.673c0.184,0.806,0.388,1.296,0.592,1.698c0.054,0.099,0.176,0.285,0.285,0.425
					c0.23,0.259,0.33,0.366,0.674,0.597c0.216,0.145,0.455,0.28,0.749,0.358c0.643,0.17,1.607,0.156,1.99-0.166
					c0.104-0.088,0.151-0.229,0.151-0.229s0.185,0.107,0.316,0.147c0.186,0.056,0.406,0.001,0.544-0.055
					c0.759-0.337,0.936-1.192,1.51-1.909C-7.941,2.131-8.057,3.113-9.097,3.349 M-8.037,0.665C-7.71,0.236-6.91-0.513-6.989-1.694
					c0,0,0.102,0.299,0.089,0.689c-0.051,1.742-1.031,1.809-1.775,3.244C-8.675,2.239-8.786,1.649-8.037,0.665 M-4.712-4.805
					C-4.727-4.827-4.744-4.848-4.78-4.88C-5.39-5.415-6.288-5.338-6.8-4.896C-6.885-4.823-6.907-4.77-7.082-4.748
					c-0.061,0.141-0.094,0.293-0.094,0.451c0,0.051,0.004,0.101,0.011,0.151C-7.235-4.269-7.286-4.4-7.314-4.536
					c-0.021-0.001-0.042-0.034-0.064-0.04c-0.729-0.282-1.171-0.093-1.459,0.48c0.026,0.037,0.179,0.235,0.198,0.273
					c0.058,0.128,0.237,0.512,0.285,1.034c0.083,0.694,0.079,0.853,0.105,1.023c0.038,0.331,0.037,0.416-0.034,0.652
					c-0.062,0.195-0.113,0.262-0.23,0.483c-0.289,0.418-0.399,0.597-0.535,0.863c-0.098,0.191-0.128,0.283-0.158,0.392
					c0,0-0.264-0.644-0.809-1.048c-0.466-0.346-0.824-0.457-1.087-0.409c0.403,0.228,0.818,0.477,1.124,0.977
					c0.429,0.701,0.509,1.407,0.509,1.407s0.028,0.002,0.115-0.046c0.065-0.037,0.185-0.16,0.245-0.38
					c0.023-0.083,0.114-0.386,0.224-0.637c0.2-0.451,0.39-0.667,0.795-1.041c0.394-0.364,0.779-0.88,0.634-1.639
					C-7.54-2.631-7.737-2.906-7.956-3.278c-0.072-0.143-0.095-0.249-0.077-0.404c0.06-0.406,0.463-0.186,0.97-0.31
					C-7.099-4.039-7.131-4.088-7.16-4.138c0.188-0.057,0.384-0.149,0.56-0.327c0,0,0.497-0.644,1.459-0.513
					C-4.977-4.95-4.83-4.901-4.712-4.805"/>
			</g>
			<g id="g3165" transform="translate(66.4837,753.3589)">
				<path id="path3167" inkscape:connector-curvature="0" fill="#F4D3D7" d="M-19.805,2.097c-0.089,0.021-0.126-0.025-0.168-0.111
					c-0.009,0.065-0.025,0.132-0.051,0.218c-0.062,0.195-0.113,0.262-0.229,0.483c-0.289,0.418-0.399,0.597-0.536,0.863
					c-0.098,0.191-0.128,0.283-0.158,0.392c0,0-0.264-0.644-0.809-1.048c-0.466-0.346-0.823-0.457-1.087-0.409
					c0.501,0.478,0.755,0.954,0.848,1.488c-0.206-0.289-0.557-0.612-1.128-0.909c-0.782-0.406-0.905-0.347-1.364-0.537
					c-0.326-0.134-0.429-0.431-0.452-0.749c-0.004,0.05-0.009,0.096-0.015,0.134c-0.009,0.182-0.058,0.179-0.058,0.179
					S-25.3,2.088-25.319,1.66c-0.006-0.264,0.041-0.339,0.08-0.429c0.043-0.101,0.093-0.229,0.158-0.26
					c0.11-0.053,0.159-0.017,0.177,0.006c0.002-0.012,0.004-0.024,0.006-0.037c0.002-0.012,0.004-0.025,0.006-0.039
					c0.003-0.018,0.006-0.038,0.009-0.058c0.09-0.578,0.176-0.926,0.324-1.147c0.011-0.028,0.024-0.058,0.038-0.088
					c0.032-0.055,0.063-0.105,0.092-0.151c0.096-0.075,0.145-0.151,0.155-0.226c0.006-0.008,0.012-0.015,0.018-0.023
					c0.018-0.023,0.037-0.047,0.056-0.073c-0.002-0.002-0.004-0.005-0.005-0.007c0.015-0.013,0.029-0.027,0.045-0.04
					c0.059-0.066,0.12-0.12,0.176-0.166l-0.034-1.121l0.037-0.184l0.226-0.054l0.109,0.142l0.367-0.424l0.318,0.111
					c0,0,0.077-0.031,0.142-0.088c0.065-0.057,0.465-0.235,0.465-0.235l0.185,0.072l0.235,0.176l0.095,0.161l0.388-0.206
					l0.369,0.555l0.288-0.118l-0.02,1.269c0.036,0.039,0.071,0.077,0.104,0.115c0.11,0.127,0.239,0.262,0.335,0.406
					c0.003,0.008,0.008,0.017,0.011,0.026c0.001,0.002,0.002,0.005,0.003,0.007c0.004,0.008,0.008,0.016,0.011,0.025
					c0.002,0.005,0.004,0.01,0.006,0.015c0.003,0.008,0.007,0.015,0.01,0.023c0.003,0.007,0.006,0.015,0.009,0.023
					c0.003,0.007,0.006,0.014,0.009,0.021c0.004,0.009,0.008,0.018,0.011,0.028c0.003,0.007,0.006,0.014,0.009,0.021
					c0.004,0.01,0.008,0.022,0.012,0.033c0.003,0.007,0.006,0.014,0.008,0.021c0.004,0.012,0.009,0.024,0.013,0.038
					c0.003,0.007,0.006,0.014,0.008,0.021c0.005,0.013,0.009,0.028,0.014,0.042c0.002,0.008,0.005,0.015,0.008,0.022
					c0.005,0.015,0.009,0.03,0.014,0.045c0.003,0.008,0.005,0.016,0.008,0.024c0.005,0.016,0.009,0.032,0.014,0.049
					C-20.195-0.008-20.192,0-20.19,0.008c0.004,0.016,0.009,0.034,0.013,0.051c0.002,0.009,0.004,0.017,0.007,0.027
					c0.004,0.017,0.008,0.035,0.012,0.052c0.002,0.01,0.004,0.019,0.007,0.029c0.004,0.018,0.008,0.036,0.011,0.055
					c0.002,0.01,0.004,0.02,0.006,0.03c0.004,0.019,0.007,0.038,0.01,0.058c0.002,0.011,0.004,0.021,0.006,0.031
					c0.003,0.021,0.006,0.043,0.009,0.065c0.001,0.009,0.003,0.018,0.004,0.027c0.004,0.031,0.007,0.063,0.01,0.095
					c0.022,0.184,0.038,0.33,0.05,0.449c0.031-0.021,0.103-0.047,0.198,0.052c0.118,0.097,0.219,0.382,0.215,0.614
					C-19.636,1.846-19.686,2.069-19.805,2.097"/>
			</g>
			<g id="g3169" transform="translate(51.2257,746.9515)">
				<path id="path3171" inkscape:connector-curvature="0" fill="#28A4CA" d="M-10.575,5.973c0,0.058-0.007,0.143-0.035,0.244
					c-0.03,0.149-0.06,0.249-0.12,0.509c-0.072,0.31-0.271,0.32-0.344,0.315c-0.057-0.004-0.353-0.082-0.551-0.247
					c-0.207-0.158-0.21-0.273-0.184-0.354c0.021-0.065,0.12-0.246,0.198-0.344c0.22-0.27,0.55-0.338,0.412-0.434
					c-0.04-0.043-0.029-0.118,0.018-0.286c0.038-0.104,0.075-0.196,0.112-0.254c0.036-0.049,0.068-0.147,0.209-0.16
					c0.035-0.004,0.078-0.001,0.068-0.023c-0.018-0.041-0.029-0.095-0.027-0.139c0.002-0.058,0.081-0.237,0.117-0.326
					c0.04-0.103,0.137-0.562,0.351-0.558c0.098,0.001,0.194,0.026,0.278,0.053c0.199,0.059,0.448,0.224,0.479,0.355
					c0.045,0.186-0.075,0.263-0.136,0.35c-0.117,0.122-0.378,0.377-0.452,0.456c-0.017,0.019-0.039,0.037-0.065,0.062
					c-0.073,0.072-0.036,0.093-0.003,0.14c0.04,0.081-0.076,0.311-0.105,0.356c-0.048,0.073-0.128,0.159-0.2,0.16
					C-10.707,5.872-10.576,5.884-10.575,5.973"/>
			</g>
			<g id="g3173" transform="translate(50.966,744.6999)">
				<path id="path3175" inkscape:connector-curvature="0" fill="#2F1E18" d="M-10.418,7.335c0.2,0.082,0.194,0.085,0.267,0.143
					c0.023,0.019,0.081-0.012,0.028-0.103c-0.023-0.037-0.058-0.019-0.051-0.101c0.01-0.105,0.233-0.265,0.083-0.295
					c-0.136-0.027-0.215,0.225-0.225,0.262c-0.011,0.036-0.072-0.003-0.102,0C-10.482,7.247-10.535,7.287-10.418,7.335"/>
			</g>
			<g id="g3177" transform="translate(49.8763,747.3212)">
				<path id="path3179" inkscape:connector-curvature="0" fill="#2F1E18" d="M-9.759,5.749c0.019-0.143,0.131-0.305,0.224-0.215
					c0.059,0.057-0.054,0.072-0.133,0.403C-9.719,6.152-9.774,5.86-9.759,5.749"/>
			</g>
			<g id="g3181" transform="translate(50.6946,746.4978)">
				<path id="path3183" inkscape:connector-curvature="0" fill="#FFFFFF" d="M-10.254,6.247c-0.091-0.009-0.201-0.017-0.249-0.078
					c-0.047-0.061-0.054-0.077-0.021-0.136c0.033-0.059,0.049-0.01,0.102,0.038s0.117,0.075,0.161,0.081
					c0.048,0.007,0.107,0.032,0.124,0.085C-10.124,6.278-10.168,6.256-10.254,6.247"/>
			</g>
			<g id="g3185" transform="translate(69.1681,744.6941)">
				<path id="path3187" inkscape:connector-curvature="0" fill="#28A4CA" d="M-21.429,7.339c0.077,0,0.183,0.112,0.232,0.185
					c0.03,0.045,0.163,0.276,0.086,0.35c-0.042,0.042-0.053,0.055,0.011,0.116c0.027,0.025,0.049,0.043,0.067,0.062
					c0.077,0.079,0.41,0.44,0.489,0.525c0.042,0.057,0.179,0.165,0.12,0.318c-0.045,0.104-0.371,0.277-0.544,0.343
					c-0.096,0.04-0.204,0.075-0.279,0.081c-0.169,0.02-0.306-0.476-0.345-0.577c-0.034-0.087-0.08-0.29-0.079-0.347
					c0-0.043,0.014-0.095,0.035-0.135c0.013-0.022-0.034-0.02-0.072-0.024c-0.153-0.014-0.228-0.115-0.257-0.151
					c-0.037-0.034-0.086-0.13-0.121-0.233c-0.042-0.165-0.029-0.232,0.016-0.274c0.155-0.093-0.175-0.133-0.409-0.444
					c-0.085-0.096-0.202-0.269-0.221-0.333c-0.025-0.08-0.045-0.171,0.207-0.342c0.189-0.149,0.55-0.232,0.613-0.236
					c0.08-0.005,0.248-0.049,0.311,0.256c0.052,0.255,0.07,0.332,0.094,0.446c0.024,0.137,0.038,0.246,0.025,0.287
					C-21.458,7.283-21.584,7.33-21.429,7.339"/>
			</g>
			<g id="g3189" transform="translate(68.6357,744.7839)">
				<path id="path3191" inkscape:connector-curvature="0" fill="#2F1E18" d="M-21.107,7.284c-0.226,0.015-0.219,0.036-0.295,0.087
					c-0.024,0.016-0.123-0.033-0.053-0.096c0.024-0.021,0.077-0.083,0.057-0.159c-0.027-0.098-0.171-0.286-0.03-0.267
					c0.16,0.02,0.198,0.247,0.215,0.281c0.018,0.034,0.045,0.047,0.081,0.052C-21.064,7.189-20.992,7.277-21.107,7.284"/>
			</g>
			<g id="g3193" transform="translate(69.8018,747.1804)">
				<path id="path3195" inkscape:connector-curvature="0" fill="#2F1E18" d="M-21.812,5.835c-0.045-0.098-0.079-0.23-0.209-0.161
					c-0.164,0.087,0.041,0.219,0.167,0.352C-21.737,6.15-21.777,5.912-21.812,5.835"/>
			</g>
			<g id="g3197" transform="translate(69.3462,746.4271)">
				<path id="path3199" inkscape:connector-curvature="0" fill="#FFFFFF" d="M-21.537,6.29c-0.077,0.066-0.156,0.137-0.235,0.134
					c-0.08-0.003-0.11-0.015-0.126-0.081c-0.016-0.065,0.031-0.046,0.105-0.056c0.074-0.01,0.155-0.063,0.193-0.093
					c0.042-0.034,0.122-0.059,0.143-0.023C-21.435,6.207-21.464,6.228-21.537,6.29"/>
			</g>
			<g id="g3201" transform="translate(58.0908,746.6218)">
				<path id="path3203" inkscape:connector-curvature="0" fill="#FFFFFF" d="M-14.728,6.172c0,0-0.111,0.275-0.226,0.267
					c0.201,0.002,0.466-0.04,0.665-0.025c0.032,0.002,0.095,0.027,0.126,0.03c0.311,0.032,0.678-0.057,0.964,0.028
					c-0.098-0.093-0.158-0.316-0.299-0.387c-0.151-0.076-0.501-0.098-0.72-0.085C-14.438,6.014-14.574,6.091-14.728,6.172"/>
			</g>
			<g id="g3205" transform="translate(54.8265,750.348)">
				<path id="path3207" inkscape:connector-curvature="0" fill="#DC1838" d="M-12.753,3.918c0,0.034,0.022,0.058,0.062,0.058
					c0.033-0.001,0.077-0.025,0.076-0.059c0.002-0.043-0.044-0.072-0.078-0.07C-12.733,3.847-12.754,3.875-12.753,3.918"/>
			</g>
			<g id="g3209" transform="translate(55.6077,749.8232)">
				<path id="path3211" inkscape:connector-curvature="0" fill="#DC1838" d="M-13.226,4.236c0,0.035,0.034,0.072,0.071,0.071
					c0.038,0.002,0.077-0.035,0.077-0.072c0-0.031-0.041-0.058-0.079-0.058C-13.192,4.175-13.226,4.205-13.226,4.236"/>
			</g>
			<g id="g3213" transform="translate(56.2681,750.7958)">
				<path id="path3215" inkscape:connector-curvature="0" fill="#DC1838" d="M-13.625,3.648c0,0.028,0.043,0.063,0.083,0.062
					c0.026-0.001,0.068-0.034,0.067-0.064c-0.014-0.05-0.04-0.071-0.067-0.071C-13.595,3.575-13.626,3.596-13.625,3.648"/>
			</g>
			<g id="g3217" transform="translate(57.0678,750.1158)">
				<path id="path3219" inkscape:connector-curvature="0" fill="#DC1838" d="M-14.109,4.059c0.001,0.036,0.018,0.068,0.062,0.068
					c0.036,0,0.064-0.032,0.063-0.066c0-0.038-0.028-0.074-0.065-0.07C-14.092,3.991-14.109,4.025-14.109,4.059"/>
			</g>
			<g id="g3221" transform="translate(57.8469,750.9487)">
				<path id="path3223" inkscape:connector-curvature="0" fill="#DC1838" d="M-14.58,3.555c0,0.036,0.024,0.064,0.065,0.064
					c0.042-0.001,0.067-0.028,0.066-0.063c0-0.036-0.025-0.065-0.068-0.065C-14.558,3.491-14.581,3.522-14.58,3.555"/>
			</g>
			<g id="g3225" transform="translate(61.5337,750.9036)">
				<path id="path3227" inkscape:connector-curvature="0" fill="#DC1838" d="M-16.811,3.582c0.006,0.038,0.026,0.06,0.068,0.052
					c0.036-0.008,0.058-0.037,0.056-0.077c-0.007-0.034-0.04-0.047-0.079-0.04C-16.804,3.525-16.816,3.556-16.811,3.582"/>
			</g>
			<g id="g3229" transform="translate(62.5866,750.7098)">
				<path id="path3231" inkscape:connector-curvature="0" fill="#DC1838" d="M-17.448,3.7c0.006,0.03,0.032,0.057,0.061,0.051
					c0.036-0.006,0.057-0.04,0.051-0.073c-0.006-0.036-0.037-0.06-0.073-0.053C-17.44,3.631-17.454,3.664-17.448,3.7"/>
			</g>
			<g id="g3233" transform="translate(63.986,750.8392)">
				<path id="path3235" inkscape:connector-curvature="0" fill="#DC1838" d="M-18.294,3.621c0.008,0.037,0.037,0.056,0.087,0.046
					c0.039-0.007,0.055-0.034,0.048-0.072c-0.008-0.04-0.032-0.072-0.073-0.064C-18.283,3.54-18.302,3.581-18.294,3.621"/>
			</g>
			<g id="g3237" transform="translate(63.1734,750.0775)">
				<path id="path3239" inkscape:connector-curvature="0" fill="#DC1838" d="M-17.803,4.082c0.008,0.043,0.043,0.062,0.09,0.055
					c0.036-0.008,0.059-0.043,0.052-0.081c-0.007-0.035-0.041-0.062-0.075-0.055C-17.785,4.009-17.809,4.047-17.803,4.082"/>
			</g>
			<g id="g3241" transform="translate(64.2705,750.0002)">
				<path id="path3243" inkscape:connector-curvature="0" fill="#DC1838" d="M-18.466,4.129c0.008,0.041,0.043,0.059,0.084,0.051
					c0.039-0.005,0.067-0.037,0.058-0.076c-0.007-0.037-0.046-0.062-0.081-0.056C-18.448,4.055-18.474,4.091-18.466,4.129"/>
			</g>
			<g id="g3245" transform="translate(56.5828,753.0482)">
				<path id="path3247" inkscape:connector-curvature="0" fill="#FFFFFF" d="M-13.816,2.285c-0.205-0.057-0.358-0.215-0.419-0.373
					c0-0.045,0.113-0.093,0.117-0.111c0.055-0.016,0.243,0.017,0.309,0.016c0.223-0.002,0.477,0.101,0.413,0.228
					C-13.396,2.046-13.611,2.342-13.816,2.285"/>
			</g>
			<g id="g3249" transform="translate(63.9137,752.0758)">
				<path id="path3251" inkscape:connector-curvature="0" fill="#FFFFFF" d="M-18.25,2.873c0.056,0.09-0.194,0.427-0.354,0.412
					c-0.16-0.016-0.28-0.077-0.407-0.272c-0.007-0.011,0.003-0.063-0.004-0.076c0.06-0.1,0.231-0.173,0.432-0.172
					c0.064,0,0.127,0.008,0.183,0.022C-18.398,2.85-18.306,2.782-18.25,2.873"/>
			</g>
			<g id="g3253" transform="translate(59.7563,738.9479)">
				<path id="path3255" inkscape:connector-curvature="0" fill="#2F1E18" d="M-15.736,10.815c0.171-0.043,0.33,0.05,0.357,0.171
					c0.019,0.088-0.008,0.168-0.038,0.222c-0.028,0.053-0.059,0.083-0.12,0.123c-0.062,0.044-0.158,0.035-0.188,0.025l-0.027-0.012
					C-15.921,11.278-16.022,10.888-15.736,10.815 M-17.225,13.144c-0.005-0.245-0.007-0.488-0.012-0.82
					c0.026-0.044,0.061-0.095,0.108-0.16c0.081-0.113,0.198,0.268,0.339,0.188c0.151-0.085,0.143-0.352,0.305-0.478
					c0.096-0.075,0.274,0.352,0.368,0.118c0.102-0.252,0.284-0.311,0.48-0.411c0.088,0.077,0.217,0.088,0.325,0.215
					c0.101,0.119,0.162,0.241,0.236,0.264c0.115,0.036,0.183-0.249,0.308-0.203c0.203,0.075,0.168,0.449,0.356,0.5
					c0.096,0.026,0.111-0.139,0.224-0.156c0.113-0.017,0.22,0.377,0.278,0.541c0.029,0.081,0.071,0.104,0.134,0.081
					c0.089-0.034,0.094-0.153,0.103-0.36c0.013-0.29,0.146-0.567,0.307-0.761c0.161-0.193-0.249-0.086-0.41,0.333
					c-0.1,0.261-0.072,0.263-0.147,0.128c0,0-0.138-0.239-0.228-0.263c-0.114-0.031-0.223,0.137-0.223,0.137
					s-0.134-0.465-0.363-0.467c-0.215-0.001-0.288,0.229-0.338,0.14c-0.038-0.066-0.086-0.164-0.279-0.235
					c0.104-0.079,0.193-0.161,0.232-0.304v0c0.074-0.34-0.179-0.555-0.476-0.577c-0.215-0.015-0.474,0.076-0.543,0.277
					c-0.075,0.256,0.083,0.491,0.237,0.601c-0.143,0.038-0.256,0.135-0.339,0.256c0,0-0.121-0.167-0.299-0.135
					c-0.114,0.02-0.266,0.244-0.321,0.435c-0.003,0.009-0.126-0.168-0.271-0.144c-0.194,0.032-0.192,0.174-0.286,0.314
					c-0.021,0.031-0.09,0.132-0.104,0.045c-0.011-0.07-0.035-0.168-0.088-0.275c-0.099-0.198-0.384-0.418-0.51-0.335
					c0.112,0.045,0.298,0.267,0.356,0.465c0.064,0.221,0.08,0.429,0.056,0.645c-0.019,0.172,0.152,0.077,0.265-0.041l0.006,0.111
					c0.007,0.124,0.008,0.262,0.009,0.395c0,0.058-0.026,0.168-0.095,0.247c-0.07,0.084-0.179,0.26-0.24,0.349
					c0,0-0.072,0.115-0.119,0.2c-0.042,0.079-0.081,0.169-0.138,0.329c-0.047,0.132-0.096,0.33-0.124,0.577
					c-0.029,0.254-0.024,0.313-0.032,0.475c0.034-0.154,0.083-0.408,0.101-0.489c0.084-0.367,0.153-0.537,0.282-0.76
					c0.129-0.232,0.293-0.416,0.448-0.579c0.091-0.096,0.279-0.251,0.399-0.348c0.16-0.128,0.232-0.186,0.412-0.3
					c0.16-0.101,0.454-0.305,0.858-0.301c0.38,0.004,0.586,0.153,0.71,0.224c0.265,0.154,0.403,0.275,0.588,0.447
					c0.212,0.198,0.32,0.297,0.449,0.448c0.167,0.195,0.321,0.404,0.46,0.895c0.076,0.269,0.125,0.583,0.156,0.758
					c0.004-0.062,0.014-0.133-0.006-0.375c-0.018-0.176-0.036-0.337-0.075-0.497c-0.056-0.234-0.107-0.392-0.2-0.562
					c-0.096-0.176-0.122-0.191-0.283-0.433c-0.113-0.16-0.117-0.166-0.122-0.287c-0.004-0.508-0.117-1.205-0.204-0.104
					c-0.558-0.474-1.038-0.773-1.493-0.778C-16.142,12.341-16.609,12.636-17.225,13.144 M-14.519,16.538
					c-0.094-0.03-0.24-0.163-0.291-0.24c-0.064-0.096-0.104-0.267-0.185-0.27c-0.032,0.011-0.001,0.082-0.049,0.077
					c-0.062-0.014-0.099-0.068-0.083-0.131c0.012-0.032,0.04-0.056,0.083-0.061c0.146-0.019,0.168,0.116,0.224,0.193
					c0.047,0.064,0.144,0.164,0.196,0.193c0.048,0.028,0.118,0.049,0.178,0.002c0.035-0.03,0-0.096-0.026-0.109
					c-0.067-0.006-0.13,0.019-0.162,0.012c-0.032-0.007-0.079-0.093-0.087-0.2c0.07-0.028,0.087,0.025,0.156,0.026
					c0.111,0.002,0.221-0.072,0.278-0.015c0.057,0.057,0.056,0.16,0.055,0.205c0.095-0.004,0.138-0.138,0.098-0.207
					c-0.032-0.036-0.108-0.029-0.108-0.097c0.324-0.065,0.354,0.07,0.379,0.143c0.018,0.059,0.011,0.107-0.016,0.188
					C-13.973,16.485-14.261,16.622-14.519,16.538 M-17.513,15.924c0.057-0.03,0.179-0.089,0.275-0.061
					c0.011,0.037-0.02,0.055-0.041,0.055c-0.061,0.002-0.104,0.056-0.102,0.082c0.007,0.083,0.092,0.216,0.193,0.269
					c0.092,0.065,0.162,0.03,0.189-0.021c-0.002-0.04-0.016-0.07-0.05-0.077c-0.053-0.012-0.09,0.034-0.13,0.017
					c-0.074-0.077-0.045-0.171-0.019-0.203s0.058-0.044,0.069-0.034c0.049,0.063,0.168,0.062,0.288,0.052
					c0.051,0.036,0.054,0.123,0.068,0.197c0.085,0.097,0.128-0.098,0.185-0.175c0.037-0.051,0.077-0.111,0.128-0.116
					c0.087-0.009,0.199,0.061,0.156,0.188c-0.025,0.033-0.093-0.033-0.12-0.011c-0.104,0.098-0.01,0.299-0.225,0.407
					c-0.23,0.115-0.587,0.075-0.729-0.104c-0.055-0.07-0.116-0.147-0.161-0.264C-17.562,16.046-17.582,15.965-17.513,15.924
					 M-15.318,15.052c-0.141,0.042-0.174-0.109-0.317-0.108c-0.201,0-0.243,0.129-0.35,0.118c-0.088-0.01-0.133-0.143-0.193-0.152
					c-0.048,0.009-0.038-0.071,0.023-0.087c0.121-0.03,0.094,0.071,0.174,0.043c0.047-0.018,0.057-0.099,0.192-0.161
					c0.135-0.061,0.269,0.012,0.39,0.121c0.077,0.074,0.222,0.069,0.185,0.115C-15.246,14.957-15.27,15.038-15.318,15.052
					 M-15.025,16.89c0.009-0.039,0.148,0,0.213,0.024c0.05,0.019,0.092,0.041,0.155,0.054c0.043,0.009,0.106,0.015,0.149,0.016
					c0.098,0,0.161-0.001,0.246-0.015c0.134-0.022,0.385-0.154,0.406-0.096c0.023,0.108-0.072,0.195-0.144,0.234
					c-0.178,0.096-0.45,0.146-0.693,0.047c-0.081-0.039-0.109-0.072-0.186-0.124C-14.933,16.996-15.031,16.938-15.025,16.89
					 M-15.986,14.057c0.031,0.001,0.153,0.013,0.185,0.016c0.311,0.029,0.595-0.051,0.882,0.031
					c-0.099-0.092-0.179-0.235-0.321-0.304c-0.152-0.074-0.429-0.075-0.647-0.059c-0.22,0.015-0.401,0.135-0.555,0.218
					c-0.041-0.124,0.025-0.172,0.121-0.257c0.108-0.097,0.277-0.229,0.531-0.235c0.369-0.009,0.659,0.026,0.844,0.331
					c0.056,0.1,0.209,0.305,0.368,0.381c0.089,0.042,0.292,0.137,0.259,0.19c-0.06,0.077-0.181,0.064-0.267,0.044
					c-0.066-0.013-0.085-0.134-0.195-0.142c-0.259-0.034-0.511,0.057-0.83,0.047c-0.23-0.007-0.411-0.06-0.657-0.079
					c-0.237-0.019-0.319,0.106-0.542,0.134c-0.101,0.013-0.12-0.045-0.043-0.142c0.072-0.074,0.197-0.144,0.296-0.143
					C-16.356,14.086-16.186,14.044-15.986,14.057 M-16.627,16.937c-0.055,0.014-0.088,0.036-0.158,0.044
					c-0.044,0.005-0.107,0.009-0.15,0.007c-0.097-0.006-0.146-0.005-0.245-0.03c-0.131-0.034-0.375-0.177-0.399-0.121
					c-0.021,0.076,0.019,0.144,0.068,0.194c0.174,0.056,0.318,0.089,0.54,0.177c0.071-0.002,0.142-0.013,0.21-0.038
					c0.072-0.03,0.127-0.07,0.194-0.112c0.054-0.034,0.16-0.086,0.153-0.133C-16.427,16.886-16.56,16.919-16.627,16.937"/>
			</g>
		</g>
	</g>
</g>
</svg>
