<?xml version="1.0" encoding="utf-8"?>
<!-- Generator: Adobe Illustrator 17.0.0, SVG Export Plug-In . SVG Version: 6.00 Build 0)  -->
<!DOCTYPE svg PUBLIC "-//W3C//DTD SVG 1.1//EN" "http://www.w3.org/Graphics/SVG/1.1/DTD/svg11.dtd">
<svg version="1.1" id="Layer_1" xmlns="http://www.w3.org/2000/svg" xmlns:xlink="http://www.w3.org/1999/xlink" x="0px" y="0px"
	 width="500px" height="500px" viewBox="0 0 500 500" enable-background="new 0 0 500 500" xml:space="preserve">
<sodipodi:namedview  id="base" inkscape:pageopacity="0.0" inkscape:window-width="1920" inkscape:pageshadow="2" inkscape:window-height="1028" fit-margin-top="0.5" fit-margin-left="0.5" inkscape:cx="1622.876" borderopacity="1.0" inkscape:cy="161.32133" inkscape:zoom="0.35" pagecolor="#ffffff" bordercolor="#666666" showgrid="false" inkscape:window-maximized="1" inkscape:window-x="-8" inkscape:window-y="-8" inkscape:current-layer="g5644" fit-margin-bottom="0.5" inkscape:document-units="px" fit-margin-right="0.5">
	</sodipodi:namedview>
<g>
	<path fill="#FFFFFF" d="M8.99,265.904c1.301-0.977,2.71-1.737,9.323-3.365s28.836-10.203,34.69-11.94
		c7.155-2.062,18.212-4.125,20.922-4.233c0,0,2.06-0.217,3.686-0.109s3.794,0.217,4.553-0.109c0.759-0.326,2.71-1.303,3.361-2.605
		c0.65-1.303,0.976-2.822,0.867-3.582c-0.108-0.76-1.192-4.559-1.409-6.078c-0.217-1.52-0.65-5.536,0-7.815
		c0.65-2.279,0.434-2.279,1.084-3.365c0.65-1.085,1.735-2.279,2.06-2.931c0.325-0.651,0.976-1.954,1.084-2.931
		c0.108-0.977,0-2.171-0.434-3.039c-0.325-0.868-3.361-7.489-3.577-12.374s-0.542-4.776-0.217-6.947s0.65-7.164,1.518-10.637
		c0.867-3.473,1.951-6.078,2.927-7.381c0.976-1.194,3.035-3.256,4.445-3.799c1.409-0.543,4.878-1.085,6.396-2.931
		s1.626-3.582,1.843-5.97c0.108-2.388,1.192-4.884,1.951-6.947c0.759-2.171,2.927-6.513,4.878-9.118
		c1.951-2.605,4.987-6.513,8.564-8.901c3.577-2.388,5.962-3.256,7.48-3.473c1.518-0.217,3.469,0.109,4.011,0.109
		c0.65,0.109,1.518,0.434,3.252-0.217c1.734-0.651,2.493-1.303,4.553-4.342s4.661-5.861,6.938-7.381
		c2.277-1.628,8.239-5.427,14.96-7.055c6.721-1.628,10.515-2.062,12.033-1.954c1.518,0.109,4.77,0.76,5.962,1.845
		s3.252,2.714,4.445,2.931c1.192,0.217,2.277,0.217,3.577-0.217c1.301-0.434,5.095-1.737,7.372-1.954
		c2.277-0.326,7.48-0.977,13.659,0c6.179,0.977,10.515,2.496,12.575,3.908c2.06,1.411,4.445,3.256,5.529,5.644
		s1.409,3.799,2.493,4.776c1.084,0.977,3.361,1.194,4.987,1.411c1.626,0.109,7.48,1.628,11.057,3.148
		c3.577,1.52,8.022,3.908,11.816,7.272c3.794,3.365,6.938,7.924,7.588,10.42c0.65,2.496,0.976,3.473,0.867,4.559
		c-0.108,1.085-0.976,4.559-0.65,5.861c0.325,1.303,0.976,2.388,1.734,3.039c0.759,0.651,4.119,3.148,5.42,4.559
		c1.301,1.303,3.144,3.69,4.011,5.536s1.192,3.039,1.409,3.799c0.108,0.76,0.217,2.605,0.217,2.605s4.228-0.868,10.082-0.326
		c5.854,0.543,10.949,1.628,14.852,2.822c3.903,1.194,13.117,4.667,17.128,6.621c4.011,1.954,9.323,4.559,9.323,4.559
		s12.9-5.427,15.827-6.513c2.927-1.085,12.358-4.45,16.695-5.319c4.336-0.977,8.022-1.52,10.407-1.628
		c2.385,0,7.805,0.543,10.407,1.194c2.602,0.543,10.732,3.148,14.96,5.102c4.228,1.954,10.949,4.993,14.96,7.272
		c3.903,2.171,10.732,6.295,13.876,8.683c3.144,2.388,10.949,8.249,12.684,9.986c1.735,1.628,8.022,8.032,9.757,10.637
		c1.734,2.605,3.903,6.621,4.553,7.815c0.542,1.194,1.518,4.884,3.903,5.536c2.385,0.651,2.927,0.651,3.794,0.543
		c0.867-0.109,8.239-1.52,13.659,0c5.42,1.52,10.624,3.799,14.093,7.707c3.469,3.908,6.504,7.489,8.239,15.196
		c1.734,7.815,1.409,14.219,0.434,20.623c-1.084,6.296-3.469,13.025-6.288,17.693c-2.71,4.776-7.046,11.288-12.792,16.064
		c-5.854,4.776-10.841,7.381-14.635,8.901c-3.794,1.52-8.347,2.931-13.551,3.148c-5.203,0.217-9.431,0-13.226-1.303
		c-3.794-1.303-5.746-2.062-7.046-2.931c-1.301-0.868-2.493-1.737-3.144-1.954c-0.65-0.217-1.951-0.326-2.819-0.109
		c-0.867,0.217-1.626,0.76-2.168,1.303c-0.542,0.543-2.277,2.931-4.878,5.319c-2.602,2.279-8.347,6.838-14.96,8.683
		c-6.613,1.845-11.166,2.496-16.261,2.388c-5.095-0.109-9.431-1.303-11.274-2.062c-1.843-0.76-4.445-1.954-5.095-2.279
		c-0.65-0.326-2.168-0.434-3.035-0.109c-0.976,0.326-2.168,0.977-2.602,1.845c-0.434,0.868-1.518,5.644-4.553,7.489
		c-3.035,1.845-5.204,3.148-9.648,3.256s-7.046,0.326-11.166-0.651c-4.119-0.868-7.697-2.496-8.781-2.931
		c-1.084-0.434-2.819,0-3.144,0.109c-0.434,0.109-1.735,0.977-1.951,1.411c-0.325,0.543-2.277,5.319-5.095,7.055
		c-2.927,1.737-6.938,2.496-10.515,2.171s-7.372-1.194-9.323-1.845s-5.42-1.628-7.588-0.434c-2.277,1.194-3.144,3.365-3.361,6.078
		c-0.217,2.822-0.325,6.513-2.493,8.792c-2.06,2.171-6.396,3.473-12.9,2.822c-6.504-0.651-12.684-2.496-14.96-3.799
		c-2.385-1.303-7.046-3.148-9.973-8.141c-2.819-4.993-2.927-7.381-3.035-9.335c-0.108-1.954-0.217-4.559,0-6.947
		c0.217-2.279-0.325-3.365-1.192-4.016c-0.867-0.651-3.469-1.954-9.106-0.868c-5.637,0.977-13.768,3.473-17.237,4.342
		c-3.469,0.977-14.201,3.039-18.646,3.799c-4.445,0.76-9.431,1.628-13.442,0.868c-3.903-0.76-6.179-1.411-7.046-1.52
		c-0.976,0-2.277,0.217-2.819,0.651c-0.542,0.434-2.493,2.062-3.577,2.605c-1.192,0.543-6.071,2.279-9.865,2.822
		c-3.794,0.543-7.046,1.737-8.998,2.279c-1.951,0.543-9.865,2.388-12.25,2.931c-2.385,0.543-14.852,3.256-18.212,3.365
		c-3.252,0-8.781,0-13.009-1.737c-4.228-1.737-7.48-3.69-8.998-5.753c-1.626-2.062-2.819-3.799-3.469-4.45
		c-0.217-1.303-2.385-2.171-3.469-2.279c-1.084-0.109-3.144,0.543-3.903,1.194c-0.759,0.651-7.588,7.164-11.708,10.312
		c-4.119,3.039-10.407,7.707-16.153,9.877c-5.746,2.171-12.684,4.884-20.814,5.536c-8.239,0.651-15.827,0.434-21.031-1.194
		c-5.312-1.628-9.865-4.125-12.575-9.009c-2.819-4.884-3.035-11.18-2.602-15.739C2.486,343.079,5.088,337,6.605,331.79
		c1.518-5.102,4.228-13.459,5.529-17.15s5.42-14.762,5.854-15.956c0.434-1.194,0.434-2.388,0.217-3.473
		c-0.325-1.085-1.301-2.714-2.277-3.365c-0.976-0.651-5.962-3.69-7.697-6.078c-1.735-2.388-3.686-5.102-4.011-8.032
		c-0.325-2.931,0.325-4.993,0.867-6.404c0.434-1.303,0.976-2.171,1.518-2.931C7.147,267.424,8.34,266.339,8.99,265.904"/>
	<path fill="#EB1B2E" d="M106.122,275.673c-2.927-15.196-13.768-23.88-36.099-20.515c-12.033,1.845-29.378,8.358-41.737,13.025
		c-6.504,2.496-12.575,1.52-13.659,4.884c-1.192,4.016,10.949,12.374,18.538,10.203c-3.361,10.529-10.515,30.066-15.936,46.999
		c-3.469,10.854-8.889,23.771-0.867,29.958c7.046,5.319,24.283,2.714,35.341-1.411C79.78,348.18,112.41,308.128,106.122,275.673
		 M39.127,341.451c3.577-13.134,13.226-41.572,15.502-50.147c1.301-4.776,1.084-8.575-2.06-11.614
		c5.312-2.171,10.949-4.667,16.369-5.427c8.13-1.194,11.057,1.411,12.033,6.621c2.385,12.482-10.732,40.595-30.787,54.706
		C46.716,337.977,43.03,340.039,39.127,341.451"/>
	<path fill="#EB1B2E" d="M189.704,337.217c11.274-1.52,21.464-4.125,29.703-6.513c11.925-3.473,14.418-0.76,15.502-4.559
		c0.65-2.496-2.602-10.203-5.095-13.894c-3.035-4.776-7.48-5.427-13.659-4.016c-7.588,1.737-13.117,3.365-18.321,4.667
		c2.927-8.466,8.347-25.291,10.949-33.54c1.951-6.078,2.493-12.917-2.493-15.196c-4.011-1.845-13.876-0.217-17.67,1.52
		c-8.673,4.016-2.168,7.815-3.794,12.7c-4.011,12.7-10.19,30.392-12.575,43.2C168.89,339.171,189.704,337.217,189.704,337.217"/>
	<path fill="#EB1B2E" d="M167.589,310.516c1.301-2.062-1.951-6.513-4.445-8.683c-3.144-2.931-7.697-3.039-13.768-1.52
		c-4.77,1.085-9.648,1.737-13.226,2.714c0.976-2.714,1.734-7.164,1.843-8.792c7.914-1.737,15.502-3.148,21.898-4.342
		c7.805-1.52,13.984-2.062,15.611-4.016c1.626-2.062-1.951-8.466-4.987-11.288c-3.686-3.365-6.938-4.125-13.984-2.822
		c-14.526,2.714-34.473,6.187-38.051,8.249c-6.179,3.69-0.976,7.598-2.168,11.614c-3.469,11.94-9.865,28.547-12.684,43.96
		c-1.409,6.947,1.192,10.637,5.42,12.808c0.542,0.217,0.976,0.434,1.518,0.651c3.144,1.194,7.046,1.628,10.841,1.085
		c12.358-1.737,23.416-4.884,31.98-7.164c5.746-1.52,10.407-1.52,12.467-3.69c2.06-2.171-2.385-8.901-4.878-11.94
		c-3.144-4.016-7.588-4.45-13.659-3.039c-8.022,1.845-14.31,3.69-19.73,5.102c1.734-3.799,2.385-6.513,3.361-9.443
		c9.865-2.388,18.212-4.45,25.15-5.97C162.602,312.469,166.288,312.687,167.589,310.516"/>
	<path fill="#EB1B2E" d="M297.46,276.976c1.518-4.559,0.976-7.055-1.518-8.683c8.239-2.062,21.681-4.233,32.63-5.427
		c8.456-0.977,14.418,0.326,14.635-2.822c0.325-4.559-25.367-18.669-40.978-16.064c-13.334,2.171-32.197,5.21-51.927,9.118
		c-7.263,1.411-13.984,2.171-16.803,5.427c-3.686,4.233,5.962,10.854,9.648,14.002c3.686,3.256,8.456,3.799,14.31,2.931
		c2.602-0.434,13.768-2.496,17.562-3.473c-7.48,18.887-19.513,58.179-22.115,71.096c-1.301,7.164,1.084,11.723,5.204,14.219
		c4.228,2.605,11.925,6.296,15.502,5.753c3.577-0.543,0.65-3.365,2.385-11.614C279.79,333.418,289.98,299.553,297.46,276.976"/>
	<path fill="#EB1B2E" d="M403.265,286.528c3.144,1.411,9.215,2.931,12.684,1.52c3.469-1.411,5.312-12.917,4.336-18.235
		c-1.301-6.513-9.106-10.746-18.538-9.335c-24.175,3.69-42.821,33.974-38.918,54.163c2.493,12.808,14.743,17.15,26.776,15.305
		c15.611-2.388,27.644-13.459,25.15-28.981c-0.867-5.319-8.998,7.055-16.478,8.792c-6.396,1.411-10.949-1.303-12.033-7.272
		c-1.626-9.118,6.504-24.965,15.177-29.415c-0.108,1.411-0.434,3.256-0.976,5.102C399.254,282.62,399.796,285.117,403.265,286.528"
		/>
	<path fill="#EB1B2E" d="M484.461,266.447c-2.493-13.025-12.575-18.127-23.741-16.499c-21.898,3.365-41.303,30.284-36.967,52.752
		c2.602,13.134,12.9,18.127,25.476,16.173C472.32,315.4,488.906,289.675,484.461,266.447 M452.048,300.313
		c-2.819,0.434-5.529-1.52-6.396-5.97c-2.385-12.265,6.938-28.981,13.659-29.958c2.277-0.326,3.903,1.628,4.553,4.776
		C466.249,281.535,458.444,299.227,452.048,300.313"/>
	<path fill="#EB1B2E" d="M359.577,290.001c1.951-7.598,0.65-11.071-3.035-13.785c-6.938-4.993-20.922-3.69-27.86-2.605
		c-22.007,3.365-41.303,44.72-37.292,63.172c0,0,0.542,4.016,4.878,6.078c4.445,2.062,10.624,3.473,13.768,2.714
		c3.577-0.868,0.217-3.799-0.108-7.707c-0.434-6.513,0.867-14.545,2.385-19.212c7.372-1.845,13.659-2.714,18.321-3.256
		c-1.192,4.45-2.277,9.986-2.385,11.723c-0.325,5.644,1.301,8.358,5.529,10.095c4.553,1.954,12.142,1.954,15.068,0.977
		c4.119-1.303,0-3.582,0.542-9.009C350.687,317.245,357.409,298.902,359.577,290.001 M329.223,304.437
		c-4.878,0.977-9.215,2.062-12.684,2.931c4.445-8.575,10.949-18.018,16.369-18.887c1.951-0.326,4.119,0.217,4.987,2.062
		c0,0-1.951,6.078-4.119,13.134C332.475,303.895,330.957,304.112,329.223,304.437"/>
	<path fill="#B2BB21" d="M441.966,240.722c-3.252-12.157-21.681-25.182-28.077-29.307c-13.009-8.358-31.329-17.475-43.688-17.693
		h-0.542l0,0c-8.564,0-27.427,7.707-43.796,14.545c-14.635-8.141-31.438-15.087-43.579-15.305c-0.217,0-0.434,0-0.65,0l0,0
		c-28.403,0-110.9,34.951-167.705,70.01c-1.409,0.868-1.951,2.714-1.301,4.233c0.542,1.194,1.735,1.954,3.035,1.954
		c0.325,0,0.65,0,0.976-0.109c107.106-30.609,173.45-40.27,188.736-40.27c0.217,0,0.325,0,0.434,0
		c21.356,0.434,46.398,16.499,59.949,25.833c0.867,0.651,1.735,1.194,2.493,1.628c0.542,0.434,1.192,0.543,1.843,0.543
		s1.409-0.217,1.951-0.651c1.084-0.76,1.626-2.279,1.301-3.582c-2.493-9.443-12.358-19.321-21.356-26.81
		c22.115-4.884,30.354-5.102,36.316-5.102c0.108,0,0.217,0,0.325,0c16.803,0.326,36.533,14.219,47.157,21.492
		c0.65,0.434,1.301,0.868,1.951,1.303c0.434,0.326,0.976,0.434,1.518,0.434s1.084-0.217,1.518-0.434
		C441.857,242.893,442.291,241.808,441.966,240.722"/>
	<path fill="#F3971E" d="M260.927,177.442c-4.878-4.233-10.841-6.295-18.754-6.621c-3.686-0.109-7.263,0.109-10.624,0.326
		c-0.108-3.582,1.409-6.187,2.819-7.707c2.602-2.931,6.613-4.559,10.732-4.342c1.518,0.109,2.927,0.326,4.336,0.868
		c0.217,0.109,0.434,0.109,0.65,0.109l0,0c1.301,0.109,2.385-0.977,2.385-2.279c0-0.543-0.108-1.085-0.434-1.52
		c-3.252-6.078-10.841-11.071-19.838-13.134c-1.409-0.326-2.71-0.543-4.119-0.543c-8.564-0.326-15.285,4.233-21.248,8.358
		c-0.976,0.651-1.951,1.303-2.819,1.954c-1.843-3.148-2.385-6.838-1.192-10.095c1.301-4.016,4.336-5.536,7.697-7.164
		c1.084-0.543,2.168-1.085,3.144-1.737c0.759-0.434,1.192-1.303,1.084-2.171c-0.108-0.868-0.65-1.628-1.409-1.954
		c-4.228-1.737-8.673-2.822-13.117-2.931c-6.396-0.326-12.358,1.194-16.911,4.342c-5.312,3.582-8.239,9.009-11.708,15.413
		c-0.542,1.085-1.192,2.171-1.843,3.256c-2.927-1.954-3.903-4.776-4.228-6.947c-0.65-4.993,1.843-10.637,6.071-13.894
		c0.867-0.651,1.192-1.737,0.759-2.714c-0.434-0.977-1.409-1.628-2.385-1.52c-14.418,1.411-23.524,6.947-27.752,16.933
		c-3.144,7.272-2.602,13.025-2.06,18.018c0.217,2.171,0.434,4.233,0.325,6.296c-4.011,0.434-7.588-1.411-9.973-4.776
		c-2.493-3.582-3.035-8.466-1.626-12.7c0.325-0.868,0-1.954-0.65-2.496c-0.759-0.651-1.734-0.76-2.602-0.326
		c-4.336,2.279-8.456,6.73-11.057,12.265c-4.878,10.095-2.927,17.475,0,23.88c1.409,3.148,3.144,5.753,4.878,8.358
		c0.759,1.085,1.409,2.171,2.06,3.256c-2.06,1.085-4.553,1.628-6.938,1.52c-2.06-0.109-5.095-0.651-7.588-3.148
		c-1.192-1.194-1.843-2.714-2.493-4.342c-0.867-2.062-1.735-4.125-3.686-5.427c-0.65-0.434-1.409-0.543-2.06-0.326
		c-0.65,0.217-1.192,0.76-1.518,1.52c-5.637,18.127,0,32.563,15.394,39.51c0.976,0.434,2.06,0.76,3.035,1.085
		c1.518,0.434,2.927,0.868,4.119,1.737c-2.06,4.016-6.179,6.404-10.841,6.187c-3.794-0.217-7.48-1.954-10.19-4.993
		c-0.65-0.76-1.735-0.977-2.71-0.543c-0.976,0.434-1.518,1.303-1.409,2.388c0.65,8.358,4.011,15.522,9.323,20.623
		c1.192,1.085,2.277,1.52,3.577,1.52c1.301,0,4.77-0.977,7.046-2.279c6.613-3.799,13.659-7.598,21.031-11.506
		c-3.252-7.164-4.878-15.087-4.661-23.445c0.976-29.198,25.367-52.101,54.528-51.124c20.814,0.651,38.376,13.351,46.398,31.043
		c1.084-0.434,2.277-0.76,3.361-1.085c1.518-0.543,3.035-0.977,4.553-1.411c6.288-1.954,12.142-3.473,17.345-4.45
		c3.469-0.651,6.396-1.085,7.263-2.605C265.48,182.109,263.312,179.395,260.927,177.442"/>
	<path fill="#FBD212" d="M185.801,162.354c-29.161-0.977-53.553,21.926-54.528,51.124c-0.325,8.358,1.409,16.281,4.661,23.445
		c0.759-0.434,1.409-0.76,2.168-1.194c1.409-0.76,2.819-1.52,4.119-2.171c29.812-15.63,63.093-30.935,89.977-40.161
		C224.177,175.596,206.507,163.005,185.801,162.354"/>
	<path fill="#EB1B2E" d="M497.036,243.327c-0.976,0.977-2.168,1.411-3.577,1.411s-2.602-0.434-3.577-1.411s-1.409-2.171-1.409-3.582
		c0-1.52,0.542-2.714,1.626-3.69c0.976-0.868,2.168-1.411,3.469-1.411c1.409,0,2.602,0.543,3.577,1.52s1.518,2.171,1.518,3.582
		C498.554,241.157,498.12,242.351,497.036,243.327 M490.532,236.815c-0.759,0.868-1.192,1.845-1.192,2.931
		c0,1.194,0.434,2.171,1.192,2.931c0.867,0.868,1.843,1.194,2.927,1.194c1.193,0,2.168-0.434,2.927-1.194
		c0.867-0.868,1.192-1.845,1.192-2.931c0-1.085-0.434-2.062-1.192-2.931c-0.867-0.868-1.843-1.303-2.927-1.303
		S491.399,235.946,490.532,236.815 M491.291,242.568v-5.644h1.518c0.65,0,1.084,0,1.192,0c0.434,0,0.759,0.109,1.084,0.326
		c0.542,0.326,0.759,0.76,0.759,1.303c0,0.434-0.108,0.76-0.434,0.977c-0.217,0.217-0.542,0.326-0.976,0.326
		c0.325,0.109,0.65,0.217,0.759,0.326c0.325,0.326,0.542,0.651,0.542,1.303v0.543c0,0.109,0,0.109,0,0.109s0,0.109,0,0.217
		l0.108,0.217h-1.409c0-0.217-0.108-0.434-0.108-0.76c0-0.326,0-0.543-0.108-0.651c-0.108-0.217-0.217-0.326-0.434-0.434
		c-0.108,0-0.325-0.109-0.542-0.109h-0.325h-0.325v1.954L491.291,242.568L491.291,242.568z M494.001,238.009
		c-0.217-0.109-0.434-0.109-0.867-0.109h-0.325v1.628h0.542c0.325,0,0.65-0.109,0.759-0.217c0.217-0.109,0.325-0.326,0.325-0.651
		C494.435,238.334,494.326,238.117,494.001,238.009"/>
</g>
</svg>
