<?xml version="1.0" encoding="utf-8"?>
<!-- Generator: Adobe Illustrator 17.0.0, SVG Export Plug-In . SVG Version: 6.00 Build 0)  -->
<!DOCTYPE svg PUBLIC "-//W3C//DTD SVG 1.1//EN" "http://www.w3.org/Graphics/SVG/1.1/DTD/svg11.dtd">
<svg version="1.1" id="Layer_1" xmlns="http://www.w3.org/2000/svg" xmlns:xlink="http://www.w3.org/1999/xlink" x="0px" y="0px"
	 width="500px" height="500px" viewBox="0 0 500 500" enable-background="new 0 0 500 500" xml:space="preserve">
<sodipodi:namedview  id="base" inkscape:pageopacity="0.0" inkscape:window-width="1920" inkscape:pageshadow="2" inkscape:window-height="1028" fit-margin-top="0.5" fit-margin-left="0.5" inkscape:cx="1622.876" borderopacity="1.0" inkscape:cy="161.32133" inkscape:zoom="0.35" pagecolor="#ffffff" bordercolor="#666666" showgrid="false" inkscape:window-maximized="1" inkscape:window-x="-8" inkscape:window-y="-8" inkscape:current-layer="g5644" fit-margin-bottom="0.5" inkscape:document-units="px" fit-margin-right="0.5">
	</sodipodi:namedview>
<path fill="#FFFFFF" d="M491.723,201.258c-8.541-10.357-23.613-16.297-41.34-16.297c-18.757,0-35.642,6.378-47.336,16.73
	l1.907-11.951l-5.07-1.508c-7.178-2.139-15.147-3.271-23.049-3.271c-13.58,0-26.565,4.199-37.056,11.117l3.019-9.948h-81.199
	l-0.963,3.177c-7.215-2.901-15.152-4.346-24.095-4.346c-16.716,0-34.81,6.488-44.204,18.979c-0.615-0.915-1.26-1.816-1.976-2.682
	c-8.544-10.357-23.613-16.297-41.343-16.297c-18.201,0-34.66,6.001-46.304,15.821l4.533-27.558l-5.15-1.49
	c-8.795-2.543-18.57-3.888-28.269-3.888c-35.583,0-67.97,22.618-73.73,51.489c-2.452,12.283,0.412,24.18,8.057,33.505
	c6.517,7.945,16.141,13.609,27.576,16.502H0.476v45.092h179.575l0.278-0.551l0.035,0.551h21.616l2.931-4.779l-0.907,4.779h48.871
	l0.717-3.768c4.295,2.781,9.87,4.292,16.291,4.292c5.739,0,11.063-1.19,15.652-3.305l-0.527,2.781h29.159h9.619h29.742l0.118-0.612
	c3.177,0.717,6.514,1.139,9.702,1.139c1.936,0,3.931-0.174,5.915-0.524h26.124l1.939-4.116h1.741l0.532,4.116h12.05h16.144h13.021
	h9.616h29.742l4.006-21.099h-1.471l0.551-2.899h1.054l4.011-21.097h-2.23c1.818-1.645,3.142-3.757,3.599-6.161
	c0.54-2.856-0.201-5.763-2.032-7.972c-0.476-0.572-1.022-1.075-1.61-1.527c6.391-6.565,10.822-14.51,12.545-23.442
	C500.701,219.285,498.329,209.262,491.723,201.258z M445.107,291.761h-2.474l3.733-19.618c0.85-0.11,1.698-0.233,2.538-0.366
	L445.107,291.761z M387.44,227.944c-0.257,1.31-0.433,2.605-0.564,3.88c-5.437,3.637-10.531,5.356-15.981,5.356
	c-3.688,0-6.881-1.203-8.541-3.22c-0.947-1.145-1.265-2.426-0.971-3.915c0.971-5.025,7.787-9.432,14.582-9.432
	c4.252,0,8.247,1.503,12.165,4.578C387.887,226.104,387.617,227.011,387.44,227.944z M392.944,269.34l-2.653,4.372l-2.206-1.236
	c-1.452-0.816-3.011-1.444-4.618-1.99c1.177-0.281,2.276-0.596,3.233-0.944l3.094-1.123l3.041-13.331
	c0.412,0.572,0.802,1.158,1.257,1.709c4.589,5.56,11.199,9.812,19.182,12.539L392.944,269.34L392.944,269.34z M419.854,271.186
	l-1.056,5.549l-1.468-6.164C418.162,270.787,418.996,270.998,419.854,271.186z M445.708,221.197c3.311,0,5.859,0.88,7.18,2.476
	c1.211,1.471,1.169,3.345,0.909,4.664c-1.054,5.437-6.635,9.234-13.59,9.234c-3.383,0-6.057-0.893-7.341-2.45
	c-0.888-1.078-1.153-2.589-0.784-4.495C432.985,225.941,437.956,221.197,445.708,221.197z M292.79,273.392
	c-0.952-0.644-1.987-1.214-3.067-1.728h3.399L292.79,273.392z M274.095,291.755c-0.439,0.39-1.153,0.652-1.979,0.701
	C272.538,292.092,273.202,291.793,274.095,291.755z M268.781,221.705l-4.033,13.275c-0.259-3.546-1.364-6.768-3.3-9.635
	c-0.8-1.174-1.752-2.244-2.8-3.26L268.781,221.705z M152.43,228.334c-1.051,5.439-6.64,9.237-13.59,9.237
	c-3.38,0-6.057-0.893-7.341-2.45c-0.891-1.078-1.153-2.589-0.784-4.495c0.907-4.688,5.878-9.429,13.628-9.429
	c3.311,0,5.862,0.88,7.18,2.476C152.732,225.144,152.684,227.021,152.43,228.334z M199.033,271.499l-0.131,0.278l-0.027-0.302
	C198.928,271.48,198.979,271.49,199.033,271.499z M259.034,253.825l-4.709,15.516h-18.086
	C245.484,266.289,253.774,261.173,259.034,253.825z M260.997,271.664h1.008c-0.374,0.158-0.738,0.318-1.099,0.487L260.997,271.664z
	 M66.422,230.966c-5.161,0-9.632-1.695-11.962-4.533c-1.348-1.642-1.8-3.46-1.383-5.557c1.348-6.752,10.352-12.456,19.661-12.456
	c6.284,0,12.106,2.359,17.791,7.175c-1.503,2.808-2.698,5.75-3.567,8.817C80.018,228.856,73.458,230.966,66.422,230.966z
	 M172.802,262.936l5.875,2.645c3.246,1.46,6.854,2.709,10.63,3.763h-10.929l-1.171,2.345l-0.15-2.345H158.16
	C163.445,267.72,168.352,265.562,172.802,262.936z M315.994,291.761l4.263-22.42h-20.688l14.497-47.774l4.421,0.168
	c-0.816,2.182-1.503,4.404-1.949,6.696c-2.062,10.662,0.444,20.952,7.065,28.972c4.362,5.287,10.352,9.304,17.361,11.935h-18.23
	l-4.265,22.42L315.994,291.761L315.994,291.761z M85.567,267.664l3.115-1.096l2.722-11.569c0.436,0.607,0.842,1.222,1.324,1.802
	c4.586,5.56,11.197,9.812,19.177,12.539H78.911C81.406,268.872,83.7,268.319,85.567,267.664z M459.529,269.34
	c2.68-0.826,5.26-1.784,7.739-2.872c0.364,0.872,0.805,1.714,1.417,2.455c0.131,0.155,0.302,0.273,0.439,0.417H459.529z"/>
<g>
	<path fill="#155DA3" d="M171.39,275.379l1.246,19.706h0.316c0.644-2.014,1.361-4.116,2.367-6.086l6.792-13.62h11.036l1.669,19.706
		h0.316c0.575-1.928,1.222-3.944,2.105-5.824l6.632-13.882h14.978l-20.254,33.018h-12.561l-1.107-17.955h-0.473
		c-0.481,1.712-0.904,3.372-1.685,4.993l-6.458,12.962H164.06l-7.598-33.018H171.39z"/>
	<path fill="#155DA3" d="M217.795,275.379h13.874l-2.113,11.122h8.827l2.115-11.122h13.874l-6.274,33.018h-13.874l2.179-11.472
		h-8.83l-2.179,11.472h-13.874L217.795,275.379z"/>
	<path fill="#155DA3" d="M295.007,291.975c-2.014,10.598-13.05,16.946-25.132,16.946c-12.09,0-20.714-6.351-18.698-16.946
		c1.971-10.379,13.136-17.123,25.169-17.123C288.38,274.852,296.975,281.596,295.007,291.975z M265.65,292.149
		c-0.719,3.765,1.84,6.351,6.201,6.351c4.364,0,7.902-2.586,8.622-6.351c0.663-3.506-1.615-6.437-6.188-6.437
		C269.706,285.714,266.313,288.645,265.65,292.149z"/>
	<path fill="#155DA3" d="M298.163,275.379h14.401l-4.263,22.42h12.09l-2.016,10.595h-26.488L298.163,275.379z"/>
	<path fill="#155DA3" d="M354.457,296.572l0.642,0.484c2.257,1.663,5.1,3.022,8.413,3.022c1.42,0,3.771-0.484,4.054-1.971
		c0.283-1.487-1.583-1.618-2.851-1.84l-2.811-0.436c-5.469-0.834-9.667-3.594-8.691-8.758c1.495-7.838,10.889-12.218,19.508-12.218
		c4.519,0,8.501,0.923,12.012,2.891l-5.495,8.453c-2.204-1.401-4.781-2.498-7.884-2.498c-1.26,0-3.177,0.39-3.428,1.749
		c-0.235,1.225,1.516,1.401,2.581,1.621l3.145,0.612c5.875,1.142,9.777,3.854,8.715,9.459c-1.503,7.884-10.863,11.78-19.428,11.78
		c-4.99,0-10.558-1.139-14.665-3.022L354.457,296.572z"/>
	<path fill="#155DA3" d="M403.93,296.441l-0.575-5.824c-0.155-1.401-0.144-2.845-0.136-4.249h-0.527l-4.538,10.074H403.93z
		 M391.393,308.397h-15.24l20.046-33.018h15.922l7.862,33.018h-15.24l-0.529-4.116h-10.876L391.393,308.397z"/>
	<path fill="#155DA3" d="M425.056,275.379h14.401l-4.263,22.42h12.09l-2.016,10.595h-26.485L425.056,275.379z"/>
	<path fill="#155DA3" d="M454.218,275.379h26.648l-1.717,9.023h-12.143l-0.599,3.153h11.087l-1.629,8.584h-11.09l-0.612,3.238
		h12.563l-1.72,9.02h-27.066L454.218,275.379z"/>
	<g>
		<path fill="#E21937" d="M258.838,216.038l18.182-0.682l-15.256,50.272h32.623l15.251-50.272l17.773,0.682l7.242-23.87h-68.577
			L258.838,216.038z"/>
		<path fill="#E21937" d="M191.291,229.091c-4.562,23.573-29.555,37.703-56.939,37.703c-27.381,0-46.911-14.128-42.349-37.703
			C96.469,205.999,121.754,191,149.017,191C176.278,191,195.757,206.002,191.291,229.091z M124.784,229.482
			c-1.618,8.378,4.177,14.128,14.053,14.128c9.881,0,17.898-5.747,19.519-14.128c1.508-7.793-3.658-14.318-14.015-14.318
			C133.983,215.158,126.292,221.689,124.784,229.482z"/>
		<path fill="#E21937" d="M181.153,260.072c9.309,4.185,21.915,6.723,33.224,6.723c19.407,0,40.608-8.67,43.999-26.207
			c2.412-12.47-6.415-18.511-19.738-21.043l-7.119-1.364c-2.407-0.489-6.378-0.877-5.851-3.607c0.583-3.019,4.921-3.899,7.779-3.899
			c7.02,0,12.863,2.436,17.853,5.554l12.446-18.802c-7.964-4.383-16.97-6.426-27.21-6.426c-19.524,0-40.816,9.742-44.188,27.181
			c-2.225,11.496,7.303,17.634,19.682,19.487l6.359,0.971c2.883,0.492,7.113,0.781,6.472,4.092
			c-0.642,3.311-5.966,4.383-9.183,4.383c-7.501,0-13.941-3.019-19.056-6.72l-1.457-1.072L181.153,260.072z"/>
		<path fill="#E21937" d="M398.151,194.019c-6.525-1.949-13.941-3.019-21.324-3.019c-26.309,0-50.221,17.147-54.369,38.581
			c-4.054,20.947,12.801,37.217,38.399,37.217c5.83,0,18.142-0.877,23.782-2.923l6.268-27.472
			c-6.054,4.188-12.51,6.819-20.011,6.819c-9.758,0-17.008-6.236-15.441-14.318c1.546-7.991,10.75-14.32,20.511-14.32
			c7.381,0,13.267,3.41,17.738,7.408L398.151,194.019z"/>
		<path fill="#E21937" d="M450.383,191c-27.261,0-52.545,15-57.014,38.091c-4.559,23.573,14.97,37.703,42.354,37.703
			c27.378,0,52.377-14.128,56.936-37.703C497.12,206.002,477.641,191,450.383,191z M445.708,215.158
			c10.357,0,15.526,6.525,14.013,14.318c-1.618,8.378-9.638,14.128-19.519,14.128c-9.881,0-15.673-5.747-14.053-14.128
			C427.658,221.689,435.351,215.158,445.708,215.158z"/>
		<path fill="#E21937" d="M100.414,177.533c-8.143-2.356-17.385-3.65-26.592-3.65c-32.815,0-62.64,20.725-67.81,46.633
			c-5.052,25.319,15.968,44.983,47.889,44.983c7.276,0,22.634-1.059,29.66-3.53l7.817-33.211
			c-7.544,5.065-15.601,8.245-24.958,8.245c-12.176,0-21.212-7.539-19.262-17.315c1.928-9.654,13.406-17.313,25.579-17.313
			c9.205,0,16.548,4.124,22.118,8.95L100.414,177.533z"/>
		<path fill="#E21937" d="M472.584,262.056c0.489-2.565,3.348-4.632,6.461-4.632c3.089,0,5.183,2.067,4.696,4.632
			c-0.495,2.581-3.367,4.648-6.461,4.648C474.17,266.704,472.098,264.634,472.584,262.056z M482.286,262.056
			c0.39-2.064-1.091-3.42-3.476-3.42c-2.423,0-4.38,1.356-4.768,3.42c-0.393,2.067,1.046,3.436,3.471,3.436
			C479.895,265.492,481.893,264.126,482.286,262.056z M480.299,264.481h-1.441l-0.907-2.056h-0.944l-0.39,2.056h-1.225l0.923-4.856
			h2.827c1.246,0,1.92,0.345,1.706,1.487c-0.163,0.832-0.813,1.26-1.564,1.318L480.299,264.481z M478.513,261.497
			c0.612,0,1.139,0,1.241-0.519c0.08-0.428-0.449-0.428-1.062-0.428h-1.326l-0.174,0.947H478.513z"/>
	</g>
	<polygon fill="#155DA3" points="8.293,308.451 160.971,308.451 160.96,308.397 160.835,308.397 158.904,300 8.293,300 	"/>
	<polygon fill="#155DA3" points="8.293,296.449 158.085,296.449 156.139,288.001 8.293,288.001 	"/>
	<polygon fill="#155DA3" points="8.293,284.396 155.262,284.396 154.601,281.318 153.251,275.443 8.293,275.443 	"/>
	<path fill="#155DA3" d="M327.327,275.379h26.646l-1.714,9.023h-12.141l-0.602,3.153h11.087l-1.629,8.584h-11.087l-0.615,3.238
		h12.561l-1.714,9.02h-27.071L327.327,275.379z"/>
</g>
</svg>
