<?xml version="1.0" encoding="utf-8"?>
<!-- Generator: Adobe Illustrator 17.0.0, SVG Export Plug-In . SVG Version: 6.00 Build 0)  -->
<!DOCTYPE svg PUBLIC "-//W3C//DTD SVG 1.1//EN" "http://www.w3.org/Graphics/SVG/1.1/DTD/svg11.dtd">
<svg version="1.1" id="Layer_1" xmlns="http://www.w3.org/2000/svg" xmlns:xlink="http://www.w3.org/1999/xlink" x="0px" y="0px"
	 width="612px" height="792px" viewBox="0 0 612 792" enable-background="new 0 0 612 792" xml:space="preserve">
<g>
	<g>
		<path fill="#FEFEFE" d="M493.802,366.272c0,72.51,0,145.02,0,217.53c-125.017,0-250.035,0-375.052,0c0-59.758,0-119.517,0-179.275
			c4.466,0,8.931,0,13.127,0c0.53-0.53,0.795-0.795,1.192-1.192c0-5.207,0-10.547,0-16.149c5.809,0,11.492,0,17.064,0
			c0-3.855,0-7.446,0-10.909c-0.387-0.387-0.652-0.652-1.049-1.049c-5.207,0-10.547,0-15.915,0c0-1.566,0-2.993,0-4.545
			c6.756,0,13.346,0,20.086,0c0-2.234,0.008-4.339-0.002-6.444c-0.01-2.079,0.047-4.163-0.041-6.218c-11.71,0-23.086,0-34.461,0
			c0-49.757,0-99.514,0-149.271c125.017,0,250.035,0,375.052,0c0,50.507,0,101.014,0,151.521c-1.35,0.32-1.84-0.885-2.937-1.705
			c-0.897,0.28-1.98,0.618-3.063,0.955c-0.747,0.837-1.495,1.674-2.423,2.714c0.269,1.477,0.558,3.059,0.8,4.39
			c1.556,0.751,2.784,1.343,4.118,1.986c0.371-1.513,2.364-0.033,2.755-1.589C493.302,366.772,493.552,366.522,493.802,366.272z
			 M340.649,404.45c0-8.639,0-16.979,0-25.35c-6.471,0-12.81,0-19.217,0c0,3.256,0,6.433,0,9.74c1.744,0,3.334,0,4.924,0
			c-0.098,0.141-0.196,0.282-0.293,0.423c0.439,0.18,0.878,0.359,1.071,0.438c-0.346,0.817-0.57,1.346-0.753,1.778
			c-1.203,0.604-2.34,1.175-3.577,1.796c-1.251,0-2.627,0.006-4.002-0.001c-4.151-0.02-8.613-4.251-8.761-8.395
			c-0.085-2.372-0.295-4.792,0.056-7.114c0.432-2.852,0.841-5.929,4.214-7.2c0.533-0.201,0.897-0.85,1.339-1.293c2,0,4,0,6.017,0
			c0.944,0.7,2.054,1.276,2.81,2.157c0.735,0.855,1.106,2.022,1.6,2.981c4.626,0,9.215,0,13.953,0c0-0.841,0.235-1.677-0.039-2.282
			c-1.545-3.41-2.912-6.944-5.648-9.66c-0.518-0.514-1.025-1.115-1.66-1.423c-2.703-1.311-5.349-3.148-8.21-3.622
			c-3.771-0.626-7.88-0.823-11.557,0.032c-3.759,0.874-7.493,2.58-10.471,5.461c-2.366,2.289-4.378,4.744-5.551,7.844
			c-0.246,0.649-0.629,1.246-1.044,2.05c-0.076,0.854,0.179,2.179-0.356,2.973c-0.751,1.115-0.375,2.153-0.441,3.204
			c-0.11,1.743-0.032,3.498-0.03,5.248c0.003,1.879,1.264,6.585,2.239,8.823c2.519,5.78,7.02,9.347,12.794,11.435
			c1.555,0.562,3.184,0.924,4.93,0.824c2.733-0.157,5.482-0.042,7.789-0.042c2.854-1.422,5.335-2.658,7.835-3.904
			c0.408,1.127,0.764,2.11,1.114,3.076C334.839,404.45,337.677,404.45,340.649,404.45z M348.282,359.146
			c0,4.956-0.119,9.949,0.034,14.934c0.15,4.892-0.638,9.809,0.646,14.69c0.476,1.807-0.064,3.813,0.793,5.676
			c1.512,3.285,3.196,6.36,6.621,8.057c3.303,1.636,6.657,2.993,10.463,2.793c1.992-0.104,3.995-0.06,5.991-0.009
			c2.9,0.075,5.617-0.365,8.407-1.403c3.131-1.165,5.643-2.665,7.61-5.443c1.94-2.74,3.009-5.535,2.973-8.912
			c-0.096-9.113-0.033-18.227-0.033-27.341c0-1.346,0-2.691,0-4.095c-4.816,0-9.401,0-13.801,0
			c-0.501,0.419-0.881,0.736-1.208,1.009c0,10.091,0,20.076,0,30.291c-1.037,1.247-2.185,2.627-3.198,3.846
			c-2.272,0-4.259,0-5.526,0c-1.658-1.368-2.9-2.394-3.809-3.144c-0.567-4.155-1.092-7.886-1.005-11.696
			c0.153-6.717,0.043-13.44,0.043-20.269c-4.739,0-9.324,0-13.986,0C349.021,358.407,348.668,358.76,348.282,359.146z
			 M232.835,404.398c12.171,0,23.996,0,35.936,0c0-2.11,0.014-4.092-0.004-6.074c-0.018-1.94,0.077-3.89-0.062-5.934
			c-7.678,0-15.008,0-22.359,0c0-1.724,0-3.312,0-5.021c6.41,0,12.744,0,18.955,0c0.477-0.477,0.83-0.83,1.11-1.11
			c0-3.41,0-6.747,0-10.334c-1.455-0.224-2.839-0.597-4.229-0.622c-4.368-0.08-8.739-0.021-13.109-0.036
			c-0.941-0.003-1.882-0.091-2.662-0.132c0-1.611,0-2.945,0-4.396c6.976,0,13.81,0,19.726,0c1.358-0.893,2.087-1.372,2.571-1.691
			c0-3.571,0-6.801,0-9.798c-0.726-1.52-1.929-1.226-3.02-1.227c-9.863-0.005-19.726-0.003-29.589-0.003c-1.088,0-2.176,0-3.264,0
			C232.835,373.639,232.835,388.965,232.835,404.398z M446.68,388.776c0,1.835-0.447,3.596,0.091,4.973
			c1.218,3.118,2.961,6.063,5.753,8.081c2.572,1.859,5.731,2.423,8.675,3.447c5.987-0.305,12.2,1.183,17.802-2.236
			c0.182-0.111,0.547,0.08,0.731-0.03c0.906-0.539,1.859-1.042,2.653-1.722c3.779-3.237,5.515-7.32,5.498-12.353
			c-0.007-2.309-0.632-4.399-1.91-5.945c-1.812-2.192-3.626-4.637-6.66-5.474c-3.7-1.021-7.282-2.387-11.095-3.113
			c-2.164-0.411-4.698-1.033-5.852-3.343c0-0.839,0-1.569,0-2.654c2.124-0.287,4.229-0.571,5.615-0.758
			c2.604,1.138,4.358,2.165,4.262,4.511c4.492,0,8.828,0,13.234,0c0-1.699,0-3.286,0-4.837c-0.213-0.213-0.459-0.358-0.556-0.571
			c-2.874-6.29-7.998-9.116-14.677-9.463c-2.241-0.116-4.502,0.104-6.737-0.058c-1.745-0.126-3.378,0.248-4.919,0.833
			c-2.406,0.914-4.708,2.161-6.583,3.946c-1.005,0.956-1.792,2.219-2.417,3.474c-0.612,1.229-0.995,2.599-1.301,3.948
			c-0.775,3.412-0.297,6.76,1.707,9.568c2.363,3.311,6.1,4.898,9.85,5.933c3.025,0.835,6.045,1.707,9.049,2.605
			c2.869,0.858,2.83,0.99,4.63,3.889c-2.133,3.402-2.133,3.402-8.904,3.299c-1.214-1.019-2.585-2.17-3.759-3.155
			c-0.066-1.167-0.112-1.989-0.158-2.796C455.931,388.776,451.437,388.776,446.68,388.776z M180.894,358.09
			c0.325,1.958,0.461,3.842,0.974,5.616c0.834,2.884,2.121,5.647,2.834,8.555c0.722,2.945,2.37,5.63,2.42,8.751
			c2.428,5.054,3.102,10.673,5.11,15.87c0.957,2.476,1.608,5.069,2.384,7.564c5.767,0,11.353,0,16.914,0
			c1.133-3.86,2.607-7.555,3.583-11.327c0.994-3.841,2.476-7.514,3.574-11.305c1.122-3.869,1.992-7.887,3.626-11.591
			c1.596-3.618,2.104-7.547,3.775-11.003c-0.432-0.432-0.695-0.925-0.962-0.928c-4.675-0.047-9.35-0.034-14.408-0.034
			c-2.408,8.316-4.613,16.748-6.853,25.415c-0.609-0.356-1.191-0.697-1.627-0.952c-0.841-4.323-1.897-8.381-3.218-12.377
			c-1.344-4.066-1.824-8.415-3.872-12.253C190.418,358.09,185.832,358.09,180.894,358.09z M412.152,358.415
			c-3.328-0.56-13.067-0.533-16.234,0.098c0.669,1.223,1.329,2.296,1.86,3.43c1.38,2.946,3.097,5.732,4.735,8.506
			c2.725,4.614,5.563,9.157,8.045,13.914c0.38,0.729,0.99,1.337,1.554,2.081c0,5.653,0,11.377,0,17.028
			c0.336,0.336,0.598,0.829,0.866,0.832c4.584,0.047,9.169,0.034,13.879,0.034c0.228-0.228,0.581-0.581,0.937-0.934
			c0-4.744,0.076-9.49-0.044-14.231c-0.039-1.532,0.396-2.819,1.098-4.057c1.724-3.038,3.555-6.015,5.271-9.057
			c2.464-4.366,5.077-8.643,7.603-12.969c0.84-1.438,2.539-2.95,1.633-4.944c-5.269,0-10.354,0-15.366,0
			c-2.615,5.321-5.168,10.516-7.862,15.997C416.94,368.81,415.223,363.223,412.152,358.415z M159.631,358.021
			c-0.53,3.15-0.517,43.524-0.009,46.374c4.609,0,9.195,0,13.771,0c0.482-12.651,0.298-43.163-0.274-46.374
			C168.622,358.021,164.127,358.021,159.631,358.021z M158.506,425.387c0,5.052,0.041,10.278-0.029,15.503
			c-0.017,1.268-0.399,2.531-0.625,3.865c0.275,0.275,0.627,0.627,0.896,0.896c2.773,0.571,5.475,0.1,7.825-0.943
			c3.306-1.468,6.916-2.7,9.104-6.223c0-1.577,0-3.41,0-5.159c-0.609-0.609-1.137-1.137-1.664-1.668
			c-0.678-0.12-1.357-0.24-2.148-0.38c0.513-1.946,2.256-3.379,1.765-4.824c-0.922-1.147-1.465-1.823-1.946-2.422
			c-1.632,0-3.132,0.09-4.616-0.024c-1.602-0.123-3.044,0.478-4.556,0.688C161.294,424.864,159.919,422.997,158.506,425.387z
			 M397.046,445.783c-0.02,0,0.356,0.032,0.725-0.006c1.538-0.155,2.202-0.684,2.27-1.754c0.076-1.196-0.611-1.702-1.659-2.011
			c-0.656-0.193-1.296-0.52-1.868-0.899c-2.355-1.56-4.678-3.168-7.021-4.746c-0.586-0.395-1.204-0.742-2.325-1.429
			c4.01-0.749,6.693-2.045,8.864-3.699c0.709-1.385,1.286-2.512,1.897-3.705c-0.961-1.266-1.878-2.474-2.682-3.533
			c-3.564,0.159-6.937-0.672-9.794,1.806c-0.649-0.988-1.154-1.758-1.825-2.779c-0.793,0.377-1.622,0.772-2.02,0.961
			c-0.373,1.389-0.662,2.289-0.847,3.209c-0.142,0.705-0.474,1.643-0.167,2.119c1.111,1.72,0.637,3.558,0.671,5.341
			c0.071,3.698,0.021,7.399,0.021,11.084c1.543,0.018,2.862,0.418,3.677-1.107c0.29-2.273-0.203-4.733,0.343-7.503
			C389.33,440.098,393.058,442.845,397.046,445.783z M202.762,444.741c0-1.349-0.07-2.6,0.021-3.84
			c0.083-1.133-0.458-2.392,0.55-3.659c3.872,2.861,7.594,5.61,11.504,8.499c0.413,0,1.15,0,1.794,0
			c0.431-0.404,0.793-0.744,1.128-1.057c0-0.545,0-1.042,0-1.722c-4.42-1.953-8.13-5.072-12.223-8.147
			c6.547-1.779,9.625-3.179,9.983-8.17c-0.87-0.83-1.769-1.687-2.765-2.637c-2.927,0.162-6.133-0.521-9.367,1.795
			c-0.58-0.85-1.208-1.772-1.796-2.633c-0.948,0.427-1.684,0.758-2.23,1.004c-0.354,1.122-0.734,2.104-0.959,3.12
			c-0.156,0.705-0.421,1.71-0.081,2.144c1.15,1.463,0.627,3.067,0.664,4.596c0.086,3.591,0.028,7.186,0.028,10.663
			C200.814,446.042,200.816,446.04,202.762,444.741z M273.626,424.087c-3.362-0.294-6.688-0.144-9.696,1.571
			c-0.64-1.095-0.614-2.482-2.167-2.379c-1.493,0.83-2.033,2.283-2.405,3.806c-0.197,0.808-0.628,1.984-0.264,2.424
			c1.033,1.252,0.632,2.585,0.653,3.876c0.061,3.841,0.022,7.684,0.022,11.354c1.95,1.301,1.952,1.304,3.736-0.036
			c0.06-2.572-0.042-5.261,0.054-8.019c4.103,3.097,7.939,5.992,12.039,9.086c0.325,0,1.072,0,1.809,0
			c0.364-0.364,0.718-0.718,1.071-1.071c-0.204-1.86-0.493-2.727-1.287-2.581c-1.866,0.345-2.333-1.534-3.756-1.957
			c-1.388-0.413-2.477-1.827-3.704-2.794c-1.054-0.83-2.117-1.648-3.718-2.894c3.093,0.352,4.813-1.299,6.864-2.057
			c2.909-1.075,2.746-3.548,3.502-5.671C275.4,425.801,274.503,424.935,273.626,424.087z M229.02,436.956
			c1.919-0.279,3.579-0.52,5.301-0.77c-0.674,3.469-3.438,4.744-5.748,6.494c-1.465,0-3.054,0-4.767,0
			c-0.733-1.362-1.453-2.698-2.278-4.231c-0.443-1.752,0.439-3.536,1.049-5.305c1.141-3.309,4.183-4.862,7.046-6.84
			c0.711,0,1.704,0,3.053,0c0.527,0.656,1.224,1.524,1.648,2.051c1.267,0,2.094,0,2.931,0c0-0.921,0-1.667,0-2.648
			c-1.04-0.757-2.199-1.6-3.337-2.428c-1.775,0-3.524,0-5.254,0c-0.285,0.256-0.519,0.615-0.84,0.733
			c-3.341,1.226-5.876,3.314-7.866,6.328c-1.081,1.638-1.41,3.195-1.51,5.041c-0.051,0.95-1.109,1.665-0.373,2.951
			c0.551,0.962,0.253,2.373,0.642,3.474c0.661,1.868,2.038,3.178,4.508,3.978c2.041-0.53,4.849,0.844,7.396-0.53
			c1.652-0.891,3.342-1.885,4.652-3.195c2.126-2.127,2.761-5.07,3.45-7.734c-0.381-0.73-0.703-1.349-1.198-2.298
			c-2.985,0.641-6.081,1.307-9.48,2.037C228.365,435.016,228.654,435.871,229.02,436.956z M433.609,424.06
			c-1.019,0.565-1.807,1.082-2.657,1.459c-2.504,1.11-3.72,3.303-4.617,5.654c-0.551,1.445,0.387,2.764,0.946,3.898
			c0.634,0.317,1.153,0.577,1.644,0.823c3.916,0.953,7.496-1.124,11.162-1.428c0.501,0.492,0.858,0.842,1.206,1.184
			c0,0.764,0,1.513,0,2.306c-2.227,3.415-5.499,4.784-9.528,4.884c-0.775-1.057-1.479-2.017-2.148-2.929c-0.785,0-1.62,0-2.645,0
			c-0.304,0.805-0.59,1.561-0.875,2.317c1.322,1.23,2.505,2.33,3.696,3.438c6.478,0.963,11.791-0.989,15.242-7.089
			c0-1.398,0-2.895,0-4.437c-0.862-0.846-1.752-1.719-2.588-2.539c-3.818-0.405-7.466,0.236-11.579,1.77
			c-0.154-0.319-0.379-0.772-0.588-1.231c-0.096-0.21-0.16-0.433-0.258-0.704c1.589-3.394,4.396-4.577,7.908-4.394
			c0.531,0.531,0.973,0.973,1.394,1.394c1.113,0,2.2,0,3.378,0c0-0.928,0-1.769,0-2.474c-0.925-0.649-1.794-1.259-2.712-1.902
			C437.843,424.06,435.601,424.06,433.609,424.06z M279.272,430.344c0,0.814,0,2.31,0.003,3.805
			c0.617,0.617,1.234,1.234,1.973,1.973c1.962-0.102,4.114,0.074,6.11-0.401c1.938-0.461,3.736-1.498,5.949-1.12
			c0.065,0.288,0.079,0.657,0.233,0.953c0.213,0.41,0.53,0.766,0.863,1.229c-2.189,4.282-5.5,6.434-10.409,5.958
			c-0.682-1.023-1.341-2.009-1.892-2.836c-1.031,0-1.865,0-2.764,0c0,1.209,0,2.296,0,3.541c1.138,0.79,2.304,1.6,2.809,1.951
			c5.766,1.389,10.038-0.382,13.543-3.784c1.755-1.703,2.858-4.092,2.232-6.809c-1.797-2.974-2.298-3.165-5.689-3.301
			c-2.81-0.113-5.303,1.148-7.903,1.584c-1.119-0.705-1.634-1.562-1.059-3.138c1.192-0.897,2.621-1.972,3.754-2.826
			c1.617,0,2.842,0,3.989,0c0.515,0.527,0.951,0.972,1.246,1.274c0.993,0,1.826,0,2.688,0c0-0.971,0-1.809,0-2.596
			c-2.554-2.66-5.736-1.488-8.025-1.752C283.502,425.427,280.689,426.656,279.272,430.344z M422.247,427.694
			c1.395-0.915,1.219-2.205,0.748-3.838c-2.25,0.309-4.488,0.849-6.729,0.86c-2.35,0.012-4.702-0.482-7.225-0.775
			c0,7.299-0.001,14.275,0.005,21.251c0,0.109,0.052,0.23,0.112,0.325c0.065,0.103,0.168,0.182,0.258,0.276
			c2.292-0.089,4.533-0.088,6.841-0.638c2.362-0.563,4.957-0.148,7.479-0.161c0.396-0.819,0.797-1.649,1.204-2.49
			c-0.479-0.427-0.849-0.757-1.365-1.217c-3.421-0.317-7.123,2.231-10.711-0.1c0-1.498,0-2.836,0-4.101
			c0.337-0.337,0.596-0.825,0.868-0.832c2.336-0.061,4.674-0.035,6.598-0.035c1.837-1.198,1.603-2.497,1.174-4.13
			c-2.515,0.266-5.016,0.531-7.687,0.814c-0.193-0.184-0.548-0.523-0.957-0.914c0-1.043,0-2.131,0-3.282
			C415.866,426.983,419.143,428.179,422.247,427.694z M245.893,436.032c2.252,0,4.501,0.078,6.738-0.051
			c0.609-0.035,1.183-0.691,2.039-1.23c-0.249-0.717-0.546-1.571-0.929-2.676c-2.824,0.33-5.407,0.632-7.917,0.926
			c-1.008-1.504-1.008-1.504-0.707-3.735c2.925-2.617,6.544-0.985,9.909-1.602c0.868-0.657,1.401-1.522,0.761-2.742
			c-0.264-0.264-0.529-0.529-0.892-0.892c-0.885,0-1.943-0.238-2.839,0.044c-2.823,0.888-5.558,1.103-8.384-0.007
			c-0.959-0.377-1.957-0.005-2.661,1.188c0.292,1.064-0.048,2.264,0.542,3.652c0.586,1.38,0.626,3.314-0.209,4.973
			c-0.304,0.604-0.55,1.582-0.27,2.075c1.19,2.091,0.439,4.313,0.642,5.781c-0.4,1.374-0.624,2.141-0.817,2.803
			c0.513,0.513,0.866,0.866,1.122,1.122c3.909,0.714,7.562-1.119,11.372-0.644c0.825,0.103,1.674,0.015,2.199,0.015
			c1.713-1.424,1.441-2.532,0.047-3.735c-3.19,0.304-6.524,0.622-9.569,0.912c-0.589-0.589-0.853-0.853-1.21-1.21
			c0-1.24,0-2.577,0-3.935C245.105,436.82,245.37,436.555,245.893,436.032z M194.381,440.771c0-5.472,0-11.051,0-16.736
			c-1.433,0.05-2.875-0.442-3.649,1.377c0,4.838,0,9.82,0,14.887c-1.963,1.248-3.819,2.784-6.036,2.499
			c-0.919-0.776-1.583-1.337-2.2-1.857c0-5.337,0-10.573,0-15.797c-0.365-0.365-0.718-0.718-1.291-1.291
			c-0.732,0.275-1.586,0.596-2.383,0.896c0,5.876,0,11.457,0,17.152c1.021,1.273,2.073,2.586,2.967,3.701
			C187.091,446.369,191.661,445.839,194.381,440.771z M351.902,445.706c0-7.239,0-14.401,0-21.476
			c-1.83-1.208-1.832-1.211-3.735,0.227c0,2.229,0,4.658,0,7.072c-1.503,0-2.748,0-4.366,0c-1.405,1.286-3.139,2.636-4.575,4.251
			c-1.421,1.598-1.966,3.684-2.187,5.804c-0.176,1.684,0.598,3,1.687,4.021c3.715,0.97,6.533-0.738,9.209-2.8
			c0.37,1.031,0.719,2.003,1.041,2.901C350.139,445.706,350.975,445.706,351.902,445.706z M376.354,431.474
			c-1.529,0.304-2.786,0.625-4.064,0.787c-1.225,0.156-2.527-0.304-3.669,0.842c0-1.703,0-3.038,0-4.315
			c2.765-1.777,5.79-0.641,8.623-1.091c1.532-2.084,1.483-2.666-0.481-4.523c-1.129,1.195-2.98,0.298-3.982,0.973
			c-1.602,1.078-3.128,0.265-4.237,0.599c-0.974-0.368-1.62-0.611-2.501-0.944c-0.579,0.823-1.143,1.623-1.999,2.84
			c0,0.029-0.316,1.08,0.057,1.466c1.283,1.326,0.5,2.837,0.633,4.236c0.058,0.614-0.693,1.298-0.652,1.923
			c0.117,1.773,0.657,3.533,0.646,5.295c-0.011,1.735-0.493,3.467-0.752,5.099c2.256,1.534,2.558,1.525,4.677-0.092
			c0-2.741,0-5.574,0-8.332c2.969-0.393,5.809-0.77,8.737-1.158c0-0.872,0-1.797,0-2.571
			C376.977,432.098,376.713,431.833,376.354,431.474z M315.136,432.968c0.33,1.869-0.029,2.724-1.827,3.125
			c-3.275,0.731-6.359,1.983-7.684,5.859c0,0.735,0,1.822,0,2.805c0.363,0.363,0.627,0.627,0.959,0.959c1.765,0,3.598,0,5.113,0
			c1.221-0.827,2.201-1.491,3.174-2.151c0.488,0.768,0.978,1.538,1.612,2.536c0.956-0.432,1.795-0.812,2.441-1.104
			c0-4.649,0-8.976,0-13.378c-1.785-0.847-3.15-2.558-5.531-0.975c-1.169,0.777-2.957,0.622-4.601,0.912
			c-0.615,0.734-1.296,1.548-2.189,2.614c1.117,0.565,1.929,0.976,2.648,1.34C311.004,433.848,312.847,433.188,315.136,432.968z
			 M332.183,429.847c-1.986,0.967-3.627,1.767-5.457,2.658c-0.145-0.973-0.247-1.66-0.358-2.404c-0.909,0-1.746,0-2.447,0
			c-1.898,1.187-1.009,2.507-0.623,3.283c-0.216,1.643-0.525,2.805-0.476,3.952c0.049,1.152,0.651,2.288,0.651,3.431
			c0,1.143-0.461,2.283-0.68,3.432c-0.038,0.201,0.119,0.44,0.188,0.661c1.82,1.168,1.82,1.168,3.573-0.315c0-2.465,0-4.952,0-7.651
			c1.307-1.006,2.702-2.079,4.368-3.361c1.841,4.119,0.187,8.283,1.075,12.164c0.905,0,1.742,0,2.68,0c0-4.912,0-9.742,0-14.636
			C333.933,430.699,333.106,430.296,332.183,429.847z M400.622,425.109c0.312,1.41,0.75,2.765,0.882,4.148
			c0.152,1.606,0.036,3.238,0.036,4.859c0,1.87,0,3.74,0,5.61c0,0.623,0.267,1.51-0.045,1.826c-1.579,1.599-0.173,2.819,0.341,4.159
			c1.222,0.107,2.489,0.405,3.383-1.031c0-6.455,0-13.031,0-19.6C403.342,423.704,403.144,423.693,400.622,425.109z"/>
		<path fill="#CA262C" d="M118.75,358.021c11.376,0,22.751,0,34.461,0c0.089,2.054,0.031,4.139,0.041,6.218
			c0.01,2.105,0.002,4.211,0.002,6.444c-6.74,0-13.33,0-20.086,0c0,1.552,0,2.979,0,4.545c5.368,0,10.708,0,15.915,0
			c0.397,0.397,0.663,0.663,1.049,1.049c0,3.464,0,7.054,0,10.909c-5.572,0-11.254,0-17.064,0c0,5.602,0,10.942,0,16.149
			c-0.397,0.397-0.663,0.663-1.192,1.192c-4.196,0-8.661,0-13.127,0C118.75,389.025,118.75,373.523,118.75,358.021z"/>
		<path fill="#DA6A6E" d="M487.802,359.521c1.083-0.338,2.166-0.676,3.063-0.955c1.098,0.82,1.588,2.026,2.937,1.705
			c0,0.75,0,1.5,0,2.25c-0.25,0-0.5,0-0.75,0s-0.5,0-0.75,0c-0.25-0.25-0.5-0.5-0.75-0.75c0-0.25,0-0.5,0-0.75
			c-0.294-0.25-0.561-0.664-0.887-0.716c-0.688-0.111-1.407-0.034-2.113-0.034C488.302,360.021,488.052,359.771,487.802,359.521z"/>
		<path fill="#E28B8E" d="M493.052,362.522c0.25,0,0.5,0,0.75,0c0,1,0,2,0,3c-0.5,0-1,0-1.5,0
			C493.013,364.637,493.143,363.607,493.052,362.522z"/>
		<path fill="#D04248" d="M492.302,365.522c0.5,0,1,0,1.5,0c0,0.25,0,0.5,0,0.75c-0.25,0.25-0.5,0.5-0.75,0.75
			c-0.496-0.066-0.991-0.131-1.472-0.195C491.885,366.276,492.094,365.899,492.302,365.522z"/>
		<path fill="#CA272D" d="M340.649,404.45c-2.971,0-5.81,0-8.922,0c-0.35-0.966-0.706-1.949-1.114-3.076
			c-2.5,1.245-4.981,2.482-7.835,3.904c-2.307,0-5.055-0.115-7.789,0.042c-1.746,0.1-3.376-0.261-4.93-0.824
			c-5.774-2.088-10.275-5.655-12.794-11.435c-0.975-2.238-2.237-6.943-2.239-8.823c-0.002-1.75-0.081-3.505,0.03-5.248
			c0.066-1.051-0.31-2.089,0.441-3.204c0.534-0.793,0.279-2.118,0.356-2.973c0.415-0.805,0.798-1.401,1.044-2.05
			c1.173-3.101,3.185-5.556,5.551-7.844c2.978-2.881,6.712-4.587,10.471-5.461c3.676-0.855,7.785-0.658,11.557-0.032
			c2.861,0.475,5.507,2.312,8.21,3.622c0.635,0.308,1.142,0.908,1.66,1.423c2.736,2.715,4.103,6.249,5.648,9.66
			c0.274,0.605,0.039,1.441,0.039,2.282c-4.738,0-9.327,0-13.953,0c-0.494-0.959-0.865-2.126-1.6-2.981
			c-0.756-0.88-1.867-1.456-2.81-2.157c-2.018,0-4.018,0-6.017,0c-0.442,0.442-0.806,1.092-1.339,1.293
			c-3.373,1.271-3.782,4.348-4.214,7.2c-0.352,2.322-0.141,4.742-0.056,7.114c0.148,4.144,4.61,8.375,8.761,8.395
			c1.375,0.007,2.75,0.001,4.002,0.001c1.237-0.621,2.375-1.192,3.577-1.796c0.183-0.432,0.407-0.961,0.753-1.778
			c-0.193-0.079-0.632-0.259-1.071-0.438c0.098-0.141,0.196-0.282,0.293-0.423c-1.59,0-3.18,0-4.924,0c0-3.307,0-6.484,0-9.74
			c6.406,0,12.745,0,19.217,0C340.649,387.472,340.649,395.811,340.649,404.45z"/>
		<path fill="#CA252C" d="M348.282,359.146c0.386-0.386,0.739-0.739,1.016-1.016c4.662,0,9.248,0,13.986,0
			c0,6.829,0.11,13.552-0.043,20.269c-0.087,3.81,0.438,7.541,1.005,11.696c0.909,0.75,2.151,1.775,3.809,3.144
			c1.267,0,3.254,0,5.526,0c1.013-1.218,2.161-2.599,3.198-3.846c0-10.215,0-20.2,0-30.291c0.327-0.273,0.707-0.591,1.208-1.009
			c4.401,0,8.985,0,13.801,0c0,1.404,0,2.75,0,4.095c0,9.114-0.063,18.228,0.033,27.341c0.036,3.378-1.033,6.172-2.973,8.912
			c-1.967,2.778-4.479,4.278-7.61,5.443c-2.791,1.038-5.507,1.478-8.407,1.403c-1.996-0.051-3.999-0.096-5.991,0.009
			c-3.806,0.199-7.16-1.157-10.463-2.793c-3.426-1.697-5.11-4.772-6.621-8.057c-0.857-1.863-0.317-3.869-0.793-5.676
			c-1.285-4.881-0.497-9.798-0.646-14.69C348.163,369.095,348.282,364.102,348.282,359.146z"/>
		<path fill="#CA282E" d="M232.835,404.398c0-15.433,0-30.759,0-46.377c1.088,0,2.176,0,3.264,0c9.863,0,19.726-0.002,29.589,0.003
			c1.091,0.001,2.295-0.293,3.02,1.227c0,2.997,0,6.226,0,9.798c-0.484,0.318-1.214,0.798-2.571,1.691c-5.916,0-12.75,0-19.726,0
			c0,1.451,0,2.785,0,4.396c0.78,0.041,1.721,0.129,2.662,0.132c4.37,0.015,8.74-0.044,13.109,0.036
			c1.39,0.025,2.774,0.398,4.229,0.622c0,3.587,0,6.924,0,10.334c-0.28,0.28-0.633,0.633-1.11,1.11c-6.21,0-12.545,0-18.955,0
			c0,1.709,0,3.296,0,5.021c7.351,0,14.68,0,22.359,0c0.139,2.044,0.044,3.994,0.062,5.934c0.018,1.982,0.004,3.965,0.004,6.074
			C256.832,404.398,245.006,404.398,232.835,404.398z"/>
		<path fill="#CA282E" d="M446.68,388.776c4.758,0,9.251,0,14.021,0c0.046,0.808,0.092,1.63,0.158,2.796
			c1.174,0.985,2.544,2.136,3.759,3.155c6.772,0.103,6.772,0.103,8.904-3.299c-1.8-2.9-1.761-3.031-4.63-3.889
			c-3.004-0.899-6.025-1.771-9.049-2.605c-3.75-1.035-7.487-2.622-9.85-5.933c-2.005-2.809-2.482-6.156-1.707-9.568
			c0.306-1.349,0.689-2.719,1.301-3.948c0.625-1.254,1.413-2.517,2.417-3.474c1.875-1.785,4.177-3.033,6.583-3.946
			c1.54-0.585,3.173-0.959,4.919-0.833c2.235,0.161,4.496-0.059,6.737,0.058c6.679,0.347,11.803,3.172,14.677,9.463
			c0.097,0.213,0.343,0.358,0.556,0.571c0,1.551,0,3.138,0,4.837c-4.407,0-8.742,0-13.234,0c0.096-2.346-1.658-3.373-4.262-4.511
			c-1.386,0.187-3.491,0.471-5.615,0.758c0,1.085,0,1.815,0,2.654c1.155,2.31,3.688,2.932,5.852,3.343
			c3.813,0.725,7.395,2.091,11.095,3.113c3.034,0.838,4.848,3.283,6.66,5.474c1.278,1.546,1.903,3.637,1.91,5.945
			c0.016,5.033-1.719,9.116-5.498,12.353c-0.795,0.681-1.747,1.183-2.653,1.722c-0.184,0.11-0.549-0.081-0.731,0.03
			c-5.602,3.42-11.814,1.931-17.802,2.236c-2.944-1.024-6.103-1.588-8.675-3.447c-2.792-2.018-4.536-4.963-5.753-8.081
			C446.233,392.373,446.68,390.611,446.68,388.776z"/>
		<path fill="#CA282E" d="M180.894,358.09c4.938,0,9.524,0,14.254,0c2.048,3.837,2.528,8.187,3.872,12.253
			c1.321,3.996,2.377,8.055,3.218,12.377c0.436,0.255,1.018,0.596,1.627,0.952c2.239-8.668,4.445-17.099,6.853-25.415
			c5.058,0,9.733-0.013,14.408,0.034c0.268,0.003,0.53,0.496,0.962,0.928c-1.671,3.455-2.178,7.385-3.775,11.003
			c-1.634,3.704-2.505,7.722-3.626,11.591c-1.099,3.79-2.58,7.463-3.574,11.305c-0.976,3.773-2.45,7.467-3.583,11.327
			c-5.561,0-11.147,0-16.914,0c-0.776-2.494-1.427-5.088-2.384-7.564c-2.008-5.196-2.682-10.815-5.11-15.87
			c-0.05-3.12-1.698-5.805-2.42-8.751c-0.713-2.908-2-5.67-2.834-8.555C181.355,361.932,181.219,360.048,180.894,358.09z"/>
		<path fill="#CA282E" d="M412.152,358.415c3.071,4.809,4.788,10.395,7.974,15.728c2.694-5.481,5.247-10.676,7.862-15.997
			c5.012,0,10.098,0,15.366,0c0.906,1.994-0.793,3.506-1.633,4.944c-2.526,4.326-5.139,8.603-7.603,12.969
			c-1.716,3.042-3.547,6.019-5.271,9.057c-0.703,1.238-1.137,2.525-1.098,4.057c0.12,4.741,0.044,9.487,0.043,14.231
			c-0.354,0.353-0.707,0.706-0.936,0.934c-4.71,0-9.295,0.013-13.879-0.034c-0.268-0.003-0.53-0.496-0.866-0.832
			c0-5.652,0-11.376,0-17.028c-0.564-0.744-1.174-1.352-1.554-2.081c-2.482-4.757-5.32-9.301-8.045-13.914
			c-1.639-2.774-3.355-5.56-4.735-8.506c-0.531-1.134-1.192-2.207-1.86-3.43C399.085,357.881,408.824,357.855,412.152,358.415z"/>
		<path fill="#CA252C" d="M159.631,358.021c4.496,0,8.992,0,13.487,0c0.572,3.211,0.757,33.723,0.274,46.374
			c-4.576,0-9.162,0-13.771,0C159.114,401.545,159.101,361.171,159.631,358.021z"/>
		<path fill="#D03F44" d="M158.506,425.387c1.413-2.39,2.788-0.523,4.006-0.692c1.511-0.211,2.954-0.812,4.556-0.688
			c1.484,0.114,2.984,0.024,4.616,0.024c0.481,0.599,1.024,1.275,1.946,2.422c0.491,1.445-1.253,2.879-1.765,4.824
			c0.792,0.14,1.47,0.26,2.148,0.382c0.527,0.529,1.055,1.057,1.665,1.666c0,1.749,0,3.582,0,5.159
			c-2.188,3.524-5.798,4.755-9.104,6.223c-2.35,1.043-5.052,1.514-7.825,0.943c-0.269-0.269-0.621-0.621-0.896-0.896
			c0.226-1.334,0.608-2.597,0.625-3.865C158.546,435.664,158.506,430.438,158.506,425.387z M162.383,435.408
			c0,2.362,0,4.438,0,6.578c3.118,0.386,5.27-1.945,7.648-2.249c0.793-1.142,1.385-1.994,2.12-3.051
			c-0.222-0.841-0.485-1.839-0.739-2.8C168.058,433.653,165.105,433.55,162.383,435.408z M170.385,427.153c-2.329,0-3.913,0-5.6,0
			c-0.764,0.481-1.659,1.045-2.421,1.524c0,1.029,0,1.861,0,2.86C165.649,431.559,168.033,430.214,170.385,427.153z"/>
		<path fill="#D03F44" d="M397.046,445.783c-3.988-2.938-7.716-5.685-11.74-8.65c-0.546,2.77-0.053,5.23-0.343,7.503
			c-0.815,1.524-2.134,1.125-3.677,1.107c0-3.685,0.049-7.386-0.021-11.084c-0.034-1.783,0.439-3.622-0.671-5.341
			c-0.307-0.476,0.025-1.414,0.167-2.119c0.186-0.921,0.474-1.82,0.847-3.209c0.398-0.189,1.227-0.583,2.02-0.961
			c0.671,1.021,1.176,1.791,1.825,2.779c2.857-2.478,6.23-1.646,9.794-1.806c0.804,1.059,1.72,2.266,2.682,3.533
			c-0.611,1.193-1.188,2.32-1.897,3.705c-2.171,1.654-4.854,2.95-8.864,3.699c1.121,0.687,1.739,1.034,2.325,1.429
			c2.343,1.578,4.666,3.186,7.021,4.746c0.573,0.379,1.213,0.706,1.868,0.899c1.048,0.309,1.734,0.815,1.659,2.011
			c-0.068,1.07-0.732,1.599-2.27,1.754C397.402,445.815,397.026,445.783,397.046,445.783z M393.233,426.592
			c-3.002,0.735-5.602,1.371-8.097,1.982c0,1.363,0,2.448,0,3.727c3.275-0.142,6.081-0.972,8.097-3.362
			C393.233,428.256,393.233,427.775,393.233,426.592z"/>
		<path fill="#D03F44" d="M202.762,444.741c-1.946,1.298-1.948,1.301-3.751-0.045c0-3.477,0.058-7.072-0.028-10.663
			c-0.037-1.528,0.486-3.132-0.664-4.596c-0.341-0.433-0.076-1.438,0.081-2.144c0.225-1.016,0.605-1.998,0.959-3.12
			c0.546-0.246,1.282-0.577,2.23-1.004c0.587,0.861,1.216,1.783,1.796,2.633c3.234-2.316,6.44-1.633,9.367-1.795
			c0.996,0.95,1.895,1.807,2.765,2.637c-0.358,4.991-3.436,6.391-9.983,8.17c4.093,3.076,7.803,6.194,12.223,8.147
			c0,0.681,0,1.177,0,1.722c-0.334,0.314-0.697,0.653-1.128,1.057c-0.644,0-1.38,0-1.794,0c-3.91-2.889-7.632-5.638-11.504-8.499
			c-1.008,1.266-0.467,2.526-0.55,3.659C202.692,442.141,202.762,443.392,202.762,444.741z M202.881,428.639
			c0,1.353,0,2.438,0,3.684c3.646-0.195,6.652-1.289,8.949-4.433C208.569,425.923,205.854,428.039,202.881,428.639z"/>
		<path fill="#D03F44" d="M273.626,424.087c0.877,0.848,1.773,1.714,2.754,2.661c-0.757,2.123-0.593,4.596-3.502,5.671
			c-2.051,0.758-3.771,2.408-6.864,2.057c1.602,1.246,2.664,2.064,3.718,2.894c1.227,0.966,2.315,2.381,3.704,2.794
			c1.423,0.423,1.89,2.302,3.756,1.957c0.794-0.147,1.083,0.72,1.287,2.581c-0.354,0.353-0.707,0.707-1.071,1.071
			c-0.736,0-1.483,0-1.809,0c-4.1-3.095-7.936-5.989-12.039-9.086c-0.096,2.758,0.005,5.447-0.054,8.019
			c-1.784,1.34-1.786,1.337-3.736,0.036c0-3.671,0.039-7.513-0.022-11.354c-0.02-1.292,0.38-2.624-0.653-3.876
			c-0.364-0.441,0.067-1.616,0.264-2.424c0.371-1.523,0.912-2.976,2.405-3.806c1.553-0.103,1.526,1.284,2.166,2.379
			C266.938,423.943,270.264,423.794,273.626,424.087z M272.414,428.012c-1.857-1.16-1.863-1.189-6.464-0.206
			c-0.865,0.185-1.658,0.701-2.277,0.973c0,1.29,0,2.368,0,3.476c3.126,0.273,5.467-1.428,7.922-2.47
			C271.862,429.208,272.103,428.685,272.414,428.012z"/>
		<path fill="#CF3D42" d="M229.02,436.956c-0.366-1.084-0.654-1.94-0.976-2.891c3.399-0.731,6.496-1.396,9.48-2.037
			c0.495,0.948,0.817,1.568,1.198,2.298c-0.69,2.665-1.325,5.607-3.45,7.734c-1.31,1.311-3,2.305-4.652,3.195
			c-2.548,1.374-5.355,0-7.396,0.53c-2.47-0.8-3.847-2.109-4.508-3.978c-0.39-1.101-0.091-2.511-0.642-3.474
			c-0.736-1.285,0.322-2.001,0.373-2.951c0.099-1.846,0.428-3.403,1.51-5.041c1.99-3.014,4.525-5.102,7.866-6.328
			c0.322-0.118,0.555-0.476,0.84-0.733c1.73,0,3.479,0,5.254,0c1.138,0.828,2.297,1.671,3.337,2.428c0,0.98,0,1.727,0,2.648
			c-0.837,0-1.665,0-2.931,0c-0.423-0.527-1.12-1.394-1.648-2.051c-1.349,0-2.342,0-3.053,0c-2.864,1.978-5.906,3.531-7.046,6.84
			c-0.61,1.768-1.491,3.552-1.049,5.305c0.825,1.532,1.545,2.869,2.278,4.231c1.712,0,3.302,0,4.767,0
			c2.31-1.75,5.074-3.025,5.748-6.494C232.599,436.436,230.939,436.677,229.02,436.956z"/>
		<path fill="#CF3E43" d="M433.609,424.06c1.993,0,4.234,0,6.383,0c0.918,0.644,1.787,1.254,2.712,1.902c0,0.705,0,1.546,0,2.474
			c-1.178,0-2.265,0-3.378,0c-0.421-0.421-0.863-0.863-1.394-1.394c-3.512-0.182-6.318,1-7.908,4.394
			c0.098,0.27,0.162,0.494,0.258,0.704c0.21,0.459,0.435,0.912,0.588,1.231c4.113-1.534,7.761-2.175,11.579-1.77
			c0.836,0.82,1.725,1.693,2.588,2.539c0,1.542,0,3.039,0,4.437c-3.451,6.099-8.764,8.052-15.242,7.089
			c-1.191-1.108-2.374-2.209-3.696-3.438c0.286-0.756,0.571-1.512,0.875-2.317c1.025,0,1.86,0,2.645,0
			c0.669,0.912,1.372,1.872,2.148,2.929c4.029-0.099,7.3-1.469,9.528-4.884c0-0.794,0-1.543,0-2.306
			c-0.348-0.342-0.704-0.692-1.206-1.184c-3.666,0.304-7.246,2.381-11.162,1.428c-0.492-0.246-1.01-0.505-1.644-0.823
			c-0.559-1.134-1.497-2.453-0.946-3.898c0.897-2.352,2.113-4.545,4.617-5.654C431.802,425.142,432.59,424.625,433.609,424.06z"/>
		<path fill="#D03F44" d="M279.272,430.344c1.416-3.688,4.229-4.917,7.65-6.296c2.289,0.265,5.471-0.908,8.025,1.752
			c0,0.787,0,1.625,0,2.596c-0.862,0-1.695,0-2.688,0c-0.295-0.302-0.731-0.747-1.246-1.274c-1.147,0-2.372,0-3.989,0
			c-1.134,0.853-2.562,1.928-3.754,2.826c-0.575,1.575-0.06,2.433,1.059,3.138c2.6-0.437,5.093-1.697,7.903-1.584
			c3.391,0.136,3.892,0.327,5.689,3.301c0.627,2.717-0.476,5.106-2.232,6.809c-3.506,3.402-7.778,5.174-13.543,3.784
			c-0.505-0.35-1.671-1.161-2.809-1.951c0-1.245,0-2.332,0-3.541c0.899,0,1.733,0,2.764,0c0.552,0.827,1.21,1.813,1.892,2.836
			c4.909,0.476,8.22-1.676,10.409-5.958c-0.333-0.463-0.65-0.819-0.863-1.229c-0.153-0.296-0.167-0.664-0.233-0.953
			c-2.213-0.378-4.011,0.659-5.949,1.12c-1.996,0.475-4.148,0.298-6.11,0.401c-0.739-0.739-1.356-1.356-1.974-1.972
			C279.272,432.655,279.272,431.158,279.272,430.344z"/>
		<path fill="#CF3D42" d="M422.247,427.694c-3.104,0.485-6.381-0.711-9.388,1.013c0,1.151,0,2.239,0,3.282
			c0.409,0.39,0.764,0.73,0.957,0.914c2.671-0.283,5.172-0.548,7.687-0.814c0.428,1.633,0.663,2.932-1.174,4.13
			c-1.924,0-4.262-0.026-6.598,0.035c-0.272,0.007-0.531,0.495-0.868,0.832c0,1.265,0,2.603,0,4.101
			c3.588,2.332,7.29-0.216,10.711,0.1c0.516,0.46,0.887,0.791,1.365,1.217c-0.407,0.841-0.808,1.671-1.204,2.49
			c-2.522,0.013-5.117-0.403-7.479,0.161c-2.308,0.551-4.55,0.549-6.841,0.638c-0.09-0.093-0.193-0.173-0.258-0.276
			c-0.06-0.095-0.112-0.216-0.112-0.325c-0.005-6.976-0.005-13.952-0.005-21.251c2.523,0.293,4.876,0.787,7.225,0.775
			c2.241-0.012,4.479-0.551,6.729-0.86C423.466,425.49,423.642,426.779,422.247,427.694z"/>
		<path fill="#CF3D43" d="M245.893,436.032c-0.523,0.523-0.788,0.788-1.033,1.033c0,1.358,0,2.695,0,3.935
			c0.357,0.357,0.621,0.621,1.21,1.21c3.045-0.29,6.379-0.608,9.569-0.912c1.394,1.203,1.666,2.312-0.047,3.735
			c-0.525,0-1.374,0.088-2.199-0.015c-3.811-0.476-7.463,1.358-11.372,0.644c-0.257-0.257-0.609-0.609-1.122-1.122
			c0.193-0.662,0.417-1.43,0.817-2.803c-0.203-1.467,0.548-3.69-0.642-5.781c-0.28-0.493-0.034-1.471,0.27-2.075
			c0.835-1.659,0.795-3.593,0.209-4.973c-0.59-1.389-0.249-2.589-0.542-3.652c0.704-1.193,1.701-1.565,2.661-1.188
			c2.826,1.11,5.561,0.895,8.384,0.007c0.895-0.282,1.954-0.044,2.839-0.044c0.363,0.363,0.628,0.628,0.892,0.892
			c0.641,1.22,0.108,2.085-0.76,2.742c-3.365,0.617-6.984-1.015-9.909,1.602c-0.301,2.231-0.301,2.231,0.707,3.735
			c2.51-0.294,5.093-0.596,7.917-0.926c0.384,1.105,0.68,1.958,0.929,2.676c-0.857,0.539-1.43,1.195-2.039,1.23
			C250.394,436.109,248.145,436.032,245.893,436.032z"/>
		<path fill="#D04045" d="M194.381,440.771c-2.72,5.068-7.289,5.598-12.592,4.83c-0.893-1.115-1.946-2.428-2.967-3.701
			c0-5.696,0-11.276,0-17.152c0.798-0.3,1.651-0.621,2.383-0.896c0.574,0.574,0.927,0.927,1.291,1.291c0,5.224,0,10.46,0,15.797
			c0.616,0.52,1.28,1.081,2.2,1.857c2.217,0.285,4.073-1.25,6.036-2.499c0-5.067,0-10.049,0-14.887
			c0.773-1.819,2.215-1.327,3.649-1.377C194.381,429.72,194.381,435.299,194.381,440.771z"/>
		<path fill="#CE3A3F" d="M351.902,445.706c-0.927,0-1.763,0-2.926,0c-0.322-0.897-0.671-1.87-1.041-2.901
			c-2.676,2.062-5.494,3.77-9.209,2.8c-1.088-1.021-1.862-2.337-1.687-4.021c0.221-2.119,0.766-4.205,2.187-5.804
			c1.436-1.615,3.169-2.965,4.575-4.251c1.618,0,2.863,0,4.366,0c0-2.414,0-4.843,0-7.072c1.903-1.438,1.905-1.435,3.735-0.227
			C351.902,431.305,351.902,438.467,351.902,445.706z M348.283,437.902c-0.032-1.304,0.338-2.775-1.402-3.372
			c-3.398-0.057-4.335,2.943-5.957,4.839c0,1.166,0,2.247,0,3.335C343.769,442.453,344.961,441.661,348.283,437.902z"/>
		<path fill="#D03F45" d="M376.354,431.474c0.359,0.359,0.624,0.624,1.035,1.035c0,0.775,0,1.699,0,2.571
			c-2.928,0.388-5.768,0.764-8.737,1.158c0,2.758,0,5.591,0,8.332c-2.12,1.617-2.421,1.627-4.677,0.092
			c0.259-1.632,0.741-3.364,0.752-5.099c0.011-1.763-0.529-3.522-0.646-5.295c-0.041-0.624,0.71-1.308,0.652-1.923
			c-0.132-1.399,0.651-2.91-0.633-4.236c-0.373-0.385-0.057-1.436-0.057-1.466c0.856-1.217,1.42-2.017,1.999-2.84
			c0.882,0.333,1.528,0.577,2.501,0.944c1.11-0.334,2.635,0.479,4.237-0.599c1.002-0.675,2.853,0.223,3.982-0.973
			c1.964,1.857,2.013,2.438,0.481,4.523c-2.833,0.449-5.858-0.686-8.623,1.091c0,1.276,0,2.612,0,4.315
			c1.143-1.147,2.444-0.687,3.669-0.842C373.568,432.099,374.825,431.778,376.354,431.474z"/>
		<path fill="#D04046" d="M315.136,432.968c-2.289,0.22-4.132,0.881-5.886,2.542c-0.719-0.364-1.53-0.775-2.648-1.34
			c0.893-1.066,1.575-1.88,2.189-2.614c1.643-0.29,3.432-0.135,4.601-0.912c2.381-1.583,3.746,0.128,5.531,0.975
			c0,4.403,0,8.73,0,13.378c-0.646,0.292-1.484,0.671-2.441,1.104c-0.634-0.998-1.124-1.769-1.612-2.536
			c-0.973,0.66-1.953,1.323-3.174,2.151c-1.515,0-3.348,0-5.113,0c-0.332-0.332-0.596-0.596-0.959-0.959c0-0.982,0-2.069,0-2.805
			c1.326-3.876,4.409-5.128,7.684-5.859C315.107,435.692,315.465,434.837,315.136,432.968z M311.879,442.658
			c1.056-0.863,2.16-1.765,3.271-2.673c0-0.423,0-1.004,0-1.839c-2.308,0.319-4.063,1.386-5.808,2.595c0,0.622,0,1.207,0,1.917
			C310.091,442.658,310.811,442.658,311.879,442.658z"/>
		<path fill="#CE383E" d="M332.183,429.847c0.922,0.449,1.75,0.852,2.495,1.214c0,4.894,0,9.724,0,14.636c-0.939,0-1.775,0-2.68,0
			c-0.888-3.881,0.766-8.045-1.075-12.164c-1.666,1.282-3.061,2.355-4.368,3.361c0,2.699,0,5.185,0,7.651
			c-1.752,1.483-1.752,1.483-3.573,0.315c-0.068-0.221-0.226-0.46-0.187-0.661c0.219-1.149,0.68-2.289,0.68-3.432
			c0-1.143-0.602-2.279-0.651-3.431c-0.049-1.147,0.26-2.309,0.476-3.952c-0.386-0.776-1.275-2.096,0.623-3.283
			c0.701,0,1.538,0,2.447,0c0.111,0.744,0.213,1.431,0.358,2.404C328.556,431.614,330.198,430.814,332.183,429.847z"/>
		<path fill="#D04248" d="M400.622,425.109c2.522-1.416,2.72-1.405,4.596-0.028c0,6.568,0,13.145,0,19.6
			c-0.894,1.436-2.161,1.138-3.383,1.031c-0.514-1.34-1.92-2.56-0.341-4.159c0.312-0.316,0.045-1.202,0.045-1.826
			c0-1.87,0-3.74,0-5.61c0-1.621,0.117-3.253-0.036-4.859C401.373,427.874,400.934,426.519,400.622,425.109z"/>
		<path fill="#DE7B7E" d="M492.302,365.522c-0.208,0.377-0.417,0.754-0.722,1.306c0.481,0.064,0.976,0.129,1.472,0.195
			c-0.392,1.556-2.384,0.076-2.755,1.589c-1.334-0.643-2.561-1.235-4.118-1.986c-0.243-1.33-0.531-2.913-0.8-4.39
			c0.928-1.04,1.675-1.877,2.423-2.714c0.25,0.25,0.5,0.5,0.75,0.75c0,0.25,0,0.5,0,0.75c-0.48,0.319-0.96,0.637-1.448,0.962
			c0,0.879,0,1.698,0,2.577c0.488,0.324,0.968,0.643,1.448,0.962c0.25,0,0.5,0,0.75,0c0.189,0.25,0.378,0.5,0.567,0.75
			c0.311-0.25,0.622-0.5,0.933-0.75c0.25,0,0.5,0,0.75,0C491.802,365.522,492.052,365.522,492.302,365.522z"/>
		<path fill="#D86367" d="M491.552,365.522c-0.25,0-0.5,0-0.75,0c-0.064-1.122-0.932-0.637-1.5-0.75c0-0.75,0-1.5,0-2.25
			c0.75-0.25,1.5-0.5,2.25-0.75c0.25,0.25,0.5,0.5,0.75,0.75C491.591,363.406,491.462,364.437,491.552,365.522z"/>
		<path fill="#FEFEFE" d="M491.552,365.522c-0.09-1.085,0.039-2.115,0.75-3c0.25,0,0.5,0,0.75,0c0.09,1.085-0.039,2.115-0.75,3
			C492.052,365.522,491.802,365.522,491.552,365.522z"/>
		<path fill="#E28B8E" d="M491.552,361.771c-0.75,0.25-1.5,0.5-2.25,0.75c-0.25-0.25-0.5-0.5-0.75-0.75c0-0.25,0-0.5,0-0.75
			c1,0,2,0,3,0C491.552,361.271,491.552,361.521,491.552,361.771z"/>
		<path fill="#FEFEFE" d="M491.552,361.021c-1,0-2,0-3,0c0-0.25,0-0.5,0-0.75c0.706,0,1.425-0.077,2.113,0.034
			C490.991,360.358,491.258,360.771,491.552,361.021z"/>
		<path fill="#FDF8F9" d="M162.383,435.408c2.721-1.859,5.675-1.755,9.029-1.523c0.254,0.961,0.517,1.959,0.739,2.8
			c-0.734,1.057-1.326,1.909-2.12,3.051c-2.379,0.304-4.531,2.635-7.648,2.249C162.383,439.846,162.383,437.77,162.383,435.408z"/>
		<path fill="#FCF7F8" d="M170.385,427.153c-2.351,3.061-4.736,4.405-8.021,4.385c0-0.999,0-1.831,0-2.86
			c0.761-0.479,1.657-1.043,2.421-1.524C166.471,427.153,168.056,427.153,170.385,427.153z"/>
		<path fill="#FCF7F8" d="M393.233,426.592c0,1.183,0,1.664,0,2.348c-2.016,2.389-4.822,3.22-8.097,3.362c0-1.279,0-2.365,0-3.727
			C387.631,427.963,390.231,427.327,393.233,426.592z"/>
		<path fill="#FCF7F8" d="M202.881,428.639c2.972-0.599,5.687-2.716,8.949-0.749c-2.297,3.145-5.304,4.239-8.949,4.433
			C202.881,431.077,202.881,429.991,202.881,428.639z"/>
		<path fill="#FCF4F5" d="M272.414,428.012c-0.31,0.673-0.551,1.196-0.818,1.773c-2.456,1.042-4.796,2.743-7.922,2.47
			c0-1.108,0-2.186,0-3.476c0.619-0.272,1.412-0.789,2.277-0.973C270.551,426.824,270.557,426.852,272.414,428.012z"/>
		<path fill="#FDF8F9" d="M348.282,437.902c-3.321,3.759-4.514,4.551-7.359,4.802c0-1.088,0-2.169,0-3.335
			c1.622-1.897,2.559-4.896,5.958-4.838C348.62,435.127,348.25,436.598,348.282,437.902z"/>
		<path fill="#FAEEEE" d="M311.879,442.658c-1.068,0-1.788,0-2.537,0c0-0.71,0-1.295,0-1.917c1.744-1.209,3.5-2.275,5.808-2.595
			c0,0.835,0,1.416,0,1.839C314.039,440.892,312.935,441.794,311.879,442.658z"/>
		<path fill="#FEFEFE" d="M488.552,361.021c0,0.25,0,0.5,0,0.75c0,1.25,0,2.5,0,3.751c-0.48-0.319-0.96-0.637-1.448-0.962
			c0-0.879,0-1.698,0-2.577C487.592,361.659,488.072,361.34,488.552,361.021z"/>
		<path fill="#CA282E" d="M488.552,365.522c0-1.25,0-2.5,0-3.751c0.25,0.25,0.5,0.5,0.75,0.75c0,0.75,0,1.5,0,2.25
			c0,0.25,0,0.5,0,0.75C489.052,365.522,488.802,365.522,488.552,365.522z"/>
		<path fill="#FEFEFE" d="M489.302,365.522c0-0.25,0-0.5,0-0.75c0.569,0.113,1.436-0.372,1.5,0.75c-0.311,0.25-0.622,0.5-0.933,0.75
			C489.68,366.022,489.491,365.772,489.302,365.522z"/>
	</g>
</g>
</svg>
