<?xml version="1.0" encoding="utf-8"?>
<!-- Generator: Adobe Illustrator 17.0.0, SVG Export Plug-In . SVG Version: 6.00 Build 0)  -->
<!DOCTYPE svg PUBLIC "-//W3C//DTD SVG 1.1//EN" "http://www.w3.org/Graphics/SVG/1.1/DTD/svg11.dtd">
<svg version="1.1" id="Layer_1" xmlns="http://www.w3.org/2000/svg" xmlns:xlink="http://www.w3.org/1999/xlink" x="0px" y="0px"
	 width="500px" height="500px" viewBox="0 0 500 500" enable-background="new 0 0 500 500" xml:space="preserve">
<g id="g3891" transform="matrix(0.0960355,0,0,0.0960355,1.5004145,-2.1827585)">
	<path id="path8" fill="#C91F27" d="M2713.36,2042.55c-146.698,11.585-252.377,102.391-281.341,241.888
		c-6.889,32.721-8.141,46.342-8.141,88.458c0,40.706,1.096,53.387,7.202,84.543c12.212,61.529,46.029,121.805,89.553,159.849
		c42.741,37.262,94.72,59.963,155.466,67.948c23.015,2.975,68.417,2.975,89.397,0c44.464-6.262,84.543-22.232,112.411-44.933
		c7.358-5.949,13.308-10.177,13.464-9.55c0,0.783,1.253,10.333,2.662,21.605l2.661,20.353l73.271,0.47l73.114,0.313v-174.566
		v-174.566h-144.037h-144.037v75.149v75.15h39.923c27.085,0,39.923,0.47,39.923,1.722c0,0.783-5.48,7.045-12.055,13.621
		c-13.934,13.934-31.156,23.484-49.787,27.868c-16.282,3.758-44.307,2.349-61.216-3.131c-47.908-15.343-72.488-64.347-72.645-144.35
		c-0.156-77.968,24.58-136.522,64.973-154.057c16.909-7.202,44.15-9.081,63.251-4.071c30.06,7.671,52.761,30.686,61.998,62.312
		l2.505,9.081h103.331h103.174l-0.626-3.601c-0.47-1.879-2.348-11.272-4.227-20.666c-4.697-24.737-12.525-47.125-24.111-70.453
		c-39.923-80.003-114.76-130.572-212.924-143.88C2774.106,2042.08,2735.279,2040.828,2713.36,2042.55L2713.36,2042.55z"/>
	<path id="path10" fill="#C91F27" d="M4733.319,2042.55c-105.679,7.358-181.612,48.221-215.429,115.856
		c-25.676,51.039-24.11,127.754,3.288,173c11.899,19.727,34.443,42.272,56.988,57.302c12.525,8.454,43.211,23.328,62.625,30.529
		c8.611,3.131,44.15,12.995,79.064,21.762c91.901,23.328,110.846,30.53,118.36,44.933c3.914,7.358,2.192,18.944-3.444,24.893
		c-10.333,10.803-32.721,17.065-60.746,17.065c-43.681,0-72.488-18.944-79.22-52.135l-1.723-8.924h-103.487h-103.487l1.096,15.813
		c4.854,74.523,50.413,137.148,126.658,173.627c47.125,22.701,88.301,31.312,148.577,31.312
		c102.705,0,182.551-25.833,231.554-74.993c27.085-27.085,42.428-54.953,50.726-92.058c3.444-14.873,4.854-59.337,2.505-75.776
		c-5.01-33.974-21.918-66.226-47.908-90.493c-36.009-33.661-81.725-53.074-183.021-77.655
		c-73.271-17.848-102.861-30.999-107.401-47.751c-3.288-12.212,3.288-20.196,19.883-24.11c30.529-7.515,66.539-2.348,82.665,11.899
		c8.454,7.515,11.742,13.151,14.09,24.737l1.879,8.611l102.705,0.47l102.861,0.313v-4.54c0-15.343-9.237-51.039-19.257-73.74
		c-13.777-31.782-42.428-65.912-71.548-85.169c-33.348-22.388-78.907-38.045-124.467-43.055
		C4796.099,2041.924,4755.706,2041.141,4733.319,2042.55L4733.319,2042.55z"/>
	<path id="path12" fill="#C91F27" d="M-20.832,2364.284v307.644H87.195h108.028v-104.114v-104.114h106.462h106.462v-79.846v-79.846
		H301.685H195.223v-43.837v-43.837h133.86h133.86v-79.846v-79.846H221.055H-20.832V2364.284z"/>
	<path id="path14" fill="#C91F27" d="M549.052,2364.284v307.644H657.08h108.028v-307.644v-307.644H657.08H549.052V2364.284z"/>
	<path id="path16" fill="#C91F27" d="M840.726,2060.085c0.47,2.035,47.595,140.436,104.74,307.644l103.8,304.199h105.836h105.836
		l105.836-304.982c58.084-167.677,106.149-306.078,106.775-307.644c1.096-2.505-4.697-2.662-109.124-2.662h-110.219l-49.317,180.046
		c-26.929,98.947-49.473,180.046-49.943,180.046s-21.606-78.75-46.812-175.036c-25.363-96.129-46.655-177.228-47.438-180.046
		l-1.409-5.01h-109.75H839.943L840.726,2060.085L840.726,2060.085z"/>
	<path id="path18" fill="#C91F27" d="M1546.35,2364.284v307.644h258.327h258.327v-79.846v-79.846h-150.299h-150.299v-36.009v-36.009
		h122.901h122.901v-79.846v-79.846h-122.901h-122.901v-32.095v-32.095h144.819h144.819v-79.846v-79.846h-252.847H1546.35V2364.284z"
		/>
	<path id="path20" fill="#C91F27" d="M3153.142,2253.438c0.47,210.106,0.313,204.626,8.298,243.923
		c6.106,30.686,20.51,66.069,36.635,90.493c10.959,16.595,32.878,39.14,49.63,51.039c25.05,18.005,58.554,31.939,93.624,38.984
		c38.357,7.985,50.256,8.924,108.027,8.768c48.691,0,57.302-0.313,76.715-3.445c68.261-10.803,113.194-30.843,148.89-66.695
		c35.696-35.853,54.327-76.715,65.286-144.193c3.131-19.883,3.288-25.52,3.757-218.09l0.626-197.581h-108.028h-108.028
		l-0.626,198.364c-0.47,179.576-0.783,199.459-3.131,209.167c-7.358,29.747-23.641,47.281-49.787,53.544
		c-21.136,4.854-55.11,2.192-70.609-5.636c-9.551-4.853-20.979-16.439-25.52-25.52c-9.55-19.57-9.237-10.803-9.707-229.989
		l-0.626-199.929h-108.028h-108.028L3153.142,2253.438L3153.142,2253.438z"/>
	<path id="path22" fill="#C91F27" d="M3794.575,2057.423c0,0.47,51.509,88.771,114.29,196.172l114.29,195.545v111.315v111.472
		h108.028h108.027V2558.89V2446.01l114.29-193.823c62.938-106.462,114.29-194.136,114.29-194.606
		c0-0.469-54.014-0.783-119.926-0.626l-120.083,0.47l-47.125,92.685c-25.833,51.039-47.438,92.841-47.908,92.841
		s-21.918-41.802-47.751-92.841l-46.969-92.685l-121.648-0.47C3849.371,2056.797,3794.575,2056.954,3794.575,2057.423
		L3794.575,2057.423z"/>
	<path id="path24" fill="#C91F27" d="M1515.82,2903.169c-6.732,0.783-13.464,1.879-14.873,2.505
		c-1.253,0.626-2.975,1.253-3.914,1.253c-0.783,0.156-2.661,0.783-3.914,1.252c-1.253,0.469-6.262,2.035-10.959,3.601
		c-11.742,3.601-23.641,9.707-38.201,19.727c-6.732,4.54-13.464,9.081-14.873,9.863c-6.732,4.227-37.731,33.504-37.731,35.696
		c0,0.783-2.348,4.227-5.323,7.828c-15.343,18.944-28.964,49.473-31.625,70.766c-0.47,4.227-1.252,8.924-1.722,10.177
		c-0.939,3.131-0.939,43.994,0,46.969c0.47,1.252,1.722,7.045,2.662,12.995c2.192,13.934,9.394,32.251,16.126,41.332
		c7.358,9.863,22.232,24.111,30.373,29.277c6.889,4.227,19.883,9.081,31.782,11.898c11.429,2.662,50.1,1.879,67.165-1.409
		c28.025-5.48,55.892-19.57,77.341-39.297c10.02-9.237,24.424-26.302,29.277-35.227c1.879-3.444,6.576-11.585,10.333-18.004
		c16.752-29.277,24.111-73.427,14.717-88.927c-4.853-7.828-11.116-10.177-25.05-9.237c-11.429,0.783-65.599,12.368-70.609,15.187
		c-3.131,1.566-16.909,4.071-31.156,5.48c-16.752,1.722-22.388,6.889-24.267,22.232c-1.253,9.55,2.505,17.378,10.177,21.292
		c8.767,4.541,36.948,2.818,65.756-4.071c12.525-3.131,22.858-5.323,22.858-5.323c0.156,0.156-1.722,5.636-4.384,12.055
		c-6.106,15.343-18.944,33.034-35.696,49.004c-27.398,26.302-40.393,31.469-74.367,30.373c-23.797-0.783-31.312-3.288-41.489-13.934
		c-5.793-5.793-15.969-22.701-16.439-27.085c-0.157-0.939-1.096-3.758-2.192-6.262c-4.697-10.646-3.601-46.969,1.722-59.963
		c0.939-2.348,1.879-4.54,2.035-5.01c0.626-2.035,8.924-18.787,12.525-25.05c10.02-18.005,40.236-47.282,59.807-58.397
		c26.772-15.03,37.105-17.535,64.19-15.187c18.787,1.722,22.388,3.131,22.388,9.081c0,5.323,5.01,13.621,9.707,16.126
		c5.323,2.818,20.666,5.793,23.171,4.384c1.253-0.626,4.697-2.035,7.515-3.131c6.575-2.348,12.525-11.585,13.934-20.979
		c0.626-5.636,0.156-8.298-3.444-15.03c-5.01-9.707-13.151-20.823-16.439-22.701c-9.081-5.167-25.206-12.212-27.242-11.742
		c-0.626,0.156-2.192-0.47-3.444-1.409c-1.096-1.096-3.601-1.722-5.636-1.409c-2.035,0.156-4.697-0.156-5.949-0.626
		C1555.9,2902.386,1528.189,2901.76,1515.82,2903.169L1515.82,2903.169z"/>
	<path id="path26" fill="#C91F27" d="M3211.383,2906.144c-0.626,0.939-1.879,1.409-2.818,1.096
		c-2.975-1.096-12.838,4.54-17.222,9.864c-6.732,7.828-7.671,23.328-1.879,29.747c2.192,2.348,2.505,7.045,2.035,33.034
		l-0.47,30.373l-5.167,0.156c-2.818,0.156-5.48-0.47-5.949-1.252c-1.096-1.722-7.985-1.566-9.237,0.313
		c-0.47,0.783-3.601,1.565-6.732,1.565c-17.065,0-44.307,12.212-64.19,28.808c-14.247,11.898-34.6,33.191-40.08,42.115
		c-1.722,2.818-3.601,5.323-4.071,5.793c-3.288,3.131-16.282,32.252-18.161,40.55c-4.384,20.823-1.879,48.378,5.479,60.276
		c5.323,8.454,15.03,16.282,23.484,18.787c7.671,2.192,37.575,3.601,42.428,2.035c1.253-0.469,6.576-2.035,11.742-3.444
		c5.167-1.409,13.308-4.697,18.005-7.358c17.691-9.863,46.029-33.191,48.691-40.08c0.783-1.879,1.879-3.444,2.505-3.444
		c2.035,0,2.035,12.995,0,15.5c-0.94,1.096-1.879,6.106-1.879,10.959c0,6.732,0.939,10.02,3.601,13.934
		c5.48,7.515,10.959,9.707,24.58,9.707c20.196,0,27.868-6.262,27.555-22.545c-0.157-4.384-0.783-64.347-1.409-133.234
		c-1.096-116.638-1.253-125.563-3.914-130.416c-2.818-5.01-11.585-11.586-16.596-12.212c-1.409-0.156-4.071-0.783-5.793-1.409
		C3213.888,2904.735,3212.009,2905.048,3211.383,2906.144L3211.383,2906.144z M3186.333,3058.009c3.288,0,5.323,7.985,3.131,13.308
		c-7.828,20.04-14.873,30.216-36.009,52.292c-23.641,24.58-45.873,39.297-59.493,39.297c-4.54,0-5.636-0.626-6.419-4.071
		c-1.722-6.889,0.47-18.631,5.793-29.903c12.368-26.459,45.56-60.12,66.539-67.165c9.081-3.131,19.57-5.167,22.232-4.384
		C3183.358,3057.696,3185.08,3058.009,3186.333,3058.009L3186.333,3058.009z"/>
	<path id="path28" fill="#C91F27" d="M3571.475,2906.144c-0.626,0.939-2.661,1.566-4.384,1.409
		c-1.879-0.156-5.167,0.313-7.358,1.252c-2.192,0.783-23.171,4.227-46.655,7.515l-42.741,5.793l-3.757-3.444
		c-6.419-6.106-24.893-7.515-34.444-2.818c-7.671,3.914-11.742,9.864-15.813,22.858c-4.384,14.091-4.384,25.676,0.313,32.251
		c1.722,2.505,2.192,9.707,2.192,34.444c0,27.555-0.313,31.625-2.662,34.287c-2.192,2.192-2.818,5.793-2.818,14.404
		c0,8.611,0.626,12.212,2.818,14.404c2.349,2.818,2.662,7.358,2.662,45.716c0,39.454-0.157,43.054-3.131,48.691
		c-4.54,8.767-4.227,22.858,0.47,29.747c5.323,7.828,12.525,10.959,25.52,10.959c6.106,0,13.464-0.783,16.439-1.722
		c12.212-4.227,19.414-18.631,15.5-31.313c-1.566-4.853-2.349-19.1-2.662-49.473l-0.626-42.428l4.384-0.939
		c2.348-0.47,20.196-2.975,39.61-5.636c19.414-2.662,36.479-5.48,37.888-6.262c1.565-0.939,8.611-1.566,15.656-1.566
		c7.202,0,14.717-0.939,16.909-2.035c9.081-4.54,14.404-21.136,10.959-33.974c-1.879-6.732-11.116-15.656-16.439-15.656
		c-1.879,0-4.071-0.783-5.167-1.879c-1.252-1.253-2.818-1.409-5.323-0.156c-8.141,3.914-22.701,6.889-55.266,11.429
		c-18.944,2.661-36.322,5.167-38.671,5.636l-4.384,0.939v-27.555c0-27.242,0-27.555,3.601-28.181
		c1.879-0.47,16.909-2.662,33.191-4.854c16.439-2.192,30.843-4.697,32.252-5.323c1.253-0.783,4.227-1.096,6.419-0.626
		c2.192,0.47,4.54,0,5.01-0.939c0.783-1.096,7.985-1.722,19.57-1.722c16.596,0,19.101-0.313,23.797-3.601
		c2.975-1.879,6.575-6.106,8.298-9.55c3.444-7.045,3.757-20.51,0.783-26.929c-2.818-5.793-12.368-11.898-18.944-12.368
		c-2.818-0.156-6.732-0.939-8.454-1.565C3573.98,2904.735,3572.101,2905.048,3571.475,2906.144L3571.475,2906.144z"/>
	<path id="path30" fill="#C91F27" d="M668.822,2910.998c-15.03,1.409-49.004,8.141-59.18,11.742
		c-5.48,1.879-6.419,1.879-10.49-1.096c-9.863-7.358-30.216-5.167-39.297,4.227c-5.167,5.323-5.323,5.949-4.853,15.969
		c0.157,5.793,0.783,57.771,1.096,115.699c0.783,103.331,0.783,105.366-2.348,110.376c-3.914,6.419-4.227,21.136-0.783,27.868
		c1.409,2.662,5.167,6.106,8.611,7.828c12.368,6.262,49.63,3.444,90.649-6.889c8.924-2.348,17.065-4.697,18.005-5.323
		c0.939-0.47,2.035-1.096,2.505-1.252c0.47,0,4.227-1.566,8.298-3.444c4.227-1.879,8.298-3.444,9.237-3.444
		c4.697,0,43.994-25.833,51.196-33.504c2.192-2.192,4.54-4.071,5.636-4.071c1.722,0,10.176-8.924,10.176-10.959
		c0-0.626,1.096-2.192,2.662-3.288c3.601-3.131,15.03-21.292,18.005-28.807c3.758-9.55,6.419-28.494,5.323-37.888
		c-1.879-15.656-10.646-31.156-23.015-40.55c-5.167-3.757-20.04-9.863-28.181-11.585l-8.767-1.722l8.298-8.454
		c5.01-5.167,10.177-12.681,13.151-19.101c2.662-5.949,5.48-11.899,6.263-13.308c0.783-1.566,1.096-3.758,0.626-5.01
		c-0.47-1.253-0.157-2.662,0.783-3.288c2.192-1.252,2.192-11.272,0.157-12.525c-0.939-0.626-1.566-1.879-1.409-2.818
		c0.626-3.758-3.601-11.429-10.02-18.005c-9.237-9.55-19.727-14.404-36.322-16.909
		C689.488,2909.119,689.331,2909.119,668.822,2910.998z M698.881,2960.001c3.288,1.722,3.288,1.879,0.939,6.889
		c-5.949,12.368-33.034,31.782-54.014,38.827c-6.263,2.192-12.838,4.54-14.56,5.323c-3.601,1.722-15.969,4.54-19.883,4.697
		c-2.505,0-2.818-2.035-2.818-20.197v-20.196l7.515-3.131c4.071-1.722,11.586-4.227,16.752-5.636s10.49-3.131,11.742-3.601
		c1.253-0.626,3.131-1.252,3.914-1.252c0.939-0.156,2.662-0.783,4.071-1.409C661.15,2956.557,691.68,2956.244,698.881,2960.001z
		 M711.72,3056.913c17.378,3.601,23.015,11.899,18.161,26.772c-1.566,4.384-4.697,10.646-7.202,14.091
		c-5.01,6.889-20.666,20.666-26.459,23.328c-2.192,1.096-9.237,5.01-15.656,8.768c-6.419,3.757-14.873,8.298-18.787,9.863
		c-9.55,4.227-33.661,11.585-42.272,12.995c-3.914,0.626-7.985,1.879-8.924,2.662c-1.566,1.252-2.035-7.515-2.035-42.898
		c0-33.191,0.47-45.09,2.035-47.125c2.505-3.445,27.242-8.611,49.473-10.333C678.685,3053.469,699.195,3054.251,711.72,3056.913z"/>
	<path id="path32" fill="#C91F27" d="M1007.934,2910.841c-7.828,1.722-15.187,7.672-18.318,15.187
		c-2.505,5.949-2.818,15.187-0.626,19.257c1.096,2.035,1.566,34.444,1.566,91.119v88.144l-5.323,7.358
		c-4.697,6.106-17.535,16.909-20.197,16.909c-0.47,0-4.227,1.566-8.454,3.444c-4.071,1.879-7.828,3.444-8.298,3.444
		c-0.47,0.156-1.409,0.626-2.348,1.252c-3.288,2.035-20.51,4.384-31.939,4.384c-16.909-0.156-23.641-1.879-28.807-8.141
		l-4.384-5.167l0.157-106.775v-106.618l-3.444-6.106c-5.167-9.237-9.081-12.838-15.813-14.717
		c-12.838-3.445-32.252,5.479-32.565,14.873c0,1.722,0,53.701,0.157,115.229l0.156,111.942l3.758,10.803
		c2.035,5.949,5.01,11.899,6.576,13.464c1.566,1.565,3.914,4.071,5.323,5.636c7.202,8.454,21.605,16.282,37.262,20.353
		c8.141,2.035,15.5,2.349,37.575,1.722c37.731-0.939,56.206-6.106,78.437-21.762c5.323-3.601,11.116-7.515,12.681-8.454
		c3.758-2.192,18.474-16.752,18.631-18.318c0-0.783,1.722-3.601,3.758-6.262c8.141-10.646,7.985-8.141,9.081-112.255
		c0.626-53.857,1.409-101.765,1.566-106.462c0.313-10.177-2.975-17.691-9.55-20.979
		C1028.757,2910.214,1016.388,2909.118,1007.934,2910.841L1007.934,2910.841z"/>
	<path id="path34" fill="#C91F27" d="M1127.078,2910.841c-15.656,3.601-22.388,14.717-19.414,31.313
		c1.566,8.611,1.566,8.611-4.227,14.404c-3.131,3.288-5.636,6.576-5.636,7.358c0,0.783-0.47,2.035-1.096,2.662
		c-0.783,0.626-1.252,4.854-1.252,9.55c0,9.081,4.853,19.101,10.959,22.388c3.131,1.722,3.131,3.131,3.131,82.821
		c0,71.079-0.313,81.882-2.505,87.205c-5.01,11.899,0.156,28.651,9.863,32.721c8.611,3.601,27.085,3.131,35.383-0.939
		c5.793-2.818,7.359-4.54,9.707-11.116c2.505-6.889,2.505-9.081,0.939-18.318c-1.252-6.575-1.722-21.918-1.409-42.115l0.47-31.625
		l11.899,10.49c6.419,5.949,29.277,26.146,50.882,45.09c21.449,18.787,42.585,38.044,46.812,42.428
		c10.333,10.646,12.525,11.586,27.085,11.586c13.464,0,19.414-2.662,25.833-11.272c5.949-8.141,6.106-25.363,0.156-32.252
		c-2.818-3.444-11.899-8.611-15.656-8.924c-3.131-0.156-10.177-5.636-48.378-38.044c-20.979-17.848-43.211-36.322-49.16-41.019
		c-6.106-4.697-10.959-8.924-11.116-9.394c0-0.47,4.071-1.722,9.081-2.975c8.924-2.035,39.767-15.5,40.706-17.691
		c0.313-0.783,1.253-1.252,2.192-1.252c6.419,0,38.827-30.06,43.837-40.706c10.02-21.605,9.707-20.666,9.55-36.166
		c0-13.464-0.47-16.126-4.54-24.11c-9.863-19.57-23.797-29.277-46.499-32.095c-24.893-3.131-59.337,3.601-83.291,16.282
		l-7.672,4.227l-2.661-5.167c-3.914-7.671-11.272-13.777-18.005-15.5C1136.001,2909.119,1134.122,2909.119,1127.078,2910.841
		L1127.078,2910.841z M1247.004,2958.592c3.288,0.626,5.01,2.348,6.419,6.262c1.566,4.697,1.566,6.262-1.096,12.212
		c-1.722,3.758-5.167,9.237-7.985,12.368c-7.045,7.985-31.156,24.267-45.246,30.217c-15.813,6.889-23.641,10.02-25.05,10.177
		c-0.626,0.156-1.879,0.939-2.975,1.879c-1.096,0.783-2.662,1.096-3.444,0.626c-0.783-0.626-1.879-0.313-2.505,0.626
		c-2.975,4.853-3.914-0.783-3.914-25.52v-26.929l9.081-4.227c4.853-2.348,13.934-6.106,19.883-8.298
		c6.106-2.192,12.055-4.54,13.308-5.01c2.975-1.252,2.505-1.096,12.525-3.288
		C1230.878,2956.401,1234.792,2956.244,1247.004,2958.592z"/>
	<path id="path36" fill="#C91F27" d="M1956.071,2910.998c-7.985,1.879-12.838,5.323-16.909,11.899
		c-2.975,4.697-3.288,6.889-2.505,16.752c0.939,10.959,0.783,11.585-3.131,15.186c-2.192,2.035-5.01,5.949-6.106,8.768
		c-4.697,10.959-1.096,28.964,6.576,34.13l3.758,2.505l-0.783,84.074c-0.313,46.186-0.939,89.24-1.096,95.346
		c-0.47,11.272-0.47,11.429,5.48,17.222l5.793,5.949h16.126c12.838,0,17.065-0.626,20.353-2.818
		c6.419-4.227,9.394-12.681,8.141-23.797c-0.626-5.167-1.409-25.676-1.722-45.403l-0.783-36.009l8.298,7.985
		c4.54,4.384,26.615,24.111,49.004,43.681c22.389,19.727,46.029,40.863,52.605,47.125c12.995,12.525,16.596,13.934,33.191,12.838
		c12.838-0.783,20.197-5.479,23.641-15.343c3.131-8.924,3.131-17.691,0-24.267c-2.975-6.419-13.464-13.934-17.691-12.838
		c-2.035,0.47-5.323-1.096-9.864-4.854c-3.758-3.131-23.328-19.883-43.524-37.105c-20.197-17.222-40.55-34.444-44.933-38.201
		c-4.54-3.601-8.298-7.202-8.298-7.985c0-0.626,2.348-1.722,5.167-2.192c2.661-0.47,12.368-3.914,21.449-7.671
		c37.731-15.5,67.948-43.681,74.523-69.983c3.758-15.03,2.505-33.034-3.288-44.777c-4.854-9.863-14.091-20.979-17.535-20.979
		c-1.096,0-2.035-0.626-2.035-1.409s-5.01-2.975-11.272-5.01c-16.282-5.167-39.61-4.853-62.938,0.783
		c-9.394,2.192-20.196,5.636-24.267,7.515c-3.914,1.879-7.515,3.444-7.985,3.601c-0.47,0-2.975,1.409-5.793,2.818
		c-6.419,3.444-6.262,3.444-7.515-2.035c-1.566-7.515-6.576-12.212-15.186-14.873
		C1966.091,2908.962,1964.682,2908.962,1956.071,2910.998L1956.071,2910.998z M2072.553,2957.81c5.949,0,10.803,5.01,10.803,10.959
		c0,17.222-29.121,41.176-68.104,56.362c-5.167,2.035-10.177,4.227-11.116,5.01c-0.939,0.626-4.54,2.192-8.141,3.444l-6.576,2.348
		v-28.025c0-17.691,0.626-28.181,1.566-28.181c0.783,0,8.454-3.131,16.752-6.732c20.51-9.237,21.292-9.394,23.641-9.081
		c0.939,0.156,1.879-0.47,1.879-1.566c0-0.939,1.096-1.252,2.505-0.783c1.409,0.626,3.444,0.313,4.54-0.626
		c2.035-1.722,22.232-4.697,25.52-3.757C2067.074,2957.496,2070.048,2957.81,2072.553,2957.81L2072.553,2957.81z"/>
	<path id="path38" fill="#C91F27" d="M2303.325,2910.841c-19.1,2.192-43.211,9.55-49.317,14.874
		c-1.252,1.096-5.949,3.914-10.49,6.106c-4.384,2.348-12.055,7.828-17.222,12.212c-8.767,7.672-23.797,24.424-23.954,26.615
		c0,0.626-2.505,5.167-5.48,10.177c-9.237,15.187-12.368,27.085-12.525,45.873c0,9.237,0.939,19.57,2.035,23.641
		c3.288,10.959,12.212,21.762,22.701,27.085c8.141,4.227,10.959,4.697,27.085,5.323c10.333,0.47,22.075,0,27.711-1.096
		c12.995-2.505,49.943-12.681,52.135-14.404c0.939-0.783,2.192-0.939,2.662-0.313c0.626,0.47,1.879,0.156,2.975-0.783
		c2.818-2.348,20.353-5.167,32.252-5.479c9.55,0,10.49,0.156,14.56,4.853c3.758,4.227,4.54,6.419,4.54,13.308
		c0,18.944-8.767,35.853-25.363,49.787c-11.429,9.55-19.414,14.09-34.131,19.883c-6.419,2.505-13.151,5.167-14.873,5.793
		c-1.722,0.783-3.444,1.409-3.914,1.409c-0.47,0.156-1.722,0.783-2.975,1.566c-1.096,0.783-10.177,1.722-19.883,2.192l-17.848,0.783
		l-5.167-5.48c-3.444-3.601-6.419-9.394-8.924-17.691c-2.818-9.237-5.48-14.247-10.333-19.414
		c-6.106-6.576-7.045-7.045-16.126-7.672c-8.611-0.626-10.333-0.156-15.813,3.601c-10.49,7.202-13.308,13.464-13.308,28.964
		c0.156,17.535,4.384,27.085,19.1,41.802c18.631,18.944,32.408,23.171,70.923,21.919c19.1-0.626,27.242-1.722,38.358-4.697
		c18.161-5.01,19.57-5.636,35.383-14.404c7.202-4.071,15.03-8.454,17.222-9.55c7.045-3.757,28.494-23.328,35.227-32.095
		c8.767-11.429,17.222-29.747,19.57-42.115c0.939-5.636,2.505-10.803,3.131-11.742c2.035-2.035,1.722-34.757-0.156-36.009
		c-0.939-0.626-1.253-1.566-0.783-2.348c1.566-2.505-8.924-20.353-15.813-26.615c-5.949-5.48-11.116-8.298-28.338-16.126
		c-1.722-0.783-4.071-0.939-5.01-0.469c-0.939,0.626-1.722,0.469-1.722-0.313c0-1.722-24.737-3.758-27.242-2.348
		c-0.939,0.626-4.227,0.939-7.515,0.626c-3.288-0.156-6.732,0.156-7.828,0.939c-1.096,0.626-3.444,1.252-5.167,1.252
		c-1.722,0-3.758,0.469-4.697,1.096c-0.783,0.469-5.48,1.722-10.177,2.818c-11.272,2.505-51.822,13.934-54.797,15.343
		c-1.253,0.626-5.167,1.096-8.611,1.096c-7.828,0-10.646-4.541-9.237-14.874c1.409-10.49,7.515-20.51,20.04-32.565
		c10.02-9.707,29.12-21.919,32.878-20.979c0.626,0.313,2.035-0.313,3.131-1.096c2.975-2.505,24.737-4.54,33.348-3.288
		c10.333,1.722,13.464,3.444,18.631,10.333c6.419,8.454,12.055,10.646,26.146,10.646c13.464,0,18.787-2.662,22.858-10.646
		c3.131-6.732,2.818-21.449-0.783-27.711c-6.732-11.429-25.52-22.545-46.812-27.868
		C2336.047,2910.215,2315.537,2909.432,2303.325,2910.841L2303.325,2910.841z"/>
	<path id="path40" fill="#C91F27" d="M3670.265,2910.998c-14.717,3.601-20.51,12.212-19.257,28.964
		c0.783,10.646,0.626,11.429-3.131,15.03c-5.479,5.01-8.298,12.212-8.298,21.605c0,8.924,4.384,19.257,9.394,21.918
		c3.131,1.722,3.131,2.662,2.505,85.013c-0.313,45.873-1.096,88.301-1.722,94.563l-1.096,11.272l6.262,6.732l6.419,6.732
		l12.995,0.47c15.343,0.626,23.797-1.722,28.494-7.985c2.661-3.601,3.288-6.262,2.818-14.873
		c-1.409-38.984-1.722-83.291-0.626-83.291c0.783,0,2.505,1.096,3.601,2.661c1.253,1.409,25.52,23.171,53.857,48.221
		c28.494,25.207,53.231,47.595,55.11,49.787c7.985,9.394,29.277,12.055,42.741,5.323c5.949-2.975,7.515-4.697,9.864-11.272
		c1.722-5.01,2.505-10.959,2.192-16.282c-0.626-7.828-1.253-9.081-7.985-15.5c-5.636-5.323-8.298-6.732-11.272-6.106
		c-2.035,0.313-3.757,0-3.757-0.626c0-0.783-0.783-1.409-1.722-1.409c-0.94,0-11.585-8.455-23.797-18.944
		c-12.212-10.333-34.757-29.434-49.943-42.428c-15.343-12.994-27.868-24.11-27.868-24.737s2.348-1.722,5.167-2.192
		c10.333-2.035,38.201-14.56,49.787-22.388c34.913-23.641,49.787-47.908,47.908-77.968c-2.035-32.408-19.883-49.63-55.11-53.231
		c-20.196-1.879-62.625,7.202-79.69,17.222c-7.985,4.697-8.768,4.697-8.768,1.096c0-4.227-5.793-12.525-10.49-15.03
		C3688.74,2910.371,3677.624,2909.119,3670.265,2910.998L3670.265,2910.998z M3793.323,2959.688
		c3.914,1.879,5.167,8.298,2.975,15.187c-4.54,15.187-32.095,36.479-63.251,48.847c-13.621,5.48-14.404,5.793-15.343,5.48
		c-0.47,0-1.879,0.626-3.131,1.722c-1.253,0.939-4.227,2.505-6.576,3.444l-4.227,1.722v-28.181c0-23.328,0.313-28.181,2.192-28.181
		c1.253,0,8.141-2.818,15.343-6.262c7.202-3.601,16.909-7.515,21.605-8.767c4.697-1.252,10.02-3.131,11.742-3.914
		C3762.323,2957.027,3786.904,2956.244,3793.323,2959.688z"/>
	<path id="path42" fill="#C91F27" d="M3930.784,2910.684c-3.914,0.626-9.081,2.192-11.742,3.601
		c-10.177,5.479-15.813,19.727-11.899,29.903c2.662,6.889,2.505,220.439-0.157,222.004c-1.252,0.783-2.035,5.01-2.035,11.429
		c0,11.272,2.505,16.282,11.742,22.545c4.384,2.818,7.202,3.445,18.318,3.445c7.671,0,15.187-0.939,18.318-2.192
		c6.732-2.818,12.838-10.959,12.212-15.969c-0.313-2.035,0.313-3.758,1.253-3.758c0.939,0,1.252-0.783,0.47-2.035
		c-0.626-0.939-1.096-3.288-1.253-5.01c0-1.879-1.252-5.167-2.661-7.515c-2.661-3.758-2.818-11.742-2.818-108.341v-104.113
		l4.227-6.732c7.358-11.586,3.757-28.964-7.358-34.757C3952.076,2910.371,3939.864,2909.275,3930.784,2910.684L3930.784,2910.684z"
		/>
	<path id="path44" fill="#C91F27" d="M4381.681,2910.841c-35.54,3.601-66.852,20.666-91.588,49.63
		c-7.828,9.081-19.883,28.025-20.353,31.782c0,0.47-0.939,2.192-1.879,3.914c-3.131,5.636-5.636,25.207-4.854,37.731
		c1.409,24.58,12.368,39.923,32.721,46.186c9.707,2.975,13.464,3.288,31,2.505c20.04-0.939,46.968-6.732,67.478-14.717
		c1.252-0.626,2.662-1.096,3.131-1.252s1.878-0.626,3.131-1.096c11.742-4.54,40.393-5.949,46.029-2.192
		c7.515,4.854,6.419,28.338-1.879,43.837c-5.323,9.707-24.423,27.555-37.105,34.757c-5.479,2.975-14.403,6.889-19.883,8.767
		c-5.323,1.722-10.802,3.914-11.898,4.854c-1.096,0.783-2.349,1.096-2.975,0.626c-0.47-0.626-2.036-0.313-3.131,0.783
		c-1.252,0.939-9.55,2.035-18.944,2.505c-15.499,0.626-17.065,0.313-21.136-2.818c-4.854-3.914-9.55-12.212-11.272-20.353
		c-1.723-8.454-6.263-16.282-12.525-21.605c-4.697-4.227-6.888-5.01-13.308-5.01c-4.227,0-9.55,0.783-12.055,1.722
		c-5.167,1.879-12.995,8.924-12.995,11.742c0,1.096-0.939,2.192-1.878,2.661c-1.409,0.313-2.036,5.01-2.036,16.126
		c0,18.944,2.818,25.833,16.909,40.863c17.222,18.474,32.408,23.954,65.443,23.954c50.413,0,87.048-15.187,122.901-50.726
		c15.656-15.656,17.535-18.318,27.711-41.645c3.601-8.141,5.636-18.631,6.732-34.13c2.348-32.252-10.02-55.736-34.131-64.503
		c-5.323-2.035-10.646-4.227-11.742-5.01c-1.096-0.939-2.661-1.096-3.444-0.626c-0.783,0.626-2.036,0.157-2.505-0.783
		c-0.626-0.939-4.54-1.409-8.768-1.252c-4.227,0.313-8.141,0-8.768-0.626c-1.409-1.566-24.267,0.469-26.616,2.348
		c-0.939,0.783-3.131,1.252-4.697,0.939c-1.565-0.156-3.444,0-4.384,0.626c-0.783,0.469-7.985,2.348-15.813,4.227
		c-7.828,1.722-17.222,4.384-20.823,5.48c-3.444,1.252-11.116,3.444-16.909,5.01c-5.949,1.409-11.116,2.975-11.742,3.601
		c-0.626,0.47-4.697,0.626-8.924,0.47c-7.671-0.626-7.985-0.783-8.924-5.949c-2.192-12.212,4.071-25.52,19.257-40.863
		c6.262-6.262,13.151-11.742,15.343-12.368c2.192-0.469,3.914-1.565,3.914-2.348c0-0.783,0.626-1.409,1.409-1.409
		s4.071-1.252,7.358-2.661c3.444-1.409,6.419-2.662,6.888-2.818c0.47,0,1.566-0.47,2.349-0.939
		c3.288-2.035,12.055-3.288,24.267-3.288c14.247,0,24.737,3.914,27.398,10.02c5.01,11.272,32.095,15.813,43.367,7.202
		c4.384-3.444,9.081-13.621,9.081-19.883C4475.617,2927.123,4429.901,2905.674,4381.681,2910.841L4381.681,2910.841z"/>
	<path id="path46" fill="#C91F27" d="M1701.346,2912.25c-12.055,2.505-18.474,9.081-20.353,20.666
		c-0.783,4.697-2.035,11.272-2.975,14.717c-2.192,8.454-0.626,18.787,3.914,24.267c3.758,4.227,3.758,5.01,3.758,36.635
		c0,26.459-0.47,33.347-2.505,38.201c-3.444,7.672-3.444,23.171-0.156,29.59c2.348,4.384,2.661,10.803,2.661,47.125
		c0,33.504-0.47,43.524-2.349,48.847c-2.975,8.454-2.975,13.308,0.157,22.388c2.192,6.262,3.601,7.828,9.237,10.49
		c8.298,3.758,23.641,4.227,33.817,0.939c4.227-1.409,31.312-3.758,71.079-6.419c35.383-2.192,67.791-4.853,72.331-5.636
		c14.873-2.818,23.484-17.222,19.257-31.625c-2.818-9.707-5.793-13.621-12.995-16.909c-7.985-3.601-16.752-3.758-26.146-0.626
		c-5.949,1.879-90.336,8.767-107.558,8.611h-5.167v-35.696v-35.696l40.393-4.384c22.075-2.348,46.342-4.384,53.701-4.227
		c11.586,0.156,14.091-0.313,18.631-3.288c8.924-5.949,12.525-12.838,12.525-23.484c0-15.343-6.419-23.171-21.606-26.459
		c-6.419-1.252-9.863-1.096-17.692,0.783c-5.323,1.409-19.727,3.601-31.782,5.01c-12.212,1.252-23.171,2.818-24.424,3.288
		c-1.253,0.469-5.323,0.783-8.767,0.626c-3.601-0.156-7.045,0.313-7.672,1.252c-0.47,0.939-3.757,1.722-7.202,1.722h-6.106
		l0.313-29.434l0.47-29.277l47.751-3.444c29.747-2.035,48.691-2.818,50.413-1.879c3.601,1.879,23.484,1.722,28.964-0.313
		c10.02-3.758,17.535-15.656,17.692-27.555c0-8.298-2.192-14.091-7.515-19.727c-9.081-9.707-20.666-12.055-34.443-7.358
		c-7.202,2.505-20.197,4.071-56.049,6.889l-46.655,3.601l-4.853-5.01C1726.865,2912.407,1714.497,2909.745,1701.346,2912.25
		L1701.346,2912.25z"/>
	<path id="path48" fill="#C91F27" d="M4038.028,2912.406c-11.272,2.035-17.378,8.924-18.787,21.292
		c-0.626,5.167-2.035,10.803-3.288,12.681c-3.288,5.323-2.661,13.934,1.722,20.666c2.035,3.444,4.54,6.575,5.48,7.202
		s1.566,12.681,1.566,33.504c0,29.277-0.313,33.348-3.131,39.454c-4.071,9.081-4.071,20.823,0,28.807
		c2.818,5.636,3.131,9.237,3.131,47.125c0,32.878-0.47,42.115-2.349,46.499c-2.974,7.202-2.974,19.883-0.156,26.928
		c3.444,8.141,10.49,11.742,23.484,11.742c5.949,0,14.404-1.096,18.787-2.348c4.854-1.409,31.782-3.758,69.044-6.262
		c74.993-4.854,76.715-5.01,81.882-7.672c8.924-4.697,11.899-9.707,12.525-20.979c0.47-9.55,0.157-10.959-3.914-16.282
		c-8.768-11.272-21.292-15.03-34.443-10.02c-3.757,1.409-21.605,3.288-48.221,4.853c-23.171,1.409-43.367,2.975-44.62,3.445
		c-1.252,0.469-6.419,0.939-11.429,0.939l-8.924,0.313v-36.479c0-33.504,0.157-36.322,2.818-36.322
		c1.409,0,15.343-1.409,30.843-3.288c15.5-1.722,38.827-3.601,51.978-4.384c24.58-1.252,30.53-2.975,32.878-9.237
		c0.626-1.409,2.036-3.601,3.131-4.697c1.096-1.252,1.723-2.662,1.252-3.444c-0.47-0.783-0.157-1.722,0.783-2.348
		c0.783-0.47,1.565-4.384,1.565-8.611c0-4.227-0.783-8.141-1.565-8.611c-0.94-0.626-1.253-1.565-0.94-2.192
		c0.94-1.409-7.828-10.02-12.995-12.681c-5.323-2.662-19.57-2.505-31.469,0.313c-5.637,1.409-18.944,3.288-29.747,4.384
		c-10.802,0.939-20.666,2.192-21.918,2.662s-4.54,0.783-7.202,0.626c-2.818-0.156-5.48,0.313-6.106,1.253
		c-0.47,0.939-3.757,1.722-7.202,1.722h-6.106l0.313-29.434l0.47-29.277l46.186-3.288c27.555-2.035,47.595-2.818,49.787-1.879
		c2.036,0.626,8.611,1.252,14.561,1.252c15.186,0,24.11-4.071,28.181-12.995c1.565-3.601,2.974-7.985,2.974-9.863
		c0-1.722,0.783-3.914,1.879-5.01c1.409-1.409,1.409-2.662,0.157-5.323c-0.939-2.035-2.192-5.48-2.662-7.672
		c-1.096-5.479-6.419-11.898-12.212-14.873c-6.419-3.288-22.701-3.444-28.807-0.156c-3.757,1.879-15.656,3.288-48.534,5.793
		c-24.11,1.722-45.56,3.914-47.908,4.54c-3.757,1.253-4.854,0.783-7.828-2.975c-2.035-2.348-5.323-5.323-7.515-6.732
		C4060.416,2911.937,4047.891,2910.684,4038.028,2912.406L4038.028,2912.406z"/>
	<path id="path50" fill="#C91F27" d="M2843.619,2993.975c-3.288,0.783-7.985,2.818-10.49,4.697
		c-8.611,6.106-9.081,8.611-8.141,43.211c0.783,26.929,0.626,32.408-1.722,37.888c-3.131,8.141-3.288,16.126-0.156,22.232
		c2.035,3.914,2.348,10.02,1.879,37.888c-0.47,18.161-1.252,36.166-1.879,39.923c-1.879,11.116,0,16.282,7.358,21.136
		c5.636,3.601,8.298,4.227,18.005,4.227c14.404,0,22.231-3.131,25.989-10.49c2.348-4.697,2.662-10.646,2.662-51.979
		c0-39.923,0.313-46.969,2.348-47.751c1.252-0.47,12.212-8.298,24.267-17.378c11.899-9.081,22.545-16.439,23.484-16.439
		c0.783,0,1.566-0.783,1.566-1.565c0-0.939,0.783-1.566,1.722-1.566c0.783,0,4.227-1.722,7.358-3.914
		c3.131-2.192,6.732-3.914,7.828-3.914c1.722,0,1.879,11.742,1.253,64.503c-0.313,35.54-0.783,67.008-0.783,69.826
		c-0.313,14.247,7.672,20.666,25.833,20.666c12.368,0,18.787-2.662,23.797-10.02l3.601-5.323l-0.156-83.917
		c0-52.292-0.626-85.483-1.722-87.988c-2.818-7.828-10.959-16.126-19.57-20.353c-19.257-9.394-38.671-4.384-70.296,18.318
		c-10.02,7.202-20.979,15.03-24.267,17.378l-5.949,4.384l0.783-14.56c0.939-16.439-1.096-22.858-8.611-26.615
		C2863.816,2993.505,2850.978,2992.253,2843.619,2993.975z"/>
	<path id="path52" fill="#C91F27" d="M2691.598,2995.384c-22.545,1.879-43.994,6.889-51.978,11.899
		c-2.035,1.252-3.601,2.035-3.601,1.722c0-0.313-8.611,3.757-19.101,8.924c-22.701,11.272-26.302,15.187-26.302,28.651
		c0,4.697,1.096,10.49,2.348,12.995c5.636,10.803,19.727,16.282,32.721,12.525c6.889-1.879,17.222-10.49,18.944-15.5
		c0.626-2.192,17.222-11.429,21.136-11.898c0.47,0,1.566-0.47,2.349-0.939c5.01-2.975,33.817-6.419,42.271-5.01l5.636,0.939
		l-0.47,10.177l-0.47,10.333l-11.742,1.879c-14.56,2.348-37.418,7.985-39.767,9.863c-0.939,0.783-7.985,4.071-15.813,7.202
		c-27.242,11.116-53.074,32.408-65.443,53.701c-3.131,5.323-5.636,10.333-5.48,10.959s-0.783,3.131-1.879,5.793
		c-2.818,6.576-2.661,28.338,0.313,35.383c3.601,8.298,11.429,16.439,19.57,20.353c5.793,2.818,10.959,3.601,26.615,4.384
		c10.803,0.47,19.883,0.47,20.197,0c0.313-0.626,3.914-1.409,7.985-2.035c10.959-1.409,41.019-15.03,51.822-23.484
		c5.167-3.914,9.707-7.202,10.177-7.202c0.313,0,1.096,3.758,1.566,8.454c1.722,16.282,7.672,20.353,28.651,19.57
		c11.899-0.469,15.03-1.252,19.727-4.54c6.889-4.54,10.02-12.681,8.298-21.292c-0.626-3.444-1.565-39.297-2.192-79.69
		c-0.939-72.645-0.939-73.74-4.54-80.942C2753.283,2998.672,2731.834,2991.783,2691.598,2995.384L2691.598,2995.384z
		 M2715.865,3104.664c0,0.783-1.096,4.54-2.505,8.611c-1.879,5.48-5.323,10.02-13.778,17.848
		c-6.262,5.949-13.464,11.742-15.969,12.995c-2.505,1.252-10.02,5.323-16.752,9.08c-18.318,10.333-39.61,15.969-42.585,11.272
		c-2.818-4.54,10.333-21.762,25.989-33.817c8.298-6.419,30.216-17.848,33.974-17.848c0.783,0,4.227-1.252,7.515-2.662
		c3.444-1.409,6.575-2.505,7.202-2.348c0.626,0.156,2.975-0.783,5.48-2.035C2709.133,3103.255,2715.865,3102.629,2715.865,3104.664
		L2715.865,3104.664z"/>
	<path id="path3865" fill="#C91F27" d="M5122.567,2067.743c12.585,0,24.658,3.124,36.221,9.37
		c11.562,6.247,20.649,15.205,27.261,26.874c6.611,11.669,9.917,23.877,9.917,36.625c0,12.684-3.242,24.781-9.726,36.292
		c-6.484,11.511-15.523,20.485-27.118,26.922c-11.595,6.437-23.78,9.656-36.556,9.656s-24.961-3.219-36.556-9.656
		c-11.594-6.437-20.633-15.411-27.118-26.922c-6.483-11.51-9.726-23.608-9.726-36.292c0-12.747,3.306-24.956,9.917-36.625
		c6.612-11.669,15.698-20.627,27.261-26.874C5097.909,2070.866,5109.982,2067.743,5122.567,2067.743L5122.567,2067.743z
		 M5122.663,2082.012c-10.093,0-19.771,2.505-29.034,7.515c-9.263,5.01-16.561,12.208-21.896,21.594
		c-5.334,9.386-8.001,19.216-8.001,29.49c0,10.21,2.603,19.945,7.809,29.205c5.207,9.259,12.473,16.489,21.8,21.689
		c9.326,5.2,19.1,7.801,29.321,7.801c10.285,0,20.075-2.6,29.369-7.801c9.295-5.2,16.561-12.43,21.8-21.689
		c5.238-9.259,7.857-18.994,7.857-29.205c0-10.274-2.667-20.104-8.001-29.49s-12.648-16.584-21.943-21.594
		C5142.449,2084.518,5132.755,2082.012,5122.663,2082.012L5122.663,2082.012z M5089.413,2179.615v-77.34h15.81
		c14.821,0,23.125,0.063,24.914,0.19c5.238,0.444,9.311,1.475,12.217,3.092c2.907,1.617,5.334,4.091,7.283,7.42
		c1.948,3.33,2.923,7.024,2.923,11.083c0,5.581-1.837,10.353-5.51,14.317c-3.673,3.964-8.831,6.421-15.475,7.373
		c2.364,0.888,4.184,1.855,5.461,2.901s3.035,3.028,5.271,5.946c0.575,0.761,2.491,3.9,5.75,9.418l9.199,15.601h-19.548
		l-6.516-12.557c-4.408-8.435-8.049-13.746-10.924-15.934c-2.875-2.188-6.516-3.282-10.923-3.282h-4.121v31.773H5089.413z
		 M5105.223,2135.665h6.42c9.135,0,14.804-0.349,17.008-1.046c2.204-0.698,3.945-1.918,5.223-3.663
		c1.277-1.744,1.917-3.726,1.917-5.946c0-2.156-0.623-4.074-1.869-5.755s-3.019-2.885-5.318-3.615
		c-2.3-0.729-7.954-1.094-16.96-1.094h-6.42L5105.223,2135.665z"/>
</g>
</svg>
