<?xml version="1.0" encoding="utf-8"?>
<!-- Generator: Adobe Illustrator 17.0.0, SVG Export Plug-In . SVG Version: 6.00 Build 0)  -->
<!DOCTYPE svg PUBLIC "-//W3C//DTD SVG 1.1//EN" "http://www.w3.org/Graphics/SVG/1.1/DTD/svg11.dtd">
<svg version="1.1" id="Layer_1" xmlns="http://www.w3.org/2000/svg" xmlns:xlink="http://www.w3.org/1999/xlink" x="0px" y="0px"
	 width="500px" height="500px" viewBox="0 0 500 500" enable-background="new 0 0 500 500" xml:space="preserve">
<sodipodi:namedview  id="base" inkscape:pageopacity="0.0" inkscape:window-width="1920" inkscape:pageshadow="2" inkscape:window-height="1028" fit-margin-top="0.5" fit-margin-left="0.5" inkscape:cx="1622.876" borderopacity="1.0" inkscape:cy="161.32133" inkscape:zoom="0.35" pagecolor="#ffffff" bordercolor="#666666" showgrid="false" inkscape:window-maximized="1" inkscape:window-x="-8" inkscape:window-y="-8" inkscape:current-layer="g5644" fit-margin-bottom="0.5" inkscape:document-units="px" fit-margin-right="0.5">
	</sodipodi:namedview>
<path id="path2663" sodipodi:nodetypes="ccsscscccccccsss" fill="#FCEF18" stroke="#DB141D" d="M122.481,234.384l-68.919-89.79
	c0,0-3.251-4.251-3.251-10.502c0-6.251,6.501-16.503,19.504-16.503c3.376,0,16.753,3.251,16.753,3.251l316.308,61.511v-21.282h0.643
	l29.699,34.785l-33.284,26.833l-1.683-0.51l-0.151-17.477l-231.417-27.249c0,0-14.94-3.094-14.94,3.359s27.717,53.574,27.717,53.574
	H122.481z"/>
<path id="path3437" sodipodi:nodetypes="ccccc" fill="#FCEF18" stroke="#DB141D" d="M195.963,327.879l25.13,33.38h33.256
	l-19.379-33.38H195.963z"/>
<path id="path3439" fill="#C60F1D" d="M1.49,318.686v-74.004h19.495v74.133L1.49,318.686z"/>
<path id="path3441" sodipodi:nodetypes="ccccccccccc" fill="#C60F1D" d="M34.185,318.85v-74.141l21.642-0.002l33.985,39.596
	l0-39.595h18.756v74.142H89.811l-33.985-38.233l0,38.233H34.185z"/>
<path id="path3445" sodipodi:nodetypes="ccccccccccc" fill="#C60F1D" d="M154.007,318.85v-74.141l21.642-0.002l33.985,39.596
	l0-39.595h18.756v74.142h-18.756l-33.985-38.233l0,38.233H154.007z"/>
<path id="path3447" fill="#C60F1D" d="M121.079,289.761v-21.675h22.14v21.712L121.079,289.761z"/>
<path id="path3451" fill="#C60F1D" d="M243.072,289.761v-21.675h22.14v21.712L243.072,289.761z"/>
<path id="path3461" fill="#C60F1D" d="M315.674,320.937c-0.218-0.024-0.932-0.101-1.587-0.17c-6.569-0.695-13.357-3.291-18.76-7.176
	c-3.229-2.322-6.899-5.966-9.145-9.081c-3.947-5.474-6.395-11.7-7.309-18.59c-0.25-1.884-0.284-7.323-0.057-9.182
	c0.614-5.03,1.917-9.346,4.156-13.767c4.684-9.245,12.978-16.41,22.783-19.683c2.76-0.921,5.074-1.451,8.218-1.881
	c1.455-0.199,7.613-0.199,9.068,0c5.103,0.698,9.212,1.924,13.266,3.959c10.988,5.514,18.884,15.77,21.3,27.669
	c0.642,3.162,0.734,4.173,0.734,8.066c0,3.811-0.091,4.856-0.679,7.821c-2.763,13.924-12.957,25.505-26.403,29.992
	c-2.776,0.927-4.648,1.359-7.838,1.811C322.259,320.891,316.633,321.044,315.674,320.937L315.674,320.937z M321.568,299.524
	c7.587-1.204,13.749-6.818,15.65-14.257c0.429-1.678,0.577-2.908,0.577-4.789c0-3.78-0.929-7.069-2.881-10.202
	c-2.987-4.795-7.935-8.044-13.573-8.914c-1.22-0.188-4.423-0.187-5.611,0.002c-2.667,0.424-5.215,1.351-7.31,2.658
	c-5.747,3.587-9.183,9.753-9.183,16.477c0,10.096,7.794,18.44,17.967,19.234C318.119,299.805,320.527,299.69,321.568,299.524
	L321.568,299.524z"/>
<path id="path3465" sodipodi:nodetypes="ccccccccc" fill="#C60F1D" d="M460.602,320.654h21.699v-58.093l16.21,0.001v-17.967H444.1
	v17.965h16.266L460.602,320.654z"/>
<text transform="matrix(1 0 0 1 168.0807 364.4106)" fill="#C60F1D" font-family="'Arial-BoldMT'" font-size="36.2734">®</text>
<path id="path3487" fill="#C60F1D" d="M282.936,345.732v-16.434l8.236,0.001c8.436,0.001,9.069,0.021,10.354,0.324
	c3.854,0.911,6.237,4.863,5.576,9.247c-0.394,2.617-1.774,4.562-3.949,5.57c-0.23,0.107-0.419,0.217-0.419,0.246
	s0.207,0.116,0.461,0.195c2.716,0.846,4.469,2.802,5.08,5.667c0.234,1.095,0.256,3.271,0.045,4.333
	c-0.561,2.82-2.166,5.136-4.241,6.119c-0.777,0.368-1.549,0.56-3.469,0.862l-1.603,0.252l-8.035,0.026l-8.035,0.026V345.732z
	 M297.531,355.011c1.048-0.274,1.689-0.771,2.083-1.615c0.792-1.696,0.249-3.811-1.156-4.499c-0.79-0.387-1.303-0.44-4.24-0.442
	l-2.705-0.001v3.374v3.374l2.785-0.037C296.381,355.137,297.196,355.098,297.531,355.011L297.531,355.011z M297.01,342.019
	c0.833-0.277,1.326-0.747,1.651-1.576c0.236-0.603,0.259-2.079,0.041-2.704c-0.315-0.902-0.934-1.444-1.904-1.664
	c-0.429-0.098-1.062-0.125-2.917-0.125h-2.369v3.131v3.131l2.545-0.029C296.177,342.159,296.67,342.131,297.01,342.019
	L297.01,342.019z"/>
<path id="path3491" fill="#C60F1D" d="M330.891,362.119c-5.15-0.374-7.331-1.189-9.647-3.606c-1.786-1.864-2.587-3.447-3.216-6.355
	c-0.447-2.066-0.442-1.937-0.442-13.083v-10.296h4.727h4.727l0.023,10.761l0.023,10.761l0.185,0.6
	c0.569,1.847,1.73,3.019,3.467,3.499c0.716,0.198,2.474,0.2,3.199,0.003c1.772-0.48,2.895-1.593,3.464-3.434l0.182-0.587
	l0.022-10.801l0.023-10.801h4.727h4.727v10.423c0,6.81-0.03,10.693-0.085,11.201c-0.438,4.003-2.184,7.27-5.056,9.457
	c-1.426,1.086-3.434,1.821-5.84,2.138C334.891,362.159,332.266,362.219,330.891,362.119L330.891,362.119z"/>
<path id="path3493" fill="#C60F1D" d="M357.781,345.731v-16.436l8.837,0.031c7.813,0.027,8.944,0.047,9.759,0.168
	c2.868,0.426,4.326,1.145,5.633,2.778c0.929,1.161,1.509,2.513,1.784,4.158c0.211,1.264,0.133,3.588-0.159,4.737
	c-0.425,1.67-1.494,3.461-2.667,4.465c-0.962,0.824-2.173,1.472-3.369,1.802c-0.364,0.1-0.661,0.21-0.661,0.244
	c0,0.034,0.047,0.062,0.104,0.062c0.057,0,0.537,0.214,1.067,0.475c0.829,0.409,1.035,0.551,1.479,1.023
	c0.525,0.557,1.412,1.758,1.944,2.63c0.161,0.265,1.3,2.69,2.53,5.391l2.237,4.91l-5.051-0.021l-5.051-0.021l-2.583-5.41
	c-1.421-2.976-2.741-5.675-2.935-5.998c-0.194-0.323-0.504-0.745-0.689-0.938c-0.633-0.66-1.683-1.036-2.75-0.984l-0.521,0.025
	l-0.021,6.673l-0.021,6.673h-4.448h-4.448V345.731z M372.458,342.312c1.063-0.282,1.471-0.516,1.882-1.075
	c1.123-1.529,0.718-4.086-0.766-4.838c-0.841-0.426-1.125-0.461-4.111-0.501l-2.785-0.037v3.38v3.38l2.425-0.031
	C371.511,342.56,371.534,342.558,372.458,342.312L372.458,342.312z"/>
<path id="path3495" fill="#C60F1D" d="M408.051,362.122c-2.644-0.218-4.777-0.757-6.583-1.665
	c-4.288-2.156-7.074-6.664-7.764-12.564c-0.16-1.366-0.158-4.007,0.004-5.406c0.671-5.797,3.337-10.058,7.81-12.481
	c2.221-1.203,5.21-1.788,9.133-1.786c3.309,0.002,6.047,0.37,7.744,1.042c2.476,0.98,4.47,2.896,5.678,5.453
	c0.345,0.731,1.063,2.704,1.001,2.75c-0.017,0.012-2.032,0.393-4.479,0.845c-2.447,0.453-4.532,0.842-4.634,0.866
	c-0.146,0.034-0.196,0.003-0.235-0.146c-0.027-0.104-0.193-0.479-0.368-0.831c-0.244-0.491-0.47-0.792-0.967-1.284
	c-0.729-0.721-1.321-1.058-2.345-1.333c-0.902-0.243-2.683-0.242-3.594,0.003c-2.08,0.557-3.583,1.947-4.402,4.068
	c-1.147,2.973-1.082,8.572,0.133,11.454c1,2.371,3.008,3.732,5.792,3.925c2.03,0.14,4.004-0.385,6.232-1.659l0.862-0.492v-1.589
	v-1.589h-3.246h-3.246v-3.407v-3.407h7.494h7.494v7.006v7.006l-1.262,0.838c-4.933,3.274-8.15,4.32-13.606,4.424
	C409.726,362.179,408.536,362.161,408.051,362.122L408.051,362.122z"/>
<path id="path3497" fill="#C60F1D" d="M436.988,345.737v-16.432h10.62h10.62v3.487v3.487h-6.653h-6.653v2.645v2.645h6.172h6.172
	v3.326v3.326h-6.172h-6.172v3.286v3.286h6.853h6.853v3.687v3.687h-10.821h-10.821V345.737z"/>
<path id="path3499" fill="#C60F1D" d="M469.675,345.731v-16.436l8.837,0.031c7.813,0.027,8.944,0.047,9.759,0.168
	c2.868,0.426,4.326,1.145,5.633,2.778c0.929,1.161,1.509,2.513,1.784,4.158c0.211,1.264,0.133,3.588-0.159,4.737
	c-0.425,1.67-1.494,3.461-2.667,4.465c-0.962,0.824-2.173,1.472-3.369,1.802c-0.364,0.1-0.661,0.21-0.661,0.244
	c0,0.034,0.047,0.062,0.104,0.062s0.537,0.214,1.067,0.475c0.829,0.409,1.035,0.551,1.479,1.023c0.525,0.557,1.412,1.758,1.944,2.63
	c0.161,0.265,1.3,2.69,2.53,5.391l2.237,4.91l-5.051-0.021l-5.051-0.021l-2.583-5.41c-1.421-2.976-2.741-5.675-2.935-5.998
	c-0.194-0.323-0.504-0.745-0.689-0.938c-0.633-0.66-1.683-1.036-2.75-0.984l-0.521,0.025l-0.02,6.673l-0.021,6.673h-4.448h-4.448
	V345.731z M484.353,342.312c1.063-0.282,1.471-0.516,1.882-1.075c1.123-1.529,0.718-4.086-0.766-4.838
	c-0.841-0.426-1.125-0.461-4.111-0.501l-2.785-0.037v3.38v3.38l2.425-0.031C483.405,342.56,483.428,342.558,484.353,342.312
	L484.353,342.312z"/>
<path id="path3501" fill="#C60F1D" d="M398.343,318.455c-11.579-0.841-16.483-2.674-21.69-8.108
	c-4.016-4.191-5.817-7.751-7.231-14.288c-1.004-4.644-0.994-4.356-0.994-29.416v-23.148h10.628h10.628l0.052,24.193l0.052,24.193
	l0.415,1.349c1.278,4.152,3.89,6.787,7.795,7.866c1.609,0.445,5.563,0.449,7.193,0.008c3.983-1.078,6.508-3.582,7.788-7.721
	l0.408-1.321l0.051-24.283l0.051-24.283h10.629h10.629v23.435c0,15.311-0.066,24.041-0.191,25.185
	c-0.984,9-4.911,16.346-11.368,21.263c-3.207,2.442-7.721,4.095-13.13,4.807C407.336,318.543,401.433,318.679,398.343,318.455
	L398.343,318.455z"/>
</svg>
