<?xml version="1.0" encoding="utf-8"?>
<!-- Generator: Adobe Illustrator 17.0.0, SVG Export Plug-In . SVG Version: 6.00 Build 0)  -->
<!DOCTYPE svg PUBLIC "-//W3C//DTD SVG 1.1//EN" "http://www.w3.org/Graphics/SVG/1.1/DTD/svg11.dtd">
<svg version="1.1" id="Layer_1" xmlns="http://www.w3.org/2000/svg" xmlns:xlink="http://www.w3.org/1999/xlink" x="0px" y="0px"
	 width="612px" height="792px" viewBox="0 0 612 792" enable-background="new 0 0 612 792" xml:space="preserve">
<g>
	<g>
		<path fill="#FEFEFE" d="M493.802,436.032c0,49.257,0,98.514,0,147.771c-125.017,0-250.035,0-375.052,0
			c0-125.017,0-250.035,0-375.052c125.017,0,250.035,0,375.052,0c0,75.511,0,151.021,0,226.532c-1.113,0.13-2.226,0.26-3.34,0.389
			c0.113,0.46,0.225,0.921,0.338,1.381C491.801,436.712,492.802,436.372,493.802,436.032z M224.826,447.589
			c-0.138-0.138-0.278-0.274-0.419-0.409c-0.023-1.912,0.644-2.78,2.826-2.983c5.541-0.514,11.043-1.439,16.563-2.181
			c4.636-0.623,6.517-2.63,6.223-6.691c-0.264-3.645-3.017-5.649-7.424-5.34c-4.44,0.311-8.877,0.676-13.47,1.029
			c-0.292-3.618,2.164-3.706,4.126-3.915c5.923-0.63,11.867-1.061,17.802-1.575c3.888-0.337,7.601-4.476,7.204-8.02
			c-0.478-4.255-4.053-6.928-8.482-6.446c-7.89,0.858-15.798,1.557-23.674,2.523c-3.897,0.478-7.849,1.049-11.576,2.218
			c-4.059,1.274-6.065,6.365-3.614,9.294c2.182,2.608,2.105,4.793,0.965,7.591c-0.873,2.145-1.171,4.521-2.018,6.679
			c-1.887,4.811-1.761,10.884-8.036,13.073c-0.611,0.213-1.032,1.316-1.308,2.089c-2.033,5.703,2.159,10.013,8.839,9.234
			c10.968-1.279,21.941-2.52,32.919-3.706c4.027-0.435,7.135-3.52,6.995-7.194c-0.161-4.218-3.116-7.279-7.412-7.017
			C236.164,446.192,230.501,446.987,224.826,447.589z M209.504,369.29c0,0.874-0.009,1.749,0.002,2.623
			c0.064,5.092,1.451,6.441,6.312,4.881c9.458-3.035,18.762-6.549,28.154-9.795c7.92-2.738,16.051-4.774,24.266-1.835
			c8.367,2.993,16.174,2.62,23.79-1.949c1.162-0.697,2.374-1.322,3.602-1.897c4.102-1.922,4.81-3.624,3.144-7.932
			c-0.396-1.024-1.029-1.954-1.442-2.973c-8.103-19.979-33.4-31.943-55.167-24.841C222.525,331.978,209.529,348.929,209.504,369.29z
			 M138.618,457.546c-1.705,0.238-3.205,0.312-4.633,0.67c-5.546,1.391-7.586,3.947-6.979,8.563c0.492,3.743,3.862,6.209,8.842,5.95
			c3.824-0.2,7.629-0.875,11.425-1.449c9.619-1.455,19.303-2.609,28.824-4.555c13-2.658,22.4-10.381,28.151-22.321
			c3.802-7.894,4.835-16.385,1.332-24.417c-5.188-11.893-17.837-15.555-29.186-14.399c-5.34,0.544-10.781,1.683-15.784,3.584
			c-7.173,2.725-14.124,6.14-20.903,9.76c-3.87,2.067-4.63,5.932-2.945,9.896c1.525,3.589,4.209,4.575,7.841,3.5
			c0.436-0.129,0.964,0.055,1.689,0.114C143.717,440.864,141.193,449.122,138.618,457.546z M394.826,390.48
			c-0.042-2.884-0.975-4.926-4.252-5.531c-2.401-0.443-4.904-1.079-7.008-2.259c-9.247-5.188-18.976-9.795-27.381-16.137
			c-11.535-8.703-23.997-10.498-37.307-7.543c-8.234,1.828-16.443,4.617-24.031,8.284c-9.105,4.4-17.647,6.455-27.717,3.068
			c-4.839-1.627-11.088-1.475-16.023,0.052c-14.696,4.548-28.925,10.6-43.6,15.226c-9.007,2.839-18.462,4.337-27.79,6.036
			c-3.636,0.662-6.094,2.063-6.195,5.089c-0.1,3.014,2.65,5.764,6.226,5.44c6.766-0.612,13.764-0.764,20.18-2.709
			c15.209-4.611,30.127-10.18,45.177-15.318c8-2.732,15.977-5.319,24.491-1.681c6.214,2.655,12.719,2.503,18.886,0.07
			c6.404-2.527,12.556-5.703,18.779-8.676c10.405-4.97,21.485-7.138,32.516-4.077c6.132,1.702,11.583,6.233,17.03,9.944
			c9.742,6.637,19.575,12.941,31.336,15.448C391.763,395.977,394.764,393.942,394.826,390.48z M361.442,433.058
			c-0.435,2.613-0.908,4.984-1.211,7.377c-0.572,4.522,1.844,8.44,5.499,9.083c4.274,0.752,8.449-2.08,9.523-6.465
			c0.758-3.095,1.787-6.157,2.17-9.298c0.276-2.258,1.116-2.769,3.23-3.062c4.377-0.608,7.058-6.263,4.063-9.239
			c-3.268-3.247-2.126-5.934-0.862-9.174c3.432-8.8-2.451-15.37-11.239-13.599c-4.264,0.86-8.505,2.488-12.381,4.494
			c-10.037,5.196-18.025,13.043-25.369,21.431c-5.077,5.798-9.655,12.072-14.04,18.42c-2.578,3.732-1.417,8.238,1.826,10.141
			c3.781,2.219,8.861,1.281,11.119-2.443C340.114,440.256,349.834,435.313,361.442,433.058z M315.482,401.608
			c-1.072,3.729-1.96,6.913-2.903,10.08c-3.645,12.241-7.273,24.487-10.979,36.71c-1.541,5.082-0.041,9.38,3.985,10.861
			c4.315,1.587,7.709-0.359,9.651-5.768c1.199-3.338,2.121-6.775,3.171-10.166c4.207-13.587,8.375-27.187,12.703-40.736
			c0.345-1.078,1.701-2.413,2.759-2.587c5.623-0.925,11.289-1.632,16.962-2.19c5.31-0.523,8.131-3.287,7.954-8.213
			c-0.132-3.687-3.338-6.266-8.139-6.021c-4.82,0.246-9.616,0.944-14.424,1.427c-12.585,1.263-25.172,2.507-37.756,3.78
			c-3.862,0.39-7.159,3.852-7.015,7.291c0.189,4.538,2.977,7.097,7.719,6.952c1.604-0.049,3.195-0.417,4.799-0.55
			C307.655,402.168,311.344,401.916,315.482,401.608z M457.674,439.072c8.675-0.407,17.066-3.941,23.387-11.711
			c6.261-7.698,7.765-16.56,4.623-25.728c-4.493-13.108-20.188-18.457-32.446-12.638c-1.762,0.837-2.941,2.908-4.38,4.417
			c-0.743,0.779-1.327,1.808-2.214,2.337c-10.617,6.34-15.159,16.195-12.61,26.898C436.36,432.413,445,438.667,457.674,439.072z
			 M412.235,431.006c-6.822-0.603-10.809-3.953-9.801-9.025c1.951-9.816,11.469-17.405,22.822-14.854
			c3.132,0.704,6.149,0.402,7.84-2.538c1.662-2.888,2.393-6.495-0.837-8.651c-2.71-1.808-6.114-3.358-9.297-3.545
			c-17.494-1.024-33.491,12.212-35.557,29.519c-0.944,7.912,1.707,14.786,9.557,19.426c11.574,6.842,22.55,4.106,33.159-2.142
			c3.99-2.35,4.676-6.41,2.499-9.986c-1.937-3.182-5.822-3.872-9.834-2.117C419.355,428.594,415.758,429.716,412.235,431.006z
			 M420.106,360.292c-13.057-0.955-23.215,5.026-32.788,12.41c-1.057,0.815-2.217,2.448-2.116,3.594
			c0.156,1.771,0.978,4.474,2.208,4.932c1.912,0.713,4.717,0.505,6.59-0.426c5.515-2.742,10.551-6.496,16.157-8.996
			c8.089-3.607,16.046-0.251,23.879,1.823c13.587,3.598,27.089,7.526,40.713,10.972c2.613,0.661,5.698,0.064,8.434-0.544
			c2.412-0.536,3.37-2.524,3.289-5.166c-0.08-2.62-1.365-3.835-3.677-4.346c-1.331-0.294-2.669-0.655-4.02-0.743
			c-9.969-0.652-19.338-3.728-28.708-6.89C440.237,363.593,430.542,359.569,420.106,360.292z M271.187,441.995
			c2.222-7.948,4.305-15.65,6.542-23.307c1.325-4.535-0.465-8.871-4.448-10.185c-4.612-1.522-9.073,0.896-10.469,5.642
			c-3.151,10.717-6.265,21.446-9.497,32.139c-2.112,6.99,0.845,12.543,9.049,11.493c9.329-1.194,18.665-2.352,27.969-3.728
			c4.67-0.691,6.619-3.353,6.191-7.643c-0.38-3.806-3.041-6.05-7.582-5.829C283.137,440.861,277.348,441.487,271.187,441.995z
			 M262.919,311.148c0.075,3.588,1.551,5.762,4.917,6.768c2.946,0.881,5.684-0.222,6.563-2.599
			c1.643-4.442,2.645-9.197,3.285-13.907c0.38-2.8-1.603-5.013-4.464-5.569c-2.904-0.564-5.606,0.333-6.69,3.349
			C265.123,303.103,264.104,307.155,262.919,311.148z M195.826,330.093c-0.153,0.322-0.307,0.643-0.46,0.965
			c-3.182-0.512-5.403,1.262-5.797,3.905c-0.312,2.09,0.384,5.428,1.861,6.47c3.561,2.513,7.774,4.172,11.855,5.855
			c2.913,1.201,5.569-0.414,6.429-2.902c0.68-1.966,0.439-5.638-0.865-6.642C204.891,334.696,200.219,332.575,195.826,330.093z
			 M205.014,377.021c-0.058-3.752-3.48-6.581-7.286-5.901c-3.023,0.54-6.009,1.281-9.024,1.869c-4.61,0.9-6.823,3.412-6.156,7.079
			c0.669,3.679,4.283,5.667,8.657,4.828c2.658-0.51,5.328-0.959,8.003-1.37C202.602,383.005,205.065,380.284,205.014,377.021z
			 M231.645,322.107c4.205,0.489,7.065-3.632,5.78-7.401c-1.266-3.712-2.798-7.351-4.472-10.9c-1.255-2.661-5.242-3.764-8.035-2.545
			c-2.476,1.081-3.862,4.29-2.846,7.197c1.14,3.262,2.67,6.39,3.769,9.664C226.837,321.087,228.753,322.31,231.645,322.107z
			 M316.524,326.88c-1.754-2.237-2.731-4.472-4.413-5.337c-1.535-0.79-4.235-0.782-5.714,0.083
			c-3.391,1.985-6.466,4.574-9.451,7.171c-2.481,2.159-2.559,6.064-0.521,8.368c2.203,2.49,5.631,2.846,8.374,0.823
			c2.069-1.527,4.243-2.954,6.105-4.707C312.8,331.495,314.372,329.365,316.524,326.88z M244.016,308.773
			c0,0.621-0.04,1.245,0.007,1.862c0.285,3.792,2.852,6.415,6.264,6.425c3.48,0.01,5.644-2.076,6.056-6.09
			c0.162-1.584,0.089-3.23-0.143-4.808c-0.566-3.853-2.491-5.35-6.336-5.152C245.838,301.217,244.026,303.623,244.016,308.773z
			 M295.776,317.189c-0.009-3.032-3.19-6.393-6.067-6.413c-3.349-0.023-8.19,5.63-8.189,9.563c0,3.673,2.361,6.175,5.831,6.179
			C290.936,326.522,295.788,321.148,295.776,317.189z M213.918,317.511c-3.578-0.037-6.658,2.705-6.637,5.909
			c0.02,3.062,6.222,9.116,9.32,9.097c3.185-0.019,5.837-2.92,5.821-6.369C222.405,322.193,217.835,317.552,213.918,317.511z
			 M198.29,365.534c4.074,0.106,6.384-2.04,6.779-5.662c0.45-4.131-2.442-6.439-9.326-7.054c-3.78-0.337-6.48,2.271-6.649,5.856
			C188.901,362.766,192.408,365.381,198.29,365.534z M313.15,341.476c-5.617-0.261-9.558,2.195-9.869,6.149
			c-0.304,3.879,2.154,6.481,6.276,6.644c4.832,0.191,9.322-3.048,9.471-6.832C319.204,343.015,317.904,341.697,313.15,341.476z
			 M488.785,431.691c-0.439-0.042-0.877-0.084-1.316-0.125c-0.124,1.572-0.249,3.143-0.373,4.715
			c0.435,0.044,0.87,0.087,1.306,0.131C488.53,434.838,488.657,433.264,488.785,431.691z"/>
		<path fill="#FCE7E8" d="M493.802,436.032c-1.001,0.34-2.001,0.68-3.001,1.02c-0.113-0.46-0.225-0.921-0.338-1.381
			c1.113-0.13,2.226-0.26,3.34-0.389C493.802,435.532,493.802,435.782,493.802,436.032z"/>
		<path fill="#FED601" d="M209.508,369.29c0.021-20.36,13.017-37.312,32.656-43.719c21.767-7.101,47.063,4.862,55.167,24.841
			c0.413,1.018,1.047,1.949,1.442,2.973c1.665,4.308,0.958,6.01-3.144,7.932c-1.228,0.575-2.44,1.2-3.602,1.897
			c-7.616,4.57-15.423,4.942-23.79,1.949c-8.215-2.938-16.346-0.903-24.266,1.835c-9.392,3.246-18.695,6.76-28.154,9.795
			c-4.862,1.56-6.248,0.21-6.312-4.881C209.494,371.038,209.504,370.164,209.508,369.29z"/>
		<path fill="#EB1D25" d="M138.618,457.546c2.575-8.424,5.099-16.682,7.674-25.105c-0.725-0.058-1.253-0.243-1.689-0.114
			c-3.633,1.075-6.316,0.089-7.841-3.5c-1.685-3.965-0.925-7.83,2.945-9.896c6.779-3.62,13.73-7.034,20.903-9.76
			c5.003-1.901,10.444-3.04,15.784-3.584c11.348-1.156,23.998,2.506,29.186,14.399c3.504,8.033,2.47,16.523-1.332,24.417
			c-5.75,11.94-15.151,19.663-28.151,22.321c-9.521,1.946-19.205,3.1-28.824,4.555c-3.796,0.574-7.601,1.249-11.425,1.449
			c-4.981,0.26-8.35-2.206-8.842-5.95c-0.607-4.617,1.433-7.172,6.979-8.563C135.413,457.858,136.913,457.783,138.618,457.546z
			 M154.613,456.031c6.166-1.038,11.657-1.408,16.797-2.952c8.617-2.588,15.789-7.348,19.544-16.106
			c3.488-8.136,0.332-15.595-7.366-16.637c-5.659-0.765-11.367-0.62-16.57,2.12c-1.555,0.819-3.35,2.304-3.832,3.857
			C160.21,435.902,157.579,445.596,154.613,456.031z"/>
		<path fill="#B2D136" d="M394.826,390.48c-0.062,3.462-3.063,5.497-6.684,4.725c-11.761-2.506-21.594-8.811-31.336-15.448
			c-5.448-3.711-10.898-8.242-17.03-9.944c-11.03-3.061-22.11-0.894-32.516,4.077c-6.224,2.973-12.375,6.149-18.779,8.676
			c-6.166,2.433-12.672,2.585-18.886-0.07c-8.514-3.638-16.491-1.05-24.491,1.681c-15.05,5.139-29.968,10.708-45.177,15.318
			c-6.416,1.945-13.414,2.097-20.18,2.709c-3.576,0.324-6.327-2.426-6.226-5.44c0.101-3.025,2.559-4.426,6.195-5.089
			c9.327-1.699,18.783-3.197,27.79-6.036c14.676-4.626,28.904-10.678,43.6-15.226c4.935-1.527,11.185-1.679,16.023-0.052
			c10.069,3.386,18.611,1.332,27.717-3.068c7.588-3.667,15.797-6.455,24.031-8.284c13.31-2.955,25.772-1.16,37.307,7.543
			c8.405,6.341,18.135,10.949,27.381,16.137c2.104,1.18,4.607,1.816,7.008,2.259C393.851,385.553,394.784,387.596,394.826,390.48z"
			/>
		<path fill="#EB1D25" d="M361.442,433.058c-11.608,2.255-21.328,7.198-27.673,17.664c-2.258,3.724-7.338,4.662-11.119,2.443
			c-3.243-1.903-4.404-6.409-1.826-10.141c4.385-6.348,8.964-12.622,14.04-18.42c7.345-8.388,15.333-16.235,25.369-21.431
			c3.876-2.006,8.117-3.634,12.381-4.494c8.788-1.772,14.672,4.798,11.239,13.599c-1.264,3.241-2.406,5.927,0.862,9.174
			c2.996,2.977,0.314,8.632-4.063,9.239c-2.115,0.294-2.955,0.804-3.23,3.062c-0.384,3.141-1.412,6.204-2.17,9.298
			c-1.074,4.385-5.249,7.217-9.523,6.465c-3.654-0.643-6.071-4.561-5.499-9.083C360.534,438.043,361.007,435.672,361.442,433.058z
			 M366.866,413.547c-3.066,2.615-5.585,4.764-8.563,7.304C363.606,421.177,366.367,419.344,366.866,413.547z"/>
		<path fill="#EB1D25" d="M224.826,447.589c5.675-0.603,11.338-1.397,17.029-1.745c4.296-0.263,7.252,2.798,7.412,7.017
			c0.14,3.674-2.968,6.759-6.995,7.194c-10.978,1.186-21.951,2.427-32.919,3.706c-6.681,0.779-10.872-3.531-8.839-9.234
			c0.276-0.773,0.697-1.876,1.308-2.089c6.275-2.188,6.149-8.262,8.036-13.073c0.846-2.158,1.145-4.535,2.018-6.679
			c1.139-2.798,1.216-4.983-0.965-7.591c-2.451-2.93-0.445-8.021,3.614-9.294c3.727-1.169,7.679-1.741,11.576-2.218
			c7.876-0.966,15.784-1.665,23.674-2.523c4.429-0.482,8.004,2.191,8.482,6.446c0.398,3.544-3.315,7.684-7.204,8.02
			c-5.935,0.514-11.879,0.945-17.802,1.575c-1.962,0.209-4.418,0.297-4.126,3.915c4.593-0.353,9.03-0.717,13.47-1.029
			c4.408-0.309,7.161,1.695,7.424,5.34c0.294,4.061-1.587,6.068-6.223,6.691c-5.52,0.742-11.022,1.667-16.563,2.181
			c-2.182,0.203-2.849,1.07-2.826,2.983c-0.163,0.156-0.326,0.313-0.489,0.469C224.22,447.629,224.523,447.609,224.826,447.589z"/>
		<path fill="#EB1D25" d="M315.482,401.608c-4.137,0.308-7.827,0.561-11.512,0.867c-1.604,0.134-3.196,0.501-4.799,0.55
			c-4.742,0.145-7.529-2.414-7.719-6.952c-0.143-3.438,3.153-6.9,7.015-7.291c12.584-1.272,25.171-2.516,37.756-3.78
			c4.808-0.483,9.604-1.18,14.424-1.427c4.8-0.246,8.007,2.334,8.139,6.021c0.176,4.926-2.644,7.69-7.954,8.213
			c-5.673,0.559-11.339,1.266-16.962,2.19c-1.058,0.174-2.415,1.509-2.759,2.587c-4.328,13.549-8.495,27.149-12.703,40.736
			c-1.05,3.391-1.972,6.829-3.171,10.166c-1.943,5.408-5.337,7.355-9.651,5.768c-4.026-1.481-5.526-5.779-3.985-10.861
			c3.705-12.223,7.334-24.469,10.979-36.71C313.521,408.52,314.409,405.337,315.482,401.608z"/>
		<path fill="#EB1D25" d="M457.674,439.072c-12.673-0.405-21.314-6.659-23.64-16.426c-2.549-10.703,1.993-20.557,12.61-26.898
			c0.887-0.529,1.471-1.558,2.214-2.337c1.439-1.51,2.618-3.581,4.38-4.417c12.258-5.819,27.953-0.47,32.446,12.638
			c3.143,9.168,1.638,18.031-4.623,25.728C474.74,435.131,466.349,438.665,457.674,439.072z M472.8,410.97
			c0-0.499,0.007-0.998-0.001-1.496c-0.058-3.563-1.928-6.156-4.892-7.695c-3.275-1.701-8.067-2.187-9.651,0.668
			c-2.445,4.41-7.116,6.253-9.459,10.37c-2.919,5.131-0.545,10.922,5.254,11.88c2.765,0.456,5.915,0.082,8.601-0.798
			C468.55,421.967,473.212,417.404,472.8,410.97z"/>
		<path fill="#EB1D25" d="M412.235,431.006c3.524-1.29,7.121-2.412,10.552-3.913c4.012-1.755,7.897-1.064,9.834,2.117
			c2.177,3.575,1.491,7.636-2.499,9.986c-10.609,6.248-21.585,8.984-33.159,2.142c-7.85-4.641-10.502-11.514-9.557-19.426
			c2.066-17.307,18.063-30.543,35.557-29.519c3.183,0.186,6.587,1.737,9.297,3.545c3.23,2.155,2.499,5.762,0.837,8.651
			c-1.692,2.94-4.708,3.242-7.84,2.538c-11.353-2.55-20.871,5.039-22.822,14.854C401.426,427.052,405.412,430.403,412.235,431.006z"
			/>
		<path fill="#B2D236" d="M420.106,360.292c10.436-0.723,20.131,3.302,29.96,6.619c9.369,3.162,18.738,6.238,28.708,6.89
			c1.351,0.088,2.689,0.449,4.02,0.743c2.313,0.51,3.597,1.726,3.677,4.346c0.081,2.642-0.877,4.63-3.289,5.166
			c-2.736,0.608-5.82,1.205-8.434,0.544c-13.624-3.446-27.126-7.373-40.713-10.972c-7.833-2.074-15.79-5.43-23.879-1.823
			c-5.606,2.5-10.642,6.254-16.157,8.996c-1.873,0.931-4.678,1.139-6.59,0.426c-1.229-0.458-2.051-3.161-2.208-4.932
			c-0.101-1.146,1.059-2.779,2.116-3.594C396.891,365.318,407.05,359.337,420.106,360.292z"/>
		<path fill="#EB1D25" d="M271.187,441.995c6.16-0.508,11.95-1.135,17.756-1.417c4.541-0.221,7.202,2.023,7.582,5.829
			c0.428,4.289-1.521,6.952-6.191,7.643c-9.303,1.376-18.639,2.534-27.969,3.728c-8.205,1.05-11.162-4.503-9.049-11.493
			c3.231-10.693,6.346-21.421,9.497-32.139c1.395-4.747,5.857-7.164,10.469-5.642c3.983,1.315,5.772,5.65,4.448,10.185
			C275.493,426.345,273.409,434.047,271.187,441.995z"/>
		<path fill="#FED602" d="M262.919,311.148c1.186-3.992,2.204-8.044,3.611-11.957c1.084-3.016,3.786-3.913,6.69-3.349
			c2.861,0.556,4.844,2.769,4.464,5.569c-0.64,4.71-1.641,9.465-3.285,13.907c-0.879,2.377-3.617,3.48-6.563,2.599
			C264.469,316.91,262.994,314.736,262.919,311.148z"/>
		<path fill="#FED602" d="M195.826,330.093c4.394,2.482,9.065,4.603,13.023,7.651c1.303,1.004,1.544,4.676,0.865,6.642
			c-0.86,2.488-3.516,4.103-6.429,2.902c-4.082-1.683-8.295-3.341-11.855-5.855c-1.477-1.043-2.173-4.38-1.861-6.47
			c0.395-2.643,2.615-4.417,5.797-3.905C195.519,330.736,195.672,330.414,195.826,330.093z"/>
		<path fill="#FED602" d="M205.014,377.021c0.05,3.264-2.412,5.984-5.806,6.506c-2.675,0.411-5.345,0.86-8.003,1.37
			c-4.374,0.839-7.988-1.149-8.657-4.828c-0.667-3.667,1.546-6.18,6.156-7.079c3.015-0.588,6.001-1.33,9.024-1.869
			C201.535,370.44,204.957,373.269,205.014,377.021z"/>
		<path fill="#FED703" d="M231.645,322.107c-2.892,0.203-4.808-1.02-5.804-3.985c-1.099-3.274-2.629-6.402-3.769-9.664
			c-1.016-2.907,0.37-6.117,2.846-7.197c2.793-1.219,6.78-0.117,8.035,2.545c1.674,3.549,3.207,7.188,4.472,10.9
			C238.71,318.475,235.851,322.596,231.645,322.107z"/>
		<path fill="#FED602" d="M316.524,326.88c-2.152,2.485-3.723,4.615-5.62,6.401c-1.862,1.753-4.036,3.18-6.105,4.707
			c-2.743,2.023-6.172,1.667-8.374-0.823c-2.038-2.304-1.96-6.209,0.521-8.368c2.984-2.596,6.059-5.186,9.451-7.171
			c1.479-0.865,4.179-0.873,5.714-0.083C313.792,322.408,314.77,324.643,316.524,326.88z"/>
		<path fill="#FED703" d="M244.014,308.773c0.011-5.151,1.823-7.556,5.848-7.763c3.845-0.198,5.77,1.298,6.336,5.152
			c0.232,1.579,0.305,3.224,0.143,4.808c-0.412,4.015-2.575,6.101-6.056,6.09c-3.412-0.01-5.979-2.633-6.264-6.425
			C243.976,310.018,244.016,309.394,244.014,308.773z"/>
		<path fill="#FED602" d="M295.776,317.189c0.012,3.959-4.841,9.333-8.425,9.329c-3.47-0.004-5.831-2.505-5.831-6.179
			c0-3.933,4.841-9.586,8.189-9.563C292.587,310.796,295.767,314.158,295.776,317.189z"/>
		<path fill="#FED703" d="M213.918,317.511c3.916,0.041,8.486,4.682,8.504,8.637c0.016,3.449-2.636,6.35-5.821,6.369
			c-3.099,0.019-9.301-6.035-9.32-9.097C207.261,320.216,210.34,317.474,213.918,317.511z"/>
		<path fill="#FED602" d="M198.29,365.534c-5.882-0.152-9.389-2.768-9.196-6.859c0.169-3.585,2.87-6.193,6.649-5.856
			c6.884,0.614,9.776,2.923,9.326,7.054C204.674,363.494,202.364,365.64,198.29,365.534z"/>
		<path fill="#FED602" d="M313.15,341.476c4.754,0.221,6.054,1.539,5.879,5.962c-0.149,3.784-4.639,7.023-9.471,6.832
			c-4.123-0.163-6.581-2.765-6.276-6.644C303.592,343.67,307.533,341.215,313.15,341.476z"/>
		<path fill="#FCE7E8" d="M488.785,431.691c-0.128,1.574-0.256,3.147-0.383,4.721c-0.435-0.044-0.87-0.087-1.306-0.131
			c0.124-1.572,0.249-3.143,0.373-4.715C487.908,431.607,488.346,431.649,488.785,431.691z"/>
		<path fill="#FEFDFD" d="M154.613,456.031c2.966-10.434,5.597-20.129,8.572-29.717c0.482-1.553,2.277-3.038,3.832-3.857
			c5.203-2.74,10.911-2.885,16.57-2.12c7.699,1.041,10.854,8.501,7.366,16.637c-3.754,8.758-10.927,13.517-19.544,16.106
			C166.271,454.623,160.779,454.993,154.613,456.031z"/>
		<path fill="#FEF8F8" d="M366.866,413.547c-0.499,5.797-3.26,7.631-8.563,7.304C361.281,418.31,363.801,416.161,366.866,413.547z"
			/>
		<path fill="#FEFEFE" d="M224.826,447.589c-0.303,0.02-0.606,0.04-0.908,0.06c0.163-0.156,0.326-0.312,0.489-0.469
			C224.548,447.315,224.688,447.451,224.826,447.589z"/>
		<path fill="#FEFCFC" d="M472.8,410.97c0.412,6.434-4.25,10.997-10.147,12.928c-2.686,0.88-5.836,1.254-8.601,0.798
			c-5.799-0.957-8.173-6.749-5.254-11.88c2.342-4.117,7.013-5.96,9.459-10.37c1.583-2.855,6.376-2.369,9.651-0.668
			c2.963,1.539,4.834,4.132,4.892,7.695C472.807,409.973,472.8,410.472,472.8,410.97z"/>
	</g>
</g>
</svg>
