<?xml version="1.0" encoding="utf-8"?>
<!-- Generator: Adobe Illustrator 19.1.0, SVG Export Plug-In . SVG Version: 6.00 Build 0)  -->
<svg version="1.1" id="Layer_1" xmlns="http://www.w3.org/2000/svg" xmlns:xlink="http://www.w3.org/1999/xlink" x="0px" y="0px"
	 viewBox="-76 277.7 458.1 239.3" style="enable-background:new -76 277.7 458.1 239.3;" xml:space="preserve">
<style type="text/css">
	.st0{fill:#FFFFFF;}
	.st1{fill:#ED1C2E;}
	.st2{fill:#B2BB1E;}
	.st3{fill:#F8971D;}
	.st4{fill:#FFD200;}
</style>
<g>
	<path class="st0" d="M-69.5,417.3c1.2-0.9,2.5-1.6,8.6-3.1c6.1-1.5,26.6-9.4,32-11c6.6-1.9,16.8-3.8,19.3-3.9c0,0,1.9-0.2,3.4-0.1
		c1.5,0.1,3.5,0.2,4.2-0.1s2.5-1.2,3.1-2.4c0.6-1.2,0.9-2.6,0.8-3.3c-0.1-0.7-1.1-4.2-1.3-5.6c-0.2-1.4-0.6-5.1,0-7.2
		c0.6-2.1,0.4-2.1,1-3.1c0.6-1,1.6-2.1,1.9-2.7c0.3-0.6,0.9-1.8,1-2.7c0.1-0.9,0-2-0.4-2.8c-0.3-0.8-3.1-6.9-3.3-11.4
		c-0.2-4.5-0.5-4.4-0.2-6.4c0.3-2,0.6-6.6,1.4-9.8c0.8-3.2,1.8-5.6,2.7-6.8c0.9-1.1,2.8-3,4.1-3.5c1.3-0.5,4.5-1,5.9-2.7
		c1.4-1.7,1.5-3.3,1.7-5.5c0.1-2.2,1.1-4.5,1.8-6.4c0.7-2,2.7-6,4.5-8.4c1.8-2.4,4.6-6,7.9-8.2c3.3-2.2,5.5-3,6.9-3.2
		c1.4-0.2,3.2,0.1,3.7,0.1c0.6,0.1,1.4,0.4,3-0.2c1.6-0.6,2.3-1.2,4.2-4c1.9-2.8,4.3-5.4,6.4-6.8c2.1-1.5,7.6-5,13.8-6.5
		c6.2-1.5,9.7-1.9,11.1-1.8c1.4,0.1,4.4,0.7,5.5,1.7c1.1,1,3,2.5,4.1,2.7c1.1,0.2,2.1,0.2,3.3-0.2c1.2-0.4,4.7-1.6,6.8-1.8
		c2.1-0.3,6.9-0.9,12.6,0c5.7,0.9,9.7,2.3,11.6,3.6c1.9,1.3,4.1,3,5.1,5.2c1,2.2,1.3,3.5,2.3,4.4s3.1,1.1,4.6,1.3
		c1.5,0.1,6.9,1.5,10.2,2.9c3.3,1.4,7.4,3.6,10.9,6.7c3.5,3.1,6.4,7.3,7,9.6c0.6,2.3,0.9,3.2,0.8,4.2c-0.1,1-0.9,4.2-0.6,5.4
		c0.3,1.2,0.9,2.2,1.6,2.8c0.7,0.6,3.8,2.9,5,4.2c1.2,1.2,2.9,3.4,3.7,5.1c0.8,1.7,1.1,2.8,1.3,3.5c0.1,0.7,0.2,2.4,0.2,2.4
		s3.9-0.8,9.3-0.3c5.4,0.5,10.1,1.5,13.7,2.6c3.6,1.1,12.1,4.3,15.8,6.1c3.7,1.8,8.6,4.2,8.6,4.2s11.9-5,14.6-6
		c2.7-1,11.4-4.1,15.4-4.9c4-0.9,7.4-1.4,9.6-1.5c2.2,0,7.2,0.5,9.6,1.1c2.4,0.5,9.9,2.9,13.8,4.7c3.9,1.8,10.1,4.6,13.8,6.7
		c3.6,2,9.9,5.8,12.8,8c2.9,2.2,10.1,7.6,11.7,9.2c1.6,1.5,7.4,7.4,9,9.8c1.6,2.4,3.6,6.1,4.2,7.2c0.5,1.1,1.4,4.5,3.6,5.1
		c2.2,0.6,2.7,0.6,3.5,0.5c0.8-0.1,7.6-1.4,12.6,0c5,1.4,9.8,3.5,13,7.1c3.2,3.6,6,6.9,7.6,14c1.6,7.2,1.3,13.1,0.4,19
		c-1,5.8-3.2,12-5.8,16.3c-2.5,4.4-6.5,10.4-11.8,14.8c-5.4,4.4-10,6.8-13.5,8.2c-3.5,1.4-7.7,2.7-12.5,2.9c-4.8,0.2-8.7,0-12.2-1.2
		c-3.5-1.2-5.3-1.9-6.5-2.7c-1.2-0.8-2.3-1.6-2.9-1.8c-0.6-0.2-1.8-0.3-2.6-0.1c-0.8,0.2-1.5,0.7-2,1.2c-0.5,0.5-2.1,2.7-4.5,4.9
		c-2.4,2.1-7.7,6.3-13.8,8c-6.1,1.7-10.3,2.3-15,2.2c-4.7-0.1-8.7-1.2-10.4-1.9c-1.7-0.7-4.1-1.8-4.7-2.1c-0.6-0.3-2-0.4-2.8-0.1
		c-0.9,0.3-2,0.9-2.4,1.7c-0.4,0.8-1.4,5.2-4.2,6.9c-2.8,1.7-4.8,2.9-8.9,3c-4.1,0.1-6.5,0.3-10.3-0.6c-3.8-0.8-7.1-2.3-8.1-2.7
		c-1-0.4-2.6,0-2.9,0.1c-0.4,0.1-1.6,0.9-1.8,1.3c-0.3,0.5-2.1,4.9-4.7,6.5c-2.7,1.6-6.4,2.3-9.7,2c-3.3-0.3-6.8-1.1-8.6-1.7
		c-1.8-0.6-5-1.5-7-0.4c-2.1,1.1-2.9,3.1-3.1,5.6c-0.2,2.6-0.3,6-2.3,8.1c-1.9,2-5.9,3.2-11.9,2.6c-6-0.6-11.7-2.3-13.8-3.5
		c-2.2-1.2-6.5-2.9-9.2-7.5c-2.6-4.6-2.7-6.8-2.8-8.6c-0.1-1.8-0.2-4.2,0-6.4c0.2-2.1-0.3-3.1-1.1-3.7c-0.8-0.6-3.2-1.8-8.4-0.8
		c-5.2,0.9-12.7,3.2-15.9,4c-3.2,0.9-13.1,2.8-17.2,3.5c-4.1,0.7-8.7,1.5-12.4,0.8c-3.6-0.7-5.7-1.3-6.5-1.4c-0.9,0-2.1,0.2-2.6,0.6
		c-0.5,0.4-2.3,1.9-3.3,2.4c-1.1,0.5-5.6,2.1-9.1,2.6c-3.5,0.5-6.5,1.6-8.3,2.1c-1.8,0.5-9.1,2.2-11.3,2.7c-2.2,0.5-13.7,3-16.8,3.1
		c-3,0-8.1,0-12-1.6c-3.9-1.6-6.9-3.4-8.3-5.3c-1.5-1.9-2.6-3.5-3.2-4.1C9,492.8,7,492,6,491.9c-1-0.1-2.9,0.5-3.6,1.1
		s-7,6.6-10.8,9.5c-3.8,2.8-9.6,7.1-14.9,9.1c-5.3,2-11.7,4.5-19.2,5.1c-7.6,0.6-14.6,0.4-19.4-1.1c-4.9-1.5-9.1-3.8-11.6-8.3
		c-2.6-4.5-2.8-10.3-2.4-14.5c0.4-4.4,2.8-10,4.2-14.8c1.4-4.7,3.9-12.4,5.1-15.8c1.2-3.4,5-13.6,5.4-14.7c0.4-1.1,0.4-2.2,0.2-3.2
		c-0.3-1-1.2-2.5-2.1-3.1c-0.9-0.6-5.5-3.4-7.1-5.6c-1.6-2.2-3.4-4.7-3.7-7.4c-0.3-2.7,0.3-4.6,0.8-5.9c0.4-1.2,0.9-2,1.4-2.7
		C-71.2,418.7-70.1,417.7-69.5,417.3"/>
	<path class="st1" d="M20.1,426.3c-2.7-14-12.7-22-33.3-18.9c-11.1,1.7-27.1,7.7-38.5,12c-6,2.3-11.6,1.4-12.6,4.5
		c-1.1,3.7,10.1,11.4,17.1,9.4c-3.1,9.7-9.7,27.7-14.7,43.3c-3.2,10-8.2,21.9-0.8,27.6c6.5,4.9,22.4,2.5,32.6-1.3
		C-4.2,493.1,25.9,456.2,20.1,426.3 M-41.7,486.9c3.3-12.1,12.2-38.3,14.3-46.2c1.2-4.4,1-7.9-1.9-10.7c4.9-2,10.1-4.3,15.1-5
		c7.5-1.1,10.2,1.3,11.1,6.1c2.2,11.5-9.9,37.4-28.4,50.4C-34.7,483.7-38.1,485.6-41.7,486.9"/>
	<path class="st1" d="M97.2,483c10.4-1.4,19.8-3.8,27.4-6c11-3.2,13.3-0.7,14.3-4.2c0.6-2.3-2.4-9.4-4.7-12.8
		c-2.8-4.4-6.9-5-12.6-3.7c-7,1.6-12.1,3.1-16.9,4.3c2.7-7.8,7.7-23.3,10.1-30.9c1.8-5.6,2.3-11.9-2.3-14
		c-3.7-1.7-12.8-0.2-16.3,1.4c-8,3.7-2,7.2-3.5,11.7c-3.7,11.7-9.4,28-11.6,39.8C78,484.8,97.2,483,97.2,483"/>
	<path class="st1" d="M76.8,458.4c1.2-1.9-1.8-6-4.1-8c-2.9-2.7-7.1-2.8-12.7-1.4c-4.4,1-8.9,1.6-12.2,2.5c0.9-2.5,1.6-6.6,1.7-8.1
		c7.3-1.6,14.3-2.9,20.2-4c7.2-1.4,12.9-1.9,14.4-3.7c1.5-1.9-1.8-7.8-4.6-10.4c-3.4-3.1-6.4-3.8-12.9-2.6
		c-13.4,2.5-31.8,5.7-35.1,7.6c-5.7,3.4-0.9,7-2,10.7c-3.2,11-9.1,26.3-11.7,40.5c-1.3,6.4,1.1,9.8,5,11.8c0.5,0.2,0.9,0.4,1.4,0.6
		c2.9,1.1,6.5,1.5,10,1c11.4-1.6,21.6-4.5,29.5-6.6c5.3-1.4,9.6-1.4,11.5-3.4c1.9-2-2.2-8.2-4.5-11c-2.9-3.7-7-4.1-12.6-2.8
		c-7.4,1.7-13.2,3.4-18.2,4.7c1.6-3.5,2.2-6,3.1-8.7c9.1-2.2,16.8-4.1,23.2-5.5C72.2,460.2,75.6,460.4,76.8,458.4"/>
	<path class="st1" d="M196.6,427.5c1.4-4.2,0.9-6.5-1.4-8c7.6-1.9,20-3.9,30.1-5c7.8-0.9,13.3,0.3,13.5-2.6
		c0.3-4.2-23.4-17.2-37.8-14.8c-12.3,2-29.7,4.8-47.9,8.4c-6.7,1.3-12.9,2-15.5,5c-3.4,3.9,5.5,10,8.9,12.9c3.4,3,7.8,3.5,13.2,2.7
		c2.4-0.4,12.7-2.3,16.2-3.2c-6.9,17.4-18,53.6-20.4,65.5c-1.2,6.6,1,10.8,4.8,13.1c3.9,2.4,11,5.8,14.3,5.3
		c3.3-0.5,0.6-3.1,2.2-10.7C180.3,479.5,189.7,448.3,196.6,427.5"/>
	<path class="st1" d="M294.2,436.3c2.9,1.3,8.5,2.7,11.7,1.4c3.2-1.3,4.9-11.9,4-16.8c-1.2-6-8.4-9.9-17.1-8.6
		c-22.3,3.4-39.5,31.3-35.9,49.9c2.3,11.8,13.6,15.8,24.7,14.1c14.4-2.2,25.5-12.4,23.2-26.7c-0.8-4.9-8.3,6.5-15.2,8.1
		c-5.9,1.3-10.1-1.2-11.1-6.7c-1.5-8.4,6-23,14-27.1c-0.1,1.3-0.4,3-0.9,4.7C290.5,432.7,291,435,294.2,436.3"/>
	<path class="st1" d="M369.1,417.8c-2.3-12-11.6-16.7-21.9-15.2c-20.2,3.1-38.1,27.9-34.1,48.6c2.4,12.1,11.9,16.7,23.5,14.9
		C357.9,462.9,373.2,439.2,369.1,417.8 M339.2,449c-2.6,0.4-5.1-1.4-5.9-5.5c-2.2-11.3,6.4-26.7,12.6-27.6c2.1-0.3,3.6,1.5,4.2,4.4
		C352.3,431.7,345.1,448,339.2,449"/>
	<path class="st1" d="M253.9,439.5c1.8-7,0.6-10.2-2.8-12.7c-6.4-4.6-19.3-3.4-25.7-2.4c-20.3,3.1-38.1,41.2-34.4,58.2
		c0,0,0.5,3.7,4.5,5.6c4.1,1.9,9.8,3.2,12.7,2.5c3.3-0.8,0.2-3.5-0.1-7.1c-0.4-6,0.8-13.4,2.2-17.7c6.8-1.7,12.6-2.5,16.9-3
		c-1.1,4.1-2.1,9.2-2.2,10.8c-0.3,5.2,1.2,7.7,5.1,9.3c4.2,1.8,11.2,1.8,13.9,0.9c3.8-1.2,0-3.3,0.5-8.3
		C245.7,464.6,251.9,447.7,253.9,439.5 M225.9,452.8c-4.5,0.9-8.5,1.9-11.7,2.7c4.1-7.9,10.1-16.6,15.1-17.4
		c1.8-0.3,3.8,0.2,4.6,1.9c0,0-1.8,5.6-3.8,12.1C228.9,452.3,227.5,452.5,225.9,452.8"/>
	<path class="st2" d="M329.9,394.1c-3-11.2-20-23.2-25.9-27c-12-7.7-28.9-16.1-40.3-16.3h-0.5h0c-7.9,0-25.3,7.1-40.4,13.4
		c-13.5-7.5-29-13.9-40.2-14.1c-0.2,0-0.4,0-0.6,0h0c-26.2,0-102.3,32.2-154.7,64.5c-1.3,0.8-1.8,2.5-1.2,3.9
		c0.5,1.1,1.6,1.8,2.8,1.8c0.3,0,0.6,0,0.9-0.1c98.8-28.2,160-37.1,174.1-37.1c0.2,0,0.3,0,0.4,0c19.7,0.4,42.8,15.2,55.3,23.8
		c0.8,0.6,1.6,1.1,2.3,1.5c0.5,0.4,1.1,0.5,1.7,0.5c0.6,0,1.3-0.2,1.8-0.6c1-0.7,1.5-2.1,1.2-3.3c-2.3-8.7-11.4-17.8-19.7-24.7
		c20.4-4.5,28-4.7,33.5-4.7c0.1,0,0.2,0,0.3,0c15.5,0.3,33.7,13.1,43.5,19.8c0.6,0.4,1.2,0.8,1.8,1.2c0.4,0.3,0.9,0.4,1.4,0.4
		c0.5,0,1-0.2,1.4-0.4C329.8,396.1,330.2,395.1,329.9,394.1"/>
	<path class="st3" d="M162.9,335.8c-4.5-3.9-10-5.8-17.3-6.1c-3.4-0.1-6.7,0.1-9.8,0.3c-0.1-3.3,1.3-5.7,2.6-7.1
		c2.4-2.7,6.1-4.2,9.9-4c1.4,0.1,2.7,0.3,4,0.8c0.2,0.1,0.4,0.1,0.6,0.1c0,0,0,0,0,0c1.2,0.1,2.2-0.9,2.2-2.1c0-0.5-0.1-1-0.4-1.4
		c-3-5.6-10-10.2-18.3-12.1c-1.3-0.3-2.5-0.5-3.8-0.5c-7.9-0.3-14.1,3.9-19.6,7.7c-0.9,0.6-1.8,1.2-2.6,1.8
		c-1.7-2.9-2.2-6.3-1.1-9.3c1.2-3.7,4-5.1,7.1-6.6c1-0.5,2-1,2.9-1.6c0.7-0.4,1.1-1.2,1-2c-0.1-0.8-0.6-1.5-1.3-1.8
		c-3.9-1.6-8-2.6-12.1-2.7c-5.9-0.3-11.4,1.1-15.6,4c-4.9,3.3-7.6,8.3-10.8,14.2c-0.5,1-1.1,2-1.7,3c-2.7-1.8-3.6-4.4-3.9-6.4
		c-0.6-4.6,1.7-9.8,5.6-12.8c0.8-0.6,1.1-1.6,0.7-2.5c-0.4-0.9-1.3-1.5-2.2-1.4c-13.3,1.3-21.7,6.4-25.6,15.6
		c-2.9,6.7-2.4,12-1.9,16.6c0.2,2,0.4,3.9,0.3,5.8c-3.7,0.4-7-1.3-9.2-4.4c-2.3-3.3-2.8-7.8-1.5-11.7c0.3-0.8,0-1.8-0.6-2.3
		c-0.7-0.6-1.6-0.7-2.4-0.3c-4,2.1-7.8,6.2-10.2,11.3c-4.5,9.3-2.7,16.1,0,22c1.3,2.9,2.9,5.3,4.5,7.7c0.7,1,1.3,2,1.9,3
		c-1.9,1-4.2,1.5-6.4,1.4c-1.9-0.1-4.7-0.6-7-2.9c-1.1-1.1-1.7-2.5-2.3-4c-0.8-1.9-1.6-3.8-3.4-5c-0.6-0.4-1.3-0.5-1.9-0.3
		c-0.6,0.2-1.1,0.7-1.4,1.4c-5.2,16.7,0,30,14.2,36.4c0.9,0.4,1.9,0.7,2.8,1c1.4,0.4,2.7,0.8,3.8,1.6c-1.9,3.7-5.7,5.9-10,5.7
		c-3.5-0.2-6.9-1.8-9.4-4.6c-0.6-0.7-1.6-0.9-2.5-0.5c-0.9,0.4-1.4,1.2-1.3,2.2c0.6,7.7,3.7,14.3,8.6,19c1.1,1,2.1,1.4,3.3,1.4
		c1.2,0,4.4-0.9,6.5-2.1c6.1-3.5,12.6-7,19.4-10.6c-3-6.6-4.5-13.9-4.3-21.6c0.9-26.9,23.4-48,50.3-47.1
		c19.2,0.6,35.4,12.3,42.8,28.6c1-0.4,2.1-0.7,3.1-1c1.4-0.5,2.8-0.9,4.2-1.3c5.8-1.8,11.2-3.2,16-4.1c3.2-0.6,5.9-1,6.7-2.4
		C167.1,340.1,165.1,337.6,162.9,335.8"/>
	<path class="st4" d="M93.6,321.9c-26.9-0.9-49.4,20.2-50.3,47.1c-0.3,7.7,1.3,15,4.3,21.6c0.7-0.4,1.3-0.7,2-1.1
		c1.3-0.7,2.6-1.4,3.8-2c27.5-14.4,58.2-28.5,83-37C129,334.1,112.7,322.5,93.6,321.9"/>
	<path class="st1" d="M380.7,396.5c-0.9,0.9-2,1.3-3.3,1.3c-1.3,0-2.4-0.4-3.3-1.3c-0.9-0.9-1.3-2-1.3-3.3c0-1.4,0.5-2.5,1.5-3.4
		c0.9-0.8,2-1.3,3.2-1.3c1.3,0,2.4,0.5,3.3,1.4c0.9,0.9,1.4,2,1.4,3.3C382.1,394.5,381.7,395.6,380.7,396.5 M374.7,390.5
		c-0.7,0.8-1.1,1.7-1.1,2.7c0,1.1,0.4,2,1.1,2.7c0.8,0.8,1.7,1.1,2.7,1.1c1.1,0,2-0.4,2.7-1.1c0.8-0.8,1.1-1.7,1.1-2.7
		c0-1-0.4-1.9-1.1-2.7c-0.8-0.8-1.7-1.2-2.7-1.2C376.4,389.3,375.5,389.7,374.7,390.5 M375.4,395.8v-5.2h1.4c0.6,0,1,0,1.1,0
		c0.4,0,0.7,0.1,1,0.3c0.5,0.3,0.7,0.7,0.7,1.2c0,0.4-0.1,0.7-0.4,0.9c-0.2,0.2-0.5,0.3-0.9,0.3c0.3,0.1,0.6,0.2,0.7,0.3
		c0.3,0.3,0.5,0.6,0.5,1.2v0.5c0,0.1,0,0.1,0,0.1c0,0,0,0.1,0,0.2l0.1,0.2h-1.3c0-0.2-0.1-0.4-0.1-0.7c0-0.3,0-0.5-0.1-0.6
		c-0.1-0.2-0.2-0.3-0.4-0.4c-0.1,0-0.3-0.1-0.5-0.1l-0.3,0h-0.3v1.8L375.4,395.8L375.4,395.8z M377.9,391.6
		c-0.2-0.1-0.4-0.1-0.8-0.1h-0.3v1.5h0.5c0.3,0,0.6-0.1,0.7-0.2c0.2-0.1,0.3-0.3,0.3-0.6C378.3,391.9,378.2,391.7,377.9,391.6"/>
</g>
</svg>
