<?xml version="1.0" encoding="utf-8"?>
<!-- Generator: Adobe Illustrator 17.0.0, SVG Export Plug-In . SVG Version: 6.00 Build 0)  -->
<!DOCTYPE svg PUBLIC "-//W3C//DTD SVG 1.1//EN" "http://www.w3.org/Graphics/SVG/1.1/DTD/svg11.dtd">
<svg version="1.1" id="Layer_1" xmlns="http://www.w3.org/2000/svg" xmlns:xlink="http://www.w3.org/1999/xlink" x="0px" y="0px"
	 width="500px" height="500px" viewBox="0 0 500 500" enable-background="new 0 0 500 500" xml:space="preserve">
<g>
	<g>
		<path fill="#30B280" d="M500.324,173.405c-0.198,0.167-0.517,0.3-0.576,0.506c-0.876,3.072-3.421,3.397-5.997,3.706
			c-1.524,0.183-3.036,0.517-4.563,0.596c-1.156,0.06-2.326-0.23-3.493-0.265c-1.724-0.051-3.459-0.121-5.176,0.007
			c-4.982,0.37-9.957,0.835-14.936,1.257c-0.375,0.032-0.756,0.036-1.132,0.014c-4.677-0.273-9.189,0.6-13.695,1.765
			c-2.262,0.585-4.479,1.105-6.452,2.439c-3.22,2.177-3.127,7.177-0.937,9.357c2.805,2.794,6.084,4.418,9.708,5.753
			c4.272,1.574,8.457,3.408,12.598,5.309c3.957,1.816,7.936,3.648,11.673,5.865c4.26,2.528,8.297,5.439,12.365,8.279
			c4.453,3.108,6.638,7.743,7.862,12.797c0.742,3.063,0.163,6.218-1.494,8.928c-2.295,3.753-4.492,7.64-7.998,10.46
			c-2.471,1.987-4.99,3.936-7.633,5.682c-5.636,3.722-11.262,7.481-17.095,10.876c-3.954,2.301-8.229,4.061-12.404,5.968
			c-4.782,2.185-9.569,4.366-14.429,6.366c-6.564,2.701-13.165,5.319-19.817,7.795c-3.789,1.41-7.725,2.422-11.57,3.689
			c-7.093,2.337-14.152,4.778-21.26,7.069c-2.097,0.676-4.34,0.889-6.462,1.501c-2.624,0.756-5.162,1.813-7.79,2.55
			c-6.028,1.691-12.065,3.357-18.141,4.861c-5.162,1.278-10.394,2.266-15.572,3.485c-2.096,0.493-4.096,1.405-6.197,1.868
			c-4.374,0.964-8.808,1.658-13.178,2.641c-5.7,1.282-11.336,2.856-17.046,4.083c-6.288,1.352-12.633,2.437-18.946,3.671
			c-3.311,0.647-6.6,1.41-9.914,2.041c-5.647,1.076-11.307,2.086-16.96,3.132c-3.941,0.729-7.87,1.525-11.82,2.197
			c-4.274,0.726-8.567,1.338-12.851,2.007c-4.072,0.636-8.133,1.357-12.218,1.899c-4.051,0.537-8.128,0.872-12.188,1.345
			c-2.366,0.276-4.716,0.693-7.082,0.965c-3.165,0.364-6.343,0.617-9.509,0.977c-3.099,0.352-5.913-0.486-8.592-1.93
			c-4.913-2.649-4.502-8.025-1.358-10.522c1.074-0.853,2.486-1.452,3.836-1.757c8.479-1.916,16.99-3.692,25.479-5.563
			c6.579-1.45,13.142-2.976,19.715-4.455c4.881-1.099,9.765-2.18,14.649-3.266c4.828-1.073,9.648-2.18,14.486-3.203
			c4.487-0.949,9.013-1.719,13.485-2.729c4.717-1.065,9.385-2.348,14.085-3.488c7.621-1.849,15.257-3.637,22.877-5.491
			c7.566-1.841,15.129-3.695,22.674-5.618c3.107-0.792,6.146-1.847,9.247-2.665c6.057-1.598,12.147-3.068,18.2-4.68
			c4.576-1.219,9.116-2.571,13.668-3.876c5.21-1.493,10.44-2.921,15.618-4.518c7.191-2.218,14.382-4.45,21.501-6.888
			c8.066-2.763,16.116-5.597,24.048-8.72c4.347-1.711,8.434-4.085,12.642-6.15c2.165-1.062,4.385-2.019,6.501-3.169
			c5.321-2.891,9.889-6.759,13.969-11.197c2.655-2.889,2.737-9.841-0.424-12.545c-3.18-2.721-6.375-5.025-10.342-6.449
			c-3.557-1.276-6.932-3.064-10.372-4.659c-4.451-2.063-8.942-4.051-13.315-6.271c-4.368-2.217-8.588-4.722-12.921-7.01
			c-1.326-0.7-2.78-1.421-4.23-1.557c-1.684-0.159-2.825,1.245-3.448,2.657c-1.838,4.17-3.514,8.411-5.247,12.627
			c-1.443,3.508-2.893,7.014-4.31,10.532c-1.259,3.126-2.457,6.276-3.732,9.395c-0.317,0.776-0.871,1.451-1.242,2.209
			c-1.961,4.001-3.858,8.033-5.856,12.015c-1.624,3.237-3.9,5.689-7.864,5.758c-2.321,0.041-4.001-1.138-5.38-2.897
			c-4.703-5.997-7.163-13.078-9.673-20.119c-2.048-5.743-3.872-11.566-5.893-17.319c-0.575-1.637-1.421-3.194-2.269-4.717
			c-0.922-1.657-3.369-1.773-4.916-0.305c-2.491,2.363-4.397,5.161-6.052,8.15c-1.499,2.707-2.946,5.447-4.548,8.092
			c-3.063,5.055-6.07,10.155-9.383,15.044c-2.785,4.11-5.886,8.017-9.001,11.889c-3.035,3.772-6.047,7.605-9.463,11.017
			c-5.161,5.154-10.992,9.527-18.524,10.4c-3.55,0.411-6.953-0.836-9.963-2.921c-2.433-1.686-4.02-4.047-5.446-6.55
			c-3.442-6.042-5.328-12.684-6.975-19.345c-1.036-4.19-1.209-8.592-1.776-12.898c-0.36-2.73-0.729-5.459-1.099-8.188
			c-0.05-0.366-0.177-0.728-0.186-1.093c-0.119-4.509-0.231-9.018-0.328-13.527c-0.043-2.014-1.872-3.659-3.82-3.939
			c-4.501-0.647-8.026,1.276-11.056,4.158c-2.963,2.818-5.82,5.805-8.32,9.031c-1.333,1.72-1.856,4.086-2.67,6.189
			c-1.746,4.517-3.619,8.996-5.112,13.597c-1.523,4.695-2.484,9.573-4.005,14.269c-1.392,4.299-2.89,8.62-4.926,12.635
			c-1.679,3.31-3.975,6.396-6.44,9.192c-2.214,2.512-5.399,3.901-8.801,3.711c-3.204-0.179-5.287-0.83-6.459-4.629
			c-1.522-4.932-1.998-9.868-0.845-14.9c1.233-5.383,2.344-10.812,3.942-16.089c1.381-4.562,3.409-8.926,5.078-13.405
			c1.21-3.246,2.508-6.482,3.38-9.824c0.768-2.942,0.107-6.182-2.643-6.834c-1.273-0.302-2.695-0.452-3.963-0.211
			c-3.771,0.715-7.533,1.535-11.233,2.549c-3.141,0.86-3.849,2.159-3.982,5.285c-0.145,3.397,1.675,6.171,2.558,9.242
			c0.884,3.074,1.385,6.262,1.983,9.414c0.217,1.144,0.382,2.336,0.311,3.49c-0.165,2.702-0.345,5.418-0.773,8.088
			c-1.081,6.748-5.103,12.027-8.913,17.409c-3.557,5.025-8.248,8.698-13.666,11.448c-3.917,1.988-8.086,3.314-12.468,3.905
			c-1.937,0.261-3.854,0.685-5.795,0.882c-0.975,0.099-1.985-0.142-2.979-0.229c-0.132,0-0.264,0-0.396,0
			c-6.168-0.146-12.067-1.594-17.593-4.23c-3.973-1.895-7.758-4.208-11.518-6.512c-1.659-1.017-3.032-2.493-4.564-3.725
			c-2.389-1.921-5.686-1.162-7.32,1.389c-1.278,1.995-2.397,4.106-3.426,6.243c-2.426,5.037-4.693,10.151-7.145,15.176
			c-2.373,4.864-4.902,9.652-7.35,14.48c-1.544,3.044-2.999,6.134-4.614,9.139c-3.036,5.652-6.068,11.31-9.274,16.865
			c-2.736,4.741-5.627,9.399-8.609,13.989c-3.621,5.573-7.27,11.138-11.166,16.519c-3.509,4.847-7.22,9.568-11.118,14.107
			c-3.216,3.744-6.624,7.385-10.34,10.62c-3.652,3.178-7.621,6.092-11.791,8.541c-2.892,1.699-6.361,2.412-9.57,3.574
			c-0.177,0.064-0.325,0.209-0.487,0.316c-1.834,0-3.668,0-5.502,0c-0.918-0.431-1.8-0.979-2.759-1.276
			c-6.883-2.126-11.314-6.507-12.806-13.675c-0.379-1.821-0.84-3.625-1.263-5.438c0-1.402,0-2.805,0-4.207
			c0.331-1.729,0.631-3.465,0.998-5.186c1.791-8.387,4.659-16.424,8.4-24.111c2.941-6.043,6.193-11.941,9.476-17.808
			c2.008-3.588,4.173-7.114,6.558-10.459c4.054-5.685,7.645-11.703,12.487-16.829c4.487-4.75,8.695-9.763,13.078-14.613
			c2.733-3.025,5.595-5.934,8.34-8.948c2.752-3.023,5.372-6.167,8.158-9.158c3.224-3.46,6.562-6.815,9.859-10.206
			c4.2-4.319,8.405-8.633,12.617-12.941c0.772-0.789,1.577-1.545,2.377-2.307c1.521-1.447,3.055-2.881,4.571-4.332
			c1.157-1.107,2.422-2.18,2.454-3.96c0.036-2.002,0.014-4.007-0.027-6.009c-0.092-4.455-0.191-8.91-0.329-13.364
			c-0.05-1.598-0.187-3.196-0.34-4.789c-0.406-4.23-0.809-8.461-1.278-12.684c-0.339-3.051-0.738-6.097-1.191-9.133
			c-0.405-2.715-0.88-5.421-1.398-8.117c-0.656-3.414-1.246-6.851-2.124-10.21c-0.969-3.709-2.061-7.405-3.416-10.987
			c-1.276-3.374-2.738-6.72-4.521-9.849c-2.547-4.47-6.434-7.809-10.331-11.096c-2.482-2.094-7.314-2.52-9.967-0.645
			c-2.918,2.062-5.11,4.774-6.846,7.894c-2.202,3.957-2.292,8.345-2.551,12.653c-0.499,8.294,0.24,16.502,2.525,24.519
			c1.195,4.195,2.447,8.378,3.832,12.514c1.668,4.98,3.382,9.952,5.305,14.837c1.727,4.387,3.702,8.681,5.688,12.961
			c1.354,2.918,2.946,5.724,4.366,8.613c0.726,1.477,1.416,3.091,0.497,4.678c-0.948,1.637-1.922,3.371-3.282,4.636
			c-3.196,2.975-4.986,3.07-8.337,1.02c-2.785-1.704-5.351-3.835-7.782-6.035c-3.015-2.728-5.817-5.696-8.655-8.615
			c-1.07-1.1-2.1-2.274-2.948-3.548c-2.132-3.206-4.014-6.585-6.244-9.719c-3.43-4.82-5.255-10.376-6.78-15.891
			c-1.398-5.054-1.627-10.454-2.115-15.725c-0.225-2.429,0.103-4.918,0.283-7.372c0.163-2.218,0.355-4.445,0.734-6.633
			c0.638-3.687,1.468-7.341,2.155-11.021c1.206-6.46,3.334-12.62,6.486-18.354c2.42-4.402,5.392-8.462,9.178-11.875
			c5.986-5.396,12.923-8.517,21.003-8.713c4.164-0.101,8.062,1.564,11.543,3.511c5.646,3.16,10.136,7.909,13.801,13.173
			c3.809,5.471,7.198,11.268,10.364,17.142c2.129,3.951,3.654,8.244,5.261,12.456c1.536,4.025,2.981,8.099,4.191,12.232
			c1.832,6.257,3.519,12.56,5.089,18.888c0.976,3.936,1.518,7.978,2.458,11.924c0.506,2.125,1.134,4.335,2.251,6.177
			c1.966,3.244,5.398,2.407,8.306,1.982c2.345-0.343,4.543-1.611,6.846-2.346c6.007-1.916,12.065-3.676,18.047-5.664
			c6.74-2.24,13.41-4.691,20.129-6.997c7.762-2.664,15.551-5.246,23.313-7.909c6.121-2.099,12.247-4.19,18.308-6.452
			c1.75-0.653,3.385-1.75,4.894-2.882c1.931-1.448,2.796-3.586,3.481-5.898c1.914-6.457,3.836-12.924,6.109-19.259
			c1.718-4.787,3.919-9.407,6.019-14.05c2.039-4.509,4.004-9.073,6.395-13.395c3.534-6.386,7.513-12.486,12.353-18.028
			c4.012-4.595,8.621-8.322,14.056-10.983c2.563-1.255,5.342-2.068,8.022-3.082c2.158,0,4.315,0,6.473,0
			c1.919,0.639,3.836,1.284,5.757,1.916c6.716,2.207,11.924,6.018,14.061,13.136c0.559,1.863,1.456,3.66,1.758,5.557
			c0.631,3.964,1.199,7.899-0.094,11.96c-1.67,5.245-3.407,10.423-6.239,15.168c-1.053,1.765-2.02,3.628-3.34,5.178
			c-3.062,3.597-6.336,7.012-9.485,10.537c-3.198,3.58-6.418,7.144-9.483,10.835c-1.131,1.362-1.968,3.011-2.723,4.629
			c-1.027,2.203,0.516,4.118,3.498,4.583c4.223,0.658,7.756,2.484,9.216,6.72c0.883,2.56,1.389,5.339,1.522,8.046
			c0.143,2.906-0.434,5.84-0.547,8.767c-0.18,4.668-0.25,9.341-0.327,14.013c-0.011,0.676,0.275,1.354,0.286,2.034
			c0.039,2.436-0.1,4.88,0.049,7.307c0.212,3.446,0.512,6.895,0.983,10.315c0.301,2.185,0.892,4.355,2.527,6.032
			c1.321,1.355,6.567,1.297,8.237-0.459c3.355-3.528,6.845-6.965,9.85-10.779c2.697-3.424,4.866-7.273,7.176-10.992
			c1.388-2.233,2.584-4.585,3.896-6.866c1.259-2.188,2.622-4.319,3.818-6.54c1.471-2.731,2.763-5.559,4.231-8.291
			c1.349-2.51,2.748-5.001,4.273-7.406c2.148-3.387,4.356-6.742,6.686-10.005c1.479-2.071,3.307-3.89,4.835-5.93
			c2.197-2.935,5.036-5.036,8.308-6.525c2.662-1.212,5.563-1.47,7.643,0.914c1.876,2.149,3.628,4.606,4.681,7.23
			c1.779,4.431,2.897,9.123,4.418,13.663c1.064,3.178,2.118,6.393,3.585,9.391c1.212,2.477,3.676,2.395,5.096,0.008
			c1.014-1.704,1.974-3.499,2.579-5.376c2.31-7.168,4.508-14.346,8.565-20.819c1.831-2.921,4.368-4.207,7.559-4.463
			c3.514-0.282,6.643,1.075,9.558,2.847c3.201,1.945,6.347,2.764,9.672,0.361c0.34-0.246,0.731-0.441,1.125-0.59
			c3.531-1.339,7.057-2.69,10.604-3.986c6.37-2.328,12.632-5.018,19.342-6.272c4.776-0.893,9.579-1.641,14.377-2.411
			c2.299-0.369,4.606-0.727,6.924-0.931c2.45-0.216,4.948-0.539,7.368-0.283c3.342,0.354,6.616,1.307,9.947,1.82
			c4.378,0.674,7.897,2.413,9.552,6.83C500.324,170.6,500.324,172.002,500.324,173.405z M24.206,376.407
			c0.785-0.1,1.751,0.06,2.325-0.342c3.058-2.14,6.138-4.278,8.984-6.685c3.972-3.36,7.116-7.507,10.136-11.713
			c4.251-5.921,8.489-11.856,12.558-17.902c2.113-3.139,3.891-6.508,5.747-9.814c2.38-4.238,4.762-8.48,7.002-12.792
			c1.601-3.083,2.719-6.437,4.501-9.401c3.117-5.186,5.496-10.695,7.668-16.293c0.961-2.477,1.552-5.15,1.92-7.789
			c0.295-2.118-1.764-3.322-3.645-2.189c-2.437,1.469-4.951,2.946-7.016,4.868c-3.812,3.547-7.428,7.323-10.926,11.184
			c-3.929,4.338-7.767,8.773-11.405,13.356c-3.812,4.801-7.569,9.677-10.928,14.797c-3.46,5.273-6.458,10.853-9.567,16.351
			c-1.576,2.786-2.952,5.686-4.417,8.535c-0.427,0.831-0.884,1.649-1.269,2.5c-0.885,1.952-1.595,3.996-2.627,5.864
			c-1.909,3.457-3.166,7.148-3.77,10.992C18.845,373.958,20.712,376.829,24.206,376.407z M158.133,265.9
			c0.013,0.132,0.026,0.264,0.04,0.396c2.77-0.413,5.672-0.439,8.283-1.322c5.153-1.743,9.628-4.693,13.559-8.559
			c3.493-3.435,5.041-7.557,5.05-12.257c0.009-4.322-1.241-8.344-4.164-11.683c-2.16-2.468-4.535-4.868-7.791-5.578
			c-3.804-0.829-7.703-0.641-11.505,0.511c-8.446,2.56-14.713,8.013-19.847,14.941c-2.737,3.694-1.977,7.892-0.888,11.781
			c0.616,2.198,2.418,4.167,4.002,5.961c1.425,1.614,3.2,2.962,4.968,4.221C152.312,266.073,155.208,266.169,158.133,265.9z
			 M290.273,126.78c0.146-0.05,0.292-0.1,0.438-0.15c-0.556-1.49-0.788-3.238-1.732-4.417c-2.138-2.67-7.307-3.07-10.335-1.086
			c-3.379,2.215-6.16,5.074-8.411,8.39c-2.101,3.096-4.119,6.269-5.905,9.554c-2.745,5.049-5.429,10.18-6.327,15.946
			c-0.31,1.99,0.658,4.242,3.379,3.473c1.486-0.42,3.067-0.902,4.287-1.793c3.291-2.405,6.63-4.817,9.545-7.645
			c3.909-3.791,7.559-7.871,11.087-12.026C288.75,134.139,290.512,130.804,290.273,126.78z"/>
		<path fill="#30B280" d="M158.54,282.803c0.132,0,0.264,0,0.396,0C158.804,282.803,158.672,282.803,158.54,282.803z"/>
		<path fill="#30B280" d="M421.369,162.105c-1.961,0.094-3.415-0.971-4.501-2.314c-3.287-4.066-5.474-8.734-5.781-13.964
			c-0.219-3.725,1.157-7.186,3.094-10.46c2.141-3.619,5.165-6.266,8.474-8.664c0.608-0.44,1.729-0.846,2.235-0.571
			c0.56,0.305,0.849,1.383,0.973,2.169c0.502,3.186,0.749,6.418,1.363,9.58c0.822,4.229,1.887,8.411,2.875,12.606
			c0.119,0.504,0.381,0.984,0.628,1.447c1.161,2.177,1.191,4.132-0.778,5.962C427.491,160.183,424.723,161.722,421.369,162.105z"/>
	</g>
</g>
<g>
	<path fill="#30B280" d="M144.613,379.359c0,0.191-0.035,0.351-0.104,0.481c-0.07,0.13-0.234,0.238-0.494,0.324
		c-0.26,0.087-0.641,0.147-1.144,0.182c-0.502,0.035-1.187,0.053-2.053,0.053c-0.728,0-1.309-0.018-1.741-0.053
		c-0.434-0.034-0.776-0.1-1.027-0.194s-0.429-0.217-0.533-0.364c-0.104-0.146-0.191-0.324-0.26-0.532l-3.015-7.511
		c-0.364-0.849-0.719-1.603-1.065-2.261c-0.347-0.658-0.732-1.209-1.157-1.65c-0.424-0.442-0.914-0.775-1.468-1.001
		c-0.555-0.225-1.195-0.338-1.923-0.338h-2.131v12.813c0,0.174-0.056,0.329-0.169,0.468s-0.299,0.251-0.559,0.338
		s-0.606,0.156-1.04,0.208s-0.987,0.078-1.663,0.078c-0.659,0-1.208-0.026-1.65-0.078s-0.792-0.121-1.052-0.208
		c-0.26-0.087-0.442-0.199-0.546-0.338s-0.156-0.294-0.156-0.468v-30.536c0-0.762,0.195-1.313,0.584-1.65s0.871-0.507,1.442-0.507
		h8.706c0.884,0,1.611,0.018,2.183,0.052c0.572,0.035,1.091,0.078,1.559,0.13c1.352,0.191,2.568,0.521,3.651,0.988
		c1.083,0.468,2.001,1.078,2.755,1.832c0.753,0.754,1.33,1.646,1.728,2.677c0.398,1.031,0.598,2.213,0.598,3.547
		c0,1.127-0.143,2.153-0.429,3.08c-0.286,0.927-0.706,1.754-1.26,2.481c-0.555,0.729-1.239,1.36-2.053,1.897s-1.741,0.971-2.781,1.3
		c0.502,0.242,0.975,0.537,1.417,0.883c0.442,0.348,0.857,0.767,1.248,1.261c0.39,0.494,0.757,1.057,1.104,1.689
		c0.346,0.633,0.684,1.348,1.013,2.144l2.833,6.627c0.26,0.659,0.433,1.14,0.52,1.442
		C144.569,378.948,144.613,379.187,144.613,379.359z M135.803,356.542c0-1.108-0.251-2.044-0.754-2.807s-1.325-1.3-2.469-1.611
		c-0.347-0.087-0.741-0.156-1.183-0.208s-1.052-0.078-1.832-0.078h-3.067v9.538h3.482c0.97,0,1.819-0.117,2.547-0.352
		c0.728-0.233,1.334-0.563,1.819-0.987c0.485-0.424,0.849-0.931,1.091-1.521C135.682,357.929,135.803,357.27,135.803,356.542z"/>
	<path fill="#30B280" d="M169.562,377.566c0,0.503-0.022,0.923-0.065,1.261c-0.043,0.338-0.108,0.61-0.195,0.818
		c-0.087,0.208-0.195,0.359-0.325,0.455c-0.13,0.095-0.273,0.143-0.429,0.143h-16.892c-0.572,0-1.053-0.169-1.442-0.507
		s-0.584-0.888-0.584-1.65v-29.314c0-0.762,0.195-1.313,0.584-1.65s0.871-0.507,1.442-0.507h16.789c0.156,0,0.294,0.044,0.416,0.13
		c0.121,0.087,0.225,0.238,0.312,0.455c0.086,0.217,0.151,0.494,0.195,0.832c0.043,0.338,0.065,0.767,0.065,1.286
		c0,0.485-0.022,0.896-0.065,1.234c-0.043,0.338-0.108,0.61-0.195,0.818c-0.087,0.208-0.191,0.36-0.312,0.455
		c-0.121,0.096-0.26,0.143-0.416,0.143h-12.007v8.213h10.162c0.156,0,0.299,0.048,0.429,0.143c0.13,0.096,0.238,0.243,0.325,0.441
		c0.086,0.2,0.151,0.468,0.195,0.806s0.065,0.75,0.065,1.234c0,0.503-0.021,0.919-0.065,1.248s-0.108,0.594-0.195,0.792
		c-0.087,0.2-0.195,0.343-0.325,0.43s-0.273,0.13-0.429,0.13h-10.162v9.485h12.11c0.156,0,0.299,0.048,0.429,0.143
		c0.13,0.096,0.238,0.247,0.325,0.455c0.086,0.208,0.151,0.48,0.195,0.818C169.54,376.644,169.562,377.064,169.562,377.566z"/>
	<path fill="#30B280" d="M195.004,370.16c0,1.767-0.329,3.317-0.987,4.651c-0.659,1.334-1.551,2.447-2.677,3.34
		c-1.126,0.893-2.443,1.563-3.95,2.014s-3.119,0.676-4.834,0.676c-1.161,0-2.239-0.096-3.235-0.286
		c-0.997-0.19-1.876-0.42-2.638-0.688s-1.399-0.55-1.91-0.845c-0.511-0.294-0.879-0.554-1.104-0.779
		c-0.225-0.225-0.386-0.55-0.48-0.975c-0.096-0.425-0.143-1.035-0.143-1.832c0-0.537,0.017-0.987,0.052-1.352
		c0.034-0.364,0.091-0.658,0.169-0.884c0.078-0.225,0.182-0.385,0.312-0.48c0.13-0.095,0.282-0.144,0.455-0.144
		c0.242,0,0.584,0.144,1.026,0.43c0.442,0.285,1.009,0.602,1.702,0.948s1.521,0.663,2.482,0.948
		c0.961,0.286,2.075,0.429,3.339,0.429c0.832,0,1.577-0.1,2.235-0.299c0.659-0.198,1.217-0.48,1.676-0.845
		c0.459-0.363,0.81-0.813,1.053-1.351c0.242-0.537,0.364-1.135,0.364-1.794c0-0.762-0.208-1.416-0.624-1.962
		c-0.416-0.546-0.958-1.03-1.625-1.455s-1.425-0.823-2.274-1.195c-0.849-0.373-1.724-0.767-2.625-1.183
		c-0.901-0.416-1.776-0.888-2.625-1.416c-0.849-0.528-1.607-1.161-2.274-1.897c-0.667-0.736-1.208-1.606-1.625-2.612
		c-0.416-1.004-0.624-2.209-0.624-3.612c0-1.611,0.299-3.027,0.896-4.249c0.598-1.221,1.403-2.234,2.417-3.04
		s2.209-1.407,3.586-1.807c1.377-0.398,2.837-0.598,4.379-0.598c0.797,0,1.594,0.061,2.391,0.182
		c0.796,0.122,1.542,0.286,2.235,0.494c0.693,0.208,1.308,0.441,1.845,0.702c0.537,0.26,0.892,0.477,1.065,0.649
		c0.173,0.173,0.29,0.32,0.351,0.441c0.06,0.122,0.112,0.282,0.156,0.481c0.043,0.199,0.073,0.45,0.091,0.753
		c0.017,0.304,0.026,0.681,0.026,1.131c0,0.503-0.013,0.927-0.039,1.273c-0.026,0.347-0.07,0.633-0.13,0.857
		c-0.061,0.226-0.147,0.39-0.26,0.494c-0.113,0.104-0.264,0.155-0.455,0.155c-0.191,0-0.494-0.12-0.91-0.363
		c-0.416-0.242-0.927-0.507-1.533-0.793c-0.607-0.286-1.309-0.546-2.105-0.779c-0.797-0.234-1.672-0.351-2.625-0.351
		c-0.745,0-1.395,0.091-1.949,0.272c-0.555,0.182-1.018,0.434-1.39,0.754c-0.373,0.32-0.65,0.706-0.832,1.156
		c-0.182,0.451-0.273,0.927-0.273,1.43c0,0.745,0.203,1.39,0.611,1.936c0.407,0.546,0.953,1.031,1.637,1.455
		c0.684,0.425,1.459,0.823,2.326,1.196c0.866,0.372,1.75,0.767,2.651,1.182c0.901,0.416,1.784,0.889,2.651,1.417
		c0.866,0.528,1.637,1.161,2.313,1.896c0.676,0.737,1.221,1.604,1.637,2.6C194.796,367.635,195.004,368.809,195.004,370.16z"/>
	<path fill="#30B280" d="M222.083,349.421c0,0.503-0.022,0.932-0.065,1.287c-0.043,0.354-0.108,0.641-0.195,0.857
		c-0.087,0.217-0.195,0.377-0.325,0.48c-0.13,0.104-0.273,0.156-0.429,0.156h-8.42v27.105c0,0.174-0.057,0.329-0.169,0.468
		c-0.113,0.139-0.299,0.251-0.559,0.338s-0.611,0.156-1.053,0.208s-0.992,0.078-1.65,0.078c-0.658,0-1.208-0.026-1.65-0.078
		s-0.793-0.121-1.053-0.208s-0.446-0.199-0.559-0.338c-0.113-0.139-0.169-0.294-0.169-0.468v-27.105h-8.42
		c-0.173,0-0.321-0.052-0.441-0.156c-0.122-0.104-0.226-0.264-0.312-0.48c-0.087-0.217-0.152-0.503-0.195-0.857
		c-0.043-0.355-0.065-0.784-0.065-1.287c0-0.52,0.021-0.961,0.065-1.325c0.043-0.363,0.108-0.653,0.195-0.87
		c0.086-0.217,0.19-0.373,0.312-0.468c0.121-0.096,0.268-0.144,0.441-0.144h23.702c0.156,0,0.299,0.048,0.429,0.144
		c0.13,0.095,0.238,0.251,0.325,0.468c0.086,0.217,0.151,0.507,0.195,0.87C222.062,348.46,222.083,348.901,222.083,349.421z"/>
	<path fill="#30B280" d="M249.423,377.696c0.208,0.624,0.338,1.117,0.39,1.481c0.052,0.363-0.018,0.637-0.208,0.818
		c-0.191,0.182-0.528,0.295-1.013,0.338c-0.485,0.043-1.153,0.065-2.001,0.065c-0.883,0-1.572-0.014-2.066-0.039
		c-0.494-0.026-0.871-0.078-1.13-0.156s-0.442-0.186-0.546-0.325c-0.104-0.138-0.191-0.32-0.26-0.545l-2.261-6.758h-12.63
		l-2.131,6.575c-0.069,0.243-0.16,0.446-0.273,0.611c-0.113,0.164-0.294,0.295-0.545,0.39c-0.251,0.095-0.607,0.16-1.065,0.194
		c-0.459,0.035-1.062,0.053-1.806,0.053c-0.797,0-1.421-0.026-1.872-0.078s-0.762-0.178-0.936-0.377s-0.234-0.48-0.182-0.845
		c0.052-0.363,0.182-0.849,0.39-1.455l10.369-29.835c0.104-0.294,0.225-0.532,0.364-0.714c0.138-0.183,0.359-0.321,0.663-0.416
		c0.303-0.096,0.723-0.156,1.26-0.183c0.537-0.025,1.248-0.038,2.131-0.038c1.022,0,1.836,0.013,2.443,0.038
		c0.606,0.026,1.078,0.087,1.416,0.183c0.338,0.095,0.581,0.238,0.728,0.429c0.147,0.19,0.272,0.45,0.376,0.779L249.423,377.696z
		 M233.986,353.033h-0.026l-4.756,14.294h9.538L233.986,353.033z"/>
	<path fill="#30B280" d="M280.66,367.717c0,2.063-0.303,3.907-0.908,5.535c-0.607,1.629-1.5,3.007-2.678,4.133
		s-2.633,1.983-4.365,2.572s-3.725,0.884-5.978,0.884c-2.113,0-4.011-0.265-5.691-0.793s-3.102-1.329-4.262-2.403
		c-1.161-1.074-2.049-2.413-2.664-4.016s-0.923-3.478-0.923-5.626V347.55c0-0.173,0.053-0.329,0.156-0.468
		c0.104-0.139,0.29-0.251,0.559-0.338c0.269-0.086,0.619-0.155,1.053-0.208c0.433-0.052,0.987-0.077,1.663-0.077
		c0.658,0,1.204,0.025,1.638,0.077c0.433,0.053,0.779,0.122,1.039,0.208c0.26,0.087,0.446,0.199,0.559,0.338
		c0.113,0.139,0.169,0.295,0.169,0.468v19.855c0,1.334,0.165,2.49,0.494,3.469c0.329,0.979,0.801,1.789,1.416,2.431
		c0.615,0.641,1.352,1.122,2.209,1.442c0.858,0.32,1.815,0.48,2.872,0.48c1.074,0,2.035-0.165,2.885-0.494
		c0.848-0.329,1.568-0.81,2.156-1.442c0.59-0.632,1.045-1.411,1.365-2.339c0.32-0.927,0.48-1.979,0.48-3.157V347.55
		c0-0.173,0.053-0.329,0.156-0.468s0.285-0.251,0.545-0.338c0.26-0.086,0.611-0.155,1.053-0.208c0.441-0.052,0.992-0.077,1.65-0.077
		s1.199,0.025,1.625,0.077c0.424,0.053,0.766,0.122,1.025,0.208c0.26,0.087,0.441,0.199,0.547,0.338
		c0.104,0.139,0.154,0.295,0.154,0.468V367.717z"/>
	<path fill="#30B280" d="M312.913,379.359c0,0.191-0.035,0.351-0.104,0.481c-0.069,0.13-0.233,0.238-0.493,0.324
		c-0.26,0.087-0.642,0.147-1.144,0.182c-0.503,0.035-1.188,0.053-2.054,0.053c-0.728,0-1.308-0.018-1.741-0.053
		c-0.433-0.034-0.775-0.1-1.026-0.194s-0.429-0.217-0.532-0.364c-0.104-0.146-0.191-0.324-0.26-0.532l-3.015-7.511
		c-0.364-0.849-0.72-1.603-1.066-2.261s-0.731-1.209-1.156-1.65c-0.425-0.442-0.914-0.775-1.468-1.001
		c-0.555-0.225-1.195-0.338-1.924-0.338h-2.131v12.813c0,0.174-0.057,0.329-0.169,0.468s-0.299,0.251-0.559,0.338
		s-0.606,0.156-1.039,0.208c-0.434,0.052-0.988,0.078-1.664,0.078c-0.658,0-1.208-0.026-1.649-0.078
		c-0.442-0.052-0.793-0.121-1.053-0.208s-0.442-0.199-0.546-0.338s-0.156-0.294-0.156-0.468v-30.536c0-0.762,0.195-1.313,0.585-1.65
		s0.871-0.507,1.442-0.507h8.706c0.884,0,1.611,0.018,2.183,0.052c0.572,0.035,1.092,0.078,1.56,0.13
		c1.352,0.191,2.568,0.521,3.651,0.988s2.001,1.078,2.755,1.832s1.329,1.646,1.729,2.677c0.398,1.031,0.598,2.213,0.598,3.547
		c0,1.127-0.144,2.153-0.429,3.08c-0.286,0.927-0.706,1.754-1.261,2.481c-0.555,0.729-1.239,1.36-2.053,1.897
		c-0.815,0.537-1.741,0.971-2.781,1.3c0.502,0.242,0.975,0.537,1.416,0.883c0.442,0.348,0.858,0.767,1.248,1.261
		s0.758,1.057,1.104,1.689s0.684,1.348,1.014,2.144l2.832,6.627c0.261,0.659,0.434,1.14,0.521,1.442
		C312.869,378.948,312.913,379.187,312.913,379.359z M304.103,356.542c0-1.108-0.251-2.044-0.753-2.807
		c-0.503-0.763-1.326-1.3-2.47-1.611c-0.347-0.087-0.74-0.156-1.182-0.208c-0.442-0.052-1.053-0.078-1.833-0.078h-3.066v9.538h3.482
		c0.971,0,1.819-0.117,2.547-0.352c0.728-0.233,1.334-0.563,1.819-0.987c0.484-0.424,0.849-0.931,1.092-1.521
		C303.981,357.929,304.103,357.27,304.103,356.542z"/>
	<path fill="#30B280" d="M345.476,377.696c0.208,0.624,0.338,1.117,0.39,1.481c0.052,0.363-0.018,0.637-0.208,0.818
		s-0.528,0.295-1.014,0.338s-1.152,0.065-2.001,0.065c-0.884,0-1.572-0.014-2.065-0.039c-0.494-0.026-0.871-0.078-1.131-0.156
		s-0.441-0.186-0.546-0.325c-0.104-0.138-0.19-0.32-0.26-0.545l-2.261-6.758h-12.631l-2.131,6.575
		c-0.069,0.243-0.16,0.446-0.272,0.611c-0.113,0.164-0.295,0.295-0.546,0.39s-0.606,0.16-1.065,0.194
		c-0.459,0.035-1.062,0.053-1.807,0.053c-0.797,0-1.421-0.026-1.871-0.078s-0.763-0.178-0.936-0.377s-0.233-0.48-0.182-0.845
		c0.052-0.363,0.182-0.849,0.39-1.455l10.369-29.835c0.104-0.294,0.226-0.532,0.364-0.714c0.139-0.183,0.359-0.321,0.662-0.416
		c0.304-0.096,0.724-0.156,1.261-0.183c0.537-0.025,1.247-0.038,2.131-0.038c1.022,0,1.837,0.013,2.443,0.038
		c0.606,0.026,1.078,0.087,1.416,0.183c0.338,0.095,0.58,0.238,0.728,0.429s0.273,0.45,0.377,0.779L345.476,377.696z
		 M330.038,353.033h-0.025l-4.756,14.294h9.537L330.038,353.033z"/>
	<path fill="#30B280" d="M377.909,377.853c0,0.398-0.069,0.753-0.208,1.065c-0.139,0.312-0.324,0.571-0.559,0.779
		c-0.233,0.208-0.511,0.36-0.831,0.455c-0.321,0.095-0.646,0.143-0.975,0.143h-2.911c-0.606,0-1.131-0.061-1.572-0.182
		s-0.849-0.342-1.222-0.663c-0.372-0.32-0.731-0.753-1.078-1.299s-0.736-1.252-1.17-2.118l-8.368-15.723
		c-0.485-0.936-0.979-1.945-1.481-3.028c-0.502-1.082-0.952-2.135-1.351-3.157h-0.053c0.069,1.247,0.121,2.491,0.156,3.729
		c0.034,1.238,0.052,2.517,0.052,3.833v17.594c0,0.174-0.048,0.33-0.143,0.468c-0.096,0.14-0.26,0.256-0.494,0.352
		c-0.233,0.095-0.55,0.169-0.948,0.221s-0.909,0.078-1.533,0.078c-0.606,0-1.109-0.026-1.508-0.078s-0.71-0.126-0.936-0.221
		c-0.225-0.096-0.381-0.212-0.468-0.352c-0.087-0.138-0.13-0.294-0.13-0.468v-30.224c0-0.814,0.238-1.425,0.715-1.832
		s1.062-0.611,1.754-0.611h3.665c0.658,0,1.212,0.057,1.663,0.169c0.45,0.113,0.853,0.299,1.208,0.559s0.689,0.62,1.001,1.079
		s0.632,1.026,0.962,1.702l6.549,12.292c0.381,0.745,0.758,1.478,1.13,2.196c0.373,0.719,0.732,1.438,1.079,2.157
		c0.346,0.719,0.684,1.425,1.014,2.118c0.328,0.692,0.649,1.386,0.961,2.079h0.026c-0.052-1.213-0.091-2.478-0.117-3.795
		c-0.026-1.316-0.039-2.572-0.039-3.769v-15.774c0-0.173,0.052-0.329,0.156-0.468c0.104-0.139,0.276-0.26,0.52-0.364
		c0.242-0.104,0.563-0.177,0.962-0.221c0.398-0.043,0.909-0.064,1.533-0.064c0.589,0,1.082,0.021,1.481,0.064
		c0.398,0.044,0.705,0.117,0.922,0.221c0.217,0.104,0.368,0.226,0.455,0.364s0.13,0.295,0.13,0.468V377.853z"/>
	<path fill="#30B280" d="M407.613,349.421c0,0.503-0.021,0.932-0.064,1.287c-0.044,0.354-0.108,0.641-0.195,0.857
		s-0.195,0.377-0.325,0.48c-0.13,0.104-0.272,0.156-0.429,0.156h-8.42v27.105c0,0.174-0.057,0.329-0.169,0.468
		c-0.113,0.139-0.299,0.251-0.559,0.338s-0.611,0.156-1.053,0.208s-0.992,0.078-1.65,0.078s-1.208-0.026-1.65-0.078
		c-0.441-0.052-0.792-0.121-1.052-0.208c-0.261-0.087-0.446-0.199-0.56-0.338c-0.112-0.139-0.169-0.294-0.169-0.468v-27.105h-8.42
		c-0.173,0-0.32-0.052-0.441-0.156c-0.122-0.104-0.226-0.264-0.313-0.48s-0.151-0.503-0.194-0.857
		c-0.044-0.355-0.065-0.784-0.065-1.287c0-0.52,0.021-0.961,0.065-1.325c0.043-0.363,0.107-0.653,0.194-0.87s0.19-0.373,0.313-0.468
		c0.121-0.096,0.269-0.144,0.441-0.144H406.6c0.156,0,0.299,0.048,0.429,0.144c0.13,0.095,0.238,0.251,0.325,0.468
		s0.151,0.507,0.195,0.87C407.592,348.46,407.613,348.901,407.613,349.421z"/>
</g>
</svg>
