<?xml version="1.0" encoding="utf-8"?>
<!-- Generator: Adobe Illustrator 17.0.0, SVG Export Plug-In . SVG Version: 6.00 Build 0)  -->
<!DOCTYPE svg PUBLIC "-//W3C//DTD SVG 1.1//EN" "http://www.w3.org/Graphics/SVG/1.1/DTD/svg11.dtd">
<svg version="1.1" xmlns="http://www.w3.org/2000/svg" xmlns:xlink="http://www.w3.org/1999/xlink" x="0px" y="0px" width="500px"
	 height="500px" viewBox="0 0 500 500" enable-background="new 0 0 500 500" xml:space="preserve">
<g id="Layer_1">
	<g id="Layer_2">
		<g>
			<g>
				<g>
					<path fill="#A30F0C" d="M250.868,33.308c-5.28,0-15.582,0.552-16.002,0.577c1.996,0.533-154.089,80.61-154.089,79.77
						c-0.048,0.271-0.122,0.497-0.264,0.674c-30.942,37.851-49.308,85.935-49.308,138.639c0,43.437,12.656,83.895,34.416,117.984
						c0.147-0.079,55.407,53.445,54.73,58.685c36.499,27,81.628,42.981,130.509,42.981c17.073,0,33.659-2.016,49.62-5.693
						c-0.291-1.731-0.555-3.464-0.792-5.171l-2.884-20.25c-0.868-5.539-5.406-43.189-5.406-43.189l-0.015-0.111l4.828-1.854
						c0,0,6.348,0.262,6.191,0.282c0,0,6.436,37.866,7.555,44.435l1.211,6.953c0.468,2.801,0.863,5.577,1.44,8.454
						c0.405,2.393,0.765,4.686,1.119,6.971c5.206-1.565,10.337-3.301,15.369-5.225c-0.765-4.303-1.598-8.739-1.668-9.395
						l-2.594-15.405c-3.426-15.893-5.61-27.681-7.211-35.523c-0.228-1.127-0.654-3.129-0.654-3.129l4.957-1.983l6.54,0.51
						c0,0,8.343,36.51,10.427,47.548l2.379,12.289c4.474-2.023,8.905-4.163,13.207-6.477l-1.376-6.306
						c-0.147-0.611-0.306-1.344-0.493-2.16c-2.802-12.333-10.24-46.688-10.24-46.688l5.965-2.343l5.828,0.82h0.028
						c0,0,7.487,31.671,12.345,49.697c8.343-5.178,16.337-10.865,23.872-17.081c0,0,69.56-104.124,70.057-103.78
						c6.521-20.785,10.051-42.906,10.051-65.849C470.518,131.656,372.175,33.308,250.868,33.308z"/>
				</g>
			</g>
		</g>
	</g>
	<g id="Layer_6">
		<path fill="#F8F2E2" d="M305.899,142.661c0,0-27.435-51.735-38.626-59.5c-11.178-7.766-29.603-12.613-42.375-10.999
			c-16.171,2.041-53.158,21.615-55.617,22.261c0.018,0.189-13.78,17.21-17.383,34.738c-0.801,3.896-15,66-15,66l27,78l96.219,45.906
			l35.281-38.406c0,0,4.501-38,14.001-66.499c9.5-28.5,6.5-43.999,6.5-43.999L305.899,142.661z"/>
	</g>
	<g id="Layer_4">
		<path fill="#FFFFFF" d="M195.976,341.479c-0.292,0.111-0.559,0.229-0.81,0.342C195.416,341.708,195.683,341.59,195.976,341.479"/>
		<path fill="#FFFFFF" d="M195.163,341.825L195.163,341.825z"/>
		<path fill="#FFFFFF" d="M188.054,192.923c-1.527,0.87-2.657,1.074-3.361,1.449c-0.706,0.386-1.821,1.214-1.545,2.694
			c0.291,1.488,0.699,1.971,0.841,3.118c0.135,1.136-0.411,3.193-1.731,5.531c-1.299,2.343-3.378,4.035-4.559,4.721
			c-1.161,0.694-1.874,0.882-2.534,1.23c-0.15,0.069-0.285,0.428-0.42,1.147c-0.006,0.006-0.006,0.006-0.014,0.014
			c0.084-0.066,0.177-0.127,0.306-0.177c0.253-0.108,0.775-0.122,1.245-0.208c0.454-0.084,0.789-0.191,0.955-0.213
			c0.177-0.021,1.23-0.17,1.407-0.209c0.177-0.035,3.368-0.702,5.344-1.612c1.967-0.915,5.42-2.58,7.398-4.971
			c1.453-1.751,3.204-4.938,3.375-8.102c0.04-0.654,0.033-1.061,0.033-1.061s0.007,0,0.007-0.007c0.022,0,0.042-0.006,0.063-0.006
			c-0.327-0.014-0.612-0.122-0.845-0.312c-0.529-0.414-0.957-0.72-2.58-2.454c-1.044-1.119-0.972-1.939-0.408-2.877
			c-0.014,0.021-0.038,0.042-0.053,0.063C190.501,191.131,189.562,192.055,188.054,192.923"/>
		<path fill="#FFFFFF" d="M268.721,182.584c0,0-0.891,0.077-1.197,0.212c-0.243,0.1-0.702,0.271-1.016,0.691
			c-0.312,0.428-0.384,1.174,0.272,1.977c0.668,0.799,1.586,2.293,1.509,3.573c-0.048,0.563,0.034,2.402-0.563,3.726
			c-0.668,1.502-1.439,2.982-1.968,3.65c-0.306,0.393-1.719,1.956-1.926,3.063c-0.055,0.232,0,0.49,0.109,0.733
			c0,0,0.017-0.014,0.017,0.006c-0.008,0.007,0,0.021-0.008,0.035c0.029-0.087,0.063-0.171,0.132-0.25
			c0.353-0.396,1.071-0.797,2.322-1.182c1.659-0.525,2.837-1.15,3.755-1.85c-0.111,0.129-0.14,0.279-0.21,0.428
			c0.096-0.23,0.203-0.456,0.408-0.636c0.493-0.424,7.004-4.794,7.17-11.849c0.063-2.649-3.373-2.999-4.805-3.046
			c-1.063-0.045-3.067,0.93-3.915,0.725c-0.014-0.006-0.039-0.029-0.069-0.035c0.014,0,0.014,0.006,0.014,0.006
			C268.754,182.576,268.727,182.576,268.721,182.584"/>
		<path fill="#FFFFFF" d="M199.397,231.286c0,0,25.875,8.001,38.25-6.375c12.375-14.375,33.75,7.626,35.124,14.126
			c1.377,6.5-32.124,24.5-42.249,24.875s-50.25-4.999-50.25-9.125C180.272,250.661,199.397,231.286,199.397,231.286z"/>
		<path fill="#FFFFFF" d="M305.585,128.474c-4.115-43.638-24.194-65.509-38.625-76.125c-15.167-9.993-51.246-18.795-68.25-18
			c-20.063,0.938-66.395,22.821-68.187,24.438c-1.708,1.558-32.781,53.515-28.938,62.798s9.288,53.119,11.063,56.64
			c0.54,1.055,9.403,29.615,15.25,28.563c5.894-1.061,11.388-27.108,11.126-29.126c-0.75-5.749-11.186-31.659-10.376-35.313
			c0.82-3.643,28.692-47.28,30.687-48.813c1.407-1.071,49.217-7.017,49.494-6.555c-0.006-0.013-0.006-0.029-0.025-0.042
			l-0.006-0.007c3.342-2.913,11.093-10.591,18.018-10.315c6.92,0.285,26.703,2.757,37.881,10.532
			c11.191,7.765,14.647,15.367,15.597,17.494c-0.008,0-0.021,0.011-0.028,0.011c0.375,0.055,15.943,35.446,20.507,35.573
			C303.815,140.308,306.086,133.72,305.585,128.474z"/>
		<path fill="#FFFFFF" d="M286.217,157.489c-1.66,0.193-6.201,0.607-6.702,0.67c-0.891,0.116-0.868,0.62-0.813,0.998
			c0.047,0.39,0.188,1.884,0.241,2.527c0.056,0.639,0.723,1.014,1.407,0.958c0.689-0.048,5.031-0.441,5.679-0.542
			c0.633-0.104,1.259-0.639,1.251-1.15c-0.014-0.514-0.006-1.874-0.014-2.423C287.252,157.975,286.843,157.418,286.217,157.489"/>
		<path fill="#FFFFFF" d="M105.559,366.164c0.863,0.188,1.782,0.398,2.67,0.605c-1.985-0.461-4.143-0.932-5.381-1.238
			c-0.612-0.154-1.575-0.243-2.689-0.22c-1.86,0.04-4.157,0.405-6.01,1.337c-2.345,1.165-17.24,8.718-23.482,11.871
			c7.146,10.239,15.12,19.842,23.862,28.711c0.546-2.251,10.31-12.496,11.684-18.501
			C108.092,380.501,103.411,369.64,105.559,366.164"/>
		<path fill="#FFFFFF" d="M354.17,389.987l-11.771,1.518c0,0,8.467,39.095,10.734,48.846l1.366,6.306
			c4.095-2.205,8.099-4.533,12.033-6.98c-4.866-18.025-12.353-49.69-12.353-49.69H354.17z"/>
		<g>
			<polygon fill="none" points="283.061,361.34 281.879,357.968 280.525,357.968 280.525,362.693 281.386,362.693 281.386,358.891 
				282.7,362.693 283.457,362.693 284.758,358.891 284.758,362.693 285.626,362.693 285.626,357.968 284.27,357.968 			"/>
			<polygon fill="none" points="275.707,358.759 277.249,358.759 277.249,362.693 278.18,362.693 278.18,358.759 279.725,358.759 
				279.725,357.968 275.707,357.968 			"/>
		</g>
		<path fill="#FFFFFF" d="M422.378,233.569c-5.945,4.491-9.237,10.557-9.219,16.628c0.029,8.999,7.306,17.664,24.169,17.608
			c4.185-0.028,7.877-0.451,11.232-1.021c0.98-0.159,1.939-0.336,2.85-0.523l1.961-8.376c-3.267,1.092-7.396,1.995-10.705,2.01
			c-8.98,0.028-15.002-5.297-15.015-12.279c-0.015-3.721,1.515-6.99,4.281-9.381c2.962-2.562,7.329-4.111,12.79-4.111
			c4.324,0,6.854,1.195,8.578,2.902c0.346,0.335,0.666,0.686,0.945,1.053h1.407l2.753-9.885c-2.836-0.936-7.041-1.723-11.477-1.773
			C436.601,226.282,428.21,229.162,422.378,233.569"/>
		<path fill="#FFFFFF" d="M408.314,234.943c1.212,0,2.219,0.441,2.893,1.019c0.578,0.49,0.924,1.074,0.924,1.578h1.385l2.684-10.734
			h-36.443l-0.533,2.1l-0.126,0.51c0,0,3.99,0.448,2.768,4.436l-9.098,33.051l15.473,0.03h2.714l0.689-2.838
			c0,0-3.402-0.82-2.513-3.963c0.042-0.197,1.323-4.896,2.088-7.717c0.342-1.218,0.585-2.094,0.585-2.094l8.328-0.006
			c1.362,0,2.406,0.251,3.213,0.563c1.668,0.639,2.309,1.608,2.309,1.608l2.417-9.822h-14.04l1.517-5.61l0.57-2.093L408.314,234.943
			z"/>
		<path fill="#FFFFFF" d="M364.034,261.002c-1.078-1.155-10.441-15.74-10.441-15.74l16.559-13.253l0.549-0.441
			c0.741-0.619,1.439-1.058,2.049-1.376c1.759-0.904,2.893-0.775,2.893-0.775l0.664-2.641l-21.284,0.031l-0.529,2.092l-0.126,0.518
			c1.446,0.101,3.465,1.394,1.815,2.934c-0.216,0.185-17.106,13.091-17.106,13.091l0.132-0.456l3.512-12.721
			c0.742-2.541,3.473-2.847,3.473-2.847l0.668-2.617l-20.319,0.006l-0.522,2.093l-0.133,0.518c0.972,0.251,3.747,0.789,2.785,4.436
			c-6.781,24.507-6.006,22.081-6.465,23.417c-1.518,5.809-3.795,6.609-5.164,6.758c-0.299,0.028-0.557,0.028-0.744,0.039
			l-0.279,1.098l-0.431,1.737h18.546h2.706l0.71-2.877c0,0-3.372-0.668-2.73-3.1c0.327-1.223,1.179-4.324,1.93-7.062
			c0.729-2.656,1.376-4.984,1.376-4.984c3.686,5.908,4.533,6.639,8.982,12.742c4.094,5.646,8.469,5.382,19.032,5.31
			c0.861-0.006,1.752-0.014,2.712-0.014l0.702-2.823C366.877,264.109,365.104,262.154,364.034,261.002"/>
		<path fill="#FFFFFF" d="M464.246,227.498c-0.528-0.518-1.154-0.775-1.905-0.775c-0.736,0-1.362,0.258-1.891,0.775
			c-0.516,0.518-0.78,1.153-0.78,1.895c0,0.747,0.264,1.38,0.78,1.908c0.516,0.519,1.155,0.789,1.891,0.789
			c0.752,0,1.377-0.271,1.905-0.789c0.523-0.528,0.786-1.161,0.786-1.908C465.04,228.652,464.768,228.016,464.246,227.498
			 M463.984,231.037c-0.445,0.454-1,0.686-1.641,0.686c-0.639,0-1.182-0.229-1.626-0.686c-0.445-0.448-0.675-0.997-0.675-1.644
			c0-0.633,0.23-1.182,0.675-1.631c0.452-0.454,0.987-0.684,1.626-0.684c0.641,0,1.182,0.229,1.641,0.684
			c0.445,0.448,0.668,0.997,0.668,1.631C464.651,230.038,464.429,230.588,463.984,231.037"/>
		<path fill="#FFFFFF" d="M463.559,228.758c0-0.369-0.159-0.618-0.453-0.747c-0.195-0.063-0.445-0.098-0.805-0.098h-1.031v2.945
			h0.508v-1.164h0.408c0.283,0,0.471,0.034,0.592,0.098c0.174,0.114,0.272,0.338,0.264,0.678v0.227l0.023,0.1
			c0,0.014,0,0.021,0,0.035c0,0,0,0.014,0.015,0.028h0.478l-0.008-0.042c-0.029-0.021-0.029-0.069-0.04-0.15v-0.213v-0.222
			c0-0.15-0.055-0.313-0.165-0.464c-0.098-0.15-0.281-0.251-0.501-0.285c0.18-0.029,0.32-0.069,0.423-0.143
			C463.454,229.214,463.559,229.024,463.559,228.758 M462.74,229.274c-0.103,0.042-0.266,0.055-0.478,0.055h-0.479v-1.061h0.438
			c0.291-0.006,0.507,0.035,0.639,0.108c0.126,0.069,0.195,0.219,0.195,0.435C463.052,229.031,462.947,229.187,462.74,229.274"/>
		<path fill="#FFFFFF" d="M434.398,310.163c-28-8.5-85.5-6.5-85.5-6.5l47,110.75c0,0,4.353-2.182,4.896-0.992
			c25.499-23.838,45.297-53.646,57.17-87.219C457.027,325.483,462.398,318.664,434.398,310.163z"/>
		<g>
			<polygon fill="none" points="285.626,358.538 285.626,357.968 285.16,357.968 			"/>
			<g>
				<polygon fill="none" points="285.626,358.538 285.626,357.968 285.16,357.968 				"/>
				<path fill="#FFFFFF" d="M338.911,440.845c-2.098-11.037-10.449-47.548-10.449-47.548s11.087-2.913,13.686-9.26
					c2.599-6.344-3.284-16.117-3.563-19.97c-1.202-11.499-5.72-58.594-13.125-68.344c-4.313-5.678-24.144-16.88-25.688-16.812
					c-7.125,0.312-21.375,31.344-33.282,34.156c-7.936,1.875-13.542-5.846-12.258-5.262c-0.022-0.017-0.049-0.03-0.063-0.044
					c0,0,0.014-0.888-1.314-5.06c-1.327-4.186-4.109-8.578-4.623-9.572c-0.499-0.996-2.009-3.163-2.061-3.412
					c-0.042-0.245-0.591-1.641-0.98-4.185c-0.739-4.908-0.4-8.196-0.372-8.494c0.015-0.3,0.151-1.19,0.192-1.37
					c0.031-0.189-0.042-0.509-0.268-0.564c-0.237-0.04-0.87-0.195-1.531,0.486c-1.38,1.392-1.443,1.656-1.469,1.892
					c-0.048,0.22,0.094,0.641,0.053,1.126c-0.15,1.544-0.42,2.724-1.111,3.851c-0.689,1.14-1.137,1.531-2.112,1.438
					c-0.991-0.09-1.816-0.876-1.936-2.911c-0.129-2.034-0.529-2.732-0.938-3.212c-0.406-0.501-1.334-0.73-1.65-0.711
					c-0.312,0-0.573,0.279-2.718,0.806c-2.127,0.541-5.508,0.723-6.006,0.744c-0.508,0.03-2.364,0.217-2.378,0.222
					c0.389,1.452-7.797-0.78-9.174,0.324c-2.813,2.25-4.126,16.86-5.501,24.437c-0.001,0.006-0.001,0.013-0.003,0.022l-46.122,4.668
					l-16.125,37.5c0,0,4.875,74.25,4.875,75.375s102-22.125,102-22.125l38.482-0.832c0,0,0.009,0.029,0.017,0.102
					c0.271,2.219,4.537,37.656,5.406,43.205l2.884,20.235c0.237,1.719,0.501,3.457,0.792,5.172
					c4.464-1.031,8.884-2.175,13.243-3.482c-0.354-2.281-0.719-4.582-1.119-6.96c-0.572-2.884-0.967-5.658-1.432-8.46l-1.221-6.953
					c-1.113-6.563-7.563-44.419-7.563-44.419l6.76-4.269l7.824,2.391c0.209,0.96,0.417,2.001,0.654,3.129
					c1.605,7.854,3.795,19.63,7.211,35.508l2.594,15.418c0.07,0.654,0.906,5.09,1.676,9.399c4.115-1.579,8.168-3.282,12.165-5.09
					L338.911,440.845z"/>
			</g>
		</g>
	</g>
	<g id="Layer_5">
		<path fill="#F0D4B7" d="M262.46,159.536c-8.501,1.25-20.876,8.187-20.313,13.25c0.347,3.138,18.075,3.618,26.063,4.188
			c7.987,0.57,9.306-7.108,8.877-11.281C276.658,161.519,271.406,158.222,262.46,159.536z"/>
		<path fill="#F0D4B7" d="M320.468,295.819c-4.22-0.44-2.259,6.4-2.309,7.094v0.013c2.134,8.051,3.906,16.082,5.277,23.351
			c0.016,0.717,0.07,1.345,0.159,1.855c0.604,3.168,1.855,13.407,4.262,36.535c0.556,7.702,1.043,15.738,1.363,22.495
			c0.219-0.015,14.427,0.809,14.427,0.809s-0.563-19.875-4.97-44.813C334.271,318.223,327.664,296.569,320.468,295.819z"/>
		<path fill="#F0D4B7" d="M282.158,233.194c0.639-3.518-0.093-5.256-1.245-7.313c-1.133-2.051-3.323-3.969-6.153-5.829
			c-2.737-1.821-8.925-7.281-9.525-7.797c-0.585-0.504-3.474-3.235-4.143-3.778c-0.696-0.536-2.045-1.658-5.006-3.159
			c-7.174-3.618-12.943-0.911-13.167-0.786c-0.219,0.123-1.284,0.984-2.304,1.953c-1.005,0.952-0.251,2.794,0.135,3.466
			c0,0,38.076,27.911,38.152,28.562l0.029,0.021C278.932,238.534,281.629,236.068,282.158,233.194"/>
		<path fill="#F0D4B7" d="M266.405,198.818c-1.251,0.385-1.97,0.785-2.322,1.182c-0.069,0.079-0.096,0.166-0.124,0.25
			c-0.03,0.066-0.03,0.135-0.03,0.201c0,0.056,0,0.104,0,0.153c0.013,0.066,0.04,0.122,0.055,0.182
			c0.033,0.069,0.069,0.143,0.111,0.212c0.029,0.045,0.056,0.094,0.095,0.143c0.055,0.087,0.133,0.169,0.21,0.257
			c0.033,0.042,0.07,0.076,0.111,0.115c0.096,0.096,0.203,0.198,0.321,0.299c0.029,0.028,0.056,0.055,0.09,0.076
			c0.134,0.116,0.273,0.222,0.409,0.338c0.029,0.014,0.04,0.028,0.07,0.049c0.167,0.122,0.335,0.232,0.501,0.347
			c0.006,0.007,0.014,0.007,0.021,0.014c0.188,0.122,0.367,0.237,0.541,0.351c0.188,0.111,0.452,0.169,0.772,0.177
			c0.305,0.014,0.681-0.029,1.086-0.101c1.335-0.264,3.044-0.938,4.49-1.63c0,0.007-0.015,0-0.029,0.007
			c-0.084,0.029-2.731-4.341-2.628-4.47C269.242,197.668,268.073,198.293,266.405,198.818"/>
		<path fill="#F0D4B7" d="M215.279,224.929c0.105,0.042,0.198,0.104,0.306,0.145c-0.014-0.014-0.022-0.021-0.03-0.034
			c-0.542-0.563-0.584-0.689-0.773-1.453c-0.206-0.797-0.726-1.773-0.945-2.325c-0.236-0.557-1.283-2.443-1.686-3.666
			c-0.402-1.224-0.583-1.971-0.665-3.198c-0.312-0.926-0.549-2.768-0.406-4.433c0.121-1.473,0.449-3.169,1.383-7.938
			c0.633-3.132-0.359-6.74-0.393-10.08c-0.03-2.576-0.285-8.905-0.214-15.276v-0.021c-0.441,0.15-57.146-12.015-56.747-12.075
			c0.007,0,0.022-0.007,0.035-0.007c0.449-4.695,0.177-11.012-0.077-15.801c1.467-14.387,3.68-31.04,8.763-42.141
			c3.928-8.537,3.403-5.724,5.344-9.747c0.108-0.216,0.251-0.469,0.273-0.768c0.021-0.201-0.144-1.33-0.177-1.689
			c0-0.006,0-0.006,0-0.013c-0.116,0.034-13.935-3.836-31.13,35.628c-7.197,16.533,2.38,57.876,2.38,57.876l14.968,4.97l9.75-5.297
			l23.063-4.734l9.421,4.595c0,0-2.901,8.821-2.925,8.821c0,0.006-0.008,0.006-0.008,0.006s0.008,0.414-0.04,1.061
			c-0.162,3.169-1.914,6.357-3.375,8.109c-1.969,2.385-5.421,4.05-7.386,4.97c-1.98,0.904-5.167,1.578-5.355,1.609
			c-0.17,0.04-1.23,0.184-1.402,0.212c-0.171,0.014-0.498,0.121-0.953,0.211c-0.473,0.081-0.99,0.095-1.248,0.203
			c-0.129,0.048-0.227,0.111-0.306,0.184c-0.143,0.116-0.219,0.251-0.257,0.4c-0.007,0.014-0.014,0.042-0.014,0.063
			c-0.03,0.143-0.03,0.285-0.007,0.414c0.095,0.469,0.603,1.124,0.663,1.237c0.213,0.407,1.436,1.568,3.438,1.119
			c2.634-0.591,4.337-1.119,6.095-1.686c1.773-0.578,4.124-1.595,4.482-1.908c0.365-0.303,1.339-1.047,1.495-1.133
			c0-0.007,0.006-0.007,0.006-0.007c0.203-0.184,0.395-0.358,0.585-0.522c0.081-0.069,0.162-0.156,0.245-0.219
			c0.02-0.017,0.033-0.03,0.054-0.047c0.311,3.715-4.146,14.871-4.146,14.871s-10.383,3.694-9.725,3.205c0,0-0.012,0-0.012,0.006
			c-0.845,0.414-2.087,0.862-3.344-0.121c0,0-1.223-1.428-2.72-3.322c-0.897-1.133-1.887-2.426-2.783-3.687
			c-0.633-0.889-1.085-1.615-1.417-2.214c-0.646-1.101-0.904-1.808-1.019-2.249c-0.014-0.035-0.028-0.074-0.028-0.101
			c-0.279-0.733-0.512-1.921-0.512-1.921c-1.874-0.232-3.845-0.66-5.664-1.325c0.014,0.006,0.014,0.024,0.028,0.038
			c0.152,0.135-12.859,2.973-12.859,2.973l13.463,54.844c0,0,25.125,39.499,40.875,31.875c2.348-1.137,6.435-9.143,4.75-11.876
			c-1.731-2.801-28.375-47-28.375-47S214.921,224.77,215.279,224.929z"/>
		<path fill="#F0D4B7" d="M266.35,374c4.922,3.267,6.633,4.032,12.013,6.282c1.712,0.807,6.228-0.111,8.16-3.003
			c-0.034,0.015-0.069,0.056-0.096,0.078c-0.015,0.006-0.015,0.006-0.029,0.006c-0.126,0.077-26.791-20.847-30.267-22.085
			c-1.237-0.438-8.048,2.061-7.171,3.319c0.784,1.133,4.077,4.563,4.155,4.695C257.764,366.908,263.611,371.732,266.35,374"/>
		<path fill="#F0D4B7" d="M209.648,335.411l-44.593-25.531c0,0,1.3,12.65,1.293,12.848c0.007,0.008,0.007,0.008,0.014,0.017
			c3.253,2.91,8.349,6.396,9.154,6.944c0.297,0.196,2.37,1.564,2.813,2.059c0.548,0.596,6.049,4.509,6.469,4.802
			c0.402,0.273,6.344,3.552,9.943,5.469c0.129-0.07-2.505,2.087-2.464,2.018c-1.266,0.084-2.184,0.666-3.581,1.111
			c-6.25,3.512-2.541,10.816-1.951,15.906c1.195,4.288,2.706,11.734,8.266,12.429c4.233,0.509,13.923-2.141,19.046-3.19
			c0.726-1.284,8.152-1.744,8.061-1.641c1.311-0.392,3.069-1.009,3.602-0.91c0.319,0.056-1.161,1.628-2.019,3.233
			c-0.862,1.62-6.193,17.358-11.157,25.741c-1.665,3.434-0.876,2.016-1.89,4.512v0.008l10.057,2.302l16.25-41.251L209.648,335.411z"
			/>
		<path fill="#F0D4B7" d="M159.062,367.478c1.731,3.212,6.718,9.948,6.963,10.331c0.243,0.375,1.317,1.531,2.583,2.947
			c1.269,1.41,2.356,2.643,2.662,3.003c0.306,0.348,2.684,2.816,3.297,3.381c0.612,0.563,1.322,1.71,1.836,2.189
			c1.76,1.579,8.238,7.211,8.863,7.676c0.626,0.477,3.715,2.548,4.272,2.625c5.565,0.705,8.296-2.343,8.861-3.246
			c0.57-0.882,0.678-1.263,0.327-2.586c-0.007,0.094-21.483-16.041-35.733-47.073c-0.552-1.201-5.494-7.186-10.032-3.563
			c-3.726,2.976-1.032,10.107-1.032,10.107v0.04C153.344,356.231,157.582,364.739,159.062,367.478"/>
		<path fill="#F0D4B7" d="M116.897,370.537c1.437-5.376-10.48-4.177-11.34-4.372c-3.716,6.014-7.659,26.438-9.668,36.003
			c-0.348,1.077-0.816,2.808-1.367,5.046c2.736,2.781,5.532,5.499,8.406,8.127C105.004,407.269,116.516,371.966,116.897,370.537z"/>
	</g>
	<g id="Layer_1_1_">
		<g>
			<path fill="#A30F0C" d="M463.066,230.795c0,0.014,0.008,0.028,0.008,0.034c0,0,0,0.014,0.008,0.029
				c-0.008-0.014-0.008-0.029-0.008-0.029C463.072,230.824,463.066,230.81,463.066,230.795"/>
			<path d="M435.983,307.778c-6.647-1.471-22.385-4.63-43.599-6.579c-21.204-1.931-38.561-3.587-40.945-3.845
				c-2.184-0.217-2.975-2.219-4.957-3.215c-7.188-3.604-20.772-6.949-29.284-9.947c-2.106-0.729-3.491-2.594-6.398-6.138
				c-1.767-2.161-2.962-3.137-4.474-4.506c-0.906-0.828-2.879-2.496-3.406-2.9c-0.514-0.417-0.876-1.612-0.431-3.935
				c0.445-2.331,1.838-11.421,1.724-22.005c-0.03-2.841,1.221-4.66,2.552-5.325c0.715-0.361,5.373-2.433,5.059-7.011
				c-0.328-4.633-1.759-11.097,1.968-20.194c3.607-8.814,8.112-24.546,8.656-34.925c0.577-11.025-2.191-18.137-6.542-21.987
				c-1.697-1.488-3.699-3.736-2.064-8.536c1.744-5.165,4.912-19.269,1.8-28.599c-0.698-2.072-1.488-2.085-1.964-2.336
				c-0.477-0.243-2.738-1.974-3.587-5.781c-1.142-5.019-4.811-22.857-18.645-40.991c-7.329-9.627-15.156-15.352-18.282-17.659
				c-2.142-1.394-5.902-4.014-10.401-6.406c-6.436-3.403-11.546-6-21.822-9.326c-0.972-0.306-3.173-0.979-6.079-1.755
				c-0.008,0-0.033,0-0.033,0s-8.756-2.343-18.224-3.448c-1.617-0.15-3.829-0.354-6.34-0.525c-9.747-0.57-13.305,0.028-18.374,0.538
				c-0.542,0.052-1.093,0.135-1.638,0.208c-1.011,0.135-2.057,0.291-3.15,0.462c-15.06,2.578-30.381,9.642-37.833,13.195
				c-4.208,1.998-7.929,4.077-11.352,6.027c-0.094,0.06-0.216,0.129-0.279,0.167c-0.882,0.538-2.264,1.308-3.611,2.048
				c-2.106,1.188-4.119,2.301-6.069,3.253c-6.032,2.934-11.337,4.436-15.216,5.781c-0.705,0.264-1.295,0.487-1.752,0.644
				c-2.796,1.089-4.578,2.214-4.905,4.069c-0.597,3.33,3.323,6.42,1.923,11.732c-3.446,13.062-18.189,25.599-20.553,27.045
				c-6.847,4.179-6.42,7.088-6.684,8.576c0,1.383,0.284,2.919,1.071,4.578c2.282,4.835,6.503,8.978,8.568,13.347
				c2.072,4.372,3.252,12.036,1.702,20.994c-1.479,8.663-1.942,10.584-2.712,12.173c-0.765,1.594-2.309,4.692-0.18,8.376
				c2.138,3.695,6.642,7.462,9.468,9.632c1.503,1.161,2.282,2.214,1.167,4.307c-1.836,3.424-1.367,11.499,0.372,16.017
				c2.625,6.893,5.708,13.462,8.568,17.685c2.864,4.219,7.973,11.401,10.977,13.999c2.993,2.615,3.403,7.146,3.345,9.959
				c-0.063,2.798-0.456,10.73,7.695,15.693c4.017,2.469,4.377,1.848,5.85,3.059c1.473,1.189,2.166,1.807,3.184,5.019
				c1.019,3.199,5.652,14.418,12.032,22.315c1.861,2.294,2.895,3.92,3.117,4.296c0.225,0.375,0.571,0.792-0.236,2.682
				c-0.803,1.892-4.023,12.658-6.592,23.788c-0.47,2.042-1.16,4.725-3.72,5.985c-2.565,1.236-8.293,4.401-10.378,5.553
				c-2.098,1.154-3.133,1.781-5.547,4.782c-1.074,1.335-1.855,2.118-2.534,2.932c-0.39,0.471-0.563,0.773-2.603,1.836
				c-1.767,0.918-27.99,10.145-55.797,27.155c-0.688,0.415-1.332,0.784-1.971,1.14c1.638,2.557,3.309,5.091,5.048,7.565
				c6.243-3.156,21.137-10.706,23.478-11.872c1.848-0.932,4.147-1.293,6.006-1.338c1.119-0.021,2.079,0.07,2.689,0.222
				c1.248,0.306,3.396,0.78,5.391,1.236c0.185,0.04,0.369,0.086,0.56,0.126c0.123,0.029,0.244,0.056,0.372,0.091
				c0.823,0.203,1.585,0.384,2.2,0.549c0.035,0.013,0.063,0.013,0.098,0.029c0.299,0.086,0.57,0.159,0.778,0.222
				c1.771,0.583,2.714,3.906,1.755,6.93c-0.169,0.57-0.721,2.488-1.53,5.325c-0.402,1.425-0.863,3.066-1.367,4.887
				c-0.507,1.822-1.061,3.826-1.644,5.953c-2.05,7.45-4.458,16.392-6.53,24.463c5.55,5.059,11.373,9.822,17.424,14.297
				c0.678-5.24,1.391-10.697,1.942-14.665c1.446-10.356,9.718-48.719,12.054-57.441c1.699-6.347,2.583-9.238,4.816-10.239
				c0.67-0.291,1.432-0.737,1.873-0.952c0.441-0.204,1.407-0.438,1.109,1.243c-0.342,1.995-2.064,10.136-4.598,36.551
				c-1.759,18.326-1.801,34.556-1.169,44.318c0.273,4.156,0.343,10.032,6.704,7.485c7.431-2.969,32.763-12.052,46.296-16.223
				c21.791-6.721,62.633-15.699,101.997-21.509l11.007-1.564c0,0,6.444,37.863,7.554,44.425l1.223,6.947l-1.211-6.947
				c-1.119-6.563-7.556-44.426-7.556-44.426c1.542-0.212,3.095-0.409,4.623-0.604c3.525-0.445,6.834-0.861,9.948-1.266l11.497-1.473
				c5.38-0.689,9.996-1.28,13.908-1.791c0,0,7.431,34.353,10.225,46.694c0.195,0.811,0.362,1.543,0.501,2.156l1.376,6.306
				c0.008,0,0.015,0,0.021,0l-1.368-6.306c-2.268-9.76-10.733-48.848-10.733-48.848l11.771-1.517
				c3.482-0.444,7.917-1.001,9.238-1.064c2.766-0.115,3.974-1.68,1.861-2.314c-1.524-0.445-5.046-0.798-6.828-0.842
				c-0.68-0.008-1.917-0.022-2.656-0.034c-2.724-0.048-3.503-0.585-4.101-4.6c-1.697-11.778-8.258-40.971-12.969-56.363
				c-4.56-14.848-5.686-19.123-6.784-22.393c-0.96-2.815,0.9-2.988,1.794-2.947c3.322,0.159,7.924,1.884,9.244,4.727
				c2.921,6.333,22.899,58.662,30.921,78.171c5.061,12.289,10.956,27.084,16.524,40.263c3.567-2.932,7.008-6.021,10.379-9.176
				c-10.363-22.786-33.436-74.408-45.602-100.531c-0.438-0.941-1.029-2.463-1.327-3.357c-0.104-0.298-0.147-0.564-0.147-0.799
				c0.015-1.667,2.219-1.899,3.309-1.793c4.294,0.431,43.308,3.003,53.959,4.02c7.029,0.664,14.042,1.737,18.726,2.572
				c1.086,0.201,2.042,0.383,2.848,0.542c1,0.199,1.752,0.358,2.238,0.492c3.475,0.906,9.606,3.331,15.282,6.375
				c2.348,1.251,5.019,3.073,7.883,5.271c0.863-2.449,1.722-4.904,2.504-7.383c-2.043-1.418-4.34-2.865-6.592-4.076
				C447.383,311.296,441.913,309.098,435.983,307.778 M118.312,178.402c-1.061,0.456-2.019,0.577-2.753-0.868
				c-1.779-3.518-3.13-9.782-3.646-13.851c-0.531-4.066-1.344-16.205-1.087-22.836c0.284-6.636-1.012-10.344-3.384-13.518
				c-2.377-3.17-3.906-5.37-4.49-6.438c-0.733-1.332-0.243-2.242,1.16-3.259c0.681-0.477,2.072-0.19,3.147-0.414
				c2.127-0.427,9.229-3.003,14.521-7.154c5.28-4.15,13.695-12.178,19.405-15.269c5.693-3.09,8.22-4.498,14.883-5.298
				c1.182-0.138,2.955,0.493,0.954,2.016c-1.999,1.522-8.412,3.795-15.89,15.078c-4.591,6.903-5.34,10.89-6.793,13.988
				c-1.461,3.096-2.857,3.972-5.169,6.478c-1.125,1.195-3.417,3.708-4.243,7.352c-0.803,3.646-4.122,16.493-2.172,35.922
				c0.229,2.262,1.161,5.273-0.96,6.368C120.485,177.377,119.362,177.953,118.312,178.402 M127.468,204.581
				c-1.129-0.803-5.746-7.053-7.995-13.999c-0.247-0.733-0.518-2.6,0.699-3.132c0.998-0.428,2.322-1.195,3.01-1.523
				c0.697-0.351,2.436-0.807,2.676,1.7c0.243,2.512,0.462,5.473,3.326,12.885c0.519,1.324,0.626,1.738,0.761,2.27
				C130.315,204.32,128.513,205.325,127.468,204.581 M136.873,180.977c-0.306,0.053-3.474,0.435-5.182,0.754
				c-1.061,0.195-2.152,0.591-2.274-0.43c-0.143-1.161-0.483-2.694-0.583-3.108c-0.092-0.43,0.115-0.839,0.628-0.96
				c1.258-0.291,6.122-1.109,6.591-1.133c0.47-0.006,0.945,0.153,1.149,1.127c0.185,0.977,0.419,2.016,0.474,2.439
				C137.732,180.101,137.854,180.827,136.873,180.977 M138.601,165.11c-0.292-1.48-0.702-4.016-0.57-5.593
				c0.045-0.628,0.236-2.201,0.99-3.048c1.066-1.209,2.484-2.309,3.404-3.053c1.672-1.37,1.324-4.914,1.446-6.948
				c0.369-5.909-0.156-24.567,11.952-42.418c0.466-0.678,0.942-1.303,1.41-1.895c0.143-0.177,0.285-0.34,0.428-0.514
				c0.348-0.41,0.694-0.804,1.053-1.169c0.15-0.163,0.298-0.32,0.456-0.469c0.428-0.422,0.863-0.824,1.296-1.188
				c0.063-0.049,0.118-0.105,0.177-0.156c0.491-0.396,0.982-0.754,1.472-1.095c0.177-0.115,0.354-0.229,0.531-0.333
				c0.337-0.222,0.678-0.421,1.018-0.615c0.193-0.105,0.386-0.213,0.584-0.313c0.372-0.19,0.754-0.369,1.132-0.538
				c0.144-0.06,0.285-0.129,0.428-0.195c0.491-0.205,0.995-0.388,1.494-0.56c0.214-0.073,0.421-0.135,0.633-0.201
				c0.336-0.105,0.671-0.205,1.005-0.299c0.114-0.029,0.219-0.069,0.335-0.097c0,0.006,0,0.006,0,0.013
				c2.464-0.657,4.992-1.026,7.545-1.46c7.208-1.224,15.609-0.079,19.931,1.296c3.435,1.088,5.175,1.922,6.324,0.837
				c1.153-1.08,4.162-4.491,5.439-5.7c0.175-0.171,0.313-0.358,0.408-0.543c0.039-0.063,0.06-0.127,0.089-0.19
				c0.046-0.121,0.087-0.25,0.106-0.378c0.007-0.069,0.023-0.143,0.023-0.219c0-0.121-0.015-0.243-0.035-0.372
				c-0.014-0.063-0.014-0.135-0.045-0.198c-0.046-0.177-0.124-0.348-0.231-0.511c-0.281-0.466-0.726-0.882-1.278-1.214
				c-1.401-0.823-15.468-11.146-34.431-11.608c-18.529-0.463-33.568,6.093-37.557,7.466c-0.807,0.271-1.221,0.414-1.695,0.42
				c-0.47,0.013-2.087-0.539-1.488-1.707c0.657-1.248,2.301-3.17,4.01-4.727c1.792-1.616,10.56-9.868,19.219-13.691
				c1.602-0.702,1.992-0.994,3.018-1.394c1.311-0.496,2.087-3.451-0.81-3.459c-2.968-0.021-4.15,0.312-5.718,0.557
				c-1.57,0.261-2.433-0.441-1.441-1.787c0.98-1.341,2.916-2.829,6.411-4.727c7.589-4.135,21.469-8.494,28.032-9.93
				c8.558-1.874,9.603-1.995,15.282-2.343c5.311-0.306,9.559,0.069,11.569,0.15c17.015,0.646,36.609,6.278,51.779,16.266
				c14.424,10.612,35.182,28.293,39.297,71.939c0.493,5.238,0.147,8.207-0.056,9.518c-0.18,1.311-1.668,3.721-2.974,0.984
				c-4.304-9.02-10.956-20.823-18.464-32.011c-0.445-0.665-0.898-0.984-1.266-1.032c-0.154-0.031-0.285-0.006-0.417,0.05
				c-0.033,0.021-0.056,0.055-0.09,0.079c-0.072,0.055-0.148,0.125-0.204,0.219c-0.028,0.066-0.063,0.135-0.084,0.205
				c-0.034,0.095-0.056,0.201-0.069,0.306c-0.015,0.094-0.03,0.181-0.03,0.279c0,0.222,0.015,0.467,0.078,0.733
				c0.188,0.792,2.578,12.627,2.667,14.275c0.103,1.644-0.702,5.679,5.428,13.125c2.504,3.055,4.727,5.665,5.868,10.173
				c1.125,4.491,1.508,6.413,1.515,6.89c0.017,0.469,0.556,1.807-1.612,1.821c-2.156,0.006-10.386-0.591-13.908-0.512
				c-3.525,0.084-27.854,2.471-36.904,4.394c-9.053,1.926-13.923,4.206-18.571,9.09c-1.119,1.174-2.684,2.27-3.039,2.37
				c-0.336,0.095-1.517,0.069-3.824-0.087c-2.298-0.15-6.283,0.414-8.376,1.359c-2.106,0.942-3.607,1.818-6.144,0.785
				c-3.626-1.467-9.845-8.164-25.992-7.375c-9.72,0.475-14.7,0.741-21.445,1.738c-0.393,0.063-0.799,0.121-1.203,0.184
				c-0.256,0.042-0.522,0.083-0.785,0.128c-0.143,0.021-0.291,0.042-0.441,0.069c-2.747,0.449-5.849,1.026-9.678,1.773
				c-0.531,0.1-1.053,0.208-1.602,0.312C139.91,167.339,138.878,166.67,138.601,165.11 M287.288,160.946
				c0,0.515-0.626,1.047-1.266,1.155c-0.633,0.101-4.977,0.498-5.672,0.549c-0.681,0.048-1.349-0.327-1.406-0.969
				c-0.055-0.633-0.196-2.134-0.235-2.527c-0.07-0.369-0.086-0.883,0.799-0.997c0.514-0.063,5.044-0.469,6.716-0.667
				c0.625-0.074,1.035,0.491,1.05,1.038C287.275,159.076,287.275,160.436,287.288,160.946 M266.969,165.823
				c-1.344-0.945-3.706-2.433-5.137-2.955c-0.987-0.354-0.642-1.589,0.765-1.787c4.895-0.712,8.034-0.712,10.469,0.807
				c1.78,1.103,2.962,3.243,2.418,5.13c-0.641,2.166-1.488,1.696-2.552,1.678C271.868,168.677,268.297,166.772,266.969,165.823
				 M269.798,175.372c-0.861,0.58-3.677,0.063-4.699-0.338c-2.099-0.824-3.588-1.393-6.507-3.246
				c-1.906-1.209-5.22-1.807-8.119-0.932c-1.911,0.578-3.447,1.061-5.13,1.71c-1.686,0.646-2.031-0.89-1.59-1.546
				c0.435-0.656,3.104-3.78,6.644-5.109c0.744-0.285,2.259-0.441,3.003-0.456c2.281-0.066,5.109,1.047,7.251,2.61
				c2.16,1.575,5.589,4.143,7.842,5.106C269.548,173.626,271.841,173.96,269.798,175.372 M199.427,251.351
				c-8.538,2.99-10.932-0.014-11.692-0.904c-0.757-0.889,0.177-1.758,1.081-2.18c2.031-0.945,4.749-3.003,6.122-4.342
				c1.38-1.338,4.061-5.995,5.995-7.632c0.918-0.781,5.877-2.467,9.607-0.688c4.436,2.113,11.341,2.332,15.582,1.78
				c4.238-0.57,5.853-3.668,6.773-5.496c0.916-1.845,3.165-2.52,4.347-3.006c3.254-1.33,7.56-5.795,8.001-6.249
				c0.441-0.47,1.783-1.13,3.918,0.121c3.885,2.283,5.86,5.304,9.468,9.402c3.607,4.101,7.876,4.741,9.128,4.821
				c1.253,0.079,2.031,1.53,2.088,1.929c0.069,0.399-0.973,1.786-1.752,2.37c-0.781,0.584-1.212,1.617-8.12,1.781
				C225.311,243.913,209.714,247.751,199.427,251.351 M246.44,255.523c-2.057,1.063-8.174,3.369-11.219,3.955
				c-3.055,0.587-12.75,2.552-14.387,2.684c-2.037,0.158-4.891-0.453-7.369-2.148c-0.498-0.344-1.174-1.676,0.633-1.943
				c3.354-0.498,8.769-3.015,28.467-4.018c2.117-0.109,3.111-0.153,3.618-0.165C246.691,253.877,248.512,254.459,246.44,255.523
				 M200.804,299.255c-6.879,1.134-25.192-4.239-37.1-33.624c-3.069-7.559,0.297-15.079,3.251-16.601
				c1.752-0.889,2.7-1.251,3.297-1.401c0.648-0.163,3.765-0.57,4.119,2.937c0.28,2.837,5.787,26.126,13.191,33.826
				c1.826,1.909,3.269,1.793,3.74-0.18c0.405-1.807,1.203-4.185,1.436-5.091c0.164-0.654,1.95-2.628,2.963-0.111
				c2.178,5.341,4.806,12.335,6.533,15.135C203.921,296.879,203.378,298.829,200.804,299.255 M202.162,222.422
				c0.646,0.897,1.047,2.527,0.997,3.247c-0.066,0.831-2.907,2.339-5.86-0.977c-2.955-3.322-2.378-7.914-1.155-9.864
				c1.95-3.111,5.781-1.562,5.411-0.452C200.275,218.221,201.505,221.519,202.162,222.422 M180.209,179.392
				c-2.21-0.072-4.587-0.343-8.62,1.15c-4.515,1.668-7.418,3.845-9.518,5.133c-2.159,1.346-4.443,1.923-5.208,1.979
				c-0.76,0.066-3.533-0.298-1.623-2.305c0.507-0.549,1.724-0.963,3.57-2.309c1.32-0.972,2.298-1.665,3.799-2.93
				c2.676-2.28,8.13-5.576,10.507-5.868c1.745-0.208,4.829,0.122,6.663,1.623C181.69,177.433,182.423,179.462,180.209,179.392
				 M142.219,183.307c0.232-1.446,1.814-5.259,5.145-6.365c0.449-0.135,2.109-0.675,3.497-1.032
				c1.637-0.413,3.396-0.775,4.293-0.938c2.41-0.42,2.919,1.415,1.401,2.61c-0.994,0.792-2.583,1.824-3.987,2.961
				c-2.135,1.746-4.185,3.687-5.771,5.005C144.866,187.157,141.739,186.275,142.219,183.307 M153.536,224.828
				c-0.007-0.006-0.014-0.014-0.014-0.014c-0.014-0.021-0.022-0.034-0.035-0.053c-0.597-0.839-1.155-1.721-1.675-2.617
				c-0.109-0.198-0.219-0.4-0.333-0.598c-0.519-0.963-1.005-1.937-1.387-2.961c-0.747-1.984,0.504-2.277,1.338-1.845
				c0.833,0.445,3.268,1.866,5.871,2.415c1.59,0.327,2.534-0.435,2.907-1.581c0.056-0.171,0.128-0.383,0.206-0.612
				c0.045-0.101,0.079-0.208,0.114-0.32c0.021-0.066,0.04-0.135,0.066-0.208c0.033-0.124,0.063-0.246,0.09-0.375
				c0.023-0.066,0.03-0.135,0.042-0.201c0.031-0.132,0.045-0.261,0.06-0.396c0.006-0.066,0.006-0.129,0.014-0.202
				c0-0.132-0.014-0.261-0.029-0.396c-0.007-0.059-0.015-0.121-0.03-0.177c-0.032-0.143-0.087-0.277-0.15-0.413
				c-0.027-0.042-0.039-0.087-0.06-0.122c-0.091-0.156-0.214-0.3-0.361-0.435c-0.193-0.169-0.435-0.327-0.747-0.449
				c-2.267-0.911-8.693-2.94-13.518-11.915c-0.699-1.269-0.038-2.349,0.432-2.729c0.471-0.375,2.151-1.446,2.955-1.942
				c0.813-0.498,1.914-0.441,3.061,0.351c1.103,0.789,3.498,2.534,5.419,2.364c1.785-0.174,1.964-0.906,2.282-1.37
				c1.258-1.836,4.668-8.505,13.604-8.613c3.687-0.048,7.14,0.292,8.376,0.216c1.223-0.079,5.583-0.473,8.151-2.22
				c2.529-1.738,3.607-0.488,2.146,1.415c-0.217,0.285-0.414,0.535-0.598,0.786c-0.072,0.09-0.128,0.169-0.193,0.253
				c-0.198,0.264-0.369,0.515-0.519,0.755c-0.557,0.942-0.626,1.758,0.412,2.877c1.631,1.734,2.055,2.044,2.585,2.454
				c0.236,0.188,0.518,0.298,0.846,0.306c0.135,0,0.285-0.029,0.435-0.069c0.063-0.021,0.124-0.021,0.198-0.048
				c0.225-0.101,0.463-0.237,0.726-0.459c0.932-0.824,1.557-1.314,2.37-2.364c0.605-0.775,1.116,0.006,0.966,1.219
				c-0.118,0.945,0.306,7.011-6.305,14.469c-0.216,0.251-0.718,0.665-1.344,1.195c-0.15,0.122-0.291,0.243-0.454,0.386
				c-0.081,0.069-0.163,0.15-0.245,0.219c-0.207,0.18-0.413,0.372-0.626,0.57c-0.169,0.156-0.342,0.343-0.514,0.514
				c-0.177,0.177-0.348,0.34-0.527,0.531c-0.108,0.116-0.216,0.251-0.327,0.38c-0.222,0.251-0.449,0.504-0.671,0.782
				c-0.069,0.094-0.135,0.19-0.198,0.279c-0.251,0.327-0.494,0.657-0.713,1.003c-0.28,0.449-0.541,0.918-0.77,1.407
				c-1.839,3.924-1.6,5.218-1.8,6.65c-0.18,1.418-1.281,1.982-2.52,2.555c-0.747,0.344-2.727,1.488-4.921,3.148l0.012-0.01
				c-0.657,0.493-1.326,1.043-1.989,1.609c-0.128,0.115-0.251,0.222-0.369,0.338c-0.663,0.584-1.317,1.203-1.921,1.848
				c-0.4,0.422-0.813,0.792-1.227,1.127c-0.143,0.111-0.275,0.198-0.415,0.299c-0.291,0.212-0.592,0.409-0.89,0.584
				c-0.156,0.092-0.324,0.177-0.479,0.247c-0.3,0.15-0.598,0.271-0.906,0.378c-0.162,0.055-0.32,0.123-0.482,0.163
				c-0.081,0.021-0.156,0.056-0.229,0.079c-0.191,0.042-0.382,0.048-0.573,0.076c-0.237,0.042-0.473,0.087-0.714,0.1
				c-0.264,0.014-0.534,0-0.806-0.014c-0.232-0.025-0.469-0.025-0.696-0.053c-0.279-0.042-0.555-0.129-0.828-0.205
				c-0.231-0.06-0.462-0.108-0.697-0.19c-0.261-0.101-0.519-0.244-0.782-0.372c-0.251-0.121-0.491-0.219-0.734-0.369
				c-0.022-0.018-0.048-0.024-0.069-0.037c-0.441-0.279-0.891-0.604-1.341-0.973c-1.16-0.997-2.43-2.158-3.687-3.425
				c-0.033-0.037-0.066-0.072-0.099-0.1c-0.035-0.035-0.069-0.076-0.101-0.115c-0.646-0.654-1.293-1.352-1.921-2.079
				C155.629,227.462,154.162,225.697,153.536,224.828 M232.985,364.196c-0.406,2.112-2.13,9.23-8.457,23.877
				c-0.428,0.987-0.843,1.939-1.248,2.859c-0.098,0.216-0.198,0.422-0.293,0.639c-0.156,0.353-0.319,0.71-0.474,1.041
				c-0.015,0.029-0.023,0.056-0.035,0.084c-0.229,0.51-0.462,0.987-0.699,1.463c0,0-0.014,0.013-0.014,0.03
				c-0.03,0.056-0.063,0.117-0.1,0.178c-0.084,0.167-0.171,0.328-0.254,0.486c-0.114,0.212-0.222,0.438-0.344,0.642
				c0,0.021-0.008,0.028-0.014,0.039c-0.029,0.042-0.056,0.084-0.084,0.139c-0.108,0.188-0.264,0.461-0.271,0.473
				c-0.015,0.029-0.035,0.054-0.05,0.084c0,0,0,0,0,0.015c-0.081,0.117-0.151,0.235-0.222,0.346
				c-0.021,0.039-0.04,0.084-0.063,0.117c-0.014,0.015-0.024,0.033-0.045,0.054c-0.096,0.159-0.198,0.307-0.297,0.473
				c-0.022,0.022-0.042,0.04-0.055,0.063c-0.114,0.166-0.23,0.328-0.342,0.486c-0.006,0-0.024,0.03-0.044,0.04
				c-0.096,0.134-0.199,0.266-0.299,0.39c-0.03,0.03-0.048,0.056-0.069,0.07c-0.114,0.153-0.236,0.273-0.342,0.405
				c-0.017,0-0.031,0.021-0.044,0.039c-0.063,0.063-0.137,0.126-0.199,0.195h-0.006c-0.033,0.042-0.073,0.076-0.115,0.111
				c-0.021,0.021-0.054,0.04-0.076,0.07c-0.121,0.109-0.237,0.217-0.358,0.299c-0.014,0.013-0.021,0.021-0.04,0.03
				c-0.108,0.09-0.222,0.163-0.336,0.234c-0.031,0.021-0.057,0.04-0.087,0.056c-0.021,0.013-0.042,0.021-0.056,0.03
				c-0.024,0.021-0.045,0.033-0.066,0.033c-0.084,0.056-0.171,0.104-0.258,0.155c0,0-0.014,0-0.028,0.006
				c-0.111,0.062-0.232,0.104-0.361,0.147c-0.03,0.015-0.06,0.03-0.095,0.04c-0.135,0.04-0.264,0.078-0.406,0.111
				c-1.314,0.283-2.719,0.486-3.541,0.627c-0.122,0.012-0.963,0.153-1.032,0.179c-0.343,0.049-0.714,0.105-1.111,0.174
				c0,0,0,0,0-0.008c-9.497,1.599-35.328,6.047-47.31,8.467c-7.949,1.587-7.167-2.416-9.162-9.642
				c-0.839-3.038-3.79-29.911-2.256-46.779c0.514-5.601,0.76-7.242,1.766-7.86c1.003-0.619,2.541-1.62,3.003-1.752
				c0.45-0.118,1.82-0.48,2.459,0.673c0.625,1.14,12.227,24.677,19.809,33.201c6.728,7.598,11.457,13.108,17.129,16.809
				c0.375,0.251,0.697,0.405,0.99,0.501c0.028,0.013,0.063,0.031,0.096,0.04c0.135,0.04,0.257,0.062,0.372,0.077
				c0.114,0.015,0.219,0.008,0.319,0c0.03-0.006,0.056-0.006,0.086-0.015c0.188-0.04,0.337-0.132,0.451-0.249
				c0.014-0.015,0.029-0.034,0.049-0.055c0.107-0.132,0.185-0.299,0.224-0.479c0.007-0.029,0.007-0.063,0.007-0.093
				c0.156-0.876-0.261-2.203-1.093-3.105c-1.251-1.349-6.434-6.681-13.26-16.392c-8.831-12.534-14.814-31.032-16.423-36.957
				c-1.053-3.879-1.644-9.996-1.547-14.877c-0.006,0-0.014,0-0.014,0c0.008-0.216,0.014-0.404,0.025-0.611
				c0.006-0.155,0.014-0.305,0.023-0.467c0.014-0.328,0.028-0.654,0.046-0.967c0.035-0.461,0.069-0.906,0.123-1.322
				c0.023-0.181,0.048-0.342,0.069-0.516c0.045-0.289,0.089-0.57,0.13-0.828c0.029-0.154,0.059-0.298,0.095-0.438
				c0.076-0.375,0.163-0.722,0.271-1.023c1.374-3.926,2.521-3.504,3.736-2.189c1.218,1.327,12.18,11.275,30.253,19.374
				c3.839,1.717,6.128,2.508,6.651,3.073c0.518,0.548,1.344,1.71-0.299,2.097c-1.623,0.384-6.444,0.555-11.492,2.55
				c-0.292,0.118-0.563,0.237-0.81,0.346c-1.766,0.792-2.593,1.587-2.968,2.44c-0.074,0.165-0.129,0.342-0.17,0.516
				c-0.031,0.117-0.06,0.257-0.074,0.383c-0.022,0.194-0.03,0.389-0.022,0.584c0,0.128-0.008,0.259,0.006,0.392
				c0.015,0.249,0.042,0.501,0.069,0.765c0.06,0.445,0.122,0.904,0.167,1.408c0.267,2.739,0.741,4.694,1.089,8.357
				c0.34,3.677,0.129,6.999,1.921,8.55c1.786,1.53,4.225,2.439,10.74,1.175c6.18-1.204,8.238-1.731,8.97-1.752
				c0.718-0.022,2.454-0.314,1.393,1.71c-0.101,0.195-0.232,0.431-0.389,0.717c-1.425,2.536-4.876,8.253-6.053,12.061
				c-1.304,4.198-1.568,5.359-1.682,6.077c-0.105,0.721,0.393,2.112,1.675,0.556c1.279-1.559,3.813-7.362,10.177-14.751
				c0.854-0.987,1.637-1.855,2.371-2.656c0.006,0,0.014-0.015,0.029-0.03c0.576-0.618,1.111-1.181,1.623-1.697
				c0.143-0.147,0.277-0.279,0.414-0.408c0.435-0.423,0.842-0.813,1.221-1.182c0.1-0.086,0.21-0.188,0.299-0.273
				c0.949-0.859,1.766-1.522,2.478-2.041c0.072-0.04,0.135-0.086,0.201-0.132c0.275-0.203,0.546-0.384,0.797-0.535
				c0.069-0.04,0.143-0.09,0.212-0.14c0.251-0.154,0.487-0.282,0.706-0.403c0.035-0.03,0.089-0.056,0.128-0.077
				c0.03-0.009,0.049-0.03,0.069-0.04c0.258-0.118,0.473-0.244,0.691-0.344C233.041,360.166,233.524,361.381,232.985,364.196
				 M243.521,396.536c-1.02,0.236-5.426,0.905-6.106,0.915c-0.671,0.017-1.24-0.611-0.955-1.092
				c0.283-0.473,3.316-4.419,4.983-11.289c0.281-1.119,0.981-1.898,1.436-0.289c0.351,1.174,1.712,7.014,2.025,9.211
				C244.949,394.376,245.185,396.146,243.521,396.536 M245.369,340.519c-2.895,1.086-6.114-2.168-8.72-3.906
				c-5.856-4.004-11.244-7.862-15.664-13.263c-6.771-8.267-6.138-14.03-4.172-24.708c1.367-7.586-1.111-14.718-1.651-15.723
				c-0.536-1.008,0.069-2.031,1.671-1.281c1.601,0.753,3.132,3.089,4.776,5.091c1.631,2.003,1.992,0.579,2.127-0.781
				c0.312-3.141-0.396-5.656-0.787-7.116h-0.009c-0.021-0.07-0.039-0.159-0.054-0.236c-0.23-0.87-1.039-2.81-2.743-3.162
				c-2.283-0.48-4.527-0.682-5.745-1.559c-0.567-0.408-1.212-1.242-0.573-1.854c1.163-1.127,2.852-2.62,4.456-3.17
				c2.182-0.75,4.281-1.891,7.046-1.876c18.657,0.118,23.688-4.198,30.821-7.158c1.398-0.586,2.236-0.848,3.434-0.473
				c1.203,0.362,4.464,1.587,5.287,3.036c0.828,1.455,0.974,7.517,2.566,11.889c1.57,4.386,4.246-0.159,4.833-2.035
				c0.563-1.886,0.783-6.367,0.813-7.502c0.028-1.134,0.36-5.916,1.861-7.529c2.982-3.184,3.684-6.952,4.046-8.425
				c0.32-1.322,0.57-5.016-0.084-10.265c-0.07-0.646-0.167-1.324-0.28-2.019c-1.008-6.33-2.281-6.865-3.997-8.016
				c-1.722-1.148-3.525-0.65-7.908-3.652c-3.921-2.697-7.48-7.41-10.449-10.286c-2.956-2.871-7.632-5.758-12.564-6.267
				c-0.312-0.029-0.585-0.035-0.836-0.035c-0.021,0-0.033,0-0.056,0c-0.219,0.014-0.426,0.029-0.603,0.066
				c-0.035,0.006-0.056,0.021-0.095,0.028c-0.156,0.029-0.299,0.069-0.42,0.118c-0.033,0.024-0.063,0.045-0.104,0.06
				c-0.094,0.055-0.188,0.108-0.264,0.169c-0.034,0.035-0.063,0.069-0.1,0.108c-0.056,0.055-0.111,0.115-0.15,0.184
				c-0.035,0.048-0.056,0.108-0.086,0.163c-0.021,0.06-0.053,0.108-0.066,0.164c-0.029,0.087-0.042,0.171-0.056,0.264
				c0,0.035-0.006,0.063-0.006,0.101c-0.008,0.122-0.008,0.247,0.006,0.375h-0.006c0.101,1.219,0.98,2.708,1.203,3.319
				c0.312,0.831,1.101,3.372-0.299,4.852c-1.41,1.48-9.654,8.856-17.375,8.672c-3.489-0.079-6.4-0.797-8.844-1.839
				c0.014,0.014,0.023,0.024,0.03,0.037c-0.104-0.045-0.19-0.101-0.298-0.15c-0.583-0.257-1.137-0.535-1.665-0.828
				c-0.084-0.048-0.184-0.09-0.279-0.143c-0.592-0.341-1.135-0.699-1.653-1.066c-0.156-0.115-0.306-0.23-0.456-0.341
				c-0.393-0.299-0.768-0.604-1.119-0.918c-0.104-0.094-0.224-0.188-0.327-0.279c-0.42-0.4-0.81-0.792-1.174-1.182
				c-0.09-0.108-0.17-0.209-0.261-0.306c-0.279-0.322-0.534-0.644-0.78-0.955c-0.077-0.101-0.15-0.191-0.219-0.293
				c-0.277-0.393-0.534-0.768-0.753-1.13c-0.03-0.045-0.045-0.079-0.074-0.122c-0.19-0.33-0.354-0.643-0.498-0.928
				c-0.035-0.077-0.072-0.146-0.108-0.227c-0.143-0.306-0.264-0.605-0.346-0.855c-1.126-3.389,1.671-11.397,1.572-17.131
				c-0.035-2.513-0.553-7.334-0.939-10.679c-0.384-3.346,1.38-7.851,2.201-8.943c0.185-0.24,0.462-0.47,0.782-0.695
				c0.081-0.06,0.171-0.108,0.257-0.163c0.298-0.195,0.641-0.38,1.027-0.549c0.055-0.028,0.108-0.055,0.171-0.087
				c0.378-0.156,0.782-0.32,1.221-0.462v0.021c0.72-0.247,1.495-0.477,2.344-0.667c2.749-0.612,5.964,0.749,6.79,3.018
				c2.874,7.917,6.059,9.589,7.125,10.107c1.083,0.528,2.784-1.04,3.451-1.617c0.671-0.559,2.286-2.684,1.569-3.615
				c-1.105-1.415-1.712-2.283-2.031-3.167c-0.541-1.494,1.411-1.525,1.873-1.317c5.885,2.493,8.703,3.016,14.4,2.826
				c5.687-0.177,14.532-3.924,15.627-3.945c0.893-0.021,2.656,0.528,3.318,1.446c0.109,0.156,0.258,0.378,0.397,0.597
				c0.57,0.848,1.335,1.984,2.016,2.222c0.03,0.006,0.048,0.021,0.076,0.028c0.843,0.209,2.85,0.056,3.914,0.101
				c1.438,0.049,3.934-0.449,3.864,2.193c-0.159,7.053-5.734,11.452-6.241,11.88c-0.195,0.177-0.306,0.403-0.406,0.633
				c-0.029,0.063-0.082,0.129-0.095,0.198c-0.03,0.129-0.055,0.258-0.055,0.38c0,0.128,0.015,0.243,0.042,0.34
				c0.132,0.42,0.735,1.942,0.993,2.356c0.091,0.15,0.202,0.292,0.345,0.428c0.035,0.035,0.093,0.063,0.134,0.101
				c0.111,0.084,0.221,0.163,0.346,0.219c0.063,0.035,0.147,0.042,0.221,0.066c0.117,0.028,0.251,0.055,0.384,0.048
				c0.084,0,0.188-0.028,0.271-0.048c0.209-0.045,0.404-0.087,0.626-0.222c4.725-2.826,6.646-6.166,8.703-10.365
				c2.051-4.179,3.129-17.98,3.247-20.244c0.117-2.28,0.834-3.681,1.953-4.598c1.111-0.921,6.632-4.456,7.41-4.637
				c0.792-0.184,1.696-0.261,2.586,1.797c0.906,2.072,2.879,14.796,3.254,16.752c0.424,2.079,1.501,1.831,2.044,1.433
				c1.181-0.863,2.035-1.923,3.087-3.729c1.086-1.808,0.291-4.3-0.765-5.462c-1.041-1.167-2.691-3.031-1.989-4.882
				c1.599-4.206,4.959-3.995,5.861-3.845c0.883,0.15,4.288,1.683,4.903,10.848c0.89,13.577-4.647,27.615-5.967,31.175
				c-2.919,7.914-3.531,13.302-3.983,15.867c-0.438,2.555-2.378,2.092-2.844,1.678c-0.473-0.412-1.078-2.391-1.377-2.684
				c-0.306-0.293-1.071-0.143-1.572,2.037c-0.499,2.175-2.168,5.196-3.144,6.84c-0.654,1.066-0.533,2.597-0.375,3.785
				c0.293,2.309,1.494,11.141,1.127,21.182c-0.666,17.865-6.639,29.118-11.094,35.009c-10.482,13.861-20.313,19.654-21.493,20.477
				c-1.517,1.057-4.053,0.892-4.902,0.612c-0.862-0.243-1.62-1.134-3.232-2.284c-0.132-0.104-0.264-0.159-0.375-0.218
				c-1.281-0.592-1.473,1.211-1.461,1.682c0.015,0.501,0.79,2.357,1.229,4.156c0.837,3.393-1.049,7.494-2.988,10.731
				c-2.768,4.576-5.856,9.607-5.211,15.135C245.783,340.001,245.783,340.36,245.369,340.519 M334.196,345.803
				c1.579,9.081,3.357,20.146,5.366,33.711c0.103,0.716,0.18,1.327,0.235,1.897c0.015,0.07,0.03,0.148,0.03,0.216
				c0.055,0.535,0.084,1.025,0.084,1.425c0,0.042-0.006,0.078-0.006,0.111c0,0.18,0,0.375-0.015,0.529
				c-0.022,0.155-0.048,0.284-0.078,0.417c0,0.054-0.015,0.109-0.015,0.159c-0.069,0.277-0.163,0.514-0.289,0.715
				c-0.015,0.03-0.04,0.056-0.07,0.096c-0.109,0.154-0.251,0.293-0.397,0.405c-0.048,0.034-0.092,0.07-0.147,0.111
				c-0.188,0.118-0.398,0.222-0.656,0.306c-0.061,0.029-0.153,0.039-0.235,0.069c-0.195,0.063-0.408,0.118-0.641,0.181
				c-0.146,0.03-0.289,0.056-0.438,0.096c-0.305,0.061-0.632,0.126-0.978,0.193c-0.641,0.132-1.579,0.266-2.23,0.319
				c-1.126,0.111-2.44,0.222-3.871,0.348c-13.834,1.266-40.909,4.011-62.599,6.742c-0.408,0.039-0.827,0.084-1.272,0.155
				c-1.689,0.237-2.668-0.033-2.802-1.69c-0.104-1.523-2.642-16.579-10.308-29.406c-0.703-1.182-1.446-2.349-2.232-3.48
				c-0.874-1.26,0.424-2.219,1.662-1.782c3.474,1.221,13.095,5.623,26.818,15.445c3.504,2.504,4.414,3.282,5.201,3.949
				c0.103,0.091,0.266,0.18,0.409,0.251c0.056,0.028,0.118,0.04,0.188,0.069c0.095,0.034,0.216,0.07,0.335,0.098
				c0.063,0.013,0.124,0.029,0.188,0.033c0.132,0.015,0.264,0.021,0.383,0.015c0.056,0,0.104,0,0.148,0
				c0.158-0.023,0.312-0.07,0.438-0.148c0.319-0.201,0.466-0.591,0.216-1.265c-0.854-2.406-5.444-7.133-17.184-18.027
				c-1.676-1.549-1.704-2.203,0.033-2.385c1.731-0.165,6.438,0.048,8.94-0.056c2.51-0.109,8.112-0.266,7.014-7.598
				c-0.842-5.679-1.502-11.553-1.605-13.311c-0.095-1.752-0.404-5.028-4.505-5.492c-4.074-0.468-10.906,0.479-17.035,2.627
				c-1.69,0.587-2.287-0.194-1.036-1.335c1.245-1.133,12.006-8.135,21.176-18.664c10.08-11.594,14.514-20.124,17.031-27.882
				c0.454-1.377,1.035-0.909,1.599-0.594c0.557,0.328,4.338,3.387,5.679,10.906c1.314,7.535,3.921,17.991-0.673,45.45
				c-2.525,15.042-5.61,23.927-6.327,26.048c-0.722,2.099,0.514,3.282,1.905,1.4c3.24-4.424,7.524-16.685,11.139-30.781
				c3.56-13.91,4.85-25.835,5.396-33.479v-0.008c0.056-0.702,0.104-1.362,0.138-1.995l0.022-0.257
				c0.03-0.618,0.061-1.212,0.104-1.745c0-0.327,0.04-0.585,0.096-0.82c0.015-0.07,0.04-0.126,0.063-0.188
				c0.033-0.105,0.063-0.222,0.102-0.306c0-0.015,0.017-0.015,0.017-0.028c0.069-0.132,0.153-0.243,0.227-0.328
				c0.024-0.029,0.042-0.056,0.063-0.07c0.069-0.062,0.132-0.09,0.195-0.123c0.048-0.022,0.096-0.056,0.141-0.072
				c0.039-0.006,0.069-0.006,0.109-0.014c0.078-0.015,0.155-0.03,0.222-0.03c0.028,0,0.055,0,0.09,0.015c0.034,0,0.079,0,0.105,0
				c0.026,0,0.04,0.022,0.054,0.022c0.279,0.048,0.534,0.159,0.73,0.243c0.717,0.28,3.887,1.195,5.538,8.801
				c0.069,0.306,0.139,0.639,0.222,0.971c0.014,0.111,0.039,0.235,0.069,0.346c0.078,0.306,0.147,0.612,0.22,0.947l0.017,0.055
				C328.073,314.318,330.554,324.664,334.196,345.803"/>
			<polygon points="275.707,358.759 277.249,358.759 277.249,362.693 278.18,362.693 278.18,358.759 279.718,358.759 
				279.718,357.968 275.707,357.968 			"/>
			<polygon points="283.061,361.346 281.872,357.968 280.531,357.968 280.531,362.693 281.393,362.693 281.393,358.891 
				282.707,362.693 283.465,362.693 284.758,358.891 284.758,362.693 285.619,362.693 285.619,357.968 284.278,357.968 			"/>
		</g>
	</g>
</g>
<g id="Layer_2_1_">
</g>
</svg>
