<?xml version="1.0" encoding="utf-8"?>
<!-- Generator: Adobe Illustrator 17.0.0, SVG Export Plug-In . SVG Version: 6.00 Build 0)  -->
<!DOCTYPE svg PUBLIC "-//W3C//DTD SVG 1.1//EN" "http://www.w3.org/Graphics/SVG/1.1/DTD/svg11.dtd">
<svg version="1.1" xmlns="http://www.w3.org/2000/svg" xmlns:xlink="http://www.w3.org/1999/xlink" x="0px" y="0px" width="500px"
	 height="500px" viewBox="0 0 500 500" enable-background="new 0 0 500 500" xml:space="preserve">
<g id="Layer_1">
	<g id="g3891" transform="matrix(0.0960355,0,0,0.0960355,1.5004145,-2.1827585)">
		<path id="path8" fill="#C91F27" d="M2703.96,2173.343c-135.571,10.707-233.235,94.625-260.002,223.541
			c-6.366,30.24-7.523,42.827-7.523,81.748c0,37.618,1.013,49.338,6.656,78.131c11.286,56.862,42.538,112.566,82.761,147.725
			c39.5,34.436,87.535,55.415,143.674,62.794c21.269,2.749,63.228,2.749,82.616,0c41.091-5.787,78.131-20.545,103.885-41.525
			c6.8-5.498,12.299-9.405,12.443-8.826c0,0.723,1.157,9.549,2.46,19.967l2.459,18.809l67.713,0.434l67.569,0.289v-161.326v-161.326
			h-133.112h-133.112v69.45v69.45h36.895c25.031,0,36.895,0.434,36.895,1.592c0,0.723-5.064,6.511-11.141,12.588
			c-12.877,12.877-28.793,21.703-46.01,25.754c-15.047,3.473-40.947,2.17-56.573-2.894c-44.274-14.179-66.99-59.466-67.135-133.401
			c-0.145-72.054,22.716-126.167,60.045-142.372c15.626-6.656,40.802-8.392,58.453-3.762c27.78,7.09,48.76,28.359,57.296,57.585
			l2.315,8.392h95.493h95.348l-0.579-3.328c-0.434-1.736-2.17-10.417-3.906-19.099c-4.341-22.861-11.575-43.551-22.282-65.109
			c-36.895-73.935-106.055-120.669-196.774-132.967C2760.099,2172.909,2724.216,2171.751,2703.96,2173.343L2703.96,2173.343z"/>
		<path id="path10" fill="#C91F27" d="M4570.708,2173.343c-97.664,6.8-167.837,44.563-199.089,107.068
			c-23.729,47.168-22.282,118.064,3.039,159.879c10.997,18.23,31.831,39.065,52.666,52.955
			c11.575,7.813,39.934,21.558,57.875,28.214c7.958,2.894,40.802,12.009,73.067,20.112c84.931,21.558,102.438,28.214,109.383,41.525
			c3.617,6.8,2.025,17.507-3.183,23.005c-9.549,9.983-30.239,15.771-56.139,15.771c-40.367,0-66.99-17.507-73.211-48.181
			l-1.592-8.247h-95.638h-95.638l1.013,14.613c4.485,68.871,46.589,126.746,117.051,160.458
			c43.551,20.979,81.603,28.937,137.308,28.937c94.915,0,168.705-23.873,213.992-69.305c25.031-25.031,39.21-50.785,46.878-85.076
			c3.183-13.745,4.485-54.836,2.315-70.029c-4.63-31.397-20.256-61.202-44.274-83.629c-33.278-31.108-75.526-49.049-169.139-71.765
			c-67.713-16.494-95.059-28.648-99.255-44.129c-3.039-11.285,3.038-18.665,18.375-22.282c28.214-6.945,61.492-2.17,76.395,10.996
			c7.813,6.945,10.852,12.154,13.022,22.86l1.736,7.958l94.915,0.434l95.059,0.289v-4.196c0-14.179-8.537-47.168-17.797-68.147
			c-12.732-29.371-39.21-60.913-66.122-78.709c-30.818-20.69-72.922-35.159-115.026-39.789c-19.967-2.17-57.296-2.894-77.986-1.592
			L4570.708,2173.343z"/>
		<path id="path12" fill="#C91F27" d="M177.151,2470.674v284.309h99.834h99.834v-96.217v-96.217h98.387h98.387v-73.79v-73.79
			h-98.387h-98.387v-40.512v-40.512h123.707h123.707v-73.79v-73.79H400.692H177.151V2470.674z"/>
		<path id="path14" fill="#C91F27" d="M703.811,2470.674v284.309h99.834h99.834v-284.309v-284.309h-99.834h-99.834V2470.674z"/>
		<path id="path16" fill="#C91F27" d="M973.362,2189.548c0.434,1.881,43.985,129.784,96.795,284.31l95.927,281.126h97.808h97.808
			l97.808-281.85c53.679-154.959,98.098-282.863,98.676-284.31c1.013-2.315-4.341-2.459-100.847-2.459h-101.859l-45.576,166.39
			c-24.886,91.442-45.721,166.39-46.155,166.39c-0.434,0-19.967-72.777-43.261-161.76c-23.439-88.838-43.117-163.785-43.84-166.39
			l-1.302-4.63h-101.425H972.638L973.362,2189.548L973.362,2189.548z"/>
		<path id="path18" fill="#C91F27" d="M1625.465,2470.674v284.309h238.733h238.733v-73.79v-73.79h-138.899h-138.899v-33.278v-33.278
			h113.579h113.579v-73.79v-73.79h-113.579h-113.579v-29.661v-29.661h133.835h133.835v-73.79v-73.79h-233.669h-233.669V2470.674z"/>
		<path id="path20" fill="#C91F27" d="M3110.385,2368.236c0.434,194.169,0.289,189.105,7.669,225.422
			c5.643,28.359,18.954,61.058,33.856,83.629c10.128,15.337,30.384,36.172,45.866,47.168c23.15,16.639,54.113,29.516,86.523,36.027
			c35.448,7.379,46.445,8.247,99.834,8.103c44.998,0,52.956-0.289,70.896-3.183c63.083-9.983,104.609-28.503,137.597-61.636
			c32.989-33.133,50.206-70.896,60.334-133.257c2.894-18.375,3.039-23.584,3.472-201.549l0.579-182.595h-99.834h-99.834
			l-0.579,183.318c-0.434,165.956-0.723,184.331-2.894,193.302c-6.8,27.49-21.848,43.696-46.01,49.483
			c-19.533,4.485-50.93,2.026-65.254-5.209c-8.826-4.485-19.388-15.192-23.584-23.584c-8.826-18.086-8.536-9.983-8.97-212.545
			l-0.579-184.765h-99.834h-99.834L3110.385,2368.236L3110.385,2368.236z"/>
		<path id="path22" fill="#C91F27" d="M3703.167,2187.088c0,0.434,47.602,82.037,105.621,181.292l105.621,180.714v102.872v103.017
			h99.834h99.834V2650.52V2546.2l105.622-179.122c58.164-98.387,105.621-179.412,105.621-179.846s-49.917-0.723-110.83-0.579
			l-110.975,0.434l-43.551,85.655c-23.873,47.168-43.84,85.799-44.274,85.799c-0.434,0-20.256-38.631-44.129-85.799l-43.406-85.655
			l-112.421-0.434C3753.807,2186.509,3703.166,2186.654,3703.167,2187.088L3703.167,2187.088z"/>
		<path id="path24" fill="#C91F27" d="M1597.251,2968.686c-6.222,0.723-12.443,1.736-13.745,2.315
			c-1.157,0.579-2.749,1.157-3.617,1.157c-0.724,0.145-2.46,0.723-3.617,1.157s-5.787,1.881-10.128,3.328
			c-10.852,3.328-21.848,8.97-35.304,18.23c-6.222,4.196-12.443,8.392-13.745,9.115c-6.222,3.906-34.87,30.963-34.87,32.989
			c0,0.723-2.17,3.906-4.919,7.234c-14.179,17.507-26.767,45.721-29.227,65.398c-0.434,3.906-1.157,8.247-1.592,9.405
			c-0.868,2.894-0.868,40.657,0,43.406c0.434,1.157,1.592,6.511,2.46,12.009c2.026,12.877,8.681,29.805,14.903,38.197
			c6.8,9.115,20.546,22.282,28.069,27.056c6.366,3.907,18.375,8.392,29.371,10.996c10.562,2.459,46.3,1.736,62.071-1.302
			c25.899-5.064,51.653-18.086,71.475-36.316c9.26-8.537,22.571-24.307,27.056-32.554c1.736-3.183,6.077-10.707,9.549-16.639
			c15.481-27.056,22.282-67.858,13.601-82.182c-4.485-7.234-10.273-9.405-23.15-8.537c-10.562,0.723-60.624,11.43-65.254,14.035
			c-2.894,1.447-15.626,3.762-28.793,5.064c-15.481,1.592-20.69,6.366-22.427,20.546c-1.158,8.826,2.315,16.06,9.405,19.677
			c8.102,4.196,34.146,2.604,60.768-3.762c11.575-2.894,21.124-4.919,21.124-4.919c0.145,0.145-1.592,5.209-4.051,11.141
			c-5.643,14.179-17.507,30.529-32.989,45.287c-25.32,24.307-37.329,29.082-68.726,28.069c-21.992-0.723-28.937-3.038-38.342-12.877
			c-5.353-5.353-14.758-20.979-15.192-25.031c-0.145-0.868-1.013-3.472-2.026-5.787c-4.341-9.839-3.328-43.406,1.592-55.415
			c0.868-2.17,1.736-4.196,1.881-4.63c0.579-1.881,8.247-17.362,11.575-23.15c9.26-16.639,37.185-43.695,55.27-53.968
			c24.741-13.89,34.291-16.205,59.322-14.035c17.362,1.592,20.69,2.894,20.69,8.392c0,4.919,4.63,12.588,8.97,14.903
			c4.919,2.604,19.099,5.353,21.414,4.051c1.158-0.579,4.341-1.881,6.945-2.894c6.077-2.17,11.575-10.707,12.877-19.388
			c0.579-5.209,0.145-7.668-3.183-13.89c-4.63-8.97-12.154-19.243-15.192-20.979c-8.392-4.775-23.294-11.286-25.176-10.852
			c-0.579,0.145-2.026-0.434-3.183-1.302c-1.013-1.013-3.328-1.592-5.209-1.302c-1.881,0.145-4.341-0.145-5.498-0.579
			C1634.291,2967.962,1608.682,2967.383,1597.251,2968.686L1597.251,2968.686z"/>
		<path id="path26" fill="#C91F27" d="M3164.208,2971.435c-0.579,0.868-1.736,1.302-2.604,1.013
			c-2.749-1.013-11.864,4.196-15.916,9.115c-6.221,7.234-7.089,21.558-1.736,27.49c2.025,2.17,2.315,6.511,1.881,30.529
			l-0.434,28.069l-4.775,0.145c-2.604,0.145-5.064-0.434-5.498-1.157c-1.013-1.592-7.379-1.447-8.536,0.289
			c-0.434,0.723-3.328,1.447-6.222,1.447c-15.771,0-40.947,11.286-59.322,26.623c-13.167,10.996-31.976,30.674-37.04,38.921
			c-1.592,2.604-3.328,4.919-3.762,5.354c-3.039,2.894-15.047,29.805-16.784,37.474c-4.052,19.243-1.736,44.708,5.064,55.704
			c4.919,7.813,13.89,15.048,21.703,17.363c7.09,2.026,34.725,3.328,39.21,1.881c1.157-0.434,6.077-1.881,10.851-3.183
			c4.775-1.302,12.298-4.341,16.639-6.8c16.35-9.115,42.538-30.674,44.998-37.04c0.723-1.736,1.736-3.183,2.315-3.183
			c1.881,0,1.881,12.009,0,14.324c-0.868,1.013-1.736,5.643-1.736,10.128c0,6.221,0.868,9.26,3.328,12.877
			c5.064,6.945,10.128,8.971,22.716,8.971c18.665,0,25.754-5.788,25.465-20.835c-0.145-4.051-0.723-59.466-1.302-123.128
			c-1.013-107.792-1.158-116.039-3.617-120.524c-2.604-4.63-10.707-10.707-15.337-11.286c-1.302-0.145-3.762-0.723-5.354-1.302
			C3166.524,2970.133,3164.788,2970.422,3164.208,2971.435L3164.208,2971.435z M3141.059,3111.781c3.039,0,4.919,7.379,2.894,12.298
			c-7.234,18.52-13.745,27.925-33.278,48.325c-21.848,22.716-42.393,36.316-54.981,36.316c-4.196,0-5.209-0.579-5.932-3.762
			c-1.592-6.366,0.434-17.218,5.353-27.635c11.43-24.452,42.104-55.56,61.492-62.071c8.392-2.894,18.086-4.775,20.545-4.051
			C3138.309,3111.492,3139.901,3111.781,3141.059,3111.781L3141.059,3111.781z"/>
		<path id="path28" fill="#C91F27" d="M3496.988,2971.435c-0.579,0.868-2.46,1.447-4.051,1.302c-1.736-0.145-4.775,0.289-6.8,1.157
			c-2.025,0.723-21.414,3.906-43.117,6.945l-39.5,5.354l-3.472-3.183c-5.932-5.643-23.005-6.945-31.831-2.604
			c-7.09,3.617-10.852,9.115-14.614,21.124c-4.051,13.022-4.051,23.729,0.289,29.805c1.592,2.315,2.025,8.971,2.025,31.831
			c0,25.465-0.289,29.227-2.459,31.687c-2.025,2.026-2.604,5.354-2.604,13.311s0.579,11.285,2.604,13.311
			c2.17,2.604,2.459,6.8,2.459,42.249c0,36.461-0.145,39.789-2.894,44.998c-4.196,8.103-3.906,21.124,0.434,27.49
			c4.919,7.234,11.575,10.128,23.584,10.128c5.643,0,12.443-0.723,15.192-1.592c11.286-3.906,17.941-17.218,14.324-28.937
			c-1.447-4.485-2.17-17.652-2.459-45.721l-0.579-39.21l4.051-0.868c2.17-0.434,18.665-2.749,36.606-5.208
			c17.941-2.46,33.712-5.064,35.014-5.788c1.447-0.868,7.958-1.447,14.469-1.447c6.656,0,13.6-0.868,15.626-1.881
			c8.392-4.196,13.311-19.533,10.128-31.397c-1.736-6.221-10.273-14.469-15.192-14.469c-1.736,0-3.762-0.724-4.775-1.736
			c-1.157-1.157-2.604-1.302-4.919-0.145c-7.524,3.617-20.979,6.366-51.074,10.562c-17.507,2.46-33.567,4.775-35.738,5.209
			l-4.051,0.868v-25.465c0-25.176,0-25.465,3.328-26.043c1.736-0.434,15.626-2.46,30.674-4.485
			c15.192-2.026,28.503-4.341,29.805-4.919c1.158-0.723,3.906-1.013,5.932-0.579c2.025,0.434,4.196,0,4.63-0.868
			c0.723-1.013,7.379-1.592,18.086-1.592c15.337,0,17.652-0.289,21.992-3.328c2.749-1.736,6.077-5.643,7.668-8.826
			c3.183-6.511,3.472-18.954,0.724-24.886c-2.604-5.353-11.43-10.996-17.507-11.43c-2.604-0.145-6.222-0.868-7.813-1.447
			C3499.303,2970.133,3497.567,2970.422,3496.988,2971.435L3496.988,2971.435z"/>
		<path id="path30" fill="#C91F27" d="M814.496,2975.92c-13.89,1.302-45.287,7.524-54.692,10.852
			c-5.064,1.736-5.932,1.736-9.694-1.013c-9.115-6.8-27.924-4.775-36.316,3.906c-4.775,4.919-4.919,5.498-4.485,14.758
			c0.145,5.354,0.723,53.389,1.013,106.924c0.723,95.493,0.723,97.374-2.17,102.004c-3.617,5.932-3.907,19.533-0.723,25.754
			c1.302,2.46,4.775,5.643,7.958,7.234c11.43,5.788,45.866,3.183,83.774-6.366c8.247-2.17,15.771-4.341,16.639-4.919
			c0.868-0.434,1.881-1.013,2.315-1.157c0.434,0,3.907-1.447,7.668-3.183c3.907-1.736,7.668-3.183,8.537-3.183
			c4.341,0,40.657-23.873,47.313-30.963c2.026-2.026,4.196-3.762,5.209-3.762c1.591,0,9.405-8.247,9.405-10.128
			c0-0.579,1.013-2.026,2.46-3.039c3.328-2.894,13.89-19.677,16.639-26.622c3.472-8.826,5.932-26.333,4.919-35.014
			c-1.736-14.469-9.839-28.793-21.269-37.474c-4.775-3.473-18.52-9.115-26.044-10.707l-8.102-1.592l7.668-7.813
			c4.63-4.775,9.405-11.719,12.154-17.652c2.46-5.498,5.064-10.996,5.787-12.298c0.723-1.447,1.013-3.472,0.579-4.63
			c-0.434-1.157-0.145-2.46,0.723-3.038c2.026-1.157,2.026-10.417,0.145-11.575c-0.868-0.579-1.447-1.736-1.302-2.604
			c0.579-3.472-3.328-10.562-9.26-16.639c-8.537-8.826-18.23-13.311-33.567-15.626
			C833.595,2974.184,833.45,2974.184,814.496,2975.92z M842.276,3021.207c3.038,1.592,3.038,1.736,0.868,6.366
			c-5.498,11.43-30.529,29.371-49.917,35.882c-5.787,2.026-11.864,4.196-13.456,4.919c-3.328,1.592-14.758,4.196-18.375,4.341
			c-2.315,0-2.604-1.881-2.604-18.665v-18.665l6.945-2.894c3.762-1.592,10.707-3.907,15.482-5.209
			c4.775-1.302,9.694-2.894,10.852-3.328c1.157-0.579,2.894-1.157,3.617-1.157c0.868-0.145,2.46-0.723,3.762-1.302
			C807.406,3018.024,835.62,3017.735,842.276,3021.207z M854.14,3110.768c16.06,3.328,21.269,10.996,16.784,24.741
			c-1.447,4.051-4.341,9.839-6.656,13.022c-4.63,6.366-19.099,19.099-24.452,21.558c-2.026,1.013-8.537,4.63-14.469,8.103
			s-13.745,7.668-17.362,9.115c-8.826,3.906-31.108,10.707-39.065,12.009c-3.617,0.579-7.379,1.736-8.247,2.46
			c-1.447,1.157-1.881-6.945-1.881-39.644c0-30.674,0.434-41.67,1.881-43.551c2.315-3.183,25.176-7.958,45.721-9.549
			C823.611,3107.585,842.565,3108.308,854.14,3110.768z"/>
		<path id="path32" fill="#C91F27" d="M1127.887,2975.775c-7.234,1.592-14.035,7.09-16.928,14.035
			c-2.315,5.498-2.604,14.035-0.579,17.796c1.013,1.881,1.447,31.831,1.447,84.208v81.458l-4.919,6.8
			c-4.341,5.643-16.205,15.626-18.665,15.626c-0.434,0-3.906,1.447-7.813,3.183c-3.762,1.736-7.234,3.183-7.668,3.183
			c-0.434,0.145-1.302,0.579-2.17,1.157c-3.038,1.881-18.954,4.051-29.516,4.051c-15.626-0.145-21.848-1.736-26.622-7.524
			l-4.051-4.775l0.145-98.677v-98.531l-3.183-5.643c-4.775-8.537-8.392-11.864-14.613-13.601
			c-11.864-3.183-29.805,5.064-30.095,13.745c0,1.592,0,49.628,0.145,106.49l0.145,103.451l3.473,9.983
			c1.881,5.498,4.63,10.996,6.077,12.443c1.447,1.447,3.617,3.762,4.919,5.209c6.656,7.813,19.967,15.047,34.435,18.809
			c7.524,1.881,14.324,2.17,34.725,1.592c34.87-0.868,51.943-5.643,72.488-20.111c4.919-3.328,10.273-6.945,11.72-7.813
			c3.473-2.026,17.073-15.481,17.218-16.928c0-0.724,1.591-3.328,3.472-5.788c7.524-9.839,7.379-7.524,8.392-103.74
			c0.579-49.772,1.302-94.046,1.447-98.387c0.289-9.405-2.749-16.35-8.826-19.388
			C1147.131,2975.196,1135.7,2974.184,1127.887,2975.775L1127.887,2975.775z"/>
		<path id="path34" fill="#C91F27" d="M1237.994,2975.775c-14.469,3.328-20.69,13.601-17.941,28.937
			c1.447,7.958,1.447,7.958-3.907,13.311c-2.894,3.038-5.209,6.077-5.209,6.8s-0.434,1.881-1.013,2.46
			c-0.724,0.579-1.157,4.485-1.157,8.826c0,8.392,4.485,17.652,10.128,20.69c2.894,1.591,2.894,2.894,2.894,76.539
			c0,65.688-0.289,75.671-2.315,80.59c-4.63,10.996,0.145,26.478,9.115,30.24c7.958,3.328,25.031,2.894,32.699-0.868
			c5.353-2.604,6.8-4.196,8.971-10.273c2.315-6.366,2.315-8.392,0.868-16.928c-1.157-6.077-1.591-20.256-1.302-38.921l0.434-29.227
			l10.996,9.694c5.932,5.498,27.056,24.163,47.023,41.67c19.822,17.363,39.355,35.159,43.261,39.21
			c9.549,9.839,11.575,10.707,25.031,10.707c12.443,0,17.941-2.46,23.873-10.417c5.498-7.524,5.643-23.439,0.145-29.805
			c-2.604-3.183-10.996-7.958-14.469-8.247c-2.894-0.145-9.405-5.209-44.708-35.159c-19.388-16.494-39.933-33.567-45.432-37.908
			c-5.643-4.341-10.128-8.247-10.273-8.681c0-0.434,3.762-1.592,8.392-2.749c8.247-1.881,36.75-14.324,37.619-16.35
			c0.289-0.724,1.157-1.157,2.026-1.157c5.932,0,35.882-27.78,40.512-37.619c9.26-19.967,8.971-19.099,8.826-33.423
			c0-12.443-0.434-14.903-4.196-22.282c-9.115-18.086-21.992-27.056-42.972-29.661c-23.005-2.894-54.836,3.328-76.973,15.048
			l-7.09,3.906l-2.46-4.775c-3.617-7.09-10.417-12.732-16.639-14.324C1246.241,2974.184,1244.505,2974.184,1237.994,2975.775
			L1237.994,2975.775z M1348.824,3019.905c3.038,0.579,4.63,2.17,5.932,5.788c1.447,4.341,1.447,5.787-1.013,11.285
			c-1.591,3.473-4.775,8.537-7.379,11.43c-6.511,7.379-28.793,22.426-41.815,27.925c-14.613,6.366-21.848,9.26-23.15,9.405
			c-0.579,0.145-1.736,0.868-2.749,1.736c-1.013,0.723-2.46,1.013-3.183,0.579c-0.724-0.579-1.736-0.289-2.315,0.579
			c-2.749,4.485-3.617-0.723-3.617-23.584v-24.886l8.392-3.907c4.485-2.17,12.877-5.643,18.375-7.668
			c5.643-2.026,11.141-4.196,12.298-4.63c2.749-1.157,2.315-1.013,11.575-3.038
			C1333.921,3017.879,1337.538,3017.735,1348.824,3019.905z"/>
		<path id="path36" fill="#C91F27" d="M2004.11,2975.92c-7.379,1.736-11.864,4.919-15.626,10.996
			c-2.749,4.341-3.038,6.366-2.315,15.481c0.868,10.128,0.724,10.707-2.894,14.035c-2.026,1.881-4.63,5.498-5.643,8.103
			c-4.341,10.128-1.013,26.767,6.077,31.542l3.473,2.315l-0.724,77.697c-0.289,42.683-0.868,82.471-1.013,88.114
			c-0.434,10.417-0.434,10.562,5.064,15.916l5.353,5.498h14.903c11.864,0,15.771-0.579,18.809-2.604
			c5.932-3.906,8.681-11.719,7.524-21.992c-0.579-4.775-1.302-23.729-1.592-41.959l-0.723-33.278l7.668,7.379
			c4.196,4.051,24.597,22.282,45.287,40.367c20.69,18.23,42.538,37.763,48.615,43.551c12.009,11.575,15.337,12.877,30.674,11.864
			c11.864-0.723,18.665-5.064,21.848-14.179c2.894-8.247,2.894-16.35,0-22.427c-2.749-5.932-12.443-12.877-16.35-11.864
			c-1.881,0.434-4.919-1.013-9.115-4.485c-3.472-2.894-21.558-18.375-40.223-34.291c-18.665-15.916-37.474-31.831-41.525-35.303
			c-4.196-3.328-7.668-6.656-7.668-7.379c0-0.579,2.17-1.591,4.775-2.026c2.46-0.434,11.43-3.617,19.822-7.09
			c34.87-14.324,62.794-40.368,68.871-64.675c3.473-13.89,2.315-30.529-3.038-41.38c-4.485-9.115-13.022-19.388-16.205-19.388
			c-1.013,0-1.881-0.579-1.881-1.302s-4.63-2.749-10.417-4.63c-15.047-4.774-36.606-4.485-58.164,0.724
			c-8.681,2.026-18.665,5.208-22.426,6.945c-3.617,1.736-6.945,3.183-7.379,3.328c-0.434,0-2.749,1.302-5.353,2.604
			c-5.932,3.183-5.787,3.183-6.945-1.881c-1.447-6.945-6.077-11.286-14.035-13.745
			C2013.37,2974.039,2012.068,2974.039,2004.11,2975.92L2004.11,2975.92z M2111.757,3019.181c5.498,0,9.983,4.63,9.983,10.128
			c0,15.916-26.912,38.052-62.939,52.087c-4.775,1.881-9.405,3.906-10.273,4.63c-0.868,0.579-4.196,2.026-7.524,3.183l-6.077,2.17
			v-25.899c0-16.35,0.579-26.044,1.447-26.044c0.724,0,7.813-2.894,15.482-6.221c18.954-8.537,19.677-8.681,21.848-8.392
			c0.868,0.145,1.736-0.434,1.736-1.447c0-0.868,1.013-1.157,2.315-0.723c1.302,0.579,3.183,0.289,4.196-0.579
			c1.881-1.592,20.545-4.341,23.584-3.472C2106.693,3018.892,2109.442,3019.181,2111.757,3019.181L2111.757,3019.181z"/>
		<path id="path38" fill="#C91F27" d="M2325.025,2975.775c-17.652,2.026-39.933,8.826-45.576,13.745
			c-1.158,1.013-5.498,3.617-9.694,5.643c-4.051,2.17-11.141,7.234-15.916,11.286c-8.102,7.09-21.992,22.571-22.137,24.597
			c0,0.579-2.315,4.775-5.064,9.405c-8.536,14.035-11.43,25.031-11.575,42.393c0,8.537,0.868,18.086,1.881,21.848
			c3.038,10.128,11.286,20.112,20.979,25.031c7.524,3.907,10.128,4.341,25.031,4.919c9.549,0.434,20.401,0,25.609-1.013
			c12.009-2.315,46.155-11.72,48.181-13.311c0.868-0.723,2.026-0.868,2.459-0.289c0.579,0.434,1.736,0.145,2.749-0.724
			c2.604-2.17,18.809-4.775,29.805-5.064c8.826,0,9.694,0.145,13.456,4.485c3.472,3.906,4.196,5.932,4.196,12.298
			c0,17.507-8.103,33.133-23.439,46.01c-10.562,8.826-17.941,13.022-31.542,18.375c-5.932,2.315-12.154,4.775-13.745,5.354
			c-1.592,0.723-3.183,1.302-3.617,1.302c-0.434,0.145-1.592,0.723-2.749,1.447c-1.013,0.723-9.405,1.592-18.375,2.026
			l-16.494,0.723l-4.775-5.064c-3.183-3.328-5.932-8.681-8.247-16.35c-2.604-8.537-5.064-13.167-9.549-17.941
			c-5.643-6.077-6.511-6.511-14.903-7.09c-7.958-0.579-9.549-0.145-14.614,3.328c-9.694,6.656-12.298,12.443-12.298,26.767
			c0.145,16.205,4.051,25.031,17.652,38.631c17.218,17.507,29.95,21.414,65.543,20.256c17.652-0.579,25.176-1.592,35.448-4.341
			c16.784-4.63,18.086-5.209,32.699-13.311c6.656-3.762,13.89-7.813,15.916-8.826c6.511-3.473,26.333-21.558,32.555-29.661
			c8.102-10.562,15.916-27.49,18.086-38.921c0.868-5.209,2.315-9.983,2.894-10.852c1.881-1.881,1.592-32.12-0.145-33.278
			c-0.868-0.579-1.157-1.447-0.723-2.17c1.447-2.315-8.247-18.809-14.613-24.597c-5.498-5.064-10.273-7.668-26.188-14.903
			c-1.592-0.723-3.762-0.868-4.63-0.434c-0.868,0.579-1.592,0.434-1.592-0.289c0-1.592-22.861-3.472-25.176-2.17
			c-0.868,0.579-3.906,0.868-6.945,0.579c-3.038-0.145-6.222,0.145-7.234,0.868c-1.013,0.579-3.183,1.157-4.775,1.157
			c-1.592,0-3.472,0.434-4.341,1.013c-0.723,0.434-5.064,1.592-9.405,2.604c-10.417,2.315-47.891,12.877-50.64,14.179
			c-1.158,0.579-4.775,1.013-7.958,1.013c-7.234,0-9.839-4.196-8.537-13.745c1.302-9.694,6.945-18.954,18.52-30.095
			c9.26-8.971,26.912-20.256,30.384-19.388c0.579,0.29,1.881-0.289,2.894-1.013c2.749-2.315,22.861-4.196,30.818-3.038
			c9.549,1.591,12.443,3.183,17.218,9.549c5.932,7.813,11.141,9.839,24.163,9.839c12.443,0,17.362-2.46,21.124-9.839
			c2.894-6.221,2.604-19.822-0.723-25.609c-6.222-10.562-23.584-20.835-43.261-25.754
			C2355.265,2975.197,2336.311,2974.473,2325.025,2975.775L2325.025,2975.775z"/>
		<path id="path40" fill="#C91F27" d="M3588.285,2975.92c-13.6,3.328-18.954,11.285-17.796,26.767
			c0.723,9.839,0.579,10.562-2.894,13.89c-5.064,4.63-7.668,11.285-7.668,19.967c0,8.247,4.051,17.797,8.681,20.256
			c2.894,1.591,2.894,2.459,2.315,78.565c-0.289,42.393-1.013,81.604-1.592,87.391l-1.013,10.417l5.788,6.221l5.932,6.222
			l12.009,0.434c14.179,0.579,21.992-1.591,26.333-7.379c2.46-3.328,3.039-5.787,2.604-13.745
			c-1.302-36.027-1.592-76.973-0.579-76.973c0.723,0,2.315,1.013,3.328,2.46c1.157,1.302,23.584,21.414,49.772,44.563
			c26.333,23.294,49.194,43.985,50.93,46.01c7.379,8.681,27.056,11.141,39.5,4.919c5.498-2.749,6.945-4.341,9.115-10.417
			c1.592-4.63,2.315-10.128,2.025-15.047c-0.579-7.234-1.157-8.392-7.379-14.324c-5.209-4.919-7.668-6.221-10.417-5.643
			c-1.881,0.29-3.472,0-3.472-0.579c0-0.723-0.724-1.302-1.592-1.302s-10.707-7.813-21.992-17.507
			c-11.286-9.549-32.121-27.201-46.155-39.21c-14.179-12.009-25.754-22.282-25.754-22.861c0-0.579,2.17-1.592,4.775-2.026
			c9.549-1.881,35.303-13.456,46.01-20.69c32.265-21.848,46.01-44.274,44.274-72.054c-1.881-29.95-18.375-45.866-50.93-49.194
			c-18.665-1.736-57.875,6.656-73.646,15.916c-7.379,4.341-8.103,4.341-8.103,1.013c0-3.906-5.353-11.575-9.694-13.89
			C3605.359,2975.341,3595.086,2974.184,3588.285,2975.92L3588.285,2975.92z M3702.009,3020.918
			c3.617,1.736,4.775,7.668,2.749,14.035c-4.196,14.034-29.661,33.712-58.453,45.142c-12.588,5.064-13.311,5.354-14.179,5.064
			c-0.434,0-1.736,0.579-2.894,1.591c-1.158,0.868-3.906,2.315-6.077,3.183l-3.906,1.591v-26.043
			c0-21.558,0.289-26.044,2.026-26.044c1.157,0,7.524-2.604,14.179-5.787c6.656-3.328,15.626-6.945,19.967-8.103
			c4.341-1.157,9.26-2.894,10.851-3.617C3673.361,3018.458,3696.077,3017.735,3702.009,3020.918z"/>
		<path id="path42" fill="#C91F27" d="M3829.044,2975.631c-3.617,0.579-8.392,2.026-10.851,3.328
			c-9.405,5.064-14.614,18.23-10.996,27.635c2.459,6.366,2.315,203.719-0.145,205.166c-1.157,0.724-1.881,4.63-1.881,10.562
			c0,10.417,2.315,15.047,10.852,20.835c4.051,2.604,6.656,3.183,16.928,3.183c7.089,0,14.034-0.868,16.928-2.026
			c6.222-2.604,11.864-10.128,11.286-14.758c-0.289-1.881,0.289-3.473,1.157-3.473c0.868,0,1.158-0.723,0.434-1.881
			c-0.579-0.868-1.013-3.038-1.158-4.63c0-1.736-1.157-4.775-2.459-6.945c-2.46-3.472-2.604-10.852-2.604-100.123v-96.217
			l3.906-6.221c6.8-10.707,3.472-26.767-6.8-32.121C3848.721,2975.341,3837.436,2974.328,3829.044,2975.631L3829.044,2975.631z"/>
		<path id="path44" fill="#C91F27" d="M4245.742,2975.775c-32.844,3.328-61.781,19.099-84.642,45.866
			c-7.234,8.392-18.375,25.899-18.809,29.371c0,0.434-0.869,2.026-1.736,3.617c-2.894,5.209-5.209,23.294-4.485,34.869
			c1.302,22.716,11.43,36.895,30.239,42.683c8.971,2.749,12.443,3.038,28.648,2.315c18.52-0.868,43.406-6.221,62.36-13.601
			c1.157-0.579,2.459-1.013,2.894-1.157c0.434-0.145,1.736-0.579,2.894-1.013c10.852-4.196,37.33-5.498,42.538-2.026
			c6.945,4.485,5.932,26.188-1.736,40.512c-4.919,8.97-22.571,25.465-34.291,32.12c-5.064,2.749-13.311,6.366-18.375,8.103
			c-4.919,1.592-9.983,3.617-10.996,4.485c-1.013,0.724-2.17,1.013-2.749,0.579c-0.434-0.579-1.881-0.289-2.894,0.723
			c-1.158,0.868-8.826,1.881-17.507,2.315c-14.324,0.579-15.771,0.29-19.533-2.604c-4.485-3.617-8.826-11.286-10.417-18.809
			c-1.592-7.813-5.787-15.047-11.575-19.967c-4.341-3.906-6.366-4.63-12.298-4.63c-3.907,0-8.826,0.723-11.141,1.592
			c-4.774,1.736-12.009,8.247-12.009,10.852c0,1.013-0.868,2.026-1.736,2.459c-1.302,0.29-1.881,4.63-1.881,14.903
			c0,17.507,2.604,23.873,15.626,37.763c15.916,17.073,29.95,22.137,60.479,22.137c46.589,0,80.446-14.034,113.579-46.878
			c14.468-14.469,16.205-16.928,25.609-38.487c3.328-7.524,5.209-17.218,6.222-31.542c2.17-29.805-9.26-51.509-31.542-59.611
			c-4.919-1.881-9.839-3.907-10.852-4.63c-1.013-0.868-2.459-1.013-3.183-0.579c-0.723,0.579-1.881,0.145-2.315-0.723
			c-0.579-0.868-4.196-1.302-8.103-1.157c-3.907,0.29-7.524,0-8.103-0.579c-1.302-1.447-22.427,0.434-24.597,2.17
			c-0.869,0.723-2.894,1.157-4.341,0.868c-1.447-0.145-3.183,0-4.051,0.579c-0.724,0.434-7.379,2.17-14.614,3.907
			c-7.234,1.592-15.916,4.051-19.243,5.064c-3.183,1.157-10.273,3.183-15.626,4.63c-5.498,1.302-10.272,2.749-10.851,3.328
			c-0.579,0.434-4.341,0.579-8.247,0.434c-7.09-0.579-7.379-0.723-8.247-5.498c-2.026-11.286,3.762-23.584,17.796-37.763
			c5.788-5.788,12.153-10.852,14.179-11.43c2.025-0.434,3.617-1.447,3.617-2.17c0-0.724,0.579-1.302,1.302-1.302
			c0.723,0,3.762-1.157,6.8-2.46c3.183-1.302,5.932-2.46,6.366-2.604c0.434,0,1.447-0.434,2.17-0.868
			c3.039-1.881,11.141-3.038,22.426-3.038c13.167,0,22.861,3.617,25.32,9.26c4.63,10.417,29.661,14.614,40.078,6.656
			c4.051-3.183,8.392-12.588,8.392-18.375C4332.553,2990.823,4290.305,2971,4245.742,2975.775L4245.742,2975.775z"/>
		<path id="path46" fill="#C91F27" d="M1768.705,2977.078c-11.141,2.315-17.073,8.392-18.809,19.099
			c-0.723,4.341-1.881,10.417-2.749,13.601c-2.026,7.813-0.579,17.362,3.617,22.427c3.473,3.906,3.473,4.63,3.473,33.857
			c0,24.452-0.434,30.818-2.315,35.303c-3.183,7.09-3.183,21.414-0.145,27.346c2.17,4.051,2.46,9.983,2.46,43.551
			c0,30.963-0.434,40.223-2.17,45.142c-2.749,7.813-2.749,12.298,0.145,20.69c2.026,5.788,3.328,7.234,8.537,9.694
			c7.668,3.472,21.848,3.906,31.252,0.868c3.906-1.302,28.937-3.473,65.688-5.932c32.699-2.026,62.649-4.485,66.845-5.209
			c13.745-2.604,21.703-15.916,17.797-29.227c-2.604-8.97-5.353-12.588-12.009-15.626c-7.379-3.328-15.481-3.472-24.163-0.579
			c-5.498,1.736-83.484,8.102-99.4,7.958h-4.775v-32.989v-32.989l37.329-4.051c20.401-2.17,42.827-4.051,49.628-3.907
			c10.707,0.145,13.022-0.289,17.218-3.038c8.247-5.498,11.575-11.864,11.575-21.703c0-14.179-5.932-21.414-19.967-24.452
			c-5.932-1.157-9.115-1.013-16.35,0.723c-4.919,1.302-18.23,3.328-29.371,4.63c-11.286,1.157-21.414,2.604-22.571,3.038
			c-1.158,0.434-4.919,0.723-8.102,0.579c-3.328-0.145-6.511,0.29-7.09,1.158c-0.434,0.868-3.473,1.591-6.656,1.591h-5.643
			l0.289-27.201l0.434-27.056l44.129-3.183c27.49-1.881,44.998-2.604,46.589-1.736c3.328,1.736,21.703,1.592,26.767-0.29
			c9.26-3.472,16.205-14.469,16.35-25.465c0-7.668-2.026-13.022-6.945-18.23c-8.392-8.97-19.099-11.141-31.831-6.8
			c-6.656,2.315-18.665,3.762-51.798,6.366l-43.117,3.328l-4.485-4.63C1792.289,2977.222,1780.859,2974.763,1768.705,2977.078
			L1768.705,2977.078z"/>
		<path id="path48" fill="#C91F27" d="M3928.155,2977.222c-10.417,1.881-16.061,8.247-17.363,19.677
			c-0.579,4.775-1.881,9.983-3.039,11.719c-3.039,4.919-2.459,12.877,1.592,19.099c1.881,3.183,4.196,6.077,5.064,6.656
			c0.868,0.579,1.447,11.72,1.447,30.963c0,27.056-0.289,30.818-2.894,36.461c-3.762,8.392-3.762,19.243,0,26.623
			c2.604,5.209,2.894,8.537,2.894,43.551c0,30.384-0.434,38.921-2.17,42.972c-2.749,6.656-2.749,18.375-0.145,24.886
			c3.183,7.524,9.694,10.852,21.703,10.852c5.498,0,13.311-1.013,17.363-2.17c4.485-1.302,29.371-3.472,63.807-5.787
			c69.305-4.485,70.896-4.63,75.671-7.09c8.247-4.341,10.997-8.971,11.575-19.388c0.434-8.826,0.145-10.128-3.617-15.047
			c-8.103-10.417-19.678-13.89-31.831-9.26c-3.472,1.302-19.967,3.038-44.563,4.485c-21.414,1.302-40.078,2.749-41.236,3.183
			c-1.157,0.434-5.932,0.868-10.562,0.868l-8.247,0.289v-33.712c0-30.963,0.145-33.567,2.604-33.567
			c1.302,0,14.179-1.302,28.503-3.038c14.324-1.592,35.882-3.328,48.036-4.051c22.716-1.157,28.214-2.749,30.384-8.536
			c0.579-1.302,1.881-3.328,2.894-4.341c1.013-1.157,1.592-2.46,1.158-3.183c-0.434-0.723-0.145-1.591,0.723-2.17
			c0.723-0.434,1.447-4.051,1.447-7.958s-0.723-7.524-1.447-7.958c-0.868-0.579-1.158-1.447-0.868-2.026
			c0.868-1.302-7.234-9.26-12.009-11.72c-4.919-2.46-18.086-2.315-29.082,0.29c-5.209,1.302-17.507,3.038-27.49,4.051
			c-9.983,0.868-19.099,2.026-20.256,2.46c-1.157,0.434-4.196,0.724-6.656,0.579c-2.604-0.145-5.064,0.289-5.643,1.157
			c-0.434,0.868-3.472,1.592-6.656,1.592h-5.643l0.289-27.201l0.434-27.056l42.683-3.038c25.465-1.881,43.985-2.604,46.01-1.736
			c1.881,0.579,7.958,1.157,13.456,1.157c14.034,0,22.281-3.762,26.043-12.009c1.447-3.328,2.749-7.379,2.749-9.115
			c0-1.591,0.723-3.617,1.736-4.63c1.302-1.302,1.302-2.46,0.145-4.919c-0.869-1.881-2.026-5.064-2.46-7.09
			c-1.013-5.064-5.932-10.996-11.286-13.745c-5.932-3.038-20.98-3.183-26.622-0.145c-3.472,1.736-14.469,3.038-44.853,5.353
			c-22.282,1.592-42.104,3.617-44.274,4.196c-3.472,1.157-4.485,0.723-7.234-2.749c-1.881-2.17-4.919-4.919-6.945-6.222
			C3948.844,2976.788,3937.27,2975.631,3928.155,2977.222L3928.155,2977.222z"/>
		<path id="path50" fill="#C91F27" d="M2824.339,3052.604c-3.038,0.723-7.379,2.604-9.694,4.341
			c-7.958,5.643-8.392,7.958-7.524,39.934c0.723,24.886,0.579,29.95-1.592,35.014c-2.894,7.524-3.038,14.903-0.145,20.546
			c1.881,3.617,2.17,9.26,1.736,35.014c-0.434,16.784-1.158,33.423-1.736,36.895c-1.736,10.273,0,15.048,6.8,19.533
			c5.209,3.328,7.668,3.907,16.639,3.907c13.311,0,20.545-2.894,24.018-9.694c2.17-4.341,2.459-9.839,2.459-48.036
			c0-36.895,0.289-43.406,2.17-44.129c1.157-0.434,11.286-7.668,22.427-16.06c10.996-8.392,20.835-15.192,21.703-15.192
			c0.723,0,1.447-0.724,1.447-1.447c0-0.868,0.723-1.447,1.591-1.447c0.724,0,3.906-1.592,6.8-3.617s6.222-3.617,7.234-3.617
			c1.592,0,1.736,10.852,1.157,59.611c-0.289,32.844-0.723,61.926-0.723,64.53c-0.289,13.167,7.09,19.099,23.873,19.099
			c11.43,0,17.363-2.46,21.992-9.26l3.328-4.919l-0.145-77.552c0-48.325-0.579-78.999-1.592-81.314
			c-2.604-7.234-10.128-14.903-18.086-18.809c-17.797-8.681-35.738-4.051-64.964,16.928c-9.26,6.656-19.388,13.89-22.427,16.06
			l-5.498,4.051l0.724-13.456c0.868-15.192-1.013-21.124-7.958-24.597C2843.004,3052.17,2831.14,3051.012,2824.339,3052.604z"/>
		<path id="path52" fill="#C91F27" d="M2683.849,3053.906c-20.835,1.736-40.657,6.366-48.036,10.996
			c-1.881,1.157-3.328,1.881-3.328,1.592s-7.958,3.472-17.652,8.247c-20.979,10.417-24.307,14.035-24.307,26.478
			c0,4.341,1.013,9.694,2.17,12.009c5.208,9.983,18.23,15.047,30.24,11.575c6.366-1.736,15.916-9.694,17.507-14.324
			c0.579-2.026,15.916-10.562,19.533-10.996c0.434,0,1.447-0.434,2.17-0.868c4.63-2.749,31.252-5.932,39.065-4.63l5.209,0.868
			l-0.434,9.405l-0.434,9.549l-10.852,1.736c-13.456,2.17-34.58,7.379-36.75,9.115c-0.868,0.723-7.379,3.762-14.613,6.656
			c-25.176,10.273-49.049,29.95-60.479,49.627c-2.894,4.919-5.208,9.549-5.064,10.128c0.145,0.579-0.723,2.894-1.736,5.353
			c-2.604,6.077-2.46,26.188,0.289,32.699c3.328,7.668,10.562,15.192,18.086,18.809c5.354,2.604,10.128,3.328,24.597,4.051
			c9.983,0.434,18.375,0.434,18.665,0c0.289-0.579,3.617-1.302,7.379-1.881c10.128-1.302,37.908-13.89,47.891-21.703
			c4.775-3.617,8.97-6.656,9.405-6.656c0.289,0,1.013,3.472,1.447,7.813c1.591,15.048,7.09,18.809,26.478,18.086
			c10.996-0.434,13.89-1.157,18.23-4.196c6.366-4.196,9.26-11.719,7.669-19.677c-0.579-3.183-1.447-36.316-2.026-73.646
			c-0.868-67.135-0.868-68.147-4.196-74.803C2740.855,3056.944,2721.033,3050.578,2683.849,3053.906L2683.849,3053.906z
			 M2706.275,3154.897c0,0.723-1.013,4.196-2.315,7.958c-1.736,5.064-4.919,9.26-12.732,16.494
			c-5.787,5.498-12.443,10.852-14.758,12.009c-2.315,1.157-9.26,4.919-15.481,8.392c-16.928,9.549-36.606,14.758-39.355,10.417
			c-2.604-4.196,9.549-20.112,24.018-31.252c7.668-5.932,27.925-16.494,31.397-16.494c0.723,0,3.906-1.157,6.945-2.459
			c3.183-1.302,6.077-2.315,6.656-2.17c0.579,0.145,2.749-0.723,5.064-1.881C2700.054,3153.595,2706.275,3153.017,2706.275,3154.897
			L2706.275,3154.897z"/>
		<path id="path3865" fill="#C91F27" d="M4930.433,2196.625c11.63,0,22.788,2.886,33.473,8.659
			c10.685,5.773,19.083,14.052,25.193,24.835c6.11,10.784,9.165,22.066,9.166,33.847c0,11.722-2.996,22.901-8.988,33.539
			c-5.992,10.638-14.346,18.931-25.061,24.88c-10.715,5.949-21.976,8.923-33.783,8.923c-11.808,0-23.068-2.974-33.784-8.923
			s-19.068-14.242-25.061-24.88c-5.992-10.637-8.988-21.817-8.988-33.539c0-11.781,3.055-23.063,9.165-33.847
			c6.11-10.784,14.508-19.062,25.194-24.835C4907.645,2199.511,4918.802,2196.625,4930.433,2196.625L4930.433,2196.625z
			 M4930.521,2209.812c-9.328,0-18.271,2.315-26.832,6.945c-8.56,4.63-15.305,11.282-20.234,19.956
			c-4.93,8.674-7.395,17.759-7.395,27.253c0,9.436,2.406,18.432,7.217,26.989c4.812,8.557,11.527,15.239,20.146,20.044
			c8.619,4.806,17.651,7.209,27.098,7.209c9.504,0,18.552-2.403,27.141-7.209c8.59-4.806,15.305-11.487,20.146-20.044
			c4.841-8.557,7.261-17.553,7.261-26.989c0-9.495-2.465-18.579-7.395-27.253c-4.929-8.674-11.689-15.326-20.279-19.956
			C4948.807,2212.127,4939.848,2209.812,4930.521,2209.812L4930.521,2209.812z M4899.793,2300.011v-71.474h14.611
			c13.697,0,21.371,0.059,23.024,0.176c4.841,0.41,8.604,1.363,11.291,2.857c2.686,1.495,4.929,3.78,6.73,6.857
			c1.801,3.077,2.701,6.491,2.701,10.242c0,5.158-1.697,9.568-5.092,13.231c-3.395,3.663-8.161,5.934-14.301,6.813
			c2.185,0.821,3.867,1.714,5.047,2.681s2.804,2.799,4.871,5.494c0.531,0.703,2.302,3.604,5.313,8.704l8.501,14.418h-18.065
			l-6.022-11.604c-4.073-7.795-7.438-12.704-10.095-14.726s-6.021-3.033-10.095-3.033h-3.808v29.363H4899.793z M4914.404,2259.395
			h5.933c8.442,0,13.681-0.322,15.718-0.967s3.646-1.773,4.827-3.385c1.18-1.612,1.771-3.443,1.771-5.495
			c0-1.993-0.576-3.766-1.727-5.319c-1.151-1.553-2.79-2.667-4.915-3.341c-2.125-0.674-7.35-1.011-15.674-1.011h-5.933
			L4914.404,2259.395z"/>
	</g>
</g>
<g id="Layer_2_1_">
</g>
</svg>
