<?xml version="1.0" encoding="utf-8"?>
<!-- Generator: Adobe Illustrator 17.0.0, SVG Export Plug-In . SVG Version: 6.00 Build 0)  -->
<!DOCTYPE svg PUBLIC "-//W3C//DTD SVG 1.1//EN" "http://www.w3.org/Graphics/SVG/1.1/DTD/svg11.dtd">
<svg version="1.1" id="Layer_1" xmlns="http://www.w3.org/2000/svg" xmlns:xlink="http://www.w3.org/1999/xlink" x="0px" y="0px"
	 width="612px" height="792px" viewBox="0 0 612 792" enable-background="new 0 0 612 792" xml:space="preserve">
<g>
	<g>
		<path fill="#FEFEFE" d="M493.802,583.802c-125.017,0-250.035,0-375.052,0c0-125.017,0-250.035,0-375.052
			c125.017,0,250.035,0,375.052,0C493.802,333.768,493.802,458.785,493.802,583.802z M355.722,309.278
			c-0.23-0.25-0.459-0.501-0.689-0.751c-0.239-0.259-0.478-0.518-0.717-0.777c-0.252-0.272-0.505-0.544-0.757-0.816
			c-0.106-0.235-0.213-0.471-0.319-0.706c-0.166-0.185-0.331-0.371-0.497-0.556l-0.093-0.109c-0.464-0.496-0.928-0.992-1.392-1.488
			l-0.034-0.041c-0.482-0.5-0.965-1-1.447-1.501c-1.205-1.246-2.41-2.492-3.615-3.739c-0.311-0.443-0.623-0.886-0.934-1.33
			c-1.165-1.205-2.33-2.409-3.495-3.614c-1.376-1.34-2.752-2.681-4.129-4.021c-0.612-0.484-1.224-0.969-1.835-1.453
			c-0.58-0.525-1.161-1.051-1.741-1.576c-0.491-0.286-0.981-0.572-1.472-0.859c-7.164-6.047-15.322-9.697-24.757-10.263
			c-1.263-0.017-2.527-0.034-3.79-0.051c-0.732,0.022-1.465,0.043-2.197,0.065c-0.796,0.068-1.592,0.135-2.387,0.203
			c-0.692,0.133-1.384,0.266-2.076,0.399l-0.057,0.018c-0.739,0.054-1.477,0.108-2.216,0.162c-0.557,0.079-1.115,0.158-1.672,0.238
			c-0.452-0.168-0.905-0.336-1.357-0.504l0.024,0.023c-0.505-0.756-1.009-1.512-1.514-2.268l0.014,0.018
			c-0.391-0.591-0.782-1.183-1.173-1.774c0,0-0.065-0.075-0.065-0.075c-0.598-0.389-1.195-0.778-1.793-1.167
			c-0.272-0.229-0.543-0.458-0.815-0.688c-0.643-0.345-1.287-0.69-1.93-1.035c0,0-0.041,0.054-0.041,0.054
			c-0.329-0.163-0.657-0.327-0.986-0.49c-1.265-0.424-2.53-0.847-3.795-1.271c-0.474-0.04-0.948-0.079-1.423-0.119
			c-1.013-0.009-2.027-0.018-3.04-0.027c-0.24-0.127-0.481-0.13-0.724-0.01c-1.252,0.218-2.505,0.437-3.757,0.655
			c-3.955,0.517-6.732,2.85-9.059,5.877c-4.305,3.287-5.433,8.145-4.973,12.933c0.454,4.721-0.24,8.418-4.051,11.325
			c-0.096,0.073-0.154,0.195-0.231,0.294c-12.308,15.926-14.221,34.094-11.345,53.232c1.693,11.266,5.634,22.248,4.184,33.908
			c-0.043,0.346,0.491,0.763,0.757,1.147c-0.976,2.259-1.951,4.518-2.926,6.774c-2.693,5.429-5.731,10.717-8.007,16.315
			c-4.79,11.779-1.035,18.342,11.415,20.732c0.61,0.117,1.239,0.141,1.861,0.194c12.087,1.028,23.86-0.957,35.421-4.13
			c27.966-7.676,54.214-19.417,79.028-34.347c13.394-8.059,25.897-17.397,36.283-29.144c3.872-4.38,7.311-9.559,9.435-14.967
			c3.013-7.671-0.6-13.723-8.627-15.489c-5.191-1.142-10.626-1.178-15.952-1.709c-0.747-0.226-1.494-0.451-2.242-0.677
			c-1.491-0.506-2.982-1.012-4.472-1.518l-0.016-0.008c-2.742-1.503-5.484-3.005-8.225-4.508c-0.29-0.244-0.579-0.488-0.869-0.732
			c-0.217-0.203-0.434-0.405-0.651-0.608l-0.127-0.122c-0.717-0.706-1.433-1.412-2.15-2.118c-0.286-0.294-0.572-0.588-0.858-0.882
			c-0.399-0.436-0.798-0.871-1.198-1.307c-0.538-0.583-1.076-1.166-1.614-1.749c-0.231-0.359-0.461-0.717-0.692-1.076
			c0.016-0.226-0.087-0.362-0.309-0.406c-0.678-0.752-1.355-1.505-2.033-2.257c-0.792-0.992-1.585-1.983-2.377-2.975
			c-0.214-0.235-0.428-0.471-0.642-0.706L355.722,309.278z M298.742,469.053c0.257,0.257,0.514,0.515,0.771,0.772
			c0.26,0.235,0.52,0.47,0.78,0.705c0.884,0.655,1.681,1.514,2.665,1.935c12.013,5.134,24.473,4.455,36.989,2.653
			c0.658-0.095,1.676-0.93,1.72-1.484c0.191-2.396,0.082-4.816,0.082-7.392c-3.023,0.354-5.441,0.638-7.858,0.921
			c-3.962-0.112-7.974,0.124-11.873-0.43c-4.183-0.595-6.295-3.524-6.347-7.55c-0.05-3.861,1.815-6.66,5.93-7.397
			c4.001-0.717,8.15-0.798,12.235-0.814c5.733-0.023,7.549-1.546,8.161-7.719c-2.447-0.257-4.892-0.577-7.347-0.762
			c-9.741-0.733-19.444-0.669-28.766,2.72c-10.266,3.732-13.649,13.073-8.342,22.506c0.405,0.451,0.811,0.902,1.216,1.352
			L298.742,469.053z M259.061,469.846c0.251-0.264,0.503-0.528,0.754-0.792c5.224-0.001,10.448-0.002,15.672-0.003
			c0.601,1.353,1.05,2.805,1.848,4.029c0.673,1.033,1.719,2.53,2.652,2.569c5.735,0.238,11.484,0.119,18.013,0.119
			c-1.032-1.77-1.619-2.776-2.206-3.783c-4.82-8.976-9.639-17.953-14.459-26.929c-0.977-0.716-1.929-2.008-2.934-2.05
			c-4.461-0.186-8.937-0.014-13.408,0.029c-0.733-0.004-1.466-0.008-2.199-0.012c-2.773,0.336-5.901-1.663-8.283,1.256
			c-0.264,0.496-0.528,0.992-0.792,1.488c-0.178,0.262-0.355,0.524-0.533,0.787c-3.817,7.222-7.634,14.443-11.451,21.665
			c-0.73,1.274-1.459,2.547-2.189,3.821c-0.143,0.213-0.286,0.427-0.429,0.64c-0.422,0.889-0.845,1.777-1.414,2.975
			c5.998,0,11.325,0.056,16.649-0.061c0.791-0.017,1.563-0.856,2.344-1.315c0.074-0.197,0.119-0.4,0.134-0.61
			c0.483-0.792,0.965-1.584,1.448-2.376l-0.003,0.005c0.268-0.493,0.535-0.986,0.803-1.479L259.061,469.846z M402.234,501.32
			c-0.999,0.282-2.57,0.289-2.866,0.908c-0.47,0.981-0.089,2.371-0.068,3.587c0.158,0.696,0.317,1.392,0.475,2.088
			c1.627-0.577,3.712-0.735,4.743-1.859c0.886-0.967,0.57-3.036,0.785-4.618c-0.755,0.024-1.509,0.047-2.263,0.071
			C402.772,501.438,402.503,501.379,402.234,501.32z M282.505,264.955c1.187,0.48,2.375,0.96,3.562,1.44
			c2.656,2.036,5.259,4.148,7.999,6.063c0.907,0.634,2.234,1.202,3.259,1.052c16.181-2.37,30.583,1.804,42.578,12.685
			c9.776,8.869,19.038,18.354,27.994,28.06c6.93,7.51,15.439,10.716,25.213,12.1c-6.052-28.719-36.502-58.273-77.798-62.932
			c-6.508-0.212-13.015-0.424-19.523-0.636c-1.004,0.048-2.009,0.096-3.013,0.144c-3.019,0.385-6.038,0.77-9.058,1.154
			c-0.703,0.109-1.406,0.219-2.708,0.422C281.893,264.772,282.199,264.863,282.505,264.955z M212.217,488.593
			c-0.04,1.223-0.08,2.447-0.119,3.67c-0.023,8.994-0.046,17.988-0.068,26.982c0.413,0.224,0.826,0.449,1.239,0.673
			c1.246-0.012,2.492-0.024,3.738-0.036c1.505-0.001,3.011-0.002,4.516-0.003c8.496,0.001,16.992,0.001,25.488,0.002
			c1.506-0.021,3.012-0.042,4.518-0.063c0.243-0.018,0.486-0.036,0.73-0.054c0.751-0.17,1.501-0.34,2.252-0.511
			c0.243-0.042,0.486-0.083,0.73-0.125c3.8-0.824,6.116-3.194,6.662-6.987c0.609-4.231-1.589-7.051-5.475-8.988
			c3.742-2.395,5.598-5.514,4.286-9.812c-0.788-2.582-2.433-4.287-5.4-4.149c-1.193-0.449-2.379-1.272-3.578-1.291
			c-12.331-0.189-24.665-0.269-36.998-0.298C213.897,487.601,213.057,488.248,212.217,488.593z M361.153,489.284
			c-0.059,8.581-0.184,17.163-0.142,25.744c0.016,3.266,1.858,5.012,5.21,4.997c10.723-0.049,21.447-0.096,32.17-0.144
			c5.406,0.448,4.13-4.741,6.485-6.868c-0.129-0.302-0.258-0.605-0.387-0.908c-7.758,0-15.516,0-24.013,0c0-7.719,0-14.88,0-22.042
			c0.185-1.634,0.192-3.101-2.186-2.321c-5.053-0.061-10.107-0.187-15.157-0.106C362.464,487.648,361.812,488.709,361.153,489.284z
			 M340.688,512.336c-1.841,0.011-3.682,0.022-5.523,0.033l-0.195-0.136c-0.229-1.44-0.641-2.878-0.656-4.321
			c-0.071-6.576-0.031-13.153-0.031-19.674c-6.962,0-13.388,0-20.091,0c0,8.496-0.071,16.715,0.026,24.933
			c0.061,5.186,1.862,6.842,7.068,6.852c9.124,0.018,18.249,0.005,27.373,0.003c6.303-0.002,8.044-1.438,9.678-8.342
			c-1.965,0.263-3.772,0.504-5.58,0.746C348.734,512.399,344.711,512.368,340.688,512.336z M286.747,512.044
			c-0.507-1.391-1.015-2.782-1.757-4.818c7.766,0,14.448,0,21.21,0c0-2.656,0-4.939,0-7.806c-6.244,0-12.107,0.098-17.961-0.096
			c-0.98-0.032-1.919-1.328-2.877-2.039c0.959-0.664,1.893-1.853,2.883-1.901c4.488-0.219,8.992-0.11,13.49-0.131
			c6.758-0.031,6.758-0.035,9.129-7.06c-14.934,0-29.841,0-44.802,0c0,10.669,0,21.094,0,31.613c14.891,0,29.562,0,44.874,0
			c-0.318-2.629-0.602-4.977-0.886-7.326c-0.793-0.066-1.587-0.132-2.38-0.198c-4.928-0.003-9.856-0.006-14.784-0.009
			C290.839,512.196,288.793,512.12,286.747,512.044z M222.271,424.089c1.286-8.382,5.759-15.278,10.241-22.198
			c6.003-9.271,8.256-19.314,6.303-30.321c-1.325-7.468-2.201-15.016-3.279-22.529c-0.042-0.749-0.084-1.498-0.126-2.248
			c-0.004-2.709-0.007-5.418-0.011-8.126c0.061-1.795,0.122-3.591,0.183-5.386c1.664-15.004,6.522-28.548,17.803-39.197
			c0.554-0.523,1.083-1.533,0.981-2.219c-1.139-7.603,0.469-14.476,5.585-20.713c-0.798,0-1.198-0.111-1.497,0.016
			c-18.807,7.992-33.737,20.483-43.552,38.528c-2.766,5.086-4.307,10.838-6.409,16.285c-0.934,4.182-1.868,8.364-2.802,12.546
			c-0.123,1.002-0.247,2.003-0.37,3.005c-0.07,8.713-0.179,17.425-0.201,26.138c-0.045,17.686-0.051,35.373-0.046,53.059
			c0,1.617-0.658,3.69,2.281,3.604C212.323,424.185,217.298,424.163,222.271,424.089z M395.856,371.288
			c-23.555,21.94-48.906,39.976-78.749,52.863c26.839,0,52.711,0,78.749,0C395.856,406.553,395.856,389.257,395.856,371.288z
			 M372.014,476.451c0.079,0.346,0.158,0.692,0.237,1.038c6.492-1.507,13.109-2.624,19.44-4.637
			c5.818-1.849,8.644-6.663,8.816-12.659c0.177-6.17-2.69-10.99-8.313-13.498c-13.17-5.874-26.594-5.667-39.884-0.408
			c-5.797,2.294-8.34,7.069-8.536,13.28c-0.199,6.32,3.048,10.418,8.287,13.085C358.298,475.826,365.066,476.732,372.014,476.451z
			 M231.926,475.635c0-7.413,0.067-14.496-0.04-21.576c-0.034-2.229,0.61-3.215,2.962-3.058c2.361,0.158,4.763,0.228,7.102-0.047
			c1.126-0.132,2.485-0.902,3.146-1.813c1.193-1.644,1.941-3.611,3.071-5.828c-17.364,0-34.307,0-51.717,0
			c0.929,1.869,1.4,3.496,2.407,4.657c1.079,1.242,2.612,2.821,4.036,2.915c9.038,0.596,9.048,0.474,8.997,9.521
			c-0.009,1.622-0.044,3.245-0.048,4.867c-0.008,3.436-0.002,6.871-0.002,10.363C218.797,475.635,225.025,475.635,231.926,475.635z"
			/>
		<path fill="#FB007A" d="M335.769,288.378c0.612,0.484,1.224,0.969,1.835,1.453c0.189,1.157-0.005,2.722,0.673,3.36
			c0.721,0.678,2.269,0.478,3.456,0.662c1.165,1.205,2.33,2.409,3.495,3.614c0.311,0.443,0.623,0.886,0.934,1.33
			c1.205,1.246,2.41,2.493,3.615,3.739c0.482,0.5,0.965,1,1.447,1.501c0,0,0.034,0.041,0.034,0.041
			c0.464,0.496,0.928,0.992,1.392,1.488c0,0,0.093,0.109,0.093,0.109c0.166,0.185,0.331,0.371,0.497,0.556
			c0.106,0.235,0.213,0.471,0.319,0.706c0.252,0.272,0.505,0.544,0.757,0.816c0.239,0.259,0.478,0.518,0.717,0.777
			c0.229,0.25,0.459,0.501,0.689,0.751c0,0,0.045,0.054,0.045,0.054c0.214,0.235,0.428,0.471,0.642,0.706
			c0.792,0.992,1.585,1.983,2.377,2.975c0.678,0.752,1.355,1.505,2.033,2.257c0.223,0.044,0.326,0.18,0.31,0.407
			c0.231,0.359,0.461,0.717,0.692,1.075c0.538,0.583,1.076,1.166,1.614,1.75c0.399,0.436,0.798,0.871,1.198,1.306
			c0.286,0.294,0.572,0.588,0.858,0.882c0.717,0.706,1.434,1.412,2.15,2.118c0,0,0.127,0.122,0.126,0.122
			c0.217,0.203,0.434,0.405,0.651,0.608c0.29,0.244,0.579,0.488,0.869,0.732c1.344,4.053,4.817,4.222,8.225,4.508
			c0,0,0.016,0.008,0.016,0.008c-0.203,1.125-0.406,2.25-0.609,3.374c-1.392,0.169-2.783,0.337-4.174,0.506
			c-0.655,0.207-1.309,0.415-1.964,0.622c-1.832,0.303-3.665,0.607-5.497,0.91c-0.43,0.244-0.859,0.489-1.289,0.733l-0.291-0.037
			c-0.64-0.043-1.28-0.085-1.92-0.128c-0.104-0.057-0.207-0.113-0.311-0.17c0.103,0.057,0.206,0.115,0.309,0.172
			c0.001,0.262,0.002,0.524,0.004,0.786c-1.109,0.28-2.218,0.56-3.327,0.84c-0.634,0.238-1.269,0.476-1.903,0.714
			c-0.871,0.257-1.741,0.514-2.612,0.772c-0.381,0.177-0.762,0.354-1.143,0.53c-2.989,1.081-5.978,2.162-8.967,3.243
			c-0.668-0.49-1.337-0.981-2.048-1.503c0.151-0.805,0.306-1.637,0.462-2.469c3.129-1.033,6.258-2.066,9.387-3.1
			c0.952,0.483,1.904,0.966,2.857,1.45c0.104-0.162,0.208-0.324,0.311-0.486c-0.432-0.533-0.864-1.066-1.296-1.599
			c1.097-0.285,2.194-0.569,3.29-0.854c1.338-0.302,2.675-0.603,4.013-0.905c-0.102-0.396-0.204-0.792-0.306-1.188
			c-1.097,0.265-2.193,0.53-3.29,0.795c-3.225,0.499-6.45,0.997-9.675,1.496c-0.258,0.091-0.517,0.182-0.775,0.273
			c-5.67,1.68-11.34,3.36-17.01,5.04c-0.574,0.217-1.148,0.435-1.721,0.652c-1.606,0.544-3.212,1.088-4.818,1.632
			c-0.392,0.19-0.783,0.381-1.175,0.571c-0.143,0.165-0.32,0.215-0.528,0.15c-1.078,0.439-2.157,0.878-3.236,1.317
			c-0.86,0.319-1.719,0.638-2.579,0.957c-0.387,0.197-0.774,0.393-1.161,0.59c-13.242,7.471-26.707,14.578-39.658,22.524
			c-11.004,6.751-20.306,15.7-28.725,25.519c-0.573,0.668-0.976,3.153-2.769,1.016c0.976-2.259,1.951-4.518,2.926-6.778
			c3.521-4.31,6.911-8.737,10.62-12.878c1.756-1.961,2.484-3.861,1.99-6.399c-1.094-5.614-2.133-11.239-3.137-16.87
			c-1.353-7.589-3.225-15.143-3.831-22.795c-0.779-9.825-0.531-19.733,5.628-28.311c0.212-0.298,0.424-0.596,0.636-0.895
			c0.154-0.231,0.308-0.463,0.462-0.694c0.331-0.279,0.662-0.558,0.993-0.837c0,0-0.115-0.001-0.115-0.001
			c2.847,0.597,2.461-1.335,2.374-3.034c0.187-0.211,0.373-0.422,0.56-0.633c4.742,0.156,6.307-1.203,5.242-4.549
			c1.75-1.23,3.499-2.46,5.249-3.69c0.344-0.208,0.687-0.416,1.031-0.624c0,0,0.155-0.163,0.155-0.163l0.224,0.023
			c0.371-0.23,0.741-0.46,1.112-0.69l-0.028,0.012c0.858,0.383,1.717,0.765,2.575,1.148c1.568-3.591,6.155-5.524,10.841-4.41
			c-0.724-1.214-1.313-2.201-1.92-3.218c-3.737,0.281-7.088,4.078-11.129,1.134c0.653,0.709,1.307,1.418,2.184,2.371
			c-7.62-0.546-8.082-0.325-8.483,3.799l0.016-0.012c-0.749,0.293-1.499,0.586-2.248,0.88c-0.91,0.736-1.819,1.472-2.729,2.207
			c-0.575-0.039-1.151-0.078-1.726-0.118c-0.296-0.957-0.593-1.913-0.889-2.87c-0.134-0.518-0.269-1.037-0.403-1.555
			c0.111-2.027,0.223-4.055,0.334-6.082c0.597-0.332,1.735-0.915,1.714-0.961c-1.082-2.337,1.066-2.529,2.176-3.445
			c1.785-1.472,3.496-3.034,5.238-4.559c1.252-0.218,2.505-0.437,3.757-0.655c0.241,0.003,0.483,0.006,0.724,0.009
			c1.013,0.009,2.027,0.018,3.04,0.027c0.474,0.039,0.948,0.079,1.423,0.119c1.265,0.424,2.53,0.847,3.794,1.271
			c0.329,0.163,0.657,0.327,0.986,0.49c0,0,0.041-0.054,0.04-0.053c-0.091,0.339-0.181,0.677-0.27,1.015
			c-0.262,0.187-0.525,0.375-0.787,0.562c0.263-0.187,0.526-0.373,0.789-0.56c0.733,0.006,1.466,0.011,2.2,0.017
			c0.272,0.229,0.543,0.458,0.815,0.688c0.598,0.389,1.195,0.778,1.793,1.167c0,0,0.065,0.075,0.063,0.076
			c0.39,0.592,0.783,1.183,1.175,1.773c0,0-0.014-0.018-0.014-0.017c0.505,0.756,1.009,1.512,1.514,2.268
			c0,0-0.024-0.023-0.024-0.023c0.452,0.168,0.905,0.336,1.357,0.504c0.557-0.079,1.115-0.158,1.672-0.238
			c0.738-0.054,1.477-0.108,2.216-0.162c0,0,0.057-0.018,0.057-0.018c0.692-0.133,1.384-0.266,2.076-0.399
			c0.796-0.068,1.592-0.135,2.388-0.203c0.732-0.022,1.465-0.043,2.197-0.065c1.263,0.017,2.527,0.034,3.79,0.051
			c-0.008,1.128-0.016,2.257-0.025,3.385c-0.769-0.059-1.537-0.117-2.306-0.176c-0.157-0.25-0.353-0.287-0.587-0.11
			c-3.559,0.154-7.118,0.308-10.677,0.461c-0.055,0.579-0.11,1.158-0.165,1.737c2.074-0.058,4.148-0.115,6.223-0.173
			c0.752,0.116,1.503,0.233,2.255,0.349c0.494,0.185,0.988,0.369,1.482,0.554c1.01,0.435,2.02,0.871,3.03,1.306
			c-0.411,1.07-0.821,2.14-1.375,3.582c1.699-0.814,3.006-1.44,4.313-2.066c0.277,0.224,0.554,0.449,0.831,0.673
			c0.33,0.177,0.661,0.354,0.991,0.531l-0.007-0.056c0.422,0.357,0.845,0.714,1.267,1.072c0.49,0.328,0.98,0.656,1.47,0.984
			c0.032,2.434,1.046,3.844,3.698,3.547c0.264,0.265,0.529,0.531,0.793,0.796c0.444,0.5,0.888,1,1.331,1.5l0.117,0.138
			c0.289,0.427,0.577,0.854,0.866,1.281c1.493,1.988,2.986,3.975,4.48,5.963c0.509,0.756,1.018,1.513,1.527,2.269
			c0,0-0.016-0.014-0.016-0.014c-0.012,0.516-0.023,1.031-0.035,1.547c-0.38,0.301-0.761,0.601-1.141,0.901
			c0.081,0.081,0.161,0.161,0.242,0.242c0.3-0.381,0.601-0.761,0.901-1.142c0.453,0.001,0.906,0.001,1.358,0.002
			c0.207,0.066,0.291,0.205,0.252,0.419c0.391,0.625,0.782,1.25,1.174,1.875c1.826,2.975,3.652,5.951,5.479,8.926
			c0.269,1.412,0.521,2.829,0.878,4.219c0.012,0.047,1.072-0.174,1.644-0.27c0.156,0.218,0.311,0.436,0.467,0.654
			c0.266,0.468,0.532,0.936,0.798,1.404c0,0-0.016-0.02-0.016-0.02c0.64,0.716,1.281,1.431,1.921,2.147
			c0.266,0.064,0.405,0.233,0.416,0.506c0.534,0.569,1.067,1.139,1.601,1.708l-0.032-0.036c0.944,0.824,1.888,1.647,2.831,2.471
			c0.449,0.052,0.899,0.105,1.348,0.157c2.265,3.039,3.645-0.036,5.363-0.776c0.262-0.033,0.523-0.067,0.785-0.1
			c0.75-0.145,1.499-0.289,2.249-0.434c0.996-0.047,1.992-0.093,2.988-0.14c0.266,0.591,0.532,1.181,0.798,1.772
			c0.487-0.59,0.975-1.18,1.462-1.77c0.312-0.054,0.625-0.108,0.937-0.162c0.892-0.71,1.784-1.419,2.676-2.129
			c-2.25,0.484-3.906-3.923-6.024-0.678l0.013-0.017c-0.296-0.246-0.592-0.492-0.888-0.738l0.056,0.069
			c-0.425-0.353-0.849-0.707-1.274-1.06c-0.751-0.751-1.502-1.502-2.253-2.253c-0.475-0.51-0.949-1.019-1.423-1.529l-0.043-0.056
			c-0.525-0.712-1.051-1.423-1.576-2.135l0.016,0.015c-0.248-0.26-0.496-0.52-0.744-0.78l0.003,0.003
			c-0.415-0.457-0.83-0.913-1.245-1.37c-0.19-0.018-0.276-0.121-0.256-0.311c-0.081-0.246-0.235-0.431-0.462-0.555
			c-0.098-0.238-0.197-0.476-0.295-0.714c-0.243-0.271-0.486-0.542-0.729-0.812c-0.239-0.284-0.479-0.567-0.718-0.851
			c-0.277-0.462-0.554-0.923-0.832-1.385c-0.391-0.434-0.781-0.868-1.172-1.302c0.293-0.345,0.585-0.69,0.878-1.034
			c-0.639-0.226-1.277-0.451-1.916-0.677c-1.032-1.391-2.064-2.782-3.097-4.174c-0.728-1.102-1.456-2.205-2.184-3.307
			c0,0,0.013,0.014,0.013,0.014c0.187-2.207,0.229-4.298-3.011-3.765l0.017,0.016c-0.249-0.262-0.497-0.523-0.746-0.785
			c-1.233-1.292-2.466-2.584-3.699-3.876c-0.372-0.362-0.743-0.725-1.115-1.087l-0.016,0.017c-0.65-0.605-1.3-1.209-1.951-1.814
			c-0.189-0.145-0.379-0.29-0.568-0.435c1.262-0.211,2.552-0.327,3.774-0.678c0.528-0.152,0.917-0.789,1.369-1.205
			c0.491,0.286,0.981,0.572,1.472,0.859c0.269,1.644,0.538,3.288,0.806,4.932c0.253-0.051,0.505-0.103,0.758-0.154
			C335.651,290.512,335.71,289.445,335.769,288.378z M362.254,329.573c-0.052,0.378-0.103,0.757-0.155,1.135
			c0.975,0.155,1.951,0.309,2.926,0.464c0.062-0.456,0.124-0.911,0.186-1.367C364.226,329.728,363.24,329.651,362.254,329.573z"/>
		<path fill="#111188" d="M235.535,349.041c1.077,7.512,1.953,15.06,3.279,22.529c1.953,11.008-0.299,21.051-6.303,30.321
			c-4.481,6.92-8.954,13.816-10.241,22.198c-0.949-0.519-1.871-1.417-2.851-1.487c-2.85-0.202-5.744-0.284-8.583-0.017
			c-3.403,0.321-4.426-0.811-4.404-4.309c0.154-24.286,0.1-48.573,0.032-72.859c-0.004-1.297-0.746-2.592-1.145-3.888
			c0.123-1.002,0.247-2.003,0.37-3.005c0.424-0.209,1.184-0.368,1.223-0.633c0.582-3.963,1.07-7.939,1.579-11.912
			c2.103-5.447,3.643-11.199,6.409-16.285c9.815-18.044,24.746-30.536,43.552-38.528c0.299-0.127,0.7-0.016,1.497-0.016
			c-5.116,6.237-6.724,13.11-5.585,20.713c0.103,0.687-0.427,1.697-0.981,2.219c-11.281,10.649-16.139,24.193-17.803,39.197
			c-2.281,1.72-1.719,3.536-0.183,5.386c0.004,2.709,0.007,5.418,0.011,8.126c-0.466,1.198-0.931,2.395-1.397,3.593
			c0.23,0.049,0.46,0.098,0.69,0.147C234.98,350.036,235.257,349.538,235.535,349.041z"/>
		<path fill="#151187" d="M343.835,341.653c2.989-1.081,5.978-2.162,8.967-3.243c0.381-0.177,0.762-0.354,1.143-0.53
			c0.871-0.257,1.741-0.514,2.612-0.772c0.634-0.238,1.269-0.476,1.903-0.714c1.109-0.28,2.218-0.56,3.327-0.84
			c0.639-0.22,1.279-0.44,1.918-0.66c0,0,0.291,0.037,0.291,0.036c0.43-0.245,0.859-0.488,1.288-0.732
			c1.832-0.303,3.665-0.607,5.497-0.91c0.655-0.207,1.309-0.415,1.964-0.622c1.391-0.169,2.783-0.337,4.174-0.507
			c1.198-0.179,2.397-0.357,3.596-0.535c0.505-0.064,1.011-0.127,1.516-0.191c0.737-0.151,1.474-0.302,2.211-0.452
			c5.326,0.531,10.76,0.567,15.952,1.709c8.027,1.766,11.64,7.817,8.627,15.489c-2.124,5.409-5.563,10.588-9.435,14.967
			c-10.386,11.747-22.89,21.086-36.283,29.144c-24.814,14.93-51.062,26.671-79.028,34.347c-11.562,3.173-23.335,5.158-35.421,4.13
			c-0.622-0.053-1.251-0.076-1.861-0.194c-12.45-2.39-16.205-8.953-11.415-20.732c2.276-5.598,5.314-10.887,8.007-16.314
			c1.793,2.139,2.196-0.346,2.769-1.014c8.419-9.819,17.721-18.768,28.725-25.519c12.951-7.945,26.416-15.053,39.658-22.524
			c0.387-0.197,0.774-0.393,1.161-0.59c0.86-0.319,1.719-0.638,2.579-0.957c1.079-0.439,2.157-0.878,3.236-1.317
			c0.209,0.065,0.385,0.015,0.528-0.15c0.392-0.19,0.783-0.381,1.175-0.571c1.606-0.544,3.212-1.088,4.818-1.632
			c0.574-0.217,1.148-0.435,1.721-0.652c5.67-1.68,11.34-3.36,17.01-5.039c0.258-0.091,0.517-0.182,0.775-0.274
			c3.225-0.499,6.45-0.997,9.675-1.496c-0.139,0.432-0.278,0.865-0.418,1.297c-1.097,0.285-2.194,0.569-3.29,0.854
			c-0.624,0.212-1.248,0.423-1.872,0.635c-3.129,1.033-6.258,2.066-9.387,3.1c-0.372,0.036-0.77-0.002-1.112,0.119
			c-26.916,9.493-50.863,23.919-71.01,44.143c-5.633,5.654-10.496,12.483-14.18,19.57c-5.005,9.628-1.065,16.493,9.751,17.77
			c6.482,0.765,13.316,0.787,19.715-0.378c30.921-5.63,58.719-18.471,83.358-37.965c7.754-6.135,15.065-12.876,19.108-22.239
			c3.008-6.966,0.154-13.419-7.239-15.18c-5.147-1.226-10.641-1.753-15.926-1.495c-12.849,0.627-24.972,4.665-36.954,9.087
			c-1.444,0.533-2.997,0.773-4.499,1.149c-0.111-0.308-0.222-0.616-0.333-0.924C329.897,348.108,336.866,344.881,343.835,341.653z"
			/>
		<path fill="#121288" d="M395.856,371.288c0,17.969,0,35.265,0,52.863c-26.038,0-51.91,0-78.749,0
			C346.95,411.264,372.301,393.228,395.856,371.288z"/>
		<path fill="#121288" d="M315.31,263.423c41.296,4.659,71.747,34.212,77.798,62.932c-9.774-1.385-18.283-4.59-25.213-12.1
			c-8.956-9.705-18.218-19.191-27.994-28.06c-11.995-10.881-26.397-15.055-42.578-12.685c-1.025,0.15-2.352-0.418-3.259-1.052
			c-2.74-1.915-5.343-4.028-7.999-6.063c0.59-0.29,1.269-0.932,1.756-0.81c2.532,0.634,4.003-0.462,4.951-2.654
			c1.004-0.048,2.009-0.096,3.013-0.144c6.104,0.47,12.206,0.955,18.313,1.372C314.485,264.186,314.906,263.681,315.31,263.423z"/>
		<path fill="#131388" d="M372.014,476.451c-6.947,0.281-13.716-0.625-19.953-3.799c-5.239-2.667-8.486-6.765-8.287-13.085
			c0.195-6.211,2.738-10.986,8.536-13.28c13.29-5.26,26.714-5.467,39.884,0.408c5.623,2.508,8.491,7.329,8.313,13.498
			c-0.173,5.996-2.998,10.81-8.816,12.659c-6.332,2.012-12.948,3.129-19.44,4.637C372.172,477.143,372.093,476.797,372.014,476.451z
			 M364.61,459.007c-0.03,5.567,1.968,8.71,5.939,9.343c6.622,1.056,10.354-3.447,8.922-10.765c-1.03-5.262-3.86-7.809-8.108-7.296
			C366.983,450.818,364.637,453.846,364.61,459.007z"/>
		<path fill="#111188" d="M254.51,519.253c-0.751,0.17-1.501,0.341-2.252,0.511c-0.132-0.264-0.264-0.527-0.396-0.791
			c-0.111,0.281-0.223,0.563-0.334,0.844c-1.506,0.021-3.012,0.042-4.518,0.063c-0.759-0.445-1.513-1.267-2.278-1.278
			c-6.976-0.1-13.954-0.1-20.93,0c-0.766,0.011-1.521,0.831-2.281,1.276c-1.505,0.001-3.011,0.002-4.516,0.003
			c-1.154-0.71-2.308-1.42-3.732-2.296c0-8.49,0.036-17.195-0.026-25.901c-0.015-2.119,1.106-2.416,2.832-2.411
			c11.584,0.033,23.168,0.022,34.752,0.014c1.493-0.001,2.987-0.063,4.48-0.096c2.967-0.138,4.613,1.567,5.4,4.149
			c1.311,4.298-0.544,7.416-4.286,9.812c3.886,1.937,6.084,4.757,5.475,8.988c-0.546,3.793-2.862,6.163-6.662,6.987
			C254.996,519.17,254.753,519.212,254.51,519.253z M231.135,513.701c4.212-0.422,7.433-0.46,10.509-1.149
			c2.179-0.488,2.92-4.064,1.179-4.565c-3.19-0.918-6.735-1.047-10.052-0.712C232.105,507.343,231.797,510.944,231.135,513.701z
			 M231.955,499.939c3.397-0.28,6.355-0.335,9.22-0.879c0.824-0.157,1.673-1.654,1.928-2.681c0.121-0.488-1.066-1.823-1.761-1.903
			c-3.099-0.356-6.234-0.397-9.387-0.553C231.955,496.314,231.955,497.895,231.955,499.939z"/>
		<path fill="#141489" d="M292.885,512.271c4.928,0.003,9.856,0.006,14.784,0.009c0.793,0.066,1.587,0.132,2.38,0.198
			c0.284,2.349,0.568,4.698,0.886,7.326c-15.312,0-29.983,0-44.874,0c0-10.519,0-20.944,0-31.613c14.961,0,29.868,0,44.802,0
			c-2.371,7.025-2.371,7.029-9.129,7.06c-4.498,0.02-9.002-0.088-13.49,0.131c-0.989,0.048-1.923,1.238-2.883,1.901
			c0.958,0.712,1.897,2.007,2.877,2.039c5.854,0.194,11.717,0.096,17.961,0.096c0,2.868,0,5.151,0,7.806c-6.762,0-13.444,0-21.21,0
			c0.742,2.036,1.25,3.427,1.757,4.818C288.716,514.21,290.782,513.732,292.885,512.271z"/>
		<path fill="#111188" d="M275.488,469.05c-5.224,0.001-10.448,0.002-15.672,0.003c-0.251,0.264-0.503,0.528-0.754,0.792
			c0,0,0.019-0.026,0.019-0.026c-0.268,0.493-0.535,0.986-0.803,1.479l0.003-0.005c-0.483,0.792-0.965,1.584-1.448,2.376
			c-0.015,0.21-0.059,0.413-0.134,0.61c-4.313,0.017-8.633,0.18-12.935-0.025c-1.569-0.075-3.097-1.023-4.644-1.573
			c0.143-0.213,0.286-0.427,0.429-0.64c0.73-1.274,1.459-2.547,2.189-3.821c3.817-7.222,7.634-14.443,11.451-21.665
			c0.178-0.262,0.355-0.524,0.533-0.787c0.264-0.496,0.528-0.992,0.792-1.488c2.761-0.419,5.522-0.838,8.283-1.256
			c0.733,0.004,1.466,0.008,2.199,0.012c1.164,0.403,2.305,1.055,3.496,1.163c4.273,0.386,8.563,0.587,12.847,0.858
			c4.82,8.976,9.639,17.953,14.459,26.929c-0.836,0.77-1.618,2.118-2.519,2.204c-2.972,0.282-5.992,0.012-8.985,0.135
			c-3.164,0.13-6.075,0.157-6.79-3.968C277.408,469.82,276.187,469.481,275.488,469.05z M272.116,460.37
			c-1.58-3.282-2.9-6.024-4.557-9.465c-1.635,3.558-2.937,6.393-4.456,9.698c2.545,0,4.402,0.017,6.258-0.008
			C270.082,460.585,270.801,460.481,272.116,460.37z"/>
		<path fill="#151288" d="M258.68,297.912c-0.154,0.231-0.308,0.463-0.462,0.694c-0.212,0.298-0.424,0.596-0.636,0.894
			c-6.159,8.578-6.407,18.486-5.628,28.311c0.606,7.652,2.478,15.205,3.831,22.795c1.004,5.631,2.043,11.256,3.137,16.87
			c0.495,2.538-0.233,4.438-1.99,6.399c-3.709,4.141-7.099,8.568-10.62,12.878c-0.265-0.384-0.799-0.801-0.756-1.147
			c1.45-11.661-2.491-22.642-4.184-33.908c-2.876-19.138-0.964-37.306,11.345-53.232c0.076-0.099,0.135-0.221,0.231-0.294
			c3.81-2.908,4.505-6.604,4.051-11.325c-0.461-4.789,0.667-9.646,4.973-12.933c-0.023,1.029-0.046,2.058-0.069,3.088
			c-0.111,2.027-0.223,4.055-0.334,6.082c0.134,0.518,0.269,1.037,0.403,1.555c0.296,0.957,0.593,1.913,0.889,2.87
			c0.575,0.039,1.151,0.078,1.726,0.118c0.91-0.736,1.819-1.472,2.729-2.208c0.749-0.293,1.499-0.586,2.248-0.88
			c0,0-0.016,0.012-0.016,0.012c1.656-0.732,3.299-1.499,4.992-2.129c0.133-0.049,0.618,0.848,0.94,1.306
			c0,0,0.028-0.012,0.028-0.012c-0.371,0.23-0.741,0.46-1.112,0.69l-0.224-0.023c0,0-0.155,0.163-0.155,0.163
			c-0.344,0.208-0.688,0.416-1.031,0.624c-1.75,1.23-3.499,2.46-5.249,3.69c-1.747,1.516-3.494,3.032-5.242,4.549
			c-0.187,0.211-0.373,0.422-0.56,0.633c-0.791,1.011-1.583,2.022-2.374,3.033c0,0,0.115,0.001,0.116,0.002
			C259.342,297.355,259.011,297.633,258.68,297.912z"/>
		<path fill="#131388" d="M297.54,467.715c-5.307-9.433-1.924-18.774,8.342-22.506c9.322-3.389,19.025-3.453,28.766-2.72
			c2.456,0.185,4.901,0.505,7.347,0.762c-0.611,6.174-2.427,7.697-8.161,7.719c-4.085,0.016-8.234,0.098-12.235,0.814
			c-4.114,0.737-5.98,3.536-5.93,7.397c0.053,4.026,2.164,6.955,6.347,7.55c3.899,0.554,7.911,0.318,11.873,0.43
			c1.098,0.372,2.23,0.669,3.286,1.137c1.206,0.535,3.296,1.172,3.332,1.854c0.107,2.01-0.794,3.942-3.339,4.095
			c-1.614,0.097-3.258-0.102-4.849,0.115c-10.156,1.385-20.018,0.957-29.267-4.154c-0.66-0.365-1.828,0.192-2.76,0.32
			c-0.26-0.235-0.52-0.47-0.78-0.705c-0.257-0.257-0.514-0.515-0.771-0.772l0.014,0.015
			C298.351,468.617,297.946,468.166,297.54,467.715z"/>
		<path fill="#15158A" d="M231.926,475.635c-6.9,0-13.128,0-20.086,0c0-3.492-0.005-6.928,0.002-10.363
			c0.004-1.622,0.038-3.245,0.048-4.867c0.051-9.047,0.042-8.925-8.997-9.521c-1.423-0.094-2.957-1.672-4.036-2.915
			c-1.007-1.16-1.478-2.787-2.407-4.657c17.41,0,34.352,0,51.717,0c-1.13,2.217-1.878,4.184-3.071,5.828
			c-0.661,0.911-2.019,1.681-3.146,1.813c-2.339,0.275-4.741,0.205-7.102,0.047c-2.353-0.157-2.996,0.828-2.962,3.058
			C231.993,461.139,231.926,468.222,231.926,475.635z"/>
		<path fill="#151589" d="M335.165,512.37c1.841-0.011,3.682-0.022,5.523-0.033c4.023,0.032,8.045,0.063,12.068,0.094
			c1.807-0.242,3.614-0.483,5.58-0.746c-1.634,6.904-3.375,8.341-9.678,8.342c-9.125,0.002-18.249,0.015-27.373-0.003
			c-5.206-0.011-7.007-1.666-7.068-6.852c-0.096-8.218-0.026-16.437-0.026-24.933c6.704,0,13.129,0,20.091,0
			c0,6.521-0.04,13.098,0.031,19.674c0.016,1.443,0.427,2.881,0.656,4.322c-0.112,0.158-0.223,0.316-0.381,0.542
			C334.826,512.608,334.996,512.489,335.165,512.37z"/>
		<path fill="#111188" d="M398.391,519.881c-10.723,0.048-21.447,0.095-32.17,0.144c-3.352,0.015-5.194-1.732-5.21-4.997
			c-0.042-8.581,0.084-17.163,0.142-25.744c4.653,0.002,9.309,0.097,13.956-0.066c1.076-0.038,2.121-0.96,3.181-1.476
			c2.378-0.779,2.371,0.688,2.186,2.321c-1.93,6.018-1.324,12.073-0.901,18.263c0.293,4.286,1.701,5.219,5.557,5.039
			c5.756-0.269,11.534-0.07,17.303-0.07c0.228,0.379,0.455,0.758,0.683,1.137C401.542,516.25,399.966,518.066,398.391,519.881z"/>
		<path fill="#060581" d="M205.319,341.53c0.399,1.296,1.141,2.591,1.145,3.888c0.069,24.286,0.122,48.573-0.032,72.859
			c-0.022,3.498,1.001,4.63,4.404,4.309c2.839-0.268,5.733-0.185,8.583,0.017c0.981,0.069,1.902,0.967,2.851,1.487
			c-4.973,0.074-9.948,0.096-14.919,0.242c-2.939,0.086-2.28-1.987-2.281-3.604c-0.005-17.686,0.001-35.373,0.046-53.059
			C205.14,358.955,205.249,350.243,205.319,341.53z"/>
		<path fill="#080782" d="M255.312,489.192c-1.493,0.034-2.987,0.095-4.48,0.096c-11.584,0.008-23.168,0.019-34.752-0.014
			c-1.726-0.005-2.847,0.293-2.832,2.411c0.062,8.705,0.026,17.411,0.026,25.901c1.424,0.876,2.578,1.586,3.732,2.296
			c-1.246,0.012-2.492,0.024-3.738,0.036c-0.413-0.224-0.826-0.449-1.239-0.673c0.023-8.994,0.046-17.988,0.068-26.982
			c0.04-1.223,0.08-2.447,0.119-3.67c0.84-0.345,1.68-0.992,2.519-0.99c12.333,0.03,24.666,0.109,36.998,0.298
			C252.933,487.92,254.12,488.743,255.312,489.192z"/>
		<path fill="#F4057B" d="M332.556,285.943c-0.452,0.417-0.841,1.054-1.369,1.205c-1.222,0.351-2.512,0.467-3.774,0.678
			c-5.974-4.202-12.466-7.244-19.639-8.761c0.008-1.128,0.016-2.257,0.025-3.385C317.234,276.246,325.392,279.896,332.556,285.943z"
			/>
		<path fill="#1A1A8A" d="M300.294,470.529c0.932-0.128,2.101-0.684,2.76-0.32c9.249,5.111,19.111,5.539,29.267,4.154
			c1.592-0.217,3.236-0.018,4.849-0.115c2.545-0.153,3.446-2.085,3.339-4.095c-0.036-0.682-2.126-1.319-3.332-1.854
			c-1.056-0.468-2.188-0.764-3.286-1.137c2.418-0.284,4.835-0.567,7.858-0.921c0,2.576,0.109,4.996-0.082,7.392
			c-0.044,0.555-1.062,1.389-1.72,1.484c-12.516,1.801-24.976,2.481-36.989-2.653C301.974,472.044,301.177,471.184,300.294,470.529z
			"/>
		<path fill="#080782" d="M398.391,519.881c1.576-1.816,3.151-3.631,4.727-5.447c-0.228-0.379-0.455-0.758-0.683-1.137
			c-5.769,0-11.547-0.199-17.303,0.07c-3.856,0.18-5.264-0.753-5.557-5.039c-0.423-6.19-1.029-12.246,0.901-18.263
			c0,7.161,0,14.322,0,22.042c8.497,0,16.255,0,24.013,0c0.129,0.303,0.258,0.605,0.387,0.908
			C402.521,515.14,403.797,520.329,398.391,519.881z"/>
		<path fill="#1A1A8A" d="M275.488,469.05c0.699,0.43,1.92,0.77,2.013,1.305c0.715,4.125,3.626,4.098,6.79,3.968
			c2.994-0.123,6.013,0.147,8.985-0.135c0.901-0.086,1.683-1.434,2.519-2.204c0.587,1.007,1.174,2.013,2.206,3.783
			c-6.529,0-12.278,0.118-18.013-0.119c-0.933-0.039-1.979-1.536-2.652-2.569C276.538,471.855,276.088,470.404,275.488,469.05z"/>
		<path fill="#080782" d="M221.522,519.879c0.76-0.445,1.515-1.265,2.281-1.276c6.976-0.1,13.954-0.1,20.93,0
			c0.765,0.011,1.519,0.832,2.278,1.278C238.514,519.881,230.018,519.88,221.522,519.879z"/>
		<path fill="#292791" d="M239.119,472.68c1.547,0.55,3.075,1.499,4.644,1.573c4.302,0.205,8.622,0.042,12.935,0.025
			c-0.781,0.459-1.554,1.297-2.344,1.315c-5.324,0.118-10.651,0.061-16.649,0.061C238.274,474.457,238.697,473.568,239.119,472.68z"
			/>
		<path fill="#111188" d="M315.31,263.423c-0.404,0.258-0.825,0.763-1.21,0.737c-6.107-0.417-12.21-0.903-18.313-1.372
			C302.295,262.999,308.802,263.211,315.31,263.423z"/>
		<path fill="#080782" d="M378.29,487.743c-1.059,0.515-2.105,1.438-3.181,1.476c-4.647,0.163-9.303,0.067-13.956,0.066
			c0.659-0.575,1.311-1.637,1.98-1.647C368.183,487.556,373.237,487.682,378.29,487.743z"/>
		<path fill="#292791" d="M281.337,445.056c-4.284-0.271-8.573-0.472-12.847-0.858c-1.191-0.107-2.332-0.76-3.496-1.163
			c4.471-0.043,8.947-0.215,13.408-0.029C279.407,443.047,280.36,444.339,281.337,445.056z"/>
		<path fill="#807ABC" d="M403.04,501.497c0.755-0.024,1.509-0.047,2.264-0.071c-0.215,1.582,0.102,3.652-0.785,4.618
			c-1.031,1.124-3.116,1.282-4.743,1.859c-0.158-0.696-0.317-1.392-0.475-2.088c0,0-0.037-0.056-0.037-0.056
			c1.257,0.017,2.513,0.034,3.77,0.051c-0.389-0.496-0.778-0.993-1.167-1.489c-0.36-0.016-0.719-0.032-1.079-0.048
			c0.12-0.409,0.24-0.818,0.36-1.227c0.214-0.019,0.43-0.035,0.648-0.05C402.211,502.497,402.626,501.997,403.04,501.497z"/>
		<path fill="#F4057B" d="M261.9,277c0.023-1.029,0.046-2.058,0.069-3.088c2.327-3.027,5.104-5.359,9.059-5.876
			c-1.742,1.524-3.452,3.087-5.238,4.559c-1.111,0.915-3.258,1.108-2.176,3.445C263.635,276.085,262.497,276.668,261.9,277z"/>
		<path fill="#111188" d="M292.774,262.931c-0.948,2.192-2.419,3.288-4.951,2.654c-0.487-0.122-1.166,0.52-1.756,0.81
			c-1.187-0.48-2.375-0.96-3.562-1.44c0.404-0.29,0.808-0.579,1.211-0.869C286.735,263.701,289.755,263.316,292.774,262.931z"/>
		<path fill="#060581" d="M208.491,325.979c-0.51,3.973-0.997,7.95-1.579,11.912c-0.039,0.265-0.798,0.425-1.223,0.633
			C206.623,334.343,207.557,330.161,208.491,325.979z"/>
		<path fill="#F4057B" d="M341.733,293.853c-1.187-0.183-2.734,0.017-3.456-0.662c-0.678-0.638-0.484-2.203-0.673-3.36
			C338.981,291.172,340.357,292.512,341.733,293.853z"/>
		<path fill="#F4057B" d="M377.512,328.778c-3.409-0.286-6.882-0.454-8.225-4.508C372.028,325.773,374.77,327.276,377.512,328.778z"
			/>
		<path fill="#292791" d="M262.795,443.023c-2.761,0.419-5.522,0.838-8.283,1.256C256.894,441.36,260.022,443.359,262.795,443.023z"
			/>
		<path fill="#F4057B" d="M380.515,331.624c-1.199,0.178-2.397,0.356-3.596,0.535c0.203-1.124,0.406-2.249,0.609-3.374
			c1.491,0.506,2.982,1.012,4.472,1.518l-0.082,0.085C381.451,330.801,380.983,331.213,380.515,331.624z"/>
		<path fill="#01007C" d="M352.757,512.431c-4.023-0.031-8.045-0.063-12.068-0.094C344.711,512.368,348.734,512.399,352.757,512.431
			z"/>
		<path fill="#6059AD" d="M401.148,503.046c-0.12,0.409-0.24,0.818-0.36,1.227c-0.508,0.495-1.016,0.991-1.524,1.486
			c0,0,0.037,0.056,0.037,0.056c-0.021-1.217-0.403-2.606,0.067-3.587c0.296-0.618,1.867-0.626,2.866-0.908
			c-0.216,0.155-0.432,0.31-0.649,0.465c-0.401,0.203-0.801,0.406-1.202,0.608C400.639,502.611,400.893,502.829,401.148,503.046z"/>
		<path fill="#01007C" d="M292.885,512.271c-2.103,1.461-4.169,1.939-6.138-0.227C288.793,512.12,290.839,512.196,292.885,512.271z"
			/>
		<path fill="#F4057B" d="M335.769,288.378c-0.059,1.067-0.118,2.134-0.177,3.201c-0.253,0.051-0.505,0.103-0.758,0.154
			c-0.269-1.644-0.538-3.288-0.806-4.932C334.608,287.327,335.189,287.852,335.769,288.378z"/>
		<path fill="#01007C" d="M235.398,338.667c-1.536-1.85-2.098-3.666,0.183-5.386C235.52,335.076,235.459,336.871,235.398,338.667z"
			/>
		<path fill="#292791" d="M241.737,468.219c-0.73,1.274-1.459,2.547-2.189,3.821C240.278,470.766,241.007,469.492,241.737,468.219z"
			/>
		<path fill="#01007C" d="M235.535,349.041c-0.278,0.497-0.555,0.995-0.833,1.492c-0.23-0.049-0.46-0.098-0.69-0.147
			c0.466-1.198,0.931-2.395,1.397-3.593C235.451,347.543,235.493,348.292,235.535,349.041z"/>
		<path fill="#F4057B" d="M360.819,315.27c-0.678-0.752-1.355-1.505-2.033-2.257C359.464,313.766,360.141,314.518,360.819,315.27z"
			/>
		<path fill="#F4057B" d="M367.641,322.808c-0.717-0.706-1.434-1.412-2.15-2.118C366.207,321.397,366.924,322.103,367.641,322.808z"
			/>
		<path fill="#F4057B" d="M384.242,330.981c-0.737,0.151-1.474,0.302-2.211,0.452c-0.037-0.348-0.075-0.696-0.112-1.044l0.082-0.085
			C382.747,330.53,383.495,330.755,384.242,330.981z"/>
		<path fill="#312B94" d="M212.217,488.593c-0.04,1.223-0.08,2.447-0.119,3.67C212.137,491.039,212.177,489.816,212.217,488.593z"/>
		<path fill="#292791" d="M256.832,473.668c0.483-0.792,0.965-1.584,1.448-2.376C257.797,472.085,257.315,472.877,256.832,473.668z"
			/>
		<path fill="#F4057B" d="M292.069,276.231c-0.505-0.756-1.009-1.512-1.514-2.268C291.06,274.719,291.565,275.475,292.069,276.231z"
			/>
		<path fill="#121288" d="M283.716,264.086c-0.404,0.29-0.808,0.579-1.211,0.869c-0.306-0.091-0.612-0.183-1.496-0.447
			C282.31,264.305,283.013,264.195,283.716,264.086z"/>
		<path fill="#F4057B" d="M290.57,273.981c-0.392-0.591-0.785-1.181-1.175-1.773C289.788,272.798,290.179,273.39,290.57,273.981z"/>
		<path fill="#F4057B" d="M289.332,272.132c-0.598-0.389-1.195-0.778-1.793-1.167C288.136,271.353,288.734,271.743,289.332,272.132z
			"/>
		<path fill="#F4057B" d="M351.224,304.035c-0.482-0.5-0.965-1-1.447-1.501C350.259,303.035,350.742,303.535,351.224,304.035z"/>
		<path fill="#F4057B" d="M352.65,305.564c-0.464-0.496-0.928-0.992-1.392-1.488C351.722,304.573,352.186,305.069,352.65,305.564z"
			/>
		<path fill="#312B94" d="M401.586,501.785c0.216-0.155,0.432-0.31,0.649-0.465c0.269,0.059,0.537,0.118,0.806,0.177
			c-0.415,0.5-0.83,1-1.239,1.499C401.734,502.592,401.66,502.189,401.586,501.785z"/>
		<path fill="#F4057B" d="M284.522,270.258c0.09-0.338,0.179-0.676,0.27-1.015c0.645,0.344,1.288,0.689,1.931,1.034
			c-0.733-0.006-1.466-0.011-2.2-0.017L284.522,270.258z"/>
		<path fill="#F4057B" d="M299.424,275.896c-0.692,0.133-1.384,0.266-2.076,0.399C298.04,276.162,298.732,276.029,299.424,275.896z"
			/>
		<path fill="#F4057B" d="M304.008,275.629c-0.732,0.022-1.465,0.043-2.197,0.065C302.544,275.672,303.276,275.65,304.008,275.629z"
			/>
		<path fill="#01007C" d="M310.049,512.479c-0.793-0.066-1.586-0.132-2.38-0.198C308.462,512.347,309.256,512.413,310.049,512.479z"
			/>
		<path fill="#F4057B" d="M297.29,276.313c-0.739,0.054-1.477,0.108-2.216,0.162C295.813,276.421,296.552,276.367,297.29,276.313z"
			/>
		<path fill="#292791" d="M258.277,471.298c0.268-0.493,0.535-0.986,0.803-1.479C258.813,470.313,258.545,470.805,258.277,471.298z"
			/>
		<path fill="#292791" d="M253.72,445.768c-0.178,0.262-0.355,0.524-0.533,0.787C253.365,446.292,253.543,446.03,253.72,445.768z"/>
		<path fill="#F4057B" d="M346.162,298.796c-0.311-0.443-0.623-0.886-0.934-1.33C345.539,297.91,345.85,298.353,346.162,298.796z"/>
		<path fill="#F4057B" d="M364.632,319.808c-0.399-0.435-0.799-0.87-1.198-1.306C363.834,318.937,364.233,319.373,364.632,319.808z"
			/>
		<path fill="#1A1A8A" d="M297.54,467.715c0.405,0.451,0.811,0.902,1.216,1.352C298.351,468.617,297.946,468.166,297.54,467.715z"/>
		<path fill="#F4057B" d="M293.403,276.713c-0.452-0.168-0.905-0.336-1.357-0.504C292.498,276.376,292.95,276.544,293.403,276.713z"
			/>
		<path fill="#F4057B" d="M279.973,267.535c-0.474-0.04-0.948-0.079-1.423-0.119C279.024,267.456,279.498,267.496,279.973,267.535z"
			/>
		<path fill="#080782" d="M251.528,519.818c0.111-0.281,0.223-0.563,0.334-0.844c0.132,0.264,0.264,0.527,0.396,0.791
			C252.015,519.782,251.771,519.8,251.528,519.818z"/>
		<path fill="#312B94" d="M212.029,519.245c0.413,0.224,0.826,0.449,1.239,0.673C212.855,519.694,212.442,519.469,212.029,519.245z"
			/>
		<path fill="#1A1A8A" d="M298.742,469.053c0.257,0.257,0.514,0.515,0.771,0.772C299.257,469.567,298.999,469.31,298.742,469.053z"
			/>
		<path fill="#F4057B" d="M353.24,306.229c-0.166-0.185-0.331-0.371-0.497-0.556C352.909,305.859,353.075,306.044,353.24,306.229z"
			/>
		<path fill="#F4057B" d="M368.418,323.538c-0.217-0.203-0.434-0.406-0.651-0.608C367.984,323.133,368.201,323.336,368.418,323.538z
			"/>
		<path fill="#F4057B" d="M284.753,269.296c-0.329-0.163-0.657-0.327-0.986-0.49C284.096,268.969,284.424,269.133,284.753,269.296z"
			/>
		<path fill="#F4057B" d="M356.409,310.039c-0.214-0.235-0.428-0.471-0.642-0.706C355.981,309.568,356.195,309.803,356.409,310.039z
			"/>
		<path fill="#F4057B" d="M275.51,267.39c-0.241-0.003-0.483-0.006-0.724-0.009C275.028,267.26,275.27,267.263,275.51,267.39z"/>
		<path fill="#F4057B" d="M355.722,309.278c-0.23-0.25-0.459-0.501-0.689-0.751C355.263,308.778,355.492,309.028,355.722,309.278z"
			/>
		<path fill="#F4057B" d="M361.82,316.752c-0.231-0.358-0.461-0.716-0.692-1.075C361.359,316.035,361.59,316.394,361.82,316.752z"/>
		<path fill="#F4057B" d="M354.316,307.751c-0.252-0.272-0.505-0.544-0.757-0.816C353.812,307.207,354.064,307.479,354.316,307.751z
			"/>
		<path fill="#080782" d="M254.51,519.253c0.243-0.042,0.486-0.083,0.73-0.125C254.996,519.17,254.753,519.212,254.51,519.253z"/>
		<path fill="#292791" d="M259.061,469.846c0.251-0.264,0.503-0.528,0.754-0.792C259.564,469.317,259.312,469.581,259.061,469.846z"
			/>
		<path fill="#F4057B" d="M343.835,341.653c-6.969,3.228-13.938,6.455-20.907,9.683c0.111,0.308,0.222,0.616,0.333,0.924
			c1.502-0.376,3.055-0.616,4.499-1.149c11.982-4.422,24.105-8.46,36.954-9.087c5.285-0.258,10.779,0.269,15.926,1.495
			c7.392,1.761,10.247,8.214,7.239,15.18c-4.044,9.363-11.354,16.104-19.108,22.239c-24.638,19.494-52.436,32.336-83.358,37.965
			c-6.399,1.165-13.234,1.143-19.715,0.378c-10.816-1.277-14.756-8.142-9.751-17.77c3.684-7.087,8.547-13.916,14.18-19.57
			c20.147-20.224,44.094-34.65,71.01-44.143c0.342-0.121,0.74-0.083,1.112-0.119c-0.156,0.832-0.311,1.664-0.462,2.469
			C342.498,340.672,343.166,341.162,343.835,341.653z M275.714,414.51c1.965-0.18,4.209-0.307,6.432-0.601
			c16.404-2.169,31.602-8.164,46.477-15.013c17.325-7.978,33.751-17.408,46.847-31.649c2.161-2.35,4.107-5.089,5.429-7.979
			c2.405-5.257,0.516-9.556-5.153-10.387c-5.563-0.815-11.511-1.06-16.996-0.015c-29.969,5.708-56.822,18.517-80.759,37.306
			c-5.049,3.963-9.654,8.75-13.557,13.85c-5.191,6.784-2.516,12.638,5.775,14.066C271.919,414.383,273.686,414.364,275.714,414.51z"
			/>
		<path fill="#FEFDFD" d="M307.774,279.065c7.173,1.517,13.665,4.558,19.639,8.761c0.189,0.145,0.379,0.29,0.568,0.435
			c0.65,0.605,1.3,1.209,1.951,1.814c0,0,0.016-0.017,0.018-0.018c0.372,0.362,0.743,0.725,1.113,1.088
			c1.233,1.292,2.466,2.584,3.699,3.876c0.249,0.262,0.497,0.523,0.746,0.785c0,0-0.017-0.016-0.017-0.016
			c1.004,1.255,2.007,2.51,3.011,3.765c0,0-0.013-0.014-0.013-0.014c0.728,1.102,1.456,2.205,2.184,3.307
			c1.032,1.391,2.064,2.782,3.097,4.174c0.346,0.57,0.692,1.141,1.038,1.711c0.391,0.434,0.781,0.868,1.172,1.302
			c0.277,0.462,0.554,0.923,0.832,1.385c0.239,0.284,0.479,0.568,0.718,0.851c0.243,0.271,0.486,0.542,0.729,0.812
			c0.098,0.238,0.197,0.476,0.295,0.714c0.154,0.185,0.308,0.37,0.462,0.555c-0.019,0.19,0.066,0.294,0.257,0.311
			c0.415,0.457,0.83,0.913,1.244,1.37c0,0-0.003-0.003-0.003-0.003c0.248,0.26,0.496,0.52,0.744,0.78c0,0-0.016-0.015-0.016-0.015
			c0.525,0.712,1.051,1.423,1.576,2.135c0,0,0.043,0.056,0.043,0.056c0.474,0.51,0.949,1.019,1.423,1.529
			c0.751,0.751,1.502,1.502,2.253,2.253c0.425,0.353,0.849,0.707,1.274,1.06c0,0-0.056-0.069-0.055-0.07
			c0.296,0.246,0.591,0.492,0.886,0.738c0,0-0.013,0.017-0.013,0.016c1.116,0.935,2.232,1.872,3.348,2.808
			c-0.313,0.054-0.625,0.108-0.937,0.162c-0.753,0-1.507-0.001-2.26-0.001c-0.996,0.047-1.992,0.093-2.988,0.14
			c-0.75,0.145-1.499,0.289-2.249,0.434c-0.262,0.033-0.523,0.067-0.785,0.1c-1.788,0.259-3.575,0.517-5.363,0.776
			c-0.449-0.052-0.899-0.105-1.348-0.157c-0.944-0.824-1.888-1.647-2.831-2.471c0,0,0.032,0.036,0.032,0.037
			c-0.534-0.569-1.067-1.139-1.6-1.709c-0.011-0.273-0.149-0.442-0.416-0.506c-0.641-0.716-1.281-1.432-1.921-2.147
			c0,0,0.017,0.02,0.016,0.02c-0.266-0.468-0.532-0.936-0.798-1.404c-0.156-0.218-0.311-0.436-0.467-0.654
			c-0.841-1.316-1.681-2.633-2.521-3.949c-1.826-2.975-3.652-5.95-5.479-8.926c-0.391-0.625-0.782-1.25-1.174-1.875
			c0.039-0.214-0.045-0.353-0.251-0.419c-0.442-0.517-0.884-1.034-1.326-1.551c0,0,0.016,0.014,0.016,0.014
			c-0.509-0.756-1.018-1.513-1.527-2.269c-1.493-1.988-2.986-3.975-4.48-5.963c-0.289-0.427-0.577-0.854-0.866-1.281
			c0,0-0.117-0.138-0.117-0.138c-0.444-0.5-0.888-1-1.331-1.5c-0.264-0.265-0.529-0.531-0.793-0.796
			c-1.233-1.182-2.465-2.364-3.698-3.547c-0.49-0.328-0.98-0.656-1.47-0.984c-0.422-0.357-0.845-0.714-1.267-1.072
			c0,0,0.007,0.056,0.006,0.057c-0.331-0.177-0.66-0.354-0.99-0.532c-0.277-0.224-0.554-0.449-0.831-0.673
			c-0.979-0.505-1.959-1.011-2.938-1.516c-1.01-0.435-2.02-0.871-3.03-1.306c-0.494-0.185-0.988-0.369-1.482-0.554
			c-0.752-0.116-1.503-0.233-2.255-0.349c-2.019-0.522-4.038-1.043-6.057-1.565c3.559-0.154,7.118-0.308,10.677-0.461
			c0,0,0.268,0.194,0.268,0.194l0.319-0.084C306.237,278.948,307.005,279.006,307.774,279.065z"/>
		<path fill="#F4057B" d="M275.477,283.726c-0.322-0.457-0.807-1.355-0.94-1.306c-1.694,0.631-3.337,1.397-4.992,2.129
			c0.401-4.124,0.863-4.344,8.483-3.799c-0.878-0.953-1.531-1.662-2.184-2.371c4.042,2.944,7.393-0.853,11.129-1.134
			c0.607,1.017,1.195,2.004,1.92,3.218c-4.686-1.113-9.273,0.819-10.841,4.41C277.193,284.492,276.335,284.109,275.477,283.726z"/>
		<path fill="#F4057B" d="M262.491,293.407c1.747-1.516,3.495-3.032,5.242-4.549C268.799,292.204,267.233,293.563,262.491,293.407z"
			/>
		<path fill="#F4057B" d="M361.978,327.318c-1.116-0.936-2.232-1.873-3.348-2.808c2.118-3.244,3.774,1.163,6.024,0.679
			C363.762,325.899,362.87,326.609,361.978,327.318z"/>
		<path fill="#F4057B" d="M294.204,279.241c2.019,0.522,4.038,1.043,6.057,1.565c-2.074,0.058-4.148,0.115-6.223,0.173
			C294.094,280.399,294.149,279.82,294.204,279.241z"/>
		<path fill="#F4057B" d="M347.397,328.927c1.788-0.259,3.575-0.517,5.363-0.776C351.042,328.891,349.662,331.966,347.397,328.927z"
			/>
		<path fill="#F4057B" d="M335.543,315.987c0.84,1.316,1.681,2.633,2.521,3.949c-0.572,0.096-1.632,0.317-1.644,0.27
			C336.064,318.816,335.812,317.399,335.543,315.987z"/>
		<path fill="#F4057B" d="M338.502,299.554c-1.004-1.255-2.007-2.51-3.011-3.765C338.73,295.256,338.689,297.347,338.502,299.554z"
			/>
		<path fill="#F4057B" d="M314.517,287.736c1.233,1.182,2.465,2.364,3.698,3.547C315.563,291.58,314.549,290.17,314.517,287.736z"/>
		<path fill="#F4057B" d="M307.027,283.015c0.979,0.505,1.959,1.011,2.938,1.516c-1.307,0.626-2.614,1.252-4.313,2.066
			C306.206,285.155,306.617,284.085,307.027,283.015z"/>
		<path fill="#F4057B" d="M362.254,329.573c0.986,0.077,1.972,0.155,2.958,0.232c-0.062,0.456-0.124,0.911-0.186,1.367
			c-0.975-0.155-1.951-0.309-2.926-0.464C362.151,330.33,362.202,329.952,362.254,329.573z"/>
		<path fill="#F4057B" d="M356.798,333.092c0.139-0.432,0.278-0.865,0.418-1.297c1.097-0.265,2.193-0.53,3.29-0.795
			c0.102,0.396,0.204,0.792,0.306,1.188C359.473,332.489,358.135,332.79,356.798,333.092z"/>
		<path fill="#F4057B" d="M259.557,297.073c0.792-1.011,1.583-2.022,2.374-3.033C262.018,295.738,262.404,297.671,259.557,297.073z"
			/>
		<path fill="#F4057B" d="M358.781,327.479c0.753,0,1.507,0.001,2.26,0.001c-0.487,0.59-0.975,1.18-1.462,1.77
			C359.313,328.66,359.047,328.069,358.781,327.479z"/>
		<path fill="#F4057B" d="M343.218,326.299c0.944,0.824,1.887,1.647,2.831,2.471C345.105,327.946,344.161,327.123,343.218,326.299z"
			/>
		<path fill="#F4057B" d="M340.673,302.847c-0.728-1.102-1.456-2.205-2.184-3.307C339.217,300.642,339.945,301.745,340.673,302.847z
			"/>
		<path fill="#F4057B" d="M351.636,334.581c0.624-0.212,1.248-0.423,1.872-0.635c0.432,0.533,0.864,1.066,1.296,1.599
			c-0.104,0.162-0.207,0.324-0.311,0.486C353.54,335.547,352.588,335.064,351.636,334.581z"/>
		<path fill="#F4057B" d="M321.512,341.608c-1.079,0.439-2.157,0.878-3.236,1.317C319.355,342.486,320.434,342.047,321.512,341.608z
			"/>
		<path fill="#F4057B" d="M344.807,308.732c-0.346-0.57-0.692-1.141-1.038-1.711c0.639,0.226,1.277,0.451,1.916,0.677
			C345.392,308.043,345.1,308.387,344.807,308.732z"/>
		<path fill="#F4057B" d="M353.545,328.052c0.75-0.145,1.499-0.289,2.249-0.434C355.044,327.763,354.294,327.907,353.545,328.052z"
			/>
		<path fill="#F4057B" d="M339.313,321.974c0.64,0.716,1.28,1.432,1.921,2.147C340.593,323.405,339.953,322.689,339.313,321.974z"/>
		<path fill="#F4057B" d="M325.802,300.961c0.509,0.756,1.018,1.513,1.527,2.269C326.82,302.473,326.311,301.717,325.802,300.961z"
			/>
		<path fill="#F4057B" d="M329.932,290.074c-0.65-0.604-1.3-1.209-1.951-1.814C328.631,288.865,329.281,289.47,329.932,290.074z"/>
		<path fill="#F4057B" d="M352.818,318.929c-0.525-0.712-1.051-1.423-1.576-2.135C351.768,317.506,352.293,318.217,352.818,318.929z
			"/>
		<path fill="#F4057B" d="M327.28,304.764c-0.3,0.381-0.601,0.761-0.901,1.142c-0.081-0.081-0.161-0.161-0.242-0.242
			c0.38-0.301,0.761-0.601,1.141-0.901C327.278,304.763,327.28,304.764,327.28,304.764z"/>
		<path fill="#F4057B" d="M328.89,305.185c0.391,0.625,0.782,1.25,1.174,1.875C329.673,306.436,329.282,305.81,328.89,305.185z"/>
		<path fill="#F4057B" d="M341.649,324.627c0.533,0.57,1.066,1.139,1.6,1.709C342.716,325.766,342.183,325.197,341.649,324.627z"/>
		<path fill="#F4057B" d="M319.008,292.079c0.444,0.5,0.888,1,1.331,1.5C319.895,293.079,319.452,292.579,319.008,292.079z"/>
		<path fill="#F4057B" d="M327.313,303.216c0.442,0.517,0.884,1.034,1.326,1.551c-0.453-0.001-0.906-0.001-1.359-0.002
			c0,0-0.002-0.002-0.002-0.002C327.29,304.247,327.302,303.731,327.313,303.216z"/>
		<path fill="#F4057B" d="M354.285,320.514c-0.475-0.51-0.949-1.019-1.423-1.529C353.336,319.494,353.81,320.004,354.285,320.514z"
			/>
		<path fill="#F4057B" d="M302.516,281.154c0.494,0.185,0.988,0.369,1.482,0.554C303.504,281.524,303.01,281.339,302.516,281.154z"
			/>
		<path fill="#F4057B" d="M269.56,284.537c-0.749,0.293-1.499,0.586-2.248,0.88C268.062,285.124,268.811,284.831,269.56,284.537z"/>
		<path fill="#F4057B" d="M320.456,293.716c0.289,0.427,0.577,0.854,0.866,1.281C321.033,294.571,320.745,294.143,320.456,293.716z"
			/>
		<path fill="#F4057B" d="M331.063,291.144c-0.371-0.363-0.741-0.726-1.113-1.088C330.32,290.42,330.691,290.782,331.063,291.144z"
			/>
		<path fill="#F4057B" d="M357.811,323.826c-0.425-0.353-0.849-0.707-1.274-1.06C356.962,323.12,357.387,323.473,357.811,323.826z"
			/>
		<path fill="#F4057B" d="M264.584,287.625c-0.575-0.039-1.151-0.078-1.726-0.118C263.433,287.546,264.009,287.585,264.584,287.625z
			"/>
		<path fill="#F4057B" d="M261.969,284.637c-0.134-0.518-0.269-1.037-0.403-1.555C261.7,283.6,261.834,284.119,261.969,284.637z"/>
		<path fill="#F4057B" d="M311.78,285.68c0.422,0.357,0.845,0.714,1.267,1.072C312.625,286.394,312.202,286.037,311.78,285.68z"/>
		<path fill="#F4057B" d="M338.531,320.59c0.266,0.468,0.532,0.936,0.798,1.404C339.063,321.526,338.797,321.058,338.531,320.59z"/>
		<path fill="#F4057B" d="M347.54,333.291c-0.258,0.091-0.517,0.183-0.775,0.274C347.023,333.473,347.282,333.382,347.54,333.291z"
			/>
		<path fill="#F4057B" d="M350.516,316.032c-0.414-0.457-0.829-0.913-1.244-1.37C349.686,315.119,350.101,315.576,350.516,316.032z"
			/>
		<path fill="#F4057B" d="M284.524,270.26c-0.263,0.187-0.526,0.373-0.789,0.56c0.262-0.187,0.525-0.375,0.787-0.562
			C284.522,270.258,284.524,270.26,284.524,270.26z"/>
		<path fill="#F4057B" d="M346.81,311.419c-0.277-0.462-0.555-0.923-0.832-1.385C346.256,310.495,346.533,310.957,346.81,311.419z"
			/>
		<path fill="#F4057B" d="M372.745,332.666c-0.655,0.207-1.309,0.415-1.964,0.622C371.436,333.081,372.09,332.874,372.745,332.666z"
			/>
		<path fill="#F4057B" d="M363.705,334.894c-0.639,0.22-1.279,0.44-1.918,0.66c-0.001-0.262-0.002-0.524-0.004-0.786l0.002-0.002
			C362.425,334.809,363.065,334.852,363.705,334.894z"/>
		<path fill="#F4057B" d="M358.46,336.394c-0.634,0.238-1.269,0.476-1.903,0.714C357.191,336.87,357.826,336.632,358.46,336.394z"/>
		<path fill="#F4057B" d="M329.755,338.604c-0.574,0.217-1.148,0.435-1.721,0.652C328.607,339.039,329.181,338.821,329.755,338.604z
			"/>
		<path fill="#F4057B" d="M274.393,284.405c0.371-0.23,0.741-0.46,1.112-0.69C275.134,283.944,274.764,284.174,274.393,284.405z"/>
		<path fill="#F4057B" d="M305.468,278.889l-0.319,0.084c0,0-0.268-0.193-0.268-0.194
			C305.116,278.602,305.311,278.639,305.468,278.889z"/>
		<path fill="#F4057B" d="M349.015,314.351c-0.154-0.185-0.308-0.37-0.462-0.555C348.78,313.92,348.934,314.105,349.015,314.351z"/>
		<path fill="#F4057B" d="M323.215,340.888c-0.392,0.19-0.783,0.381-1.175,0.571C322.432,341.268,322.824,341.078,323.215,340.888z"
			/>
		<path fill="#F4057B" d="M348.258,313.082c-0.243-0.271-0.486-0.542-0.729-0.812C347.772,312.541,348.015,312.811,348.258,313.082z
			"/>
		<path fill="#F4057B" d="M257.581,299.5c0.212-0.298,0.424-0.596,0.636-0.894C258.006,298.904,257.794,299.202,257.581,299.5z"/>
		<path fill="#F4057B" d="M315.698,343.882c-0.387,0.197-0.774,0.393-1.161,0.59C314.924,344.275,315.311,344.078,315.698,343.882z"
			/>
		<path fill="#F4057B" d="M358.643,324.495c-0.295-0.246-0.59-0.493-0.886-0.738C358.051,324.003,358.347,324.249,358.643,324.495z"
			/>
		<path fill="#F4057B" d="M361.783,334.769c-0.103-0.057-0.206-0.115-0.309-0.172c0.104,0.057,0.207,0.113,0.311,0.17
			C361.785,334.767,361.783,334.769,361.783,334.769z"/>
		<path fill="#F4057B" d="M258.68,297.912c0.331-0.278,0.662-0.557,0.993-0.836C259.342,297.353,259.011,297.632,258.68,297.912z"/>
		<path fill="#F4057B" d="M365.284,334.198c-0.429,0.244-0.859,0.488-1.288,0.732C364.425,334.687,364.854,334.442,365.284,334.198z
			"/>
		<path fill="#F4057B" d="M335.508,295.805c-0.249-0.262-0.497-0.523-0.746-0.785C335.011,295.282,335.259,295.543,335.508,295.805z
			"/>
		<path fill="#F4057B" d="M353.945,337.88c-0.381,0.177-0.762,0.354-1.143,0.53C353.183,338.233,353.564,338.057,353.945,337.88z"/>
		<path fill="#F4057B" d="M351.258,316.809c-0.248-0.26-0.496-0.52-0.744-0.78C350.762,316.289,351.01,316.549,351.258,316.809z"/>
		<path fill="#F4057B" d="M310.796,285.204c0.329,0.178,0.659,0.356,0.99,0.532C311.457,285.558,311.126,285.381,310.796,285.204z"
			/>
		<path fill="#F4057B" d="M272.982,285.168c0.344-0.208,0.688-0.416,1.031-0.624C273.67,284.753,273.326,284.96,272.982,285.168z"/>
		<path fill="#FB007A" d="M381.919,330.389c0.037,0.348,0.075,0.696,0.112,1.044c-0.505,0.064-1.011,0.127-1.516,0.191
			C380.983,331.213,381.451,330.801,381.919,330.389z"/>
		<path fill="#FBFBFD" d="M364.61,459.007c0.028-5.161,2.374-8.189,6.754-8.718c4.248-0.513,7.078,2.034,8.108,7.296
			c1.432,7.318-2.3,11.821-8.922,10.765C366.577,467.717,364.579,464.574,364.61,459.007z"/>
		<path fill="#F5F5FA" d="M231.135,513.701c0.662-2.757,0.97-6.359,1.636-6.426c3.317-0.335,6.861-0.206,10.052,0.712
			c1.741,0.501,1,4.078-1.179,4.565C238.569,513.241,235.348,513.28,231.135,513.701z"/>
		<path fill="#F5F5FA" d="M231.955,499.939c0-2.043,0-3.625,0-6.017c3.153,0.156,6.288,0.198,9.387,0.553
			c0.695,0.08,1.882,1.415,1.761,1.903c-0.255,1.027-1.104,2.524-1.928,2.681C238.31,499.604,235.352,499.659,231.955,499.939z"/>
		<path fill="#E7E7F3" d="M272.116,460.37c-1.316,0.111-2.034,0.215-2.754,0.224c-1.856,0.025-3.713,0.008-6.258,0.008
			c1.519-3.305,2.821-6.14,4.456-9.698C269.216,454.346,270.536,457.088,272.116,460.37z"/>
		<path fill="#01007C" d="M335.165,512.37c-0.169,0.119-0.339,0.239-0.577,0.407c0.159-0.226,0.27-0.383,0.381-0.542
			C334.97,512.234,335.165,512.37,335.165,512.37z"/>
		<path fill="#F5F5FA" d="M399.264,505.759c0.508-0.495,1.016-0.991,1.524-1.486c0.36,0.016,0.719,0.032,1.079,0.048
			c0.389,0.496,0.778,0.993,1.167,1.489C401.778,505.793,400.521,505.776,399.264,505.759z"/>
		<path fill="#FEFEFE" d="M401.586,501.785c0.074,0.404,0.148,0.807,0.216,1.211c-0.224,0.015-0.44,0.032-0.654,0.051
			c-0.254-0.218-0.509-0.436-0.764-0.653C400.785,502.191,401.185,501.988,401.586,501.785z"/>
		<path fill="#6059AD" d="M403.034,505.81c-0.389-0.496-0.778-0.993-1.167-1.489C402.256,504.818,402.645,505.314,403.034,505.81z"
			/>
		<path fill="#131187" d="M275.714,414.51c-2.028-0.146-3.794-0.126-5.507-0.421c-8.291-1.428-10.966-7.282-5.775-14.066
			c3.903-5.101,8.508-9.887,13.557-13.85c23.937-18.789,50.79-31.599,80.759-37.306c5.486-1.045,11.433-0.799,16.996,0.015
			c5.669,0.83,7.558,5.13,5.153,10.387c-1.322,2.89-3.267,5.629-5.429,7.979c-13.096,14.241-29.522,23.671-46.847,31.649
			c-14.875,6.85-30.072,12.845-46.477,15.013C279.923,414.203,277.679,414.33,275.714,414.51z M299.544,396.427
			c-5.89,2.763-16.273,1.762-21.491-2.37c-2.809-2.224-4.238-1.259-5.779,1.118c8.623,9.654,24.794,10.42,36.322,1.872
			c8.05-5.97,11.486-18.322,6.905-25.803c-9.16,2.336-17.712,6.327-25.927,11.073c-4.501,2.601-5.045,4.382-1.787,8.523
			c1.71,2.173,4.622,3.504,7.178,4.864C296.189,396.355,297.848,396.19,299.544,396.427z"/>
		<path fill="#F5E907" d="M299.544,396.427c-1.697-0.237-3.355-0.072-4.579-0.723c-2.556-1.36-5.468-2.69-7.178-4.864
			c-3.258-4.141-2.715-5.922,1.787-8.523c8.215-4.746,16.767-8.737,25.927-11.073c4.581,7.48,1.145,19.833-6.905,25.803
			c-11.527,8.548-27.698,7.783-36.322-1.872c1.541-2.378,2.971-3.342,5.779-1.118C283.271,398.189,293.654,399.19,299.544,396.427z"
			/>
	</g>
</g>
</svg>
