<?xml version="1.0" encoding="utf-8"?>
<!-- Generator: Adobe Illustrator 17.0.0, SVG Export Plug-In . SVG Version: 6.00 Build 0)  -->
<!DOCTYPE svg PUBLIC "-//W3C//DTD SVG 1.1//EN" "http://www.w3.org/Graphics/SVG/1.1/DTD/svg11.dtd">
<svg version="1.1" id="Layer_1" xmlns="http://www.w3.org/2000/svg" xmlns:xlink="http://www.w3.org/1999/xlink" x="0px" y="0px"
	 width="612px" height="792px" viewBox="0 0 612 792" enable-background="new 0 0 612 792" xml:space="preserve">
<g>
	<g>
		<path fill="#FEFEFE" d="M118.75,343.769c0-44.98,0-89.96,0-134.98c125.017,0,250.035,0,375.052,0c0,45.019,0,89.999,0,134.98
			c-27.37,0.054-54.74,0.109-82.11,0.159c-5.795,0.011-11.065-1.593-15.798-5.007c-7.939-5.727-10.892-13.775-11.746-23.217
			c-1.393-15.406-4.478-30.402-13.102-43.695c-14.81-22.829-35.198-36.706-62.869-37.672c-37.985-1.326-65.516,25.59-74.734,53.634
			c-3.358,10.217-4.655,21.162-6.361,31.86c-2.245,14.078-11.99,23.745-26.286,23.991c-22.729,0.391-45.47,0.116-68.206,0.102
			C127.977,343.921,123.364,343.823,118.75,343.769z"/>
		<path fill="#FEFEFE" d="M493.802,548.548c0,11.752,0,23.503,0,35.255c-125.017,0-250.035,0-375.052,0c0-11.752,0-23.503,0-35.255
			c0.997-0.035,1.994-0.101,2.991-0.101c123.023-0.005,246.047-0.005,369.07,0C491.808,548.446,492.805,548.512,493.802,548.548z"/>
		<path fill="#3A1919" d="M493.802,548.548c-0.997-0.035-1.994-0.101-2.991-0.101c-123.023-0.005-246.047-0.005-369.07,0
			c-0.997,0-1.994,0.066-2.991,0.101c0-33.255,0-66.509,0-99.764c0.233-1.299,0.669-2.598,0.671-3.898
			c0.038-31.912,0.038-63.825,0-95.737c-0.002-1.294-0.437-2.587-0.671-3.88c0-0.5,0-1,0-1.5c4.614,0.054,9.227,0.152,13.841,0.155
			c22.736,0.015,45.477,0.29,68.206-0.102c14.296-0.246,24.04-9.913,26.286-23.991c1.706-10.698,3.003-21.643,6.361-31.86
			c9.218-28.044,36.749-54.961,74.734-53.634c27.671,0.966,48.059,14.843,62.869,37.672c8.623,13.293,11.708,28.289,13.102,43.695
			c0.854,9.442,3.808,17.49,11.746,23.217c4.733,3.414,10.003,5.018,15.798,5.007c27.37-0.05,54.74-0.105,82.11-0.159
			C493.802,412.028,493.802,480.288,493.802,548.548z M125.197,541.644c120.722,0,241.036,0,361.363,0c0-63.785,0-127.338,0-191.291
			c-1.665,0-3.003-0.003-4.34,0c-22.999,0.052-45.999,0.17-68.998,0.134c-16.641-0.026-30.535-10.816-33.905-26.312
			c-0.927-4.26-1.397-8.635-1.845-12.982c-1.875-18.19-8.19-34.506-20.887-47.868c-17.052-17.945-37.802-26.731-62.558-21.662
			c-31.305,6.411-49.325,27.108-57.345,57.156c-1.824,6.833-2.206,14.052-3.216,21.099c-2.632,18.357-16.511,30.428-35.028,30.433
			c-15.876,0.004-31.752,0.001-47.628,0.001c-8.465,0-16.931,0-25.612,0C125.197,414.356,125.197,477.813,125.197,541.644z"/>
		<path fill="#685B5C" d="M118.75,345.269c0.233,1.293,0.669,2.586,0.671,3.88c0.038,31.912,0.038,63.825,0,95.737
			c-0.002,1.299-0.437,2.598-0.671,3.898C118.75,414.279,118.75,379.774,118.75,345.269z"/>
		<path fill="#FCFAFA" d="M125.197,541.644c0-63.831,0-127.288,0-191.291c8.681,0,17.147,0,25.612,0
			c15.876,0,31.752,0.003,47.628-0.001c18.517-0.005,32.397-12.076,35.028-30.433c1.01-7.047,1.393-14.266,3.216-21.099
			c8.02-30.047,26.04-50.745,57.345-57.156c24.756-5.069,45.506,3.717,62.558,21.662c12.697,13.362,19.012,29.678,20.887,47.868
			c0.448,4.346,0.918,8.721,1.845,12.982c3.37,15.496,17.264,26.286,33.905,26.312c22.999,0.036,45.999-0.083,68.998-0.134
			c1.337-0.003,2.675,0,4.34,0c0,63.954,0,127.506,0,191.291C366.233,541.644,245.919,541.644,125.197,541.644z M241.019,351.93
			c4.012,0.789,8.023,1.578,12.035,2.367c0.62,0.927,1.216,1.871,1.864,2.778c25.472,35.637,80.988,34.189,103.576-2.698
			c4.652-0.114,9.427,0.311,13.342-3.041c0.032-0.911,0.065-1.822,0.113-3.179c4.656-2.278,6.885-7.178,4.596-11.074
			c-2.088,1.094-4.17,2.186-6.924,3.63c1.068-3.196,1.805-5.4,2.863-8.565c-2.571,2.077-4.18,3.377-5.789,4.676
			c2.402-10.451,2.983-20.957,0.254-31.408c-4.511-17.278-14.118-30.797-29.947-39.553c-0.421-0.457-0.928-0.861-1.248-1.38
			c-3.896-6.308-8.915-10.368-16.933-8.77c-0.506,0.101-1.168-0.63-1.769-0.951c-1.935-1.034-3.768-2.451-5.833-3.012
			c-6.192-1.682-12.321-0.891-18.429,0.916c-7.899,2.338-13.587,7.598-18.811,13.571c-0.267,0.334-0.534,0.668-0.8,1.003
			l0.012-0.109c-0.871,0.349-1.841,0.553-2.6,1.067c-11.85,8.031-19.895,18.92-24.517,32.453
			c-4.03,11.797-3.952,23.688-1.295,35.699c-1.505-1.186-3.009-2.371-5.329-4.2c1.041,3.05,1.804,5.288,2.939,8.614
			c-2.89-1.545-5.047-2.699-7.173-3.835c-1.606,4.501-0.149,7.844,5.533,12.113c-1.173,0.077-2.128,0.14-4.092,0.268
			C238.736,350.559,239.877,351.245,241.019,351.93z M139.576,367.013c0,9.849-0.034,19.308,0.072,28.767
			c0.008,0.677,0.938,1.775,1.622,1.946c6.882,1.72,7.554,2.37,8.336,9.168c1.941,16.876,3.885,33.751,5.779,50.632
			c1.114,9.924,2.252,19.848,3.147,29.793c0.413,4.594-0.835,5.787-5.188,7.33c-0.97,0.344-2.081,1.949-2.115,3.006
			c-0.255,7.867-0.27,15.742-0.319,23.615c-0.007,1.069,0.212,2.139,0.387,3.767c11.394,0,22.506-0.024,33.617,0.02
			c2.347,0.009,3.351-0.952,3.341-3.324c-0.024-5.623,0.093-11.246,0.131-16.87c0.023-3.324,0.004-6.648,0.004-9.811
			c-6.798-1.305-8.034-3.088-6.965-9.14c2.15-12.174,4.3-24.347,6.449-36.521c1.13-6.403,2.256-12.808,3.384-19.211
			c1.077,1.172,1.428,2.414,1.653,3.679c1.398,7.867,2.776,15.737,4.145,23.609c1.627,9.35,3.266,18.697,4.849,28.054
			c1.023,6.05,0.036,7.443-5.581,9.217c-0.811,0.256-1.632,1.962-1.649,3.01c-0.134,8.248-0.084,16.498-0.057,24.748
			c0.002,0.69,0.248,1.38,0.394,2.142c11.877,0,23.554,0,35.323,0c0-10.224,0-20.043,0-29.82c-5.467-1.119-6.37-2.477-5.701-8.587
			c2.934-26.82,5.882-53.638,8.836-80.455c0.582-5.284,2.092-7.092,7.312-7.795c2.412-0.325,2.727-1.419,2.709-3.438
			c-0.074-8.374-0.025-16.749-0.048-25.124c-0.002-0.697-0.199-1.393-0.298-2.04c-12.063,0-23.851,0-35.798,0
			c0,10.308,0,20.247,0,30.291c0.861,0.058,1.469,0.116,2.078,0.138c6.304,0.222,7.918,2.169,7.1,8.428
			c-0.404,3.094-0.666,6.207-1.012,9.309c-1.17,10.492-2.348,20.983-3.523,31.475c-1.084-1.191-1.418-2.37-1.635-3.57
			c-4.386-24.329-8.855-48.644-13.055-73.005c-0.872-5.057-4.563-3.056-7.191-3.626c-3.145-0.681-2.828,1.971-3.158,3.84
			c-4.254,24.101-8.492,48.204-12.769,72.301c-0.18,1.013-0.702,1.966-1.065,2.947c-1.281-4.165-1.774-8.083-2.235-12.004
			c-1.123-9.553-2.333-19.097-3.303-28.665c-0.528-5.205,1.286-7.071,6.487-7.432c0.591-0.041,1.179-0.136,2.307-0.27
			c0-9.501-0.027-18.847,0.02-28.192c0.011-2.256-1.38-2.238-2.991-2.238c-5.499-0.001-10.997-0.073-16.496-0.091
			C151.315,366.999,145.725,367.013,139.576,367.013z M392.513,464.742c-4.201,0.79-7.745,1.363-11.228,2.192
			c-0.681,0.162-1.569,1.297-1.603,2.018c-0.168,3.605-0.364,7.249-0.028,10.83c0.723,7.704,5.177,11.907,12.844,12.585
			c14.554,1.288,24.02-7.364,24.064-21.945c0.069-22.996,0.174-45.991,0.252-68.986c0.022-6.447,0.003-12.895,0.003-19.194
			c-6.864,0-13.023,0-19.43,0c0,6.933,0,13.493,0,19.999c4.545,1.737,4.842,2.158,4.865,6.858
			c0.038,7.999,0.087,15.997,0.097,23.996c0.004,3.398-2.049,5.274-5.642,5.328c-3.564,0.053-3.911-2.253-3.901-5.029
			c0.043-11.499,0.018-22.998,0.018-34.497c0-5.435,0-10.871,0-16.797c-6.844,0.444-12.872,0.835-19.269,1.25
			c0,7.055,0,13.645,0,20.58c4.124-0.191,4.572,2.665,4.552,6.216c-0.071,12.747,0.265,25.501-0.033,38.241
			c-0.199,8.492,6.208,14.671,16.602,11.874c2.469-0.664,4.83-1.73,7.653-2.762c0,4.025,0.25,7.655-0.097,11.228
			c-0.195,2.013-0.96,4.286-2.241,5.779c-1.015,1.183-3.354,2.06-4.825,1.749c-1.113-0.236-2.239-2.469-2.543-3.978
			C392.192,470.141,392.513,467.854,392.513,464.742z M302.384,466.95c-4.018,0.671-4.681-1.257-4.654-4.294
			c0.106-12.244,0.029-24.49,0.053-36.735c0.007-3.707,2.517-6.492,5.881-6.193c3.688,0.328,3.429,3.323,3.443,5.957
			c0.067,12.618,0.027,25.237,0.22,37.853c0.074,4.85,0.481,9.716,1.091,14.53c0.35,2.76,1.563,6.041,4.831,5.713
			c3.953-0.397,7.79-2.048,11.627-3.308c0.301-0.099,0.288-1.386,0.291-2.122c0.022-5.748,0.049-11.496-0.028-17.242
			c-0.012-0.857-0.351-2.252-0.902-2.466c-2.538-0.987-2.226-3.009-2.225-5c0.005-11.495,0.074-22.991-0.029-34.486
			c-0.048-5.358-0.104-10.755-0.759-16.059c-0.678-5.494-4.351-8.16-9.902-8.146c-6.251,0.016-10.913,3.06-14.789,7.649
			c-0.743,0.88-1.505,1.744-2.541,2.943c-0.363-1.748-0.602-2.902-0.927-4.469c-3.679,1.147-7.084,2.338-10.563,3.245
			c-1.956,0.51-2.557,1.493-2.516,3.435c0.109,5.121,0.005,10.245,0.064,15.368c0.011,0.952,0.068,2.401,0.643,2.763
			c2.677,1.685,2.225,4.222,2.245,6.684c0.03,3.873,0.419,7.78,0.037,11.611c-1.046,10.477,1.995,21.017-2.52,31.622
			c-2.318,5.445-0.407,12.691-0.407,19.741c7.199-2.236,13.75-4.195,20.227-6.373c0.892-0.3,1.993-1.675,2.018-2.579
			C302.466,480.242,302.384,473.889,302.384,466.95z M329.134,479.669c10.021-3.501,19.37-6.302,28.328-10.039
			c7.584-3.163,11.793-9.177,11.8-17.871c0.012-14.843,0.408-29.686,0.426-44.529c0.005-4.211-0.365-8.503-1.237-12.615
			c-1.363-6.428-6.838-10.39-13.288-9.39c-8.99,1.394-17.898,3.334-26.807,5.199c-0.944,0.197-2.359,1.433-2.382,2.221
			c-0.191,6.695-0.109,13.398-0.109,20.073c5.387,0.192,6.746,1.051,6.275,5.867c-1.287,13.154,2.654,26.425-2.602,39.673
			C327.159,464.252,329.134,471.973,329.134,479.669z M322.118,502.16c-4.981-4.341-10.398-6.21-16.771-4.734
			c-4.85,1.123-8.718,3.702-11.708,7.577c-3.127,4.053-6.035,8.275-9.156,12.334c-2.503,3.255-5.572,5.84-9.89,6.134
			c-3.591,0.245-6.718-0.904-8.608-4.18c-1.513-2.624-1.612-5.66,0.641-7.606c1.525-1.317,4.194-1.924,6.29-1.802
			c2.314,0.135,2.98,2.28,2.563,4.577c-0.102,0.564,0.149,1.193,0.268,1.996c3.513-0.267,5.102-2.546,4.189-5.254
			c-0.779-2.31-2.81-4.779-4.956-5.927c-4.464-2.387-10.475-0.33-13.66,3.898c-2.98,3.957-2.662,10.146,0.734,14.272
			c6.266,7.613,17.447,7.533,25.013-0.51c3.057-3.25,5.28-7.27,8.149-10.718c2.453-2.948,4.975-6.003,8.027-8.25
			c4.586-3.379,11.119-2.558,14.817,1.184c2.291,2.318,3.532,5.345,2.231,8.195c-1.019,2.231-3.26,4.467-5.498,5.384
			c-1.532,0.628-4.323-0.569-5.917-1.783c-1.022-0.778-1.703-3.572-1.088-4.572c0.991-1.612,3.177-2.49,5.424-4.079
			c-0.754-0.478-1.628-1.415-2.641-1.605c-3.551-0.668-7.104,1.867-8.207,5.608c-1.936,6.562,4.051,13.142,11.241,11.862
			c3.134-0.558,6.035-2.423,9.275-3.793c3.78,7.148,10.319,10.266,18.67,9.738c8.665-0.548,14.199-5.201,16.591-13.856
			c3.686,3.785,7.446,6.087,12.296,3.524c1.905-1.007,3.454-2.523,2.17-5.314c-0.77,0.287-1.449,0.493-2.088,0.785
			c-3.814,1.739-6.819,0.532-8.339-3.369c-1.765-4.528,1.099-9.843,6.2-11.506c9.188-2.996,19.417,3.711,20.337,13.336
			c0.387,4.05-1.854,7.994-5.365,9.44c-3.12,1.285-5.472,0.282-6.863-2.868c-0.224-0.508-0.684-0.912-1.66-2.17
			c-0.523,1.91-1.134,3.074-1.096,4.218c0.091,2.78,3.146,5.458,6.373,5.88c7.205,0.943,13.573-5.337,13.07-12.916
			c-0.092-1.379-0.298-2.751-0.531-4.838c1.978,1.587,3.242,2.793,4.684,3.725c6.375,4.122,12.457,8.905,19.28,12.084
			c14.861,6.925,31.986,2.832,42.279-9.217c9.864-11.546,7.877-29.154-4.254-37.703c-8.822-6.217-21.878-4.78-28.209,3.106
			c-5.758,7.172-2.868,18.129,5.452,20.677c5.291,1.62,11.546-1.041,12.768-5.577c0.25-0.929-0.261-2.064-0.422-3.104
			c-0.794,0.368-1.927,0.519-2.325,1.14c-2.093,3.271-4.993,4.038-8.43,2.824c-3.209-1.133-4.957-4.825-4.39-8.654
			c0.755-5.101,5.466-9.145,11.045-9.484c10.925-0.663,20.536,9.601,19.497,20.836c-0.77,8.33-5.051,14.564-11.935,18.947
			c-11.56,7.361-23.209,5.413-34.486-0.629c-4.359-2.336-8.26-5.592-12.175-8.675c-11.903-9.372-23.937-18.503-38.571-23.331
			C346.238,482.066,330.634,487.66,322.118,502.16z M274.735,407.235c-12.91,2.761-24.97,5.34-37.03,7.919
			c-0.122,0.026-0.31,0.004-0.358,0.077c-0.612,0.914-1.671,1.819-1.717,2.77c-0.164,3.362-0.076,6.746,0.098,10.112
			c0.175,3.393-1.311,7.253,2.691,9.706c0.578,0.354,0.618,1.85,0.63,2.821c0.137,11.492,0.332,22.986,0.245,34.477
			c-0.023,3.071,0.474,6.735-3.51,8.348c-0.318,0.129-0.57,0.828-0.573,1.264c-0.037,6.215-0.025,12.429-0.025,18.696
			c0.878,0.11,1.379,0.291,1.835,0.213c11.923-2.047,23.852-4.061,35.736-6.314c0.865-0.164,1.965-2.089,1.989-3.215
			c0.202-9.744,0.193-19.493,0.214-29.24c0.002-0.93-0.217-1.86-0.384-3.197c-3.461,0.883-7.062,1.006-9.522,2.743
			c-1.36,0.96-0.781,4.63-1.134,7.07c-0.16,1.11-0.397,2.218-0.708,3.294c-0.886,3.064-3.084,4.686-6.061,5.52
			c-2.116,0.593-3.16-0.229-3.23-2.279c-0.094-2.747-0.034-5.498-0.035-8.248c-0.002-7.205,0.022-7.133,7.047-9.364
			c1.179-0.375,2.849-1.593,2.947-2.558c0.355-3.517,0.14-7.092,0.14-10.949c-3.836,0.619-6.816,1.099-9.953,1.605
			c0-4.35,0.13-8.08-0.037-11.796c-0.164-3.64,1.813-4.887,4.995-5.07c3.42-0.196,4.616,2.02,5.005,4.865
			c0.267,1.953,0.232,3.947,0.351,6.305c2.435-0.593,4.569-1.24,6.75-1.611c2.704-0.46,3.615-1.792,3.527-4.599
			c-0.191-6.115,0.037-12.242,0.073-18.365C274.753,414.652,274.735,411.065,274.735,407.235z M460.446,385.318
			c-1.013-0.718-1.995-1.48-3.039-2.143c-9.836-6.246-21.9-1.772-24.089,9.272c-0.909,4.585-0.931,9.454-0.629,14.148
			c0.504,7.826,3.807,14.406,10.324,19.12c2.63,1.902,5.268,3.794,7.867,5.738c2.728,2.041,4.894,4.692,4.419,8.168
			c-0.258,1.888-1.735,4.544-3.268,5.063c-1.553,0.526-4.572-0.6-5.656-2.002c-1.581-2.045-1.893-5.033-2.977-7.518
			c-0.46-1.053-1.425-2.53-2.304-2.637c-2.79-0.34-5.648-0.126-8.57-0.126c0,10.557,0,20.595,0,30.603
			c8.715,0.831,8.924,0.773,12.187-3.377c0.639,0.601,1.26,1.204,1.902,1.786c6.398,5.803,16.862,4.541,21.712-2.615
			c7.562-11.155,4.382-32.007-6.175-40.352c-3.331-2.633-6.901-5-9.993-7.885c-1.634-1.525-3.154-3.8-3.465-5.922
			c-0.264-1.804,0.769-4.627,2.185-5.584c1.132-0.765,4.467-0.04,5.467,1.157c1.829,2.188,2.562,5.263,3.944,7.866
			c0.547,1.03,1.518,2.421,2.448,2.55c2.548,0.352,5.177,0.121,7.884,0.121c0-10.064,0-19.694,0-29.297
			C463.283,381.061,463.283,381.061,460.446,385.318z M420.282,393.55c7.633,0.855,11.547-1.71,12.16-7.793
			c0.517-5.127,0.106-10.347,0.106-15.838c-4.425,0-8.475,0-12.73,0c0,3.941,0,7.738,0,11.496c4.462,0.897,5.173,2.594,3.034,5.774
			C421.688,388.919,421.229,391.124,420.282,393.55z M474.972,459.107c-3.079,0.131-4.825,1.614-5.014,4.579
			c-0.18,2.822,2.077,5.019,4.98,4.837c2.886-0.181,4.666-1.689,4.63-4.748C479.533,460.721,477.735,459.333,474.972,459.107z"/>
		<path fill="#D22332" d="M139.576,367.013c6.149,0,11.739-0.014,17.329,0.004c5.499,0.018,10.998,0.09,16.496,0.091
			c1.611,0,3.002-0.018,2.991,2.238c-0.047,9.345-0.02,18.691-0.02,28.192c-1.128,0.134-1.715,0.229-2.307,0.27
			c-5.201,0.361-7.015,2.227-6.487,7.432c0.97,9.568,2.18,19.112,3.303,28.665c0.461,3.921,0.954,7.839,2.235,12.004
			c0.363-0.981,0.885-1.934,1.065-2.947c4.277-24.097,8.515-48.2,12.769-72.301c0.33-1.869,0.013-4.522,3.158-3.84
			c2.628,0.57,6.319-1.432,7.191,3.626c4.199,24.361,8.669,48.676,13.055,73.005c0.216,1.2,0.551,2.379,1.635,3.57
			c1.175-10.492,2.354-20.983,3.523-31.475c0.346-3.102,0.608-6.215,1.012-9.309c0.818-6.259-0.797-8.207-7.1-8.428
			c-0.609-0.021-1.217-0.079-2.078-0.138c0-10.044,0-19.983,0-30.291c11.948,0,23.735,0,35.798,0
			c0.099,0.647,0.296,1.343,0.298,2.04c0.022,8.375-0.027,16.75,0.048,25.124c0.018,2.019-0.297,3.113-2.709,3.438
			c-5.22,0.703-6.73,2.511-7.312,7.795c-2.954,26.817-5.902,53.636-8.836,80.455c-0.668,6.11,0.235,7.468,5.701,8.587
			c0,9.777,0,19.596,0,29.82c-11.769,0-23.447,0-35.323,0c-0.146-0.762-0.392-1.452-0.394-2.142
			c-0.027-8.25-0.078-16.501,0.057-24.748c0.017-1.048,0.839-2.754,1.649-3.01c5.617-1.775,6.605-3.167,5.581-9.217
			c-1.583-9.357-3.222-18.705-4.849-28.054c-1.37-7.872-2.747-15.742-4.145-23.609c-0.225-1.265-0.576-2.507-1.653-3.679
			c-1.128,6.404-2.254,12.808-3.384,19.211c-2.148,12.174-4.299,24.347-6.449,36.521c-1.069,6.052,0.167,7.835,6.965,9.14
			c0,3.163,0.019,6.487-0.004,9.811c-0.038,5.623-0.155,11.247-0.131,16.87c0.01,2.372-0.994,3.333-3.341,3.324
			c-11.111-0.044-22.223-0.02-33.617-0.02c-0.174-1.628-0.393-2.699-0.387-3.767c0.049-7.873,0.064-15.748,0.319-23.615
			c0.034-1.057,1.145-2.662,2.115-3.006c4.352-1.543,5.601-2.736,5.188-7.33c-0.894-9.945-2.033-19.869-3.147-29.793
			c-1.894-16.881-3.837-33.756-5.779-50.632c-0.782-6.798-1.454-7.447-8.336-9.168c-0.684-0.171-1.615-1.269-1.622-1.946
			C139.541,386.322,139.576,376.862,139.576,367.013z"/>
		<path fill="#D22332" d="M392.513,464.742c0,3.112-0.321,5.398,0.109,7.534c0.304,1.509,1.429,3.742,2.543,3.978
			c1.47,0.312,3.81-0.566,4.825-1.749c1.281-1.493,2.046-3.766,2.241-5.779c0.347-3.573,0.097-7.203,0.097-11.228
			c-2.823,1.032-5.184,2.097-7.653,2.762c-10.394,2.797-16.801-3.382-16.602-11.874c0.299-12.74-0.037-25.494,0.033-38.241
			c0.02-3.551-0.428-6.407-4.552-6.216c0-6.935,0-13.525,0-20.58c6.397-0.415,12.425-0.806,19.269-1.25c0,5.926,0,11.361,0,16.797
			c0,11.499,0.025,22.998-0.018,34.497c-0.01,2.777,0.337,5.083,3.901,5.029c3.592-0.054,5.646-1.93,5.642-5.328
			c-0.01-7.999-0.059-15.997-0.097-23.996c-0.023-4.701-0.319-5.122-4.865-6.858c0-6.506,0-13.065,0-19.999
			c6.407,0,12.566,0,19.43,0c0,6.299,0.019,12.747-0.003,19.194c-0.078,22.996-0.183,45.991-0.252,68.986
			c-0.044,14.581-9.509,23.233-24.064,21.945c-7.667-0.678-12.121-4.881-12.844-12.585c-0.336-3.581-0.14-7.225,0.028-10.83
			c0.034-0.721,0.922-1.856,1.603-2.018C384.768,466.105,388.312,465.532,392.513,464.742z"/>
		<path fill="#D22434" d="M302.384,466.95c0,6.939,0.082,13.292-0.093,19.638c-0.025,0.904-1.126,2.28-2.018,2.579
			c-6.477,2.178-13.029,4.137-20.227,6.373c0-7.05-1.911-14.296,0.407-19.741c4.515-10.605,1.474-21.145,2.52-31.622
			c0.382-3.831-0.007-7.738-0.037-11.611c-0.019-2.462,0.433-4.999-2.245-6.684c-0.575-0.362-0.632-1.811-0.643-2.763
			c-0.059-5.122,0.045-10.247-0.064-15.368c-0.041-1.942,0.56-2.925,2.516-3.435c3.479-0.907,6.885-2.097,10.563-3.245
			c0.325,1.567,0.564,2.721,0.927,4.469c1.036-1.199,1.798-2.063,2.541-2.943c3.876-4.589,8.538-7.633,14.789-7.649
			c5.551-0.014,9.224,2.652,9.902,8.146c0.655,5.305,0.711,10.701,0.759,16.059c0.103,11.494,0.034,22.99,0.029,34.486
			c-0.001,1.991-0.313,4.013,2.225,5c0.55,0.214,0.89,1.609,0.902,2.466c0.078,5.747,0.05,11.495,0.028,17.242
			c-0.003,0.736,0.01,2.023-0.291,2.122c-3.837,1.26-7.674,2.911-11.627,3.308c-3.268,0.329-4.481-2.952-4.831-5.713
			c-0.61-4.814-1.017-9.68-1.091-14.53c-0.193-12.616-0.153-25.235-0.22-37.853c-0.014-2.634,0.246-5.628-3.443-5.957
			c-3.364-0.299-5.873,2.486-5.881,6.193c-0.024,12.245,0.053,24.491-0.053,36.735C297.703,465.692,298.366,467.621,302.384,466.95z
			"/>
		<path fill="#D22433" d="M329.134,479.669c0-7.695-1.975-15.416,0.403-21.411c5.255-13.248,1.315-26.519,2.602-39.673
			c0.471-4.816-0.888-5.675-6.275-5.867c0-6.674-0.082-13.377,0.109-20.073c0.022-0.787,1.438-2.023,2.382-2.221
			c8.91-1.865,17.818-3.805,26.807-5.199c6.45-1,11.925,2.962,13.288,9.39c0.872,4.112,1.242,8.404,1.237,12.615
			c-0.017,14.843-0.414,29.686-0.426,44.529c-0.007,8.693-4.216,14.707-11.8,17.871
			C348.503,473.366,339.155,476.168,329.134,479.669z M346.701,428.755c-0.122,0-0.244,0.001-0.366,0.001
			c0,5.367-0.07,10.736,0.045,16.101c0.033,1.52,0.608,3.029,0.934,4.543c1.648-0.462,3.708-0.47,4.84-1.499
			c1.411-1.283,2.75-3.348,2.904-5.178c0.48-5.712,0.46-11.471,0.494-17.213c0.028-4.736,0-9.481-0.29-14.205
			c-0.145-2.357-1.528-3.933-4.265-3.584c-2.492,0.318-4.545,0.696-4.371,4.177C346.905,417.505,346.701,423.135,346.701,428.755z"
			/>
		<path fill="#401E1E" d="M322.118,502.16c8.515-14.5,24.119-20.093,40.34-14.742c14.634,4.828,26.669,13.959,38.571,23.331
			c3.916,3.083,7.817,6.34,12.175,8.675c11.277,6.043,22.927,7.99,34.486,0.629c6.883-4.383,11.164-10.616,11.935-18.947
			c1.039-11.236-8.572-21.499-19.497-20.836c-5.579,0.338-10.29,4.383-11.045,9.484c-0.567,3.829,1.18,7.521,4.39,8.654
			c3.437,1.213,6.336,0.446,8.43-2.824c0.398-0.621,1.531-0.772,2.325-1.14c0.16,1.04,0.672,2.175,0.422,3.104
			c-1.222,4.536-7.477,7.197-12.768,5.577c-8.321-2.548-11.21-13.506-5.452-20.677c6.331-7.885,19.387-9.323,28.209-3.106
			c12.131,8.549,14.118,26.157,4.254,37.703c-10.294,12.049-27.418,16.142-42.279,9.217c-6.823-3.18-12.905-7.963-19.28-12.084
			c-1.441-0.932-2.706-2.138-4.684-3.725c0.233,2.087,0.439,3.459,0.531,4.838c0.503,7.579-5.865,13.859-13.07,12.916
			c-3.227-0.422-6.282-3.1-6.373-5.88c-0.037-1.143,0.574-2.308,1.096-4.218c0.976,1.258,1.436,1.662,1.66,2.17
			c1.391,3.15,3.743,4.153,6.863,2.868c3.511-1.446,5.752-5.39,5.365-9.44c-0.92-9.625-11.15-16.333-20.337-13.336
			c-5.101,1.664-7.965,6.978-6.2,11.506c1.52,3.901,4.524,5.107,8.339,3.369c0.64-0.292,1.318-0.498,2.088-0.785
			c1.284,2.791-0.265,4.307-2.17,5.314c-4.85,2.563-8.61,0.262-12.296-3.524c-2.392,8.655-7.925,13.309-16.591,13.856
			c-8.351,0.528-14.89-2.59-18.67-9.738c-3.24,1.37-6.142,3.235-9.275,3.793c-7.189,1.28-13.176-5.299-11.241-11.862
			c1.103-3.74,4.656-6.276,8.207-5.608c1.014,0.191,1.887,1.127,2.641,1.605c-2.247,1.588-4.433,2.466-5.424,4.079
			c-0.615,1,0.067,3.794,1.088,4.572c1.594,1.214,4.385,2.411,5.917,1.783c2.238-0.917,4.479-3.153,5.498-5.384
			c1.301-2.85,0.06-5.877-2.231-8.195c-3.699-3.742-10.231-4.562-14.817-1.184c-3.051,2.248-5.573,5.302-8.027,8.25
			c-2.869,3.448-5.091,7.468-8.149,10.718c-7.566,8.043-18.747,8.123-25.013,0.51c-3.396-4.126-3.714-10.315-0.734-14.272
			c3.185-4.228,9.196-6.285,13.66-3.898c2.146,1.148,4.177,3.617,4.956,5.927c0.913,2.708-0.676,4.987-4.189,5.254
			c-0.119-0.803-0.37-1.431-0.268-1.996c0.417-2.297-0.249-4.442-2.563-4.577c-2.096-0.122-4.765,0.485-6.29,1.802
			c-2.253,1.946-2.155,4.982-0.641,7.606c1.89,3.276,5.018,4.424,8.608,4.18c4.318-0.294,7.386-2.879,9.89-6.134
			c3.121-4.058,6.029-8.281,9.156-12.334c2.99-3.875,6.858-6.455,11.708-7.577C311.72,495.95,317.138,497.819,322.118,502.16z
			 M369.668,495.913c0.086-0.338,0.171-0.676,0.257-1.014c-4.627-1.332-9.177-3.152-13.897-3.896
			c-10.2-1.608-19.429,0.515-26.395,8.856c-4.038,4.836-4.71,10.419-2.86,16.235c1.637,5.146,5.595,7.838,10.8,8.653
			c5.116,0.8,9.74-0.159,13.1-4.511c2.423-3.138,2.355-7.566-0.089-10.38c-2.646-3.047-5.476-2.228-8.368-0.373
			c-0.369,0.237-0.889,0.24-1.339,0.352c-0.307-0.211-0.615-0.423-0.922-0.634c0.763-1.283,1.238-2.945,2.339-3.783
			c4.975-3.786,9.534-1.496,13.977,1.722C358.047,499.871,363.196,497.082,369.668,495.913z"/>
		<path fill="#D22433" d="M274.735,407.235c0,3.83,0.017,7.416-0.004,11.003c-0.036,6.122-0.264,12.25-0.073,18.365
			c0.088,2.807-0.823,4.139-3.527,4.599c-2.181,0.371-4.315,1.018-6.75,1.611c-0.119-2.357-0.084-4.352-0.351-6.305
			c-0.389-2.845-1.585-5.061-5.005-4.865c-3.182,0.182-5.159,1.43-4.995,5.07c0.167,3.717,0.037,7.447,0.037,11.796
			c3.137-0.506,6.117-0.986,9.953-1.605c0,3.857,0.215,7.432-0.14,10.949c-0.097,0.965-1.767,2.183-2.947,2.558
			c-7.024,2.231-7.048,2.159-7.047,9.364c0.001,2.75-0.059,5.501,0.035,8.248c0.07,2.05,1.114,2.872,3.23,2.279
			c2.977-0.834,5.174-2.456,6.061-5.52c0.312-1.077,0.548-2.185,0.708-3.294c0.353-2.44-0.226-6.11,1.134-7.07
			c2.46-1.737,6.061-1.86,9.522-2.743c0.167,1.337,0.387,2.267,0.384,3.197c-0.021,9.747-0.011,19.496-0.214,29.24
			c-0.023,1.126-1.124,3.051-1.989,3.215c-11.884,2.254-23.814,4.267-35.736,6.314c-0.456,0.078-0.957-0.103-1.835-0.213
			c0-6.266-0.012-12.481,0.025-18.696c0.003-0.436,0.255-1.136,0.573-1.264c3.984-1.613,3.487-5.277,3.51-8.348
			c0.087-11.491-0.108-22.985-0.245-34.477c-0.012-0.971-0.052-2.467-0.63-2.821c-4.002-2.453-2.516-6.313-2.691-9.706
			c-0.174-3.366-0.262-6.75-0.098-10.112c0.046-0.951,1.105-1.856,1.717-2.77c0.049-0.073,0.236-0.051,0.358-0.077
			C249.766,412.575,261.826,409.996,274.735,407.235z"/>
		<path fill="#D22433" d="M460.446,385.318c2.837-4.257,2.837-4.257,10.174-3.865c0,9.604,0,19.234,0,29.297
			c-2.707,0-5.336,0.231-7.884-0.121c-0.93-0.129-1.901-1.519-2.448-2.55c-1.382-2.603-2.115-5.679-3.944-7.866
			c-1.001-1.197-4.336-1.922-5.467-1.157c-1.416,0.957-2.449,3.78-2.185,5.584c0.31,2.121,1.831,4.397,3.465,5.922
			c3.092,2.884,6.662,5.251,9.993,7.885c10.557,8.345,13.737,29.197,6.175,40.352c-4.851,7.156-15.314,8.418-21.712,2.615
			c-0.641-0.582-1.263-1.185-1.902-1.786c-3.263,4.149-3.473,4.208-12.187,3.377c0-10.009,0-20.046,0-30.603
			c2.923,0,5.78-0.214,8.57,0.126c0.879,0.107,1.844,1.584,2.304,2.637c1.085,2.485,1.396,5.473,2.977,7.518
			c1.084,1.402,4.103,2.527,5.656,2.002c1.533-0.519,3.009-3.174,3.268-5.063c0.475-3.476-1.691-6.127-4.419-8.168
			c-2.599-1.944-5.237-3.836-7.867-5.738c-6.517-4.714-9.82-11.294-10.324-19.12c-0.302-4.693-0.28-9.562,0.629-14.148
			c2.189-11.044,14.253-15.517,24.089-9.272C458.451,383.838,459.433,384.6,460.446,385.318z"/>
		<path fill="#3C1E1D" d="M358.494,354.377c-22.588,36.888-78.104,38.336-103.577,2.699c-0.648-0.907-1.244-1.851-1.864-2.779
			c1.689-0.325,3.379-0.65,5.069-0.975c5.06,4.945,9.627,10.558,15.265,14.72c23.818,17.583,60.649,11.629,77.928-12.2
			c0.828-1.019,1.657-2.038,2.485-3.058C355.364,353.315,356.929,353.846,358.494,354.377z"/>
		<path fill="#3F2221" d="M337.001,265.863c15.83,8.757,25.436,22.275,29.948,39.554c2.729,10.45,2.148,20.957-0.254,31.407
			c-2.047,0.753-4.095,1.507-6.142,2.261c0.907-3.728,2.442-7.432,2.583-11.189c0.246-6.563,0.477-13.325-0.79-19.705
			c-2.672-13.457-9.097-24.944-20.812-32.874C340.023,272.166,338.512,269.014,337.001,265.863z"/>
		<path fill="#3F2221" d="M244.779,336.349c-2.657-12.011-2.735-23.902,1.295-35.699c4.623-13.533,12.667-24.422,24.517-32.453
			c0.759-0.514,1.728-0.719,2.6-1.067c-1.736,3.303-3.473,6.607-5.209,9.91c-0.874,0.559-1.899,0.973-2.602,1.698
			c-16.794,17.306-21.043,37.629-14.467,60.531C248.868,338.296,246.824,337.322,244.779,336.349z"/>
		<path fill="#B4262C" d="M267.982,277.04c1.736-3.303,3.473-6.607,5.209-9.91c0,0-0.012,0.109-0.012,0.109
			c0.267-0.334,0.534-0.668,0.8-1.002c5.223-5.972,10.911-11.233,18.811-13.571c6.108-1.808,12.237-2.598,18.429-0.916
			c2.065,0.561,3.898,1.978,5.833,3.012c0.601,0.321,1.263,1.052,1.769,0.951c8.018-1.598,13.037,2.462,16.933,8.77
			c0.321,0.519,0.828,0.923,1.248,1.38c1.51,3.151,3.021,6.303,4.532,9.454c-0.032,0.817-0.065,1.633-0.097,2.45
			c-1.094-1.269-2.281-2.47-3.264-3.82c-2.387-3.277-4.386-6.889-7.086-9.873c-3.242-3.583-7.3-5.43-12.327-3.19
			c-0.715,0.319-1.984-0.301-2.865-0.746c-0.96-0.485-1.677-1.497-2.656-1.894c-9.474-3.84-18.579-2.793-27.486,2.001
			c-11.666,6.279-15.833,17.236-19.147,29.917c1.522-1.167,2.307-1.768,3.093-2.37c0.278,0.217,0.556,0.435,0.834,0.652
			c-0.837,1.19-1.674,2.379-2.511,3.569c-1.034,0.505-2.068,1.009-3.102,1.514c0.115-1.223,0.124-2.467,0.363-3.665
			C266.14,285.58,267.075,281.313,267.982,277.04z"/>
		<path fill="#D02736" d="M360.553,339.085c2.047-0.754,4.095-1.508,6.142-2.261c1.609-1.299,3.218-2.599,5.789-4.676
			c-1.058,3.165-1.794,5.369-2.863,8.565c2.754-1.444,4.836-2.535,6.924-3.63c2.289,3.896,0.059,8.797-4.596,11.074
			c-0.048,1.357-0.081,2.268-0.114,3.179c-7.687,0.628-14.541-1.148-20.009-6.927c0.572-1.637,1.144-3.275,1.716-4.912
			C355.878,339.36,358.216,339.222,360.553,339.085z"/>
		<path fill="#D32838" d="M420.282,393.55c0.947-2.426,1.406-4.631,2.57-6.362c2.139-3.18,1.428-4.876-3.034-5.774
			c0-3.758,0-7.555,0-11.496c4.255,0,8.305,0,12.73,0c0,5.491,0.411,10.711-0.106,15.838
			C431.829,391.84,427.916,394.405,420.282,393.55z"/>
		<path fill="#D02736" d="M244.779,336.349c2.045,0.973,4.089,1.946,6.134,2.919c2.481,0.303,4.963,0.607,7.443,0.91
			c0.306,1.413,0.613,2.826,0.919,4.239c-2.256,3.502-5.424,5.639-9.546,6.283c-2.897,0.453-5.807,0.823-8.711,1.23
			c-1.141-0.686-2.283-1.371-4.363-2.62c1.964-0.129,2.92-0.191,4.092-0.268c-5.682-4.269-7.139-7.612-5.533-12.113
			c2.126,1.137,4.284,2.29,7.173,3.835c-1.135-3.327-1.899-5.565-2.939-8.614C241.77,333.978,243.274,335.164,244.779,336.349z"/>
		<path fill="#B4262C" d="M351.825,344.41c5.468,5.779,12.322,7.555,20.009,6.927c-3.914,3.351-8.689,2.927-13.341,3.04
			c-1.565-0.531-3.129-1.062-4.694-1.592c-0.817-0.549-1.635-1.098-2.452-1.647c-0.266-0.213-0.532-0.425-0.798-0.638
			c-0.494-0.39-0.988-0.779-1.482-1.169C347.611,346.36,350.798,345.99,351.825,344.41z"/>
		<path fill="#B4262C" d="M241.019,351.93c2.904-0.407,5.814-0.777,8.711-1.23c4.122-0.645,7.29-2.782,9.546-6.283
			c1.126,1.689,2.253,3.378,3.379,5.066c-1.511,1.279-3.022,2.558-4.532,3.838c-1.69,0.325-3.379,0.65-5.069,0.975
			C249.042,353.508,245.03,352.719,241.019,351.93z"/>
		<path fill="#D84351" d="M474.972,459.107c2.763,0.226,4.56,1.615,4.596,4.668c0.036,3.059-1.744,4.567-4.63,4.748
			c-2.903,0.182-5.16-2.015-4.98-4.837C470.147,460.72,471.893,459.237,474.972,459.107z"/>
		<path fill="#3F2221" d="M273.979,266.237c-0.267,0.334-0.534,0.668-0.8,1.002C273.446,266.906,273.712,266.571,273.979,266.237z"
			/>
		<path fill="#FCF5F6" d="M346.701,428.755c0-5.62,0.204-11.251-0.075-16.857c-0.173-3.481,1.879-3.859,4.371-4.177
			c2.737-0.349,4.12,1.227,4.265,3.584c0.29,4.724,0.317,9.469,0.29,14.205c-0.033,5.742-0.014,11.501-0.494,17.213
			c-0.154,1.83-1.493,3.896-2.904,5.178c-1.132,1.029-3.192,1.038-4.84,1.499c-0.326-1.514-0.902-3.023-0.934-4.543
			c-0.115-5.365-0.045-10.734-0.045-16.101C346.456,428.756,346.579,428.755,346.701,428.755z"/>
		<path fill="#F9F9F9" d="M369.668,495.913c-6.472,1.169-11.621,3.958-13.396,11.228c-4.442-3.218-9.002-5.508-13.977-1.722
			c-1.101,0.838-1.576,2.5-2.339,3.783c0.307,0.211,0.615,0.423,0.922,0.634c0.45-0.112,0.969-0.115,1.339-0.352
			c2.891-1.856,5.721-2.674,8.368,0.373c2.444,2.814,2.512,7.241,0.089,10.38c-3.36,4.352-7.984,5.311-13.1,4.511
			c-5.204-0.814-9.163-3.506-10.8-8.653c-1.85-5.817-1.178-11.4,2.86-16.235c6.966-8.342,16.195-10.465,26.395-8.856
			c4.72,0.744,9.27,2.564,13.897,3.896C369.839,495.237,369.753,495.575,369.668,495.913z"/>
		<path fill="#EFF1F1" d="M258.122,353.321c1.511-1.279,3.022-2.558,4.532-3.837c0.847,2.454,1.72,4.898,2.532,7.363
			c0.672,2.04,1.933,3.165,4.159,2.731c1.807-0.352,3.659-0.651,5.367-1.298c2.641-1,3.307-2.796,1.534-5.23
			c-1.086-1.49-2.108-3.028-3.158-4.544c4.372-0.568,8.479-1.73,11.572-5.163c0.627,2.397,1.254,4.794,2.001,7.651
			c-1.78-0.216-2.643-0.321-2.941-0.357c-1.179,4.435-2.275,8.559-3.659,13.763c2.228-2.581,4.001-4.635,5.778-6.694
			c0.293,0.55,0.742,1.394,1.192,2.238c-1.036,1.992-2.192,3.934-3.049,6c-0.357,0.861-0.076,1.987-0.085,2.992
			c1.121-0.207,2.793-0.027,3.262-0.693c1.548-2.2,2.66-4.707,3.94-7.095c3.129-1.807,2.19,1.688,3.291,2.525
			c-0.732,1.969-1.652,3.895-2.116,5.925c-0.227,0.994,0.395,2.183,0.632,3.283c1.106-0.494,2.773-0.697,3.209-1.539
			c1.119-2.156,1.691-4.596,2.482-6.923c1.441,0.365,2.882,0.73,4.571,1.159c-2.078,3.525-3.998,6.425-0.881,9.125
			c2.506,2.172,5.679,2.122,8.308,0.227c3.715-2.677,2.246-5.968,0.238-8.908c2.574-2.528,2.574-2.528,4.292-1.367
			c0.829,2.416,1.44,4.945,2.603,7.187c0.406,0.782,2.173,0.858,3.318,1.257c0.167-1.089,0.655-2.248,0.434-3.251
			c-0.473-2.15-1.313-4.22-2.002-6.323c0.877-0.897,1.753-1.794,2.63-2.691c1.209,2.51,2.278,5.105,3.722,7.471
			c0.377,0.618,1.925,0.521,2.935,0.752c0.15-1.003,0.72-2.195,0.37-2.973c-0.96-2.132-2.307-4.089-3.5-6.115
			c0.406-0.802,0.811-1.604,1.099-2.173c1.776,2.331,3.432,4.506,5.089,6.682c-0.662-4.422-1.58-8.301-2.576-12.159
			c-0.404-1.565-1.14-2.645-2.792-1.033c-0.34,0-0.681,0-1.021,0c0.551-3.13-1.063-6.825,2.399-9.195
			c2.018,3.687,5.025,5.911,9.287,6.28c-0.823,1.082-1.668,2.148-2.465,3.249c-1.748,2.415-1.367,4.455,1.301,5.811
			c1.979,1.006,4.02,1.993,6.146,2.582c2.869,0.796,4.815-0.283,5.355-3.458c0.352-2.066,0.916-4.096,1.386-6.142
			c0.568,0.027,1.136,0.055,1.704,0.082c0.266,0.213,0.532,0.425,0.798,0.638c-0.011,1.568-0.022,3.136-0.033,4.704
			c-17.279,23.829-54.11,29.783-77.928,12.2C267.748,363.88,263.181,358.267,258.122,353.321z"/>
		<path fill="#E0E5E6" d="M351.314,355.842c0.011-1.568,0.022-3.136,0.033-4.704c0.817,0.549,1.635,1.098,2.452,1.647
			C352.971,353.804,352.143,354.823,351.314,355.842z"/>
		<path fill="#F8F6F6" d="M360.553,339.085c-2.337,0.138-4.674,0.276-7.012,0.413c1.578-2.03,3.155-4.06,4.734-6.09
			c2.772-3.563,2.53-4.719-1.451-6.651c-0.894-0.434-1.83-0.799-2.775-1.111c-4.632-1.53-5.853-0.902-7.423,3.651
			c-0.399,1.155-0.961,2.254-1.448,3.379c-1.259-1.168-2.518-2.335-3.702-3.434c3.63-5.069,6.698-10.193,6.892-16.525
			c2.676-7.334,0.614-14.423-1.107-21.531c-1.941-4.473-3.882-8.947-5.823-13.42c0.033-0.817,0.065-1.633,0.097-2.45
			c11.715,7.93,18.14,19.417,20.812,32.874c1.267,6.38,1.036,13.142,0.79,19.705C362.994,331.652,361.46,335.357,360.553,339.085z"
			/>
		<path fill="#F8F6F6" d="M258.357,340.179c-2.481-0.303-4.963-0.607-7.444-0.91c-6.576-22.901-2.327-43.225,14.467-60.53
			c0.703-0.725,1.728-1.139,2.602-1.698c-0.906,4.273-1.842,8.539-2.699,12.822c-0.24,1.198-0.249,2.442-0.363,3.665
			c-2.374,6.048-3.89,12.221-2.744,18.783c-0.125,0.23-0.102,0.443,0.068,0.642c0.034,0.771,0.069,1.543,0.103,2.314
			c0.541,1.174,1.083,2.349,1.624,3.524c0.448,1.061,0.895,2.123,1.343,3.184c0.354,0.567,0.709,1.135,1.064,1.702l-0.023-0.071
			c0.332,0.507,0.664,1.014,0.996,1.52c0.93,1.191,1.86,2.383,2.789,3.574c-1.186,1.067-2.371,2.135-3.556,3.202
			c-0.981-2.22-1.518-4.843-3.066-6.55c-1.625-1.792-8.84,0.23-10.576,2.668c-1.965,2.758,0.497,4.637,1.763,6.594
			c0.788,1.217,2.246,1.984,3.154,3.147C258.312,338.341,258.208,339.359,258.357,340.179z"/>
		<path fill="#D02030" d="M348.367,312.718c-0.193,6.331-3.261,11.456-6.892,16.525c1.184,1.098,2.443,2.266,3.702,3.434
			c2.143,4.025-1.851,4.717-3.6,6.628c-3.376,0.221-5.019-1.405-4.493-4.707c0.279-1.752,0.93-3.578,1.886-5.066
			c4.16-6.47,6.752-13.214,3.201-20.711c-1.35-2.849-3.272-5.686-5.618-7.751c-6.098-5.369-9.925-11.939-12.272-19.606
			c-0.588-1.921-2.089-3.563-3.659-6.133c-0.805,2.142-1.107,3.067-1.493,3.955c-2.303,5.304-4.126,10.909-7.14,15.774
			c-1.632,2.635-5.306,4.005-8.058,5.945c2.281-4.272,4.561-8.544,6.841-12.817c0.613-1.451,1.373-2.861,1.804-4.364
			c0.588-2.055,0.925-4.182,1.369-6.278c-0.411-0.142-0.821-0.284-1.232-0.426c-3.52,7.17-9.423,11.891-16.165,15.466
			c-9.531,5.054-20.87,6.13-29.362,13.561c-0.388-0.155-0.776-0.31-1.164-0.465c0.666-4.556,1.331-9.112,1.997-13.667
			c0.837-1.19,1.674-2.379,2.511-3.569c-0.278-0.217-0.556-0.435-0.834-0.652c-0.785,0.602-1.571,1.204-3.093,2.37
			c3.314-12.681,7.481-23.638,19.147-29.917c8.907-4.794,18.012-5.841,27.486-2.001c0.979,0.397,1.696,1.409,2.656,1.894
			c0.881,0.445,2.151,1.065,2.865,0.746c5.027-2.241,9.086-0.393,12.327,3.19c2.7,2.984,4.699,6.596,7.086,9.873
			c0.983,1.35,2.17,2.551,3.264,3.82c1.941,4.473,3.882,8.947,5.823,13.42c-1.06-1.248-2.155-2.468-3.172-3.75
			c-4.536-5.713-9.042-11.449-13.592-17.151c-0.233-0.292-0.766-0.343-1.604-0.691c1.272,7.224,4.36,13.012,8.766,18.17
			C343.814,294.975,348.979,302.605,348.367,312.718z M300.951,277.749c-7.645,4.98-15.29,9.96-23.39,15.236
			C284.816,294.184,297.086,286.35,300.951,277.749z"/>
		<path fill="#B3242A" d="M268.021,292.013c-0.666,4.556-1.331,9.112-1.997,13.667c0.388,0.155,0.776,0.31,1.164,0.465
			c8.492-7.431,19.831-8.507,29.362-13.561c6.742-3.575,12.646-8.297,16.165-15.466c0.411,0.142,0.821,0.284,1.232,0.426
			c-0.444,2.096-0.781,4.223-1.369,6.278c-0.43,1.504-1.19,2.913-1.804,4.365c-0.707,0.181-1.725,0.123-2.073,0.578
			c-4.181,5.458-10.328,7.92-16.194,10.818c-2.688,0.991-5.377,1.982-8.065,2.973c-3.985,0.543-6.033,3.12-6.728,5.687
			c-1.75,0.6-3.232,0.653-3.89,1.416c-2.399,2.781-1.004,9.469,2.012,11.461c0.919,0.607,1.726,1.75,2.059,2.812
			c1.335,4.259,2.464,8.583,3.669,12.882c1.033,2.176,2.066,4.352,3.098,6.527c-3.094,3.433-7.201,4.595-11.572,5.163
			c-3.17-1.656-3.162-4.795-3.604-7.725c5.157-2.099,5.714-3.683,2.929-8.45c-0.72-1.233-1.514-2.423-2.274-3.633
			c-0.93-1.191-1.86-2.383-2.789-3.574c-0.332-0.507-0.664-1.014-0.996-1.521c0,0,0.023,0.071,0.024,0.07
			c-0.354-0.568-0.709-1.135-1.064-1.701c-0.448-1.061-0.895-2.123-1.343-3.183c-0.541-1.174-1.083-2.349-1.624-3.524
			c-0.035-0.771-0.069-1.543-0.103-2.313c0.07-0.067,0.21-0.164,0.197-0.197c-0.065-0.158-0.172-0.299-0.265-0.445
			c-1.147-6.562,0.369-12.735,2.744-18.783C265.953,293.022,266.987,292.518,268.021,292.013z"/>
		<path fill="#47C3EA" d="M341.577,339.304c1.749-1.911,5.743-2.603,3.6-6.628c0.487-1.125,1.05-2.224,1.448-3.379
			c1.571-4.553,2.791-5.181,7.423-3.651c0.945,0.312,1.881,0.677,2.775,1.111c3.981,1.932,4.223,3.089,1.451,6.651
			c-1.579,2.029-3.156,4.06-4.734,6.09c-0.572,1.638-1.144,3.275-1.716,4.912c-1.027,1.58-4.214,1.95-2.757,4.921
			c-0.074,0.362-0.148,0.724-0.222,1.086c-0.469,2.046-1.034,4.076-1.386,6.142c-0.541,3.175-2.486,4.254-5.355,3.458
			c-2.126-0.59-4.167-1.576-6.146-2.582c-2.668-1.356-3.049-3.396-1.301-5.811c0.797-1.101,1.642-2.167,2.464-3.249
			c2.335-1.086,4.364-2.236,3.606-5.513C340.482,341.798,341.265,340.497,341.577,339.304z M342.06,352.717
			c1.745-2.053,3.053-3.592,4.585-5.394c-1.853-0.463-3.278-0.818-4.585-1.145C342.06,348.263,342.06,349.991,342.06,352.717z"/>
		<path fill="#47C3EA" d="M269.485,340.782c0.442,2.93,0.434,6.069,3.604,7.725c1.049,1.516,2.071,3.053,3.157,4.544
			c1.773,2.434,1.107,4.229-1.534,5.23c-1.709,0.647-3.56,0.946-5.367,1.298c-2.226,0.434-3.487-0.691-4.159-2.731
			c-0.812-2.465-1.685-4.91-2.532-7.363c-1.126-1.689-2.253-3.377-3.379-5.066c-0.307-1.413-0.613-2.826-0.919-4.239
			c-0.148-0.82-0.044-1.837-0.498-2.419c-0.908-1.163-2.366-1.93-3.154-3.147c-1.267-1.957-3.728-3.836-1.763-6.594
			c1.737-2.438,8.952-4.461,10.576-2.668c1.547,1.707,2.084,4.33,3.066,6.55C266.706,335.137,265.84,338.696,269.485,340.782z
			 M264.364,346.727c0.508-0.352,1.015-0.705,1.523-1.057c0.659,1.888,1.319,3.777,1.978,5.665c0.245-0.232,0.49-0.465,0.735-0.697
			c-0.149-1.697-0.298-3.394-0.459-5.24C266.885,345.84,265.624,346.284,264.364,346.727z"/>
		<path fill="#E0E5E6" d="M348.846,350.418c0.074-0.362,0.148-0.724,0.222-1.086c0.494,0.389,0.988,0.779,1.482,1.169
			C349.982,350.473,349.414,350.445,348.846,350.418z"/>
		<path fill="#B42329" d="M341.577,339.304c-0.312,1.192-1.095,2.493-0.85,3.557c0.757,3.277-1.271,4.427-3.606,5.513
			c-4.261-0.369-7.268-2.593-9.285-6.279c-0.053-0.229-0.088-0.462-0.101-0.697c2.983-3.459,5.285-7.185,4.702-12.037
			c0.717-2.794,1.204-5.676,2.22-8.357c0.918-2.423,3.085-4.523,3.464-6.959c0.372-2.391,0.975-6.216-3.79-5.931
			c-0.167,0.01-0.376-0.597-0.556-0.922c-3.54-6.407-7.079-12.815-10.511-19.029c-2.923,3.362-5.625,7.118-8.982,10.145
			c-3.323,2.996-7.198,5.539-12.036,5.206c-0.278-0.34-0.556-0.681-0.833-1.021c0.84-0.497,1.68-0.993,2.52-1.49
			c2.753-1.94,6.427-3.31,8.059-5.945c3.014-4.866,4.837-10.47,7.14-15.774c0.386-0.888,0.688-1.813,1.493-3.955
			c1.57,2.57,3.071,4.212,3.659,6.133c2.347,7.667,6.174,14.236,12.272,19.606c2.346,2.065,4.268,4.903,5.618,7.751
			c3.552,7.497,0.96,14.241-3.201,20.711c-0.957,1.488-1.607,3.314-1.886,5.066C336.558,337.9,338.201,339.526,341.577,339.304z"/>
		<path fill="#422525" d="M327.734,341.397c0.014,0.236,0.049,0.47,0.103,0.699c-3.464,2.369-1.85,6.064-2.401,9.193
			c-0.294,0.579-0.589,1.159-1.223,2.404c-0.477-2.396-0.8-4.019-1.187-5.962c-5.652,3.49-10.276,8.273-17.192,8.232
			c-6.985-0.041-11.496-5.267-17.657-8.656c0.264,3.982,0.482,7.282,0.75,11.327c2.034-1.435,3.091-2.181,4.469-3.153
			c1.259,2.074,2.377,3.916,3.608,5.943c1.252-0.848,2.241-1.518,2.611-1.769c2.746,1.75,5.112,4.461,7.31,4.331
			c2.318-0.137,4.475-2.986,6.782-4.71c0.912,0.75,1.835,1.508,3.095,2.543c1.33-2.197,2.506-4.139,3.786-6.253
			c1.205,0.753,2.091,1.307,3.545,2.216c0.857-2.397,1.59-4.445,2.323-6.493c1.652-1.611,2.388-0.531,2.792,1.033
			c0.996,3.858,1.914,7.736,2.576,12.159c-1.657-2.175-3.314-4.35-5.089-6.682c-0.288,0.569-0.693,1.371-1.1,2.175
			c-1.176,0.289-2.351,0.576-3.526,0.862c-0.877,0.897-1.753,1.794-2.627,2.688c-1.451,0.376-2.904,0.754-4.357,1.133
			c-1.718-1.161-1.718-1.161-4.292,1.367c2.009,2.94,3.478,6.231-0.238,8.908c-2.629,1.895-5.802,1.944-8.308-0.227
			c-3.117-2.701-1.197-5.6,0.881-9.125c-1.69-0.428-3.131-0.794-4.572-1.158c-1.403-0.249-2.805-0.498-4.207-0.748
			c-1.101-0.837-0.162-4.332-3.29-2.526c-1.356-0.402-2.713-0.802-4.07-1.203c-0.449-0.844-0.899-1.688-1.192-2.238
			c-1.777,2.059-3.55,4.113-5.778,6.694c1.384-5.204,2.48-9.329,3.659-13.763c0.297,0.036,1.161,0.141,2.941,0.357
			c-0.748-2.857-1.375-5.254-2.001-7.651c-1.032-2.176-2.065-4.352-3.098-6.528c1.13,0.916,2.259,1.833,3.389,2.749
			c4.615,3.742,8.998,7.829,13.911,11.125c4.684,3.142,10.128,3.185,14.781-0.116c4.727-3.353,8.938-7.435,13.375-11.197
			C327.257,340.05,327.495,340.724,327.734,341.397z M306.699,374.916c1.427-1.927,3.088-3.299,2.842-4.026
			c-0.469-1.385-2.026-2.401-3.132-3.571c-0.951,1.137-2.552,2.219-2.656,3.429C303.662,371.803,305.261,373.002,306.699,374.916z"
			/>
		<path fill="#EBBFC0" d="M326.457,351.29c-0.733,2.048-1.465,4.096-2.323,6.493c-1.453-0.908-2.34-1.462-3.545-2.216
			c-1.28,2.114-2.456,4.056-3.786,6.253c-1.26-1.035-2.183-1.794-3.095-2.543c-2.307,1.724-4.465,4.573-6.782,4.71
			c-2.198,0.13-4.564-2.58-7.31-4.331c-0.371,0.251-1.359,0.921-2.611,1.769c-1.231-2.027-2.349-3.869-3.608-5.943
			c-1.378,0.972-2.435,1.718-4.469,3.153c-0.268-4.045-0.486-7.345-0.75-11.327c6.16,3.388,10.672,8.615,17.657,8.656
			c6.916,0.041,11.54-4.742,17.192-8.232c0.387,1.943,0.71,3.566,1.187,5.962c0.633-1.245,0.928-1.825,1.223-2.404
			C325.776,351.29,326.116,351.29,326.457,351.29z"/>
		<path fill="#4FC6EB" d="M315.127,364.658c1.453-0.378,2.906-0.757,4.357-1.133c0.687,2.105,1.526,4.175,1.999,6.326
			c0.221,1.003-0.267,2.162-0.434,3.251c-1.145-0.398-2.913-0.474-3.318-1.257C316.567,369.603,315.955,367.074,315.127,364.658z"/>
		<path fill="#4FC6EB" d="M287.031,359.945c1.357,0.401,2.714,0.801,4.07,1.203c-1.281,2.39-2.394,4.896-3.942,7.096
			c-0.469,0.666-2.141,0.486-3.262,0.693c0.009-1.005-0.272-2.131,0.085-2.992C284.839,363.879,285.995,361.937,287.031,359.945z"/>
		<path fill="#4FC6EB" d="M322.11,360.837c1.175-0.287,2.351-0.574,3.526-0.862c1.194,2.024,2.541,3.982,3.501,6.113
			c0.35,0.778-0.22,1.97-0.37,2.973c-1.01-0.231-2.558-0.135-2.935-0.752C324.388,365.942,323.319,363.347,322.11,360.837z"/>
		<path fill="#4FC6EB" d="M294.391,363.674c1.402,0.249,2.805,0.499,4.207,0.748c-0.79,2.326-1.363,4.766-2.482,6.922
			c-0.437,0.842-2.103,1.045-3.209,1.539c-0.238-1.1-0.859-2.289-0.632-3.283C292.738,367.569,293.658,365.643,294.391,363.674z"/>
		<path fill="#B42329" d="M348.367,312.718c0.612-10.113-4.553-17.743-10.711-24.953c-4.405-5.158-7.494-10.945-8.766-18.17
			c0.838,0.348,1.372,0.399,1.604,0.691c4.55,5.702,9.056,11.438,13.592,17.151c1.017,1.281,2.113,2.501,3.172,3.75
			C348.981,298.295,351.043,305.385,348.367,312.718z"/>
		<path fill="#D02736" d="M269.485,340.782c-3.645-2.085-2.779-5.645-2.902-8.881c1.185-1.068,2.371-2.135,3.556-3.202
			c0.76,1.21,1.554,2.4,2.274,3.633C275.198,337.099,274.642,338.682,269.485,340.782z"/>
		<path fill="#D02736" d="M262.347,315.265c0.541,1.175,1.083,2.35,1.624,3.524C263.429,317.614,262.888,316.44,262.347,315.265z"/>
		<path fill="#D02736" d="M265.314,321.972c0.355,0.567,0.71,1.134,1.064,1.701C266.023,323.107,265.668,322.54,265.314,321.972z"/>
		<path fill="#D02736" d="M266.354,323.604c0.332,0.507,0.664,1.014,0.996,1.521C267.018,324.617,266.686,324.11,266.354,323.604z"
			/>
		<path fill="#D02736" d="M262.175,312.31c0.092,0.147,0.199,0.288,0.265,0.445c0.014,0.033-0.127,0.13-0.197,0.197
			C262.073,312.753,262.051,312.539,262.175,312.31z"/>
		<path fill="#F3C5C6" d="M327.018,339.377c-4.437,3.762-8.648,7.844-13.375,11.197c-4.653,3.301-10.097,3.259-14.781,0.116
			c-4.913-3.297-9.296-7.383-13.911-11.125c-1.13-0.916-2.26-1.833-3.389-2.749c-1.205-4.3-2.334-8.623-3.669-12.882
			c-0.333-1.062-1.14-2.205-2.059-2.812c-3.016-1.992-4.411-8.68-2.012-11.461c0.658-0.763,2.141-0.816,3.89-1.416
			c0.694-2.567,2.742-5.144,6.728-5.686c0.431,0.531,0.922,1.559,1.285,1.515c3.766-0.452,7.512-1.076,11.412-1.676
			c-1.39-0.844-3.011-1.829-4.632-2.813c5.866-2.898,12.013-5.36,16.194-10.818c0.348-0.455,1.366-0.397,2.073-0.578
			c-2.28,4.271-4.561,8.543-6.841,12.816c-0.84,0.497-1.68,0.993-2.521,1.49c0.278,0.34,0.556,0.681,0.833,1.021
			c4.838,0.333,8.714-2.21,12.036-5.206c3.358-3.028,6.059-6.784,8.982-10.145c3.432,6.214,6.971,12.622,10.511,19.029
			c0.18,0.325,0.389,0.932,0.556,0.922c4.765-0.284,4.163,3.54,3.79,5.931c-0.379,2.435-2.546,4.535-3.464,6.959
			c-1.016,2.681-1.503,5.563-2.219,8.357C330.631,332.7,328.825,336.038,327.018,339.377z M316.059,312.228
			c-1.21,0.425-2.42,0.85-3.63,1.275c0.138,0.435,0.276,0.87,0.414,1.306c1.003-0.354,2.005-0.707,3.008-1.061
			c2.224,1.829,4.641,1.695,7.143,0.702c1.215-0.071,2.641,0.209,3.566-0.346c0.554-0.332,0.813-2.522,0.36-2.923
			c-1.728-1.53-3.733-3.585-5.758-3.731c-2.575-0.186-5.142,1.422-5.131,4.865L316.059,312.228z M297.267,337.682
			c2.166,5.681,11.472,7.669,16.073,3.321c2.841-2.684,5.452-5.611,7.782-8.029c-9.083,0-18.874,0-28.666,0
			c-0.138,0.289-0.275,0.578-0.413,0.868c1.488,0.766,2.976,1.532,4.464,2.298C296.761,336.653,297.014,337.168,297.267,337.682z
			 M299.199,313.827c-0.903-1.15-1.884-1.885-2.142-2.819c-0.963-3.482-3.561-3.797-6.43-3.547
			c-3.268,0.285-5.115,2.436-5.881,5.377c-0.158,0.606,1.419,2.411,1.848,2.301c2.697-0.69,5.295-1.765,8.42-2.89
			C295.897,312.618,296.088,316.462,299.199,313.827z M314.282,303.266c4.3,0,8.554,0,12.728,0
			C324.757,298.492,318.636,298.477,314.282,303.266z M300.61,326.77c3.882,2.085,7.627,3.538,10.734-0.856
			C309.256,324.71,301.734,325.405,300.61,326.77z"/>
		<path fill="#B42329" d="M300.951,277.749c-3.865,8.601-16.135,16.436-23.39,15.236
			C285.661,287.709,293.306,282.729,300.951,277.749z"/>
		<path fill="#422525" d="M292.505,299.585c1.621,0.985,3.243,1.969,4.632,2.813c-3.9,0.599-7.646,1.224-11.412,1.676
			c-0.362,0.043-0.853-0.984-1.285-1.515C287.129,301.567,289.817,300.576,292.505,299.585z"/>
		<path fill="#4A2B2A" d="M342.06,352.717c0-2.726,0-4.453,0-6.539c1.307,0.326,2.733,0.682,4.585,1.145
			C345.113,349.125,343.805,350.664,342.06,352.717z"/>
		<path fill="#4A2B2A" d="M264.364,346.727c1.26-0.444,2.521-0.887,3.777-1.329c0.162,1.846,0.311,3.543,0.459,5.24
			c-0.245,0.232-0.49,0.465-0.735,0.697c-0.66-1.888-1.319-3.777-1.978-5.665C265.379,346.022,264.872,346.375,264.364,346.727z"/>
		<path fill="#4A2B2A" d="M327.018,339.377c1.807-3.339,3.613-6.677,5.419-10.016c0.583,4.852-1.719,8.578-4.702,12.037
			C327.495,340.724,327.257,340.05,327.018,339.377z"/>
		<path fill="#47C3EA" d="M306.699,374.916c-1.437-1.914-3.036-3.114-2.946-4.168c0.104-1.21,1.705-2.291,2.656-3.429
			c1.105,1.169,2.663,2.186,3.132,3.571C309.787,371.617,308.125,372.989,306.699,374.916z"/>
		<path fill="#4A2B2A" d="M296.508,336.139c-1.488-0.766-2.976-1.532-4.464-2.298c0.138-0.289,0.275-0.578,0.413-0.868
			c9.791,0,19.583,0,28.666,0c-2.33,2.418-4.941,5.345-7.782,8.029c-4.602,4.348-13.907,2.359-16.074-3.321
			c1.612,0.613,3.2,1.299,4.84,1.826c5.003,1.606,9.206,0.462,11.602-3.368C307.835,336.139,302.172,336.139,296.508,336.139z"/>
		<path fill="#4A2B2A" d="M299.199,313.827c-3.111,2.635-3.302-1.209-4.185-1.578c-3.125,1.125-5.723,2.2-8.42,2.89
			c-0.429,0.11-2.006-1.695-1.848-2.301c0.766-2.941,2.613-5.092,5.881-5.377c2.869-0.25,5.467,0.064,6.43,3.547
			C297.315,311.943,298.296,312.678,299.199,313.827z"/>
		<path fill="#4A2B2A" d="M316.033,312.313c-0.012-3.443,2.555-5.051,5.13-4.865c2.025,0.146,4.03,2.201,5.758,3.731
			c0.453,0.401,0.194,2.591-0.36,2.923c-0.925,0.555-2.351,0.275-3.567,0.346c0.134-0.101,0.151-0.219,0.048-0.354
			c0.28-0.659,0.56-1.318,0.841-1.977c-0.29-0.082-0.58-0.164-0.87-0.247c-0.132,0.585-0.264,1.169-0.396,1.754
			C320.422,313.188,318.227,312.751,316.033,312.313z M318.217,310.787c0.075,0.281,0.15,0.563,0.225,0.844
			c0.594-0.189,1.189-0.377,1.783-0.566c-0.09-0.206-0.2-0.597-0.266-0.59C319.375,310.538,318.797,310.673,318.217,310.787z"/>
		<path fill="#E0E5E6" d="M296.508,336.139c5.663,0,11.327,0,17.2,0c-2.395,3.83-6.599,4.974-11.602,3.368
			c-1.64-0.526-3.228-1.212-4.84-1.826C297.014,337.168,296.761,336.653,296.508,336.139z"/>
		<path fill="#4A2B2A" d="M314.282,303.266c4.354-4.79,10.475-4.775,12.728,0C322.836,303.266,318.582,303.266,314.282,303.266z"/>
		<path fill="#4A2B2A" d="M300.61,326.77c1.125-1.365,8.646-2.059,10.734-0.856C308.236,330.308,304.492,328.854,300.61,326.77z"/>
		<path fill="#EBBFC0" d="M323.042,314.095c0.102,0.134,0.086,0.253-0.049,0.354c-2.501,0.994-4.918,1.127-7.142-0.702
			c0.069-0.507,0.139-1.013,0.208-1.52c0,0-0.028,0.086-0.027,0.085c2.195,0.437,4.39,0.874,6.584,1.312
			C322.767,313.774,322.909,313.931,323.042,314.095z"/>
		<path fill="#4A2B2A" d="M316.059,312.228c-0.069,0.507-0.139,1.013-0.208,1.52c-1.003,0.354-2.005,0.707-3.008,1.061
			c-0.138-0.435-0.276-0.87-0.414-1.306C313.64,313.078,314.85,312.653,316.059,312.228z"/>
		<path fill="#EBBFC0" d="M322.616,313.625c0.132-0.585,0.264-1.169,0.396-1.754c0.29,0.082,0.58,0.164,0.87,0.247
			c-0.28,0.659-0.561,1.318-0.841,1.977C322.909,313.931,322.767,313.774,322.616,313.625z"/>
		<path fill="#EBBFC0" d="M318.217,310.787c0.58-0.114,1.157-0.248,1.743-0.312c0.066-0.007,0.176,0.383,0.266,0.59
			c-0.594,0.189-1.189,0.377-1.783,0.566C318.368,311.349,318.293,311.068,318.217,310.787z"/>
	</g>
</g>
</svg>
