<?xml version="1.0" encoding="utf-8"?>
<!-- Generator: Adobe Illustrator 17.0.0, SVG Export Plug-In . SVG Version: 6.00 Build 0)  -->
<!DOCTYPE svg PUBLIC "-//W3C//DTD SVG 1.1//EN" "http://www.w3.org/Graphics/SVG/1.1/DTD/svg11.dtd">
<svg version="1.1" xmlns="http://www.w3.org/2000/svg" xmlns:xlink="http://www.w3.org/1999/xlink" x="0px" y="0px" width="612px"
	 height="792px" viewBox="0 0 612 792" enable-background="new 0 0 612 792" xml:space="preserve">
<g id="Layer_1">
</g>
<g id="Layer_2">
	<g id="Layer_3">
		<g id="XMLID_1_">
			<g>
				<path fill="#FCD218" d="M469.38,355l12.5,21.12l-22.5,8.96l2.2-7.58c-26.91,7.25-37.83,51.83-37.83,51.83h-20
					c0,0,8.87-25.83,9.63-27.45c0.74-1.63-5.13-38.21-5.13-38.21H425l3,22.95c18.75-28.62,38.25-22.95,38.25-22.95L469.38,355z"/>
				<path fill="#FCD218" d="M405.88,363.67l-7.26,65.66h-19.54l2.59-10.83h-13.25l-6,10.83h-16.8l35.63-65.66H405.88z M384.33,405
					l3.67-22.58L375.33,405H384.33z"/>
				<polygon fill="#FCD218" points="373.75,363.67 338.42,429.33 321.42,429.33 327.83,390.33 309.17,429.33 292,429.33 
					299.67,363.67 317.12,363.67 309.75,403.38 328.62,363.67 344.62,363.67 337.5,403.38 356.5,363.67 				"/>
				<polygon fill="#0D4C1C" points="388,382.42 384.33,405 375.33,405 				"/>
				<path fill="#0D4C1C" d="M275.75,377.56c0,0,4.69,1.75,1.75,7.06c-2.94,5.32-11.06,3.69-11.06,3.69l3.62-10.75H275.75z"/>
				<path fill="#0D4C1C" d="M267.62,403.38c0.5,0,6.88,2.62,3.13,7.74c-3.75,5.13-12.37,3.76-12.37,3.76l4.12-11.5
					C262.5,403.38,267.12,403.38,267.62,403.38z"/>
				<path fill="#0D4C1C" d="M467.12,342l23.76,37.38l-39.76,16.15l0.26-4.91c0,0-13.13,8.88-23.13,44.13l-55.94-0.16l1.53-9.71
					l-2.22,0.06l-5.37,9.81H286l0.31-8c0,0-7.06,7.63-23.06,8s-35.37,0-35.37,0l0.46-4.63c0,0-28.22,16.88-42.09-3.62
					c0,0-14.42,12.83-38.17,9.42l-3.66,11.91l-24.3-37.08l33-14c0,0-6.24-24,12.76-35.5s35.12-0.63,35.12-0.63l2-3.37l83.12,0.25
					c0,0,4.5,0.38,7.38,3.12l0.88-3.24l136.12,0.12l1.75,13.5c0,0,12.5-15.75,29.37-14.12L467.12,342z M481.88,376.12L469.38,355
					l-3.13,8.67c0,0-19.5-5.67-38.25,22.95l-3-22.95h-16.75c0,0,5.87,36.58,5.13,38.21c-0.76,1.62-9.63,27.45-9.63,27.45h20
					c0,0,10.92-44.58,37.83-51.83l-2.2,7.58L481.88,376.12z M398.62,429.33l7.26-65.66h-24.63l-35.63,65.66h16.8l6-10.83h13.25
					l-2.59,10.83H398.62z M338.42,429.33l35.33-65.66H356.5l-19,39.71l7.12-39.71h-16l-18.87,39.71l7.37-39.71h-17.45L292,429.33
					h17.17l18.66-39l-6.41,39H338.42z M294.83,378c0,0,2.34-14.33-13.33-14.33h-24.17l-22.16,65.66h29.5c0,0,26.33-1.66,24.66-24.16
					c0,0,0.84-4.5-6.83-10.25C282.5,394.92,293,389.83,294.83,378z M235.5,410.17l16.33-46.5h-18L219,407c0,0-1.5,6.33-6,7
					s-3.17-5.33-1.17-11.83s12.5-38.5,12.5-38.5h-17.75L190.5,413.5c0,0-5.5,21,24.17,16.33
					C214.67,429.83,229.5,426.67,235.5,410.17z M192.12,380.38l7.63-13.13c0,0-19-14-34.5,2.13c-15.5,16.12-2.63,32.18,0.25,35.18
					s1.12,5.75,1.12,5.75c-7.12,7.63-16.62,1.02-16.62,1.02l2.25-7.41l-23.42,9.5l13.42,21.96l2.63-7.13
					c24.5,6.5,35.96-6.04,35.96-6.04c18.72-19.04-7.46-29.96-3.96-39.71S192.12,380.38,192.12,380.38z"/>
				<path fill="#FFFFFF" d="M281.5,363.67c15.67,0,13.33,14.33,13.33,14.33c-1.83,11.83-12.33,16.92-12.33,16.92
					c7.67,5.75,6.83,10.25,6.83,10.25c1.67,22.5-24.66,24.16-24.66,24.16h-29.5l22.16-65.66H281.5z M277.5,384.62
					c2.94-5.31-1.75-7.06-1.75-7.06h-5.69l-3.62,10.75C266.44,388.31,274.56,389.94,277.5,384.62z M270.75,411.12
					c3.75-5.12-2.63-7.74-3.13-7.74s-5.12,0-5.12,0l-4.12,11.5C258.38,414.88,267,416.25,270.75,411.12z"/>
				<path fill="#FFFFFF" d="M251.83,363.67l-16.33,46.5c-6,16.5-20.83,19.66-20.83,19.66C185,434.5,190.5,413.5,190.5,413.5
					l16.08-49.83h17.75c0,0-10.5,32-12.5,38.5S208.5,414.67,213,414s6-7,6-7l14.83-43.33H251.83z"/>
				<path fill="#FFFFFF" d="M199.75,367.25l-7.63,13.13c0,0-11.74-7.63-15.24,2.12s22.68,20.67,3.96,39.71
					c0,0-11.46,12.54-35.96,6.04l-2.63,7.13l-13.42-21.96l23.42-9.5l-2.25,7.41c0,0,9.5,6.61,16.62-1.02c0,0,1.76-2.75-1.12-5.75
					s-15.75-19.06-0.25-35.18C180.75,353.25,199.75,367.25,199.75,367.25z"/>
			</g>
			<g>
				<path fill="none" stroke="#000000" stroke-miterlimit="10" d="M120.12,410.75l33-14c0,0-6.24-24,12.76-35.5
					s35.12-0.63,35.12-0.63l2-3.37l83.12,0.25c0,0,4.5,0.38,7.38,3.12l0.88-3.24l136.12,0.12l1.75,13.5c0,0,12.5-15.75,29.37-14.12
					l5.5-14.88l23.76,37.38l-39.76,16.15l0.26-4.91c0,0-13.13,8.88-23.13,44.13l-55.94-0.16l1.53-9.71l-2.22,0.06l-5.37,9.81H286
					l0.31-8c0,0-7.06,7.63-23.06,8s-35.37,0-35.37,0l0.46-4.63c0,0-28.22,16.88-42.09-3.62c0,0-14.42,12.83-38.17,9.42l-3.66,11.91
					L120.12,410.75z"/>
				<path fill="none" stroke="#000000" stroke-miterlimit="10" d="M128.83,413.42l23.42-9.5l-2.25,7.41c0,0,9.5,6.61,16.62-1.02
					c0,0,1.76-2.75-1.12-5.75s-15.75-19.06-0.25-35.18c15.5-16.13,34.5-2.13,34.5-2.13l-7.63,13.13c0,0-11.74-7.63-15.24,2.12
					s22.68,20.67,3.96,39.71c0,0-11.46,12.54-35.96,6.04l-2.63,7.13L128.83,413.42z"/>
				<path fill="none" stroke="#000000" stroke-miterlimit="10" d="M206.58,363.67L190.5,413.5c0,0-5.5,21,24.17,16.33
					c0,0,14.83-3.16,20.83-19.66l16.33-46.5h-18L219,407c0,0-1.5,6.33-6,7s-3.17-5.33-1.17-11.83s12.5-38.5,12.5-38.5H206.58z"/>
				<path fill="none" stroke="#000000" stroke-miterlimit="10" d="M257.33,363.67l-22.16,65.66h29.5c0,0,26.33-1.66,24.66-24.16
					c0,0,0.84-4.5-6.83-10.25c0,0,10.5-5.09,12.33-16.92c0,0,2.34-14.33-13.33-14.33H257.33z"/>
				<path fill="none" stroke="#000000" stroke-miterlimit="10" d="M270.06,377.56l-3.62,10.75c0,0,8.12,1.63,11.06-3.69
					c2.94-5.31-1.75-7.06-1.75-7.06H270.06z"/>
				<path fill="none" stroke="#000000" stroke-miterlimit="10" d="M262.5,403.38l-4.12,11.5c0,0,8.62,1.37,12.37-3.76
					c3.75-5.12-2.63-7.74-3.13-7.74S262.5,403.38,262.5,403.38z"/>
				<polygon fill="none" stroke="#000000" stroke-miterlimit="10" points="299.67,363.67 292,429.33 309.17,429.33 327.83,390.33 
					321.42,429.33 338.42,429.33 373.75,363.67 356.5,363.67 337.5,403.38 344.62,363.67 328.62,363.67 309.75,403.38 
					317.12,363.67 				"/>
				<polygon fill="none" stroke="#000000" stroke-miterlimit="10" points="345.62,429.33 381.25,363.67 405.88,363.67 
					398.62,429.33 379.08,429.33 381.67,418.5 368.42,418.5 362.42,429.33 				"/>
				<polygon fill="none" stroke="#000000" stroke-miterlimit="10" points="375.33,405 384.33,405 388,382.42 				"/>
				<path fill="none" stroke="#000000" stroke-miterlimit="10" d="M403.75,429.33h20c0,0,10.92-44.58,37.83-51.83l-2.2,7.58
					l22.5-8.96L469.38,355l-3.13,8.67c0,0-19.5-5.67-38.25,22.95l-3-22.95h-16.75c0,0,5.87,36.58,5.13,38.21
					C412.62,403.5,403.75,429.33,403.75,429.33z"/>
			</g>
		</g>
	</g>
</g>
</svg>
