<?xml version="1.0" encoding="utf-8"?>
<!-- Generator: Adobe Illustrator 17.0.0, SVG Export Plug-In . SVG Version: 6.00 Build 0)  -->
<!DOCTYPE svg PUBLIC "-//W3C//DTD SVG 1.1//EN" "http://www.w3.org/Graphics/SVG/1.1/DTD/svg11.dtd">
<svg version="1.1" id="Layer_1" xmlns="http://www.w3.org/2000/svg" xmlns:xlink="http://www.w3.org/1999/xlink" x="0px" y="0px"
	 width="612px" height="792px" viewBox="0 0 612 792" enable-background="new 0 0 612 792" xml:space="preserve">
<g>
	<g>
		<path fill="#FEFEFE" d="M118.75,583.802c0-125.017,0-250.035,0-375.052c125.017,0,250.035,0,375.052,0
			c0,125.017,0,250.035,0,375.052C368.785,583.802,243.768,583.802,118.75,583.802z M304.779,246.277
			c-3.669,0.969-7.358,1.872-11.005,2.919c-15.455,4.435-30.903,8.894-46.343,13.382c-9.446,2.745-18.876,5.547-28.307,8.344
			c-13.533,4.014-27.162,7.739-40.555,12.177c-9.345,3.096-15.474,10.895-15.506,20.915c-0.134,40.863-0.17,81.728,0.034,122.591
			c0.045,9.071,4.1,16.745,12.489,20.736c6.368,3.03,13.341,4.859,20.144,6.888c13.903,4.146,27.884,8.026,41.812,12.091
			c18.73,5.466,37.43,11.034,56.166,16.48c3.638,1.058,7.382,1.754,11.077,2.617c0.745,0.015,1.544,0.216,2.226,0.016
			c6.957-2.042,13.888-4.175,20.84-6.233c8.949-2.649,17.903-5.285,26.871-7.869c15.426-4.446,30.866-8.839,46.296-13.271
			c7.204-2.069,14.321-4.497,21.61-6.198c12.982-3.03,23.187-11.587,23.178-26.629c-0.023-39.868-0.004-79.735-0.01-119.603
			c-0.002-10.985-5.286-18.986-15.7-22.72c-7.828-2.806-15.884-4.979-23.856-7.377c-12.458-3.747-24.915-7.499-37.401-11.15
			c-16.72-4.889-33.46-9.71-50.208-14.501C314.043,248.569,309.397,247.472,304.779,246.277z M220.037,515.209
			c0,6.184-0.081,11.54,0.046,16.891c0.042,1.774,0.13,3.806,2.938,3.733c2.613-0.068,3.022-1.6,3.009-3.708
			c-0.034-5.488,0.07-10.979-0.039-16.465c-0.076-3.832-2.538-6.098-6.355-6.117c-4.366-0.021-8.732-0.018-13.098-0.001
			c-4.144,0.015-6.128,1.435-6.364,5.563c-0.335,5.843-0.211,11.719-0.09,17.577c0.037,1.812,0.943,3.759,3.204,2.984
			c1.071-0.367,2.299-2.081,2.368-3.248c0.272-4.599-0.025-9.231,0.208-13.835c0.058-1.155,1.227-3.155,2.015-3.221
			C211.853,515.029,215.869,515.209,220.037,515.209z M269.527,509.531c-0.192-1.743,0.02-3.299-0.593-4.394
			c-0.58-1.036-1.975-2.056-3.109-2.177c-0.673-0.072-2.193,1.594-2.209,2.499c-0.166,9.228-0.166,18.462,0,27.69
			c0.016,0.898,1.543,2.554,2.218,2.48c1.135-0.124,2.436-1.162,3.121-2.182c0.541-0.806,0.327-2.163,0.334-3.276
			c0.028-4.56,0.012-9.12,0.012-13.874c3.952,0,7.426,0.039,10.898-0.015c2.056-0.032,2.892,0.823,2.842,2.92
			c-0.101,4.239-0.117,8.485,0.013,12.722c0.054,1.747-0.052,3.871,2.744,3.898c2.753,0.026,3.271-1.627,3.25-3.897
			c-0.042-4.491,0.019-8.982-0.02-13.473c-0.048-5.45-3.324-8.783-8.803-8.906C276.744,509.468,273.26,509.531,269.527,509.531z
			 M248.515,509.547c0-1.305,0.039-2.28-0.008-3.25c-0.086-1.771-0.162-3.526-2.687-3.518c-2.49,0.007-3.261,1.559-3.274,3.621
			c-0.052,8.231-0.123,16.464,0.034,24.693c0.056,2.945,1.619,4.873,4.98,4.721c2.365-0.107,4.775,0.22,7.092-0.13
			c1.046-0.158,2.449-1.327,2.751-2.322c0.597-1.964-0.587-2.941-2.693-2.835c-1.955,0.099-3.92,0.021-6.022,0.021
			c0-5.371,0-10.415,0-15.761c2.125,0,4.134,0.241,6.039-0.097c1.02-0.181,1.863-1.362,2.786-2.091
			c-0.95-1.017-1.744-2.614-2.884-2.92C252.796,509.187,250.735,509.547,248.515,509.547z M407.029,522.275
			c-2.947,2.974-5.626,5.27-7.737,8.004c-0.878,1.137-0.545,3.209-0.763,4.856c1.58-0.225,3.555,0.068,4.661-0.777
			c2.825-2.157,5.263-4.821,7.523-6.966c2.591,2.406,4.882,4.903,7.568,6.857c1.195,0.869,3.64,1.397,4.717,0.749
			c1.909-1.149,1.33-3.089-0.263-4.674c-2.414-2.401-4.7-4.93-7.263-7.641c2.513-2.869,5.144-5.607,7.402-8.624
			c0.629-0.841,0.153-2.508,0.183-3.797c-1.567,0.034-3.529-0.513-4.616,0.227c-2.064,1.405-3.918,3.35-5.322,5.433
			c-1.669,2.478-2.925,1.776-4.468,0.144c-1.588-1.68-2.971-3.672-4.847-4.923c-1.387-0.924-4.15-1.78-5.018-1.079
			c-1.944,1.57-0.964,3.79,0.781,5.399C402.026,517.729,404.504,519.972,407.029,522.275z M300.625,527.192
			c0.209-0.381,0.418-0.762,0.627-1.143c3.352,0,6.705,0,10.057,0c9.387,0,9.387,0,9.224-9.419c-0.069-3.99-2.952-6.985-6.957-7.076
			c-3.489-0.079-6.982-0.079-10.47-0.001c-4.432,0.099-7.787,2.986-8.133,7.425c-0.299,3.828-0.305,7.721,0.036,11.543
			c0.306,3.437,2.209,6.235,5.907,6.574c5.308,0.487,10.659,0.554,15.994,0.616c0.668,0.008,1.753-0.995,1.951-1.72
			c0.768-2.81-0.758-3.785-3.394-3.824c-3.708-0.056-7.439-0.048-11.105-0.51C303.032,529.491,301.865,528.051,300.625,527.192z
			 M335.529,535.795c6.249,0,12.095,0.16,17.927-0.052c4.453-0.162,7.426-3.332,7.669-7.781c0.163-2.985,0.169-5.985,0.107-8.975
			c-0.136-6.485-3.159-9.413-9.64-9.444c-3.323-0.016-6.646-0.003-10.056-0.003c0-1.098,0.014-1.72-0.003-2.341
			c-0.056-2.071,0.494-4.525-2.913-4.414c-3.083,0.101-3.09,2.273-3.09,4.475C335.528,516.604,335.529,525.949,335.529,535.795z
			 M380.796,509.538c-1.496,0-3.015,0.168-4.484-0.031c-4.456-0.606-8.353,2.479-9.03,7.412c-0.52,3.787-0.49,7.751-0.008,11.547
			c0.596,4.696,4.235,7.305,9.121,7.33c2.743,0.014,5.486,0.011,8.228,0.001c5.156-0.019,8.538-3.343,8.662-8.54
			c0.042-1.744-0.043-3.492,0.015-5.236C393.629,512.2,392.343,508.594,380.796,509.538z M186.999,522.531
			c0,3.489-0.179,6.992,0.113,10.457c0.083,0.993,1.526,1.871,2.346,2.801c0.927-0.879,2.628-1.732,2.658-2.64
			c0.226-6.97,0.233-13.954,0.005-20.924c-0.03-0.92-1.769-1.784-2.717-2.675c-0.803,0.963-2.208,1.872-2.299,2.898
			C186.809,515.787,186.994,519.167,186.999,522.531z M188.605,507.819c0.547-0.003,1.093-0.007,1.64-0.01
			c0.918-1.337,2.771-2.883,2.53-3.961c-0.341-1.53-2.224-2.717-3.449-4.05c-1.024,1.307-2.705,2.534-2.876,3.943
			C186.3,504.995,187.822,506.452,188.605,507.819z"/>
		<path fill="#B40A37" d="M304.779,246.277c4.618,1.195,9.264,2.292,13.849,3.604c16.749,4.79,33.488,9.612,50.208,14.501
			c12.486,3.651,24.943,7.403,37.401,11.15c7.972,2.397,16.029,4.57,23.856,7.377c10.414,3.733,15.698,11.734,15.7,22.72
			c0.007,39.868-0.013,79.735,0.01,119.603c0.009,15.042-10.196,23.599-23.178,26.629c-7.288,1.701-14.406,4.129-21.61,6.198
			c-15.43,4.432-30.87,8.826-46.296,13.271c-8.968,2.585-17.922,5.22-26.871,7.869c-6.953,2.058-13.883,4.191-20.84,6.233
			c-0.682,0.2-1.481-0.001-2.226-0.016c-0.049-22.801-0.098-45.603-0.148-68.404c0.067-0.383,0.135-0.767,0.202-1.15
			c1.108-1.554,2.215-3.108,3.677-5.158c0,6.852-0.036,13.074,0.01,19.295c0.044,5.895,2.586,7.949,9.171,7.535
			c4.013-0.253,5.602-2.998,5.453-8.061c-0.226-7.653-0.059-15.318-0.059-23.513c0.541,0.771,0.823,1.124,1.051,1.508
			c0.505,0.849,1.008,1.701,1.467,2.575c8.698,16.562,21.706,27.802,40.005,32.621c12.236,3.223,23.858,1.555,34.907-4.294
			c14.856-7.865,24.019-20.553,29.105-36.179c2.238-6.876,3.449-14.154,1.873-21.877c-1.254,0.829-2.371,1.822-2.872,3.063
			c-0.729,1.805-0.838,3.855-1.516,5.688c-4.828,13.047-12.273,24.098-23.876,32.222c-15.768,11.039-33.608,10.283-48.353-2.411
			c-9.25-7.963-15.747-17.98-20.873-28.926c-0.414-0.884-0.132-2.607,0.504-3.392c13.191-16.304,23.239-34.323,29.835-54.239
			c1.166-3.521,0.205-6.752-2.646-8.996c-0.778-0.612-3.405-0.298-3.984,0.482c-5.289,7.119-10.14,14.565-15.463,21.657
			c-5.512,7.343-11.407,14.398-17.135,21.579c-0.32-0.158-0.64-0.316-0.96-0.474c0.266-3.429,0.804-6.863,0.755-10.288
			c-0.365-25.6-0.865-51.198-1.271-76.798c-0.063-3.98-2.694-4.602-5.745-4.701c-4.243-0.138-6.885,1.641-7.107,4.805
			c-0.787,11.196-1.846,22.387-2.184,33.598c-0.538,17.852-0.772,35.719-0.744,53.579c0.013,8.004-0.652,15.835-2.577,23.58
			c-0.17-1.337-0.488-2.674-0.488-4.011C304.772,339.643,304.778,292.96,304.779,246.277z"/>
		<path fill="#E41837" d="M304.779,246.277c-0.001,46.683-0.006,93.367,0.018,140.05c0.001,1.337,0.318,2.674,0.489,4.01
			c-0.181,0.713-0.362,1.428-0.543,2.142c-0.585,0.776-1.198,1.532-1.75,2.33c-4.298,6.22-8.629,12.417-15.512,16.139
			c-4.179,2.26-8.447,1.599-10.573-2.61c-2.29-4.533-4.338-9.519-4.959-14.499c-1.514-12.131-1.447-24.367,2.191-36.213
			c0.773-2.516,2.709-4.955,4.724-6.733c2.282-2.014,5.045-1.017,5.409,2.036c0.82,6.888,1.355,13.849,1.331,20.777
			c-0.009,2.576,0.603,4.036,2.568,5.165c4.485,2.576,9.435,0.781,10.386-4.27c1.206-6.409,2.47-12.982,2.263-19.438
			c-0.244-7.618-2.924-14.699-8.861-20.229c-4.142-3.858-13.002-5.968-17.502-1.049c-3.86,4.219-7.628,8.905-9.972,14.052
			c-5.712,12.537-7.87,25.987-7.687,39.758c0.072,5.48,0.602,10.954,0.663,16.433c0.014,1.279-0.699,3.054-1.679,3.726
			c-1.127,0.774-3.744,1.275-4.263,0.664c-1.302-1.535-2.585-3.814-2.466-5.706c0.711-11.291,1.81-22.557,2.802-33.829
			c0.589-6.69,1.431-13.365,1.761-20.066c0.224-4.555-3.142-6.696-7.182-4.459c-2,1.107-3.211,3.638-4.909,5.68
			c-3.543-2.535-7.753-4.607-12.908-2.483c-7.023,2.894-10.389,8.778-12.268,15.523c-1.705,6.122-2.644,12.457-3.689,17.568
			c-0.232-2.751-0.444-6.723-0.924-10.663c-1.005-8.24-1.878-16.512-3.319-24.68c-1.323-7.5-3.229-14.903-5.063-22.303
			c-0.825-3.33-1.772-6.709-3.272-9.768c-1.329-2.709-3.994-3.423-7.05-2.623c-2.546,0.667-2.499,2.506-2.249,4.396
			c1.007,7.607,2.074,15.206,3.156,22.803c1.169,8.209,2.532,16.393,3.527,24.622c1.029,8.509,1.834,17.049,2.522,25.593
			c0.739,9.179,1.302,18.347-0.843,27.492c-0.755,3.22-2.387,5.219-5.317,5.984c-2.82,0.736-5.46-0.191-7.112-2.703
			c-2.487-3.783-4.647-7.784-7.211-11.51c-0.705-1.024-2.351-1.401-3.566-2.074c-0.561,1.078-1.747,2.263-1.584,3.218
			c1.268,7.457,2.956,14.954,7.74,20.967c4.303,5.408,10.209,9.011,17.448,7.7c7.663-1.388,12.318-6.494,13.787-14.184
			c1.065-5.575,1.842-11.205,2.514-15.364c1.794,3.376,3.905,8.414,6.946,12.807c4.044,5.84,8.471,6.363,14.147,2.213
			c2.101-1.537,3.69-3.775,5.381-5.555c2.522,3.182,5.211,6.812,9.993,7.655c6.556,1.156,10.566-2.797,14.085-7.84
			c4.898,7.739,11.421,11.958,20.302,10.753c7.331-0.995,13.417-4.664,17.935-10.676c0.049,22.801,0.098,45.603,0.148,68.404
			c-3.695-0.863-7.439-1.559-11.077-2.617c-18.736-5.446-37.436-11.014-56.166-16.48c-13.927-4.064-27.909-7.945-41.812-12.091
			c-6.803-2.029-13.776-3.858-20.144-6.888c-8.389-3.991-12.443-11.665-12.489-20.736c-0.204-40.863-0.167-81.728-0.034-122.591
			c0.033-10.02,6.162-17.819,15.506-20.915c13.393-4.438,27.022-8.163,40.555-12.177c9.431-2.797,18.861-5.598,28.307-8.344
			c15.44-4.488,30.888-8.947,46.343-13.382C297.421,248.149,301.109,247.246,304.779,246.277z"/>
		<path fill="#E40C27" d="M220.037,515.209c-4.168,0-8.185-0.179-12.159,0.152c-0.788,0.066-1.957,2.066-2.015,3.221
			c-0.233,4.604,0.064,9.235-0.208,13.835c-0.069,1.168-1.297,2.881-2.368,3.248c-2.261,0.775-3.166-1.172-3.204-2.984
			c-0.12-5.858-0.245-11.734,0.09-17.577c0.237-4.127,2.221-5.548,6.364-5.563c4.366-0.016,8.732-0.02,13.098,0.001
			c3.816,0.019,6.278,2.285,6.355,6.117c0.109,5.486,0.006,10.977,0.039,16.465c0.013,2.108-0.396,3.64-3.009,3.708
			c-2.808,0.073-2.896-1.959-2.938-3.733C219.957,526.749,220.037,521.393,220.037,515.209z"/>
		<path fill="#E4102C" d="M269.527,509.531c3.732,0,7.216-0.064,10.697,0.015c5.478,0.123,8.755,3.456,8.803,8.906
			c0.039,4.491-0.021,8.982,0.02,13.473c0.021,2.27-0.497,3.924-3.25,3.897c-2.796-0.027-2.69-2.151-2.744-3.898
			c-0.13-4.237-0.114-8.483-0.013-12.722c0.05-2.097-0.786-2.952-2.842-2.92c-3.472,0.054-6.946,0.015-10.898,0.015
			c0,4.754,0.016,9.314-0.012,13.874c-0.007,1.113,0.207,2.469-0.334,3.276c-0.685,1.02-1.986,2.058-3.121,2.182
			c-0.675,0.074-2.202-1.582-2.218-2.48c-0.166-9.228-0.166-18.462,0-27.69c0.016-0.905,1.536-2.571,2.209-2.499
			c1.134,0.121,2.529,1.141,3.109,2.177C269.547,506.232,269.336,507.788,269.527,509.531z M266.739,505.114
			c-0.394,0.039-0.787,0.079-1.181,0.118c0,9.372,0,18.745,0,28.117c0.484,0.032,0.969,0.064,1.453,0.096
			c0.088-2.814,0.165-5.629,0.266-8.442c0.125-3.463-1.044-8.414,0.751-10c2.097-1.852,6.787-0.873,10.355-0.931
			c5.025-0.082,6.611,1.47,6.857,6.639c0.131,2.74,0.006,5.49,0.034,8.236c0.014,1.379,0.114,2.756,0.175,4.134
			c0.342-0.002,0.684-0.004,1.025-0.007c0.1-1.007,0.28-2.013,0.288-3.02c0.033-4.243,0.034-8.487,0.008-12.73
			c-0.024-3.857-1.492-5.41-5.387-5.515c-3.492-0.095-6.997-0.171-10.48,0.027c-2.696,0.153-4.009-0.583-3.677-3.51
			C267.346,507.288,266.918,506.187,266.739,505.114z"/>
		<path fill="#E30723" d="M248.515,509.547c2.221,0,4.281-0.36,6.112,0.132c1.141,0.307,1.935,1.903,2.884,2.92
			c-0.923,0.729-1.766,1.91-2.786,2.091c-1.906,0.339-3.914,0.097-6.039,0.097c0,5.346,0,10.389,0,15.761
			c2.102,0,4.066,0.078,6.022-0.021c2.106-0.106,3.29,0.87,2.693,2.835c-0.302,0.995-1.705,2.164-2.751,2.322
			c-2.317,0.349-4.727,0.023-7.092,0.13c-3.361,0.151-4.923-1.777-4.98-4.721c-0.157-8.228-0.086-16.462-0.034-24.693
			c0.013-2.062,0.785-3.613,3.274-3.621c2.525-0.008,2.601,1.747,2.687,3.518C248.553,507.268,248.515,508.242,248.515,509.547z"/>
		<path fill="#E40C29" d="M407.029,522.275c-2.524-2.303-5.003-4.546-7.46-6.812c-1.745-1.609-2.725-3.829-0.781-5.399
			c0.868-0.701,3.632,0.155,5.018,1.079c1.876,1.25,3.259,3.243,4.847,4.923c1.543,1.632,2.799,2.334,4.468-0.144
			c1.403-2.083,3.258-4.028,5.322-5.433c1.086-0.74,3.049-0.193,4.616-0.227c-0.031,1.288,0.446,2.956-0.183,3.797
			c-2.258,3.018-4.89,5.755-7.402,8.624c2.563,2.71,4.849,5.24,7.263,7.641c1.593,1.585,2.172,3.525,0.263,4.674
			c-1.077,0.648-3.522,0.121-4.717-0.749c-2.686-1.954-4.977-4.452-7.568-6.857c-2.26,2.146-4.698,4.81-7.523,6.966
			c-1.107,0.845-3.082,0.552-4.661,0.777c0.218-1.647-0.115-3.719,0.763-4.856C401.403,527.545,404.082,525.249,407.029,522.275z
			 M398.734,531.875c0.408,0.609,0.817,1.219,1.225,1.828c1.101-0.502,2.366-0.804,3.266-1.549c1.628-1.346,3.175-2.845,4.509-4.482
			c2.128-2.612,3.996-2.975,6.255-0.122c1.385,1.75,3.047,3.321,4.773,4.743c0.841,0.693,2.116,0.86,3.194,1.265
			c0.157-0.313,0.315-0.627,0.472-0.94c-3.196-3.369-6.392-6.738-9.73-10.257c3.958-3.063,6.752-6.629,9.223-10.433
			c-0.516-0.461-1.032-0.923-1.549-1.384c-1.596,1.859-3.089,3.822-4.809,5.559c-5.167,5.219-4.095,5.182-9.345-0.009
			c-1.746-1.727-3.496-3.45-5.244-5.175c-0.302,0.237-0.605,0.475-0.907,0.712c0.288,0.72,0.421,1.569,0.892,2.139
			c1.821,2.201,3.622,4.446,5.675,6.419c1.871,1.798,2.017,3.227-0.01,4.912C403.96,527.317,401.361,529.613,398.734,531.875z"/>
		<path fill="#E30B28" d="M300.625,527.192c1.24,0.859,2.407,2.299,3.735,2.466c3.666,0.461,7.398,0.454,11.105,0.51
			c2.636,0.04,4.162,1.014,3.394,3.824c-0.198,0.724-1.284,1.727-1.951,1.72c-5.335-0.062-10.686-0.129-15.994-0.616
			c-3.698-0.339-5.6-3.137-5.907-6.574c-0.341-3.822-0.334-7.715-0.036-11.543c0.346-4.438,3.701-7.325,8.133-7.425
			c3.489-0.078,6.982-0.078,10.47,0.001c4.004,0.09,6.887,3.085,6.957,7.076c0.164,9.419,0.164,9.419-9.224,9.419
			c-3.352,0-6.705,0-10.057,0C301.043,526.43,300.834,526.811,300.625,527.192z M317.007,533.109
			c0.023-0.281,0.046-0.563,0.069-0.844c-1.134-0.074-2.269-0.14-3.402-0.224c-3.217-0.237-6.458-0.309-9.643-0.764
			c-4.067-0.581-5.074-2.466-3.712-6.732c4.887,0,9.871,0.059,14.852-0.044c1.154-0.024,2.746-0.229,3.365-0.983
			c2.397-2.924,0.013-10.959-3.654-11.602c-3.838-0.673-7.94-0.869-11.777-0.287c-5.649,0.857-6.573,2.45-6.582,8.049
			c-0.004,2.625-0.472,5.368,0.148,7.837c0.511,2.033,2.153,5.179,3.575,5.339C305.772,533.479,311.411,533.109,317.007,533.109z"/>
		<path fill="#E30927" d="M335.529,535.795c0-9.846,0-19.191,0-28.536c0-2.202,0.007-4.374,3.09-4.475
			c3.406-0.111,2.857,2.344,2.913,4.414c0.017,0.621,0.003,1.243,0.003,2.341c3.41,0,6.733-0.013,10.056,0.003
			c6.481,0.031,9.505,2.959,9.64,9.444c0.063,2.99,0.056,5.99-0.107,8.975c-0.243,4.449-3.216,7.619-7.669,7.781
			C347.623,535.956,341.777,535.795,335.529,535.795z M339.594,505.174c-0.344,0.023-0.688,0.046-1.032,0.068
			c-0.219,0.272-0.628,0.543-0.63,0.817c-0.07,8.496-0.164,16.994-0.012,25.487c0.012,0.682,1.74,1.859,2.716,1.908
			c4.239,0.212,8.497,0.163,12.744,0.07c3.84-0.084,6.015-2.254,6.133-6.069c0.097-3.122,0.082-6.251,0.005-9.374
			c-0.1-4.04-2.255-6.183-6.314-6.273c-3.373-0.075-6.753-0.114-10.123,0.017c-2.215,0.087-3.259-0.592-3.089-2.958
			C340.079,507.652,339.74,506.406,339.594,505.174z"/>
		<path fill="#E30A28" d="M380.796,509.539c11.546-0.945,12.833,2.662,12.503,12.483c-0.058,1.743,0.027,3.491-0.015,5.236
			c-0.124,5.197-3.505,8.521-8.662,8.54c-2.743,0.01-5.486,0.013-8.228-0.001c-4.886-0.025-8.525-2.635-9.121-7.33
			c-0.482-3.797-0.512-7.761,0.008-11.547c0.678-4.933,4.575-8.018,9.03-7.412C377.781,509.707,379.3,509.538,380.796,509.539z
			 M391.037,522.745c0-2.122,0.019-4.244-0.005-6.366c-0.03-2.681-0.963-4.649-4.02-4.772c-3.71-0.149-7.474-0.71-11.119-0.281
			c-5.168,0.608-7.123,3.289-6.66,8.018c0.278,2.844-0.002,5.738,0.066,8.607c0.078,3.309,2.302,5.488,5.633,5.586
			c1.746,0.051,3.495-0.021,5.242,0.015C391.211,533.778,391.277,533.741,391.037,522.745z"/>
		<path fill="#E30622" d="M186.996,522.531c-0.003-3.364-0.188-6.745,0.108-10.082c0.091-1.026,1.496-1.935,2.299-2.898
			c0.948,0.89,2.687,1.754,2.717,2.675c0.228,6.97,0.222,13.954-0.005,20.924c-0.029,0.908-1.731,1.761-2.658,2.64
			c-0.82-0.931-2.262-1.809-2.346-2.801C186.82,529.524,186.999,526.02,186.996,522.531z"/>
		<path fill="#E40D29" d="M188.605,507.819c-0.783-1.367-2.306-2.824-2.154-4.078c0.17-1.41,1.852-2.637,2.876-3.943
			c1.224,1.333,3.107,2.52,3.449,4.05c0.241,1.079-1.612,2.624-2.53,3.961C189.699,507.813,189.152,507.816,188.605,507.819z"/>
		<path fill="#FEFDFB" d="M304.636,417.011c-4.518,6.013-10.604,9.682-17.935,10.676c-8.881,1.205-15.404-3.014-20.302-10.753
			c-3.519,5.043-7.529,8.996-14.085,7.84c-4.781-0.843-7.47-4.473-9.993-7.655c-1.691,1.78-3.279,4.018-5.381,5.555
			c-5.676,4.15-10.103,3.627-14.147-2.213c-3.042-4.393-5.152-9.431-6.946-12.807c-0.672,4.159-1.449,9.789-2.514,15.364
			c-1.469,7.69-6.124,12.797-13.787,14.184c-7.239,1.311-13.145-2.292-17.448-7.7c-4.784-6.013-6.472-13.51-7.74-20.967
			c-0.162-0.955,1.023-2.139,1.584-3.218c1.214,0.674,2.861,1.05,3.566,2.074c2.564,3.726,4.724,7.727,7.211,11.51
			c1.651,2.512,4.292,3.439,7.112,2.703c2.93-0.765,4.561-2.764,5.317-5.984c2.146-9.145,1.582-18.313,0.843-27.492
			c-0.688-8.544-1.494-17.084-2.522-25.593c-0.995-8.229-2.358-16.414-3.527-24.622c-1.081-7.597-2.149-15.196-3.156-22.803
			c-0.25-1.891-0.296-3.729,2.249-4.396c3.056-0.801,5.721-0.086,7.05,2.623c1.5,3.059,2.447,6.438,3.272,9.768
			c1.834,7.4,3.74,14.803,5.063,22.303c1.441,8.168,2.314,16.439,3.319,24.68c0.48,3.94,0.692,7.912,0.924,10.663
			c1.046-5.111,1.985-11.446,3.689-17.568c1.878-6.746,5.245-12.63,12.268-15.523c5.155-2.124,9.365-0.052,12.908,2.483
			c1.698-2.042,2.909-4.573,4.909-5.68c4.04-2.237,7.406-0.097,7.182,4.459c-0.33,6.701-1.172,13.377-1.761,20.066
			c-0.992,11.272-2.091,22.539-2.802,33.829c-0.119,1.892,1.164,4.171,2.466,5.706c0.519,0.611,3.136,0.11,4.263-0.664
			c0.979-0.672,1.693-2.448,1.679-3.726c-0.061-5.48-0.591-10.954-0.663-16.433c-0.182-13.771,1.976-27.22,7.687-39.758
			c2.345-5.147,6.113-9.833,9.972-14.052c4.5-4.92,13.361-2.809,17.502,1.049c5.936,5.53,8.616,12.61,8.861,20.229
			c0.207,6.456-1.056,13.029-2.263,19.438c-0.951,5.051-5.901,6.846-10.386,4.27c-1.965-1.128-2.577-2.588-2.568-5.165
			c0.024-6.929-0.511-13.89-1.331-20.777c-0.364-3.053-3.127-4.05-5.409-2.036c-2.015,1.778-3.952,4.218-4.724,6.733
			c-3.639,11.846-3.705,24.081-2.191,36.213c0.621,4.98,2.669,9.966,4.959,14.499c2.126,4.209,6.394,4.87,10.573,2.61
			c6.882-3.722,11.213-9.919,15.512-16.139c0.552-0.798,1.165-1.554,1.75-2.33c0.032,7.794,0.063,15.588,0.095,23.382
			C304.771,416.244,304.703,416.627,304.636,417.011z M237.698,379.5c-0.48-5.908-0.752-10.244-1.239-14.555
			c-0.125-1.106-0.772-2.885-1.464-3.035c-1.279-0.276-2.996,0.079-4.107,0.813c-1.139,0.752-2.274,2.17-2.538,3.473
			c-1.338,6.622-3.15,13.28-3.33,19.965c-0.173,6.456,1.232,12.997,2.388,19.422c0.361,2.007,0.96,5.522,4.031,4.688
			c1.553-0.422,3.156-3.347,3.432-5.322C236.12,396.004,236.904,386.993,237.698,379.5z"/>
		<path fill="#CFDAD9" d="M304.838,415.861c-0.032-7.794-0.063-15.588-0.095-23.382c0.181-0.714,0.362-1.429,0.543-2.142
			c1.925-7.743,2.59-15.574,2.577-23.579c-0.028-17.86,0.206-35.727,0.744-53.579c0.338-11.211,1.397-22.402,2.184-33.598
			c0.222-3.164,2.865-4.943,7.107-4.805c3.051,0.099,5.682,0.721,5.745,4.701c0.406,25.6,0.906,51.198,1.271,76.798
			c0.049,3.425-0.489,6.858-0.755,10.288c0.32,0.158,0.64,0.316,0.96,0.474c5.728-7.181,11.623-14.236,17.135-21.579
			c5.323-7.092,10.174-14.538,15.463-21.657c0.579-0.78,3.206-1.094,3.984-0.482c2.851,2.244,3.812,5.476,2.646,8.996
			c-6.596,19.916-16.644,37.935-29.835,54.239c-0.636,0.786-0.918,2.509-0.504,3.392c5.126,10.947,11.624,20.963,20.873,28.926
			c14.745,12.694,32.585,13.45,48.353,2.411c11.603-8.124,19.049-19.175,23.876-32.222c0.678-1.833,0.787-3.883,1.516-5.688
			c0.501-1.241,1.618-2.234,2.872-3.063c1.576,7.723,0.365,15.001-1.873,21.877c-5.087,15.626-14.249,28.314-29.105,36.179
			c-11.05,5.85-22.671,7.517-34.907,4.294c-18.3-4.82-31.307-16.06-40.005-32.621c-0.459-0.874-0.962-1.726-1.467-2.575
			c-0.229-0.385-0.51-0.737-1.051-1.508c0,8.196-0.167,15.86,0.059,23.513c0.15,5.063-1.44,7.808-5.453,8.061
			c-6.585,0.415-9.127-1.64-9.171-7.535c-0.047-6.221-0.01-12.442-0.01-19.295C307.053,412.753,305.946,414.307,304.838,415.861z"/>
		<path fill="#E3011A" d="M266.739,505.114c0.179,1.072,0.606,2.173,0.488,3.212c-0.332,2.927,0.981,3.662,3.677,3.51
			c3.483-0.197,6.988-0.121,10.48-0.027c3.894,0.105,5.363,1.658,5.387,5.515c0.026,4.243,0.025,8.487-0.008,12.73
			c-0.008,1.007-0.187,2.014-0.288,3.02c-0.342,0.002-0.684,0.005-1.025,0.007c-0.061-1.378-0.161-2.756-0.175-4.134
			c-0.029-2.745,0.096-5.496-0.034-8.236c-0.246-5.169-1.832-6.721-6.857-6.639c-3.568,0.058-8.258-0.921-10.355,0.931
			c-1.795,1.586-0.626,6.537-0.751,10c-0.102,2.814-0.178,5.628-0.266,8.442c-0.484-0.032-0.969-0.064-1.453-0.096
			c0-9.372,0-18.745,0-28.117C265.952,505.193,266.346,505.154,266.739,505.114z"/>
		<path fill="#E3011B" d="M398.734,531.875c2.628-2.262,5.226-4.558,7.892-6.774c2.027-1.685,1.881-3.114,0.01-4.912
			c-2.054-1.973-3.854-4.218-5.675-6.419c-0.471-0.569-0.604-1.418-0.892-2.139c0.302-0.237,0.605-0.475,0.907-0.712
			c1.748,1.725,3.498,3.448,5.244,5.175c5.249,5.191,4.178,5.228,9.345,0.009c1.72-1.737,3.212-3.699,4.809-5.559
			c0.516,0.461,1.032,0.923,1.549,1.384c-2.471,3.804-5.266,7.369-9.223,10.433c3.338,3.518,6.534,6.888,9.73,10.257
			c-0.157,0.313-0.315,0.627-0.472,0.94c-1.078-0.405-2.353-0.572-3.194-1.265c-1.727-1.422-3.388-2.993-4.773-4.743
			c-2.259-2.853-4.127-2.491-6.255,0.122c-1.333,1.637-2.88,3.135-4.509,4.482c-0.9,0.744-2.165,1.047-3.266,1.549
			C399.55,533.093,399.142,532.484,398.734,531.875z"/>
		<path fill="#E30520" d="M317.007,533.109c-5.596,0-11.234,0.37-16.76-0.254c-1.422-0.161-3.065-3.306-3.575-5.339
			c-0.62-2.469-0.152-5.212-0.148-7.837c0.009-5.599,0.933-7.192,6.582-8.049c3.837-0.582,7.938-0.386,11.777,0.287
			c3.667,0.643,6.051,8.678,3.654,11.602c-0.618,0.754-2.211,0.959-3.365,0.983c-4.981,0.102-9.965,0.044-14.852,0.044
			c-1.362,4.266-0.356,6.151,3.712,6.732c3.186,0.455,6.427,0.528,9.643,0.764c1.133,0.083,2.268,0.15,3.402,0.224
			C317.053,532.547,317.03,532.828,317.007,533.109z M315.32,519.257c-2.547-4.452-6.202-3.586-9.332-3.472
			c-2.036,0.074-4.901-0.24-4.962,3.472C305.543,519.257,309.854,519.257,315.32,519.257z"/>
		<path fill="#E3011A" d="M339.594,505.174c0.146,1.232,0.485,2.478,0.398,3.693c-0.17,2.366,0.874,3.045,3.089,2.958
			c3.37-0.132,6.75-0.093,10.123-0.017c4.059,0.091,6.214,2.233,6.314,6.273c0.077,3.123,0.092,6.252-0.005,9.374
			c-0.118,3.815-2.293,5.984-6.133,6.069c-4.248,0.093-8.505,0.142-12.744-0.07c-0.976-0.049-2.704-1.226-2.716-1.908
			c-0.152-8.493-0.057-16.991,0.012-25.487c0.002-0.274,0.411-0.545,0.63-0.817C338.906,505.22,339.25,505.197,339.594,505.174z
			 M347.849,531.577c2.571-0.318,5.847,0.248,7.572-1.13c4.117-3.289,1.287-8.339,1.643-12.593c0.094-1.12-2.111-2.765-3.587-3.573
			c-1.073-0.587-2.682-0.228-4.052-0.23c-9.393-0.013-9.393-0.008-9.393,9.312C340.033,531.292,340.033,531.292,347.849,531.577z"/>
		<path fill="#E3011A" d="M391.038,522.745c0.239,10.996,0.173,11.033-10.864,10.807c-1.747-0.036-3.496,0.037-5.242-0.015
			c-3.33-0.098-5.555-2.277-5.633-5.586c-0.068-2.869,0.213-5.764-0.066-8.607c-0.463-4.729,1.492-7.41,6.66-8.018
			c3.645-0.429,7.409,0.132,11.119,0.281c3.057,0.123,3.99,2.091,4.02,4.772C391.056,518.5,391.037,520.623,391.038,522.745z
			 M388.786,522.151c0-8.106,0-8.106-8.334-8.106c-1.118,0-2.238-0.035-3.355,0.008c-3.275,0.124-5.453,2.324-5.554,5.635
			c-0.299,9.805-0.257,12.226,11.146,11.611c0.62-0.033,1.247,0.038,1.863-0.019c2.599-0.239,4.067-1.664,4.212-4.282
			C388.853,525.386,388.781,523.766,388.786,522.151z"/>
		<path fill="#E41A38" d="M237.698,379.5c-0.793,7.493-1.578,16.504-2.827,25.45c-0.276,1.975-1.879,4.901-3.432,5.322
			c-3.071,0.834-3.67-2.681-4.031-4.688c-1.155-6.424-2.561-12.965-2.388-19.422c0.18-6.685,1.991-13.344,3.33-19.965
			c0.263-1.303,1.399-2.721,2.538-3.473c1.111-0.734,2.828-1.089,4.107-0.813c0.692,0.149,1.338,1.929,1.464,3.035
			C236.946,369.256,237.217,373.592,237.698,379.5z"/>
		<path fill="#FDF2F4" d="M315.32,519.257c-5.465,0-9.776,0-14.293,0c0.06-3.712,2.926-3.398,4.962-3.472
			C309.118,515.671,312.773,514.806,315.32,519.257z"/>
		<path fill="#E40D2A" d="M347.849,531.577c-7.817-0.285-7.817-0.285-7.817-8.214c0-9.32,0-9.325,9.393-9.312
			c1.37,0.002,2.98-0.357,4.052,0.23c1.476,0.808,3.681,2.453,3.587,3.573c-0.357,4.254,2.474,9.305-1.643,12.593
			C353.697,531.825,350.42,531.26,347.849,531.577z M341.651,529.077c3.926,0,7.528,0.09,11.119-0.063
			c0.916-0.039,2.535-0.791,2.578-1.316c0.258-3.208,0.299-6.457,0.051-9.664c-0.049-0.639-1.64-1.604-2.559-1.652
			c-3.687-0.19-7.39-0.079-11.189-0.079C341.651,520.658,341.651,524.613,341.651,529.077z"/>
		<path fill="#E40C29" d="M388.783,522.151c-0.003,1.615,0.07,3.235-0.019,4.845c-0.145,2.619-1.613,4.043-4.212,4.282
			c-0.616,0.057-1.243-0.015-1.863,0.019c-11.404,0.616-11.446-1.806-11.146-11.611c0.101-3.311,2.279-5.511,5.554-5.635
			c1.117-0.042,2.237-0.008,3.355-0.008C388.786,514.044,388.786,514.045,388.783,522.151z M380.48,529.177
			c6.803,0.003,6.803,0.003,6.806-4.992c0.005-8.433,0.005-8.433-6.304-8.458c-6.552-0.025-7.191,0.454-7.194,5.397
			C373.783,529.174,373.783,529.174,380.48,529.177z"/>
		<path fill="#FEFCFC" d="M341.651,529.077c0-4.464,0-8.42,0-12.773c3.799,0,7.502-0.112,11.189,0.079
			c0.919,0.047,2.51,1.013,2.559,1.652c0.248,3.207,0.207,6.456-0.051,9.664c-0.042,0.525-1.661,1.277-2.578,1.316
			C349.179,529.168,345.577,529.077,341.651,529.077z"/>
		<path fill="#FEFBFB" d="M380.48,529.177c-6.697-0.003-6.697-0.003-6.692-8.053c0.003-4.943,0.642-5.422,7.194-5.397
			c6.309,0.024,6.309,0.024,6.304,8.458C387.283,529.181,387.283,529.181,380.48,529.177z"/>
	</g>
</g>
</svg>
