<?xml version="1.0" encoding="utf-8"?>
<!-- Generator: Adobe Illustrator 17.0.0, SVG Export Plug-In . SVG Version: 6.00 Build 0)  -->
<!DOCTYPE svg PUBLIC "-//W3C//DTD SVG 1.1//EN" "http://www.w3.org/Graphics/SVG/1.1/DTD/svg11.dtd">
<svg version="1.1" id="Layer_1" xmlns="http://www.w3.org/2000/svg" xmlns:xlink="http://www.w3.org/1999/xlink" x="0px" y="0px"
	 width="612px" height="792px" viewBox="0 0 612 792" enable-background="new 0 0 612 792" xml:space="preserve">
<g>
	<path fill="#FFFFFF" d="M158.787,509.487h-45.379l9.102-51.92H67.32l-24.637,51.92H1.392l138.77-286.172h65.819L158.787,509.487z
		 M85.663,418.729h43.335l25.764-144.721h-0.817L85.663,418.729z"/>
	<path fill="#FFFFFF" d="M211.411,366.398h69.5l-6.642,20.441h-23.508l-39.851,122.647h-22.485l39.851-122.647h-23.507
		L211.411,366.398z"/>
	<path fill="#FFFFFF" d="M277.721,400.739c7.439-22.894,23.75-35.977,45.827-35.977c22.076,0,29.886,13.082,22.447,35.977
		l-24.176,74.406c-7.439,22.894-23.75,35.976-45.826,35.976c-22.076,0-29.886-13.082-22.448-35.976L277.721,400.739z
		 M275.565,476.577c-3.321,10.22-0.086,14.104,7.069,14.104c7.154,0,12.914-3.884,16.234-14.104l25.106-77.268
		c3.321-10.221,0.086-14.105-7.069-14.105c-7.155,0-12.914,3.884-16.235,14.105L275.565,476.577z"/>
	<path fill="#FFFFFF" d="M386.078,467.991h0.409l48.136-101.593h31.276l-46.492,143.088h-21.259l33.341-102.615h-0.408
		l-48.468,102.615h-21.259l16.524-101.184h-0.409l-32.877,101.184h-19.623l46.492-143.088h31.276L386.078,467.991z"/>
	<path fill="#FFFFFF" d="M482.246,366.398h22.485l-46.492,143.088h-22.485L482.246,366.398z"/>
	<path fill="#FFFFFF" d="M557.132,456.135l-6.176,19.01c-7.439,22.894-23.137,35.976-45.214,35.976
		c-22.076,0-29.273-13.082-21.834-35.976l24.176-74.406c7.439-22.894,23.137-35.977,45.213-35.977
		c22.077,0,29.273,13.082,21.834,35.977l-4.516,13.9h-21.259l4.981-15.331c3.321-10.221,0.086-14.105-7.068-14.105
		c-7.155,0-12.914,3.884-16.235,14.105l-25.106,77.268c-3.321,10.22-0.02,13.9,7.136,13.9c7.154,0,12.847-3.68,16.168-13.9
		l6.642-20.441H557.132z"/>
</g>
<g>
	<path fill="#FFFFFF" d="M215.938,353.318l22.182-68.27h9.682c15.603,0,19.719,11.346,12.346,34.035
		c-3.686,11.346-8.4,19.887-14.14,25.626c-5.741,5.739-12.121,8.608-19.14,8.608H215.938z M227.381,345.134h1.297
		c5.19,0,9.504-1.988,12.941-5.964c3.437-3.975,6.643-10.537,9.616-19.687c3.102-9.548,4.284-16.31,3.547-20.286
		c-0.738-3.975-3.752-5.964-9.041-5.964h-1.497L227.381,345.134z"/>
	<path fill="#FFFFFF" d="M292.89,353.318l22.182-68.27h24.303l-2.659,8.184h-15.52l-6.632,20.411h14.222l-2.659,8.184h-14.222
		l-7.572,23.305h16.368l-2.659,8.184H292.89z"/>
	<path fill="#FFFFFF" d="M362.027,351.572l2.951-9.083c1.817,2.495,3.957,3.743,6.419,3.743c1.829,0,3.602-0.643,5.318-1.932
		c1.716-1.288,2.869-2.839,3.459-4.656c0.508-1.563,0.758-3.46,0.751-5.689c-0.008-2.228-0.642-6.345-1.9-12.351
		c-1.26-6.005-1.869-10.555-1.829-13.649c0.04-3.094,0.445-5.822,1.212-8.184c1.492-4.591,4.016-8.342,7.575-11.254
		c3.557-2.911,7.365-4.366,11.425-4.366c2.295,0,4.546,0.599,6.752,1.796l-2.692,8.284c-1.941-1.398-3.761-2.096-5.457-2.096
		c-4.425,0-7.34,2.163-8.745,6.487c-0.519,1.597-0.769,3.519-0.75,5.764c0.019,2.246,0.668,6.338,1.949,12.276
		c1.281,5.939,1.89,10.464,1.828,13.574c-0.063,3.111-0.483,5.864-1.262,8.259c-1.513,4.659-4.049,8.443-7.606,11.353
		c-3.558,2.912-7.416,4.367-11.575,4.367C366.856,354.217,364.249,353.335,362.027,351.572z"/>
	<path fill="#FFFFFF" d="M426.634,353.318l22.182-68.27h8.784l-22.182,68.27H426.634z"/>
	<path fill="#FFFFFF" d="M525.137,316.639l-10.896,33.536c-5.002,2.695-9.465,4.042-13.391,4.042c-6.92,0-11.393-3.077-13.418-9.232
		c-2.026-6.155-1.255-14.722,2.312-25.701c3.513-10.812,8.24-19.371,14.181-25.676c5.941-6.304,12.172-9.456,18.693-9.456
		c3.925,0,7.754,1.63,11.486,4.89l-3.048,9.382c-3.443-4.458-6.944-6.687-10.503-6.687c-8.717,0-16.054,9.166-22.01,27.498
		c-5.805,17.866-4.083,26.798,5.166,26.798c0.765,0,1.835-0.116,3.207-0.349l6.778-20.861h-6.038l2.659-8.184H525.137z"/>
	<path fill="#FFFFFF" d="M557.883,353.318l22.182-68.27h7.137l1.406,42.211l0.229-0.092l13.686-42.12h8.085l-22.182,68.27h-7.137
		l-1.309-42.509l-0.196-0.01l-13.815,42.519H557.883z"/>
</g>
<g>
	<path fill="#FFFFFF" d="M57.411,560.218l-1.943,5.979c-2.672,1.659-5.192,2.489-7.562,2.489c-3.792,0-6.092-1.939-6.9-5.818
		c-0.808-3.878-0.043-9.414,2.295-16.61c2.338-7.196,5.204-12.819,8.6-16.869c3.395-4.05,7.021-6.076,10.878-6.076
		c1.853,0,3.64,0.765,5.362,2.295l-1.869,5.752c-1.301-1.83-2.899-2.746-4.795-2.746c-2.283,0-4.372,1.339-6.265,4.016
		c-1.894,2.677-3.853,7.135-5.88,13.37c-2.005,6.172-2.931,10.613-2.777,13.323c0.154,2.709,1.426,4.064,3.818,4.064
		C52.009,563.385,54.356,562.33,57.411,560.218z"/>
	<path fill="#FFFFFF" d="M92.116,568.685c-3.49,0-5.678-2.02-6.563-6.06c-0.885-4.039-0.183-9.582,2.106-16.627
		c2.163-6.657,4.972-12.103,8.426-16.336c3.455-4.233,7.045-6.35,10.773-6.35c3.619,0,5.814,2.112,6.587,6.335
		c0.771,4.223,0.072,9.673-2.098,16.352c-2.31,7.11-5.247,12.669-8.811,16.676C98.972,566.681,95.498,568.685,92.116,568.685z
		 M105.072,528.612c-1.874,0-3.814,1.543-5.819,4.628c-2.004,3.086-3.887,7.339-5.648,12.758c-1.824,5.613-2.704,9.914-2.641,12.903
		c0.063,2.99,1.042,4.484,2.938,4.484c1.81,0,3.733-1.526,5.77-4.58c2.037-3.053,3.947-7.322,5.728-12.806
		c1.81-5.569,2.676-9.859,2.599-12.87C107.922,530.118,106.946,528.612,105.072,528.612z"/>
	<path fill="#FFFFFF" d="M152.685,540.117l11.832-16.224h4.88l-14.365,44.21h-5.559l10.741-31.962l-0.12-0.129l-10.284,14.543
		h-1.034l-0.833-14.543l-0.203,0.129l-10.03,31.962h-5.559l14.365-44.21h4.88L152.685,540.117z"/>
	<path fill="#FFFFFF" d="M184.505,568.103l14.365-44.21h5.688l-14.365,44.21H184.505z"/>
	<path fill="#FFFFFF" d="M219.859,568.103l14.365-44.21h4.622l0.91,27.335l0.148-0.059l8.863-27.276h5.235l-14.365,44.21h-4.621
		l-0.848-27.527l-0.127-0.006l-8.946,27.534H219.859z"/>
	<path fill="#FFFFFF" d="M297.931,544.35l-7.056,21.717c-3.239,1.745-6.129,2.618-8.671,2.618c-4.481,0-7.378-1.993-8.69-5.979
		c-1.312-3.986-0.813-9.534,1.497-16.643c2.275-7.001,5.336-12.544,9.183-16.627c3.847-4.082,7.882-6.124,12.105-6.124
		c2.542,0,5.022,1.056,7.438,3.167l-1.974,6.076c-2.23-2.886-4.496-4.331-6.802-4.331c-5.645,0-10.396,5.936-14.253,17.807
		c-3.759,11.569-2.644,17.354,3.345,17.354c0.495,0,1.188-0.075,2.077-0.225l4.389-13.509h-3.911l1.722-5.3H297.931z"/>
	<path fill="#FFFFFF" d="M339.768,566.972l1.911-5.882c1.177,1.616,2.563,2.424,4.157,2.424c1.185,0,2.333-0.416,3.444-1.25
		c1.111-0.833,1.858-1.839,2.24-3.015c0.329-1.013,0.491-2.24,0.487-3.685c-0.005-1.443-0.416-4.109-1.231-7.999
		c-0.816-3.888-1.21-6.835-1.184-8.838c0.026-2.004,0.288-3.77,0.784-5.3c0.966-2.973,2.601-5.402,4.905-7.288
		c2.303-1.885,4.769-2.828,7.398-2.828c1.486,0,2.943,0.388,4.372,1.164l-1.743,5.365c-1.257-0.905-2.435-1.357-3.534-1.357
		c-2.866,0-4.753,1.4-5.663,4.201c-0.336,1.034-0.498,2.278-0.485,3.732c0.012,1.454,0.433,4.104,1.262,7.95
		c0.829,3.846,1.224,6.776,1.184,8.79c-0.041,2.014-0.313,3.797-0.817,5.349c-0.98,3.016-2.623,5.467-4.926,7.352
		c-2.305,1.885-4.803,2.828-7.495,2.828C342.895,568.685,341.207,568.114,339.768,566.972z"/>
	<path fill="#FFFFFF" d="M391.855,568.685c-3.49,0-5.678-2.02-6.563-6.06c-0.885-4.039-0.183-9.582,2.107-16.627
		c2.163-6.657,4.972-12.103,8.426-16.336c3.455-4.233,7.046-6.35,10.773-6.35c3.62,0,5.815,2.112,6.587,6.335
		c0.771,4.223,0.072,9.673-2.098,16.352c-2.31,7.11-5.247,12.669-8.811,16.676C398.711,566.681,395.237,568.685,391.855,568.685z
		 M404.811,528.612c-1.874,0-3.814,1.543-5.819,4.628c-2.004,3.086-3.887,7.339-5.647,12.758c-1.824,5.613-2.704,9.914-2.641,12.903
		c0.063,2.99,1.042,4.484,2.938,4.484c1.81,0,3.733-1.526,5.771-4.58c2.037-3.053,3.946-7.322,5.728-12.806
		c1.81-5.569,2.675-9.859,2.598-12.87C407.66,530.118,406.685,528.612,404.811,528.612z"/>
	<path fill="#FFFFFF" d="M442.14,568.685c-3.49,0-5.678-2.02-6.563-6.06c-0.885-4.039-0.183-9.582,2.107-16.627
		c2.163-6.657,4.972-12.103,8.426-16.336c3.455-4.233,7.046-6.35,10.773-6.35c3.62,0,5.815,2.112,6.587,6.335
		c0.771,4.223,0.072,9.673-2.098,16.352c-2.31,7.11-5.247,12.669-8.811,16.676C448.996,566.681,445.522,568.685,442.14,568.685z
		 M455.096,528.612c-1.874,0-3.814,1.543-5.819,4.628c-2.004,3.086-3.887,7.339-5.647,12.758c-1.824,5.613-2.704,9.914-2.641,12.903
		c0.063,2.99,1.042,4.484,2.938,4.484c1.81,0,3.733-1.526,5.771-4.58c2.037-3.053,3.946-7.322,5.728-12.806
		c1.81-5.569,2.675-9.859,2.598-12.87C457.946,530.118,456.97,528.612,455.096,528.612z"/>
	<path fill="#FFFFFF" d="M482.369,568.103l14.365-44.21h4.622l0.91,27.335l0.148-0.059l8.863-27.276h5.235l-14.365,44.21h-4.621
		l-0.848-27.527l-0.127-0.006l-8.946,27.534H482.369z"/>
</g>
</svg>
