<?xml version="1.0" encoding="utf-8"?>
<!-- Generator: Adobe Illustrator 17.0.0, SVG Export Plug-In . SVG Version: 6.00 Build 0)  -->
<!DOCTYPE svg PUBLIC "-//W3C//DTD SVG 1.1//EN" "http://www.w3.org/Graphics/SVG/1.1/DTD/svg11.dtd">
<svg version="1.1" id="Layer_2" xmlns="http://www.w3.org/2000/svg" xmlns:xlink="http://www.w3.org/1999/xlink" x="0px" y="0px"
	 width="612px" height="792px" viewBox="0 0 612 792" enable-background="new 0 0 612 792" xml:space="preserve">
<g>
	<path fill="#FFFFFF" d="M159.887,522.686h-45.4l9.106-51.945H68.377l-24.649,51.945H2.417l138.837-286.309h65.851L159.887,522.686z
		 M86.728,431.886h43.355l25.776-144.79h-0.818L86.728,431.886z"/>
	<path fill="#FFFFFF" d="M212.536,379.529h69.533l-6.645,20.451h-23.519l-39.87,122.706H189.54l39.87-122.706h-23.518
		L212.536,379.529z"/>
	<path fill="#FFFFFF" d="M278.878,413.887c7.442-22.905,23.762-35.994,45.849-35.994c22.087,0,29.901,13.089,22.458,35.994
		l-24.187,74.442c-7.442,22.905-23.761,35.993-45.848,35.993c-22.087,0-29.901-13.089-22.458-35.993L278.878,413.887z
		 M276.722,489.761c-3.322,10.225-0.086,14.111,7.072,14.111c7.158,0,12.92-3.886,16.242-14.111l25.118-77.305
		c3.323-10.226,0.086-14.112-7.072-14.112c-7.158,0-12.92,3.886-16.242,14.112L276.722,489.761z"/>
	<path fill="#FFFFFF" d="M387.287,481.171h0.409l48.159-101.642h31.291l-46.515,143.157h-21.269l33.357-102.664h-0.409
		l-48.491,102.664H362.55l16.532-101.233h-0.409L345.78,522.686h-19.633l46.514-143.157h31.291L387.287,481.171z"/>
	<path fill="#FFFFFF" d="M483.501,379.529h22.496l-46.514,143.157h-22.496L483.501,379.529z"/>
	<path fill="#FFFFFF" d="M558.423,469.309l-6.179,19.019c-7.443,22.905-23.148,35.993-45.235,35.993
		c-22.086,0-29.287-13.089-21.844-35.993l24.187-74.442c7.443-22.905,23.148-35.994,45.235-35.994
		c22.087,0,29.287,13.089,21.845,35.994l-4.518,13.907h-21.269l4.983-15.338c3.323-10.226,0.086-14.112-7.072-14.112
		c-7.159,0-12.92,3.886-16.243,14.112l-25.118,77.305c-3.322,10.225-0.02,13.907,7.139,13.907c7.158,0,12.853-3.682,16.176-13.907
		l6.645-20.451H558.423z"/>
</g>
<g>
	<path fill="#FFFFFF" d="M217.066,366.443l22.193-68.302h9.686c15.61,0,19.728,11.351,12.352,34.051
		c-3.688,11.351-8.404,19.897-14.147,25.639c-5.744,5.742-12.127,8.613-19.15,8.613H217.066z M228.514,358.255h1.298
		c5.192,0,9.508-1.989,12.947-5.966c3.439-3.977,6.646-10.542,9.62-19.697c3.104-9.553,4.286-16.318,3.549-20.296
		c-0.738-3.977-3.753-5.966-9.046-5.966h-1.498L228.514,358.255z"/>
	<path fill="#FFFFFF" d="M294.055,366.443l22.193-68.302h24.315l-2.661,8.188h-15.527l-6.635,20.421h14.229l-2.661,8.188h-14.229
		l-7.576,23.316h16.376l-2.661,8.188H294.055z"/>
	<path fill="#FFFFFF" d="M363.225,364.696l2.953-9.087c1.818,2.497,3.959,3.745,6.423,3.745c1.83,0,3.604-0.644,5.321-1.932
		c1.716-1.288,2.87-2.84,3.461-4.658c0.509-1.564,0.758-3.461,0.751-5.692c-0.008-2.229-0.642-6.348-1.901-12.357
		c-1.261-6.008-1.87-10.56-1.83-13.655c0.04-3.096,0.445-5.824,1.213-8.188c1.492-4.593,4.018-8.346,7.578-11.259
		c3.559-2.912,7.369-4.368,11.43-4.368c2.296,0,4.548,0.599,6.755,1.797l-2.693,8.288c-1.942-1.398-3.762-2.097-5.46-2.097
		c-4.427,0-7.343,2.164-8.749,6.491c-0.519,1.598-0.77,3.52-0.751,5.767c0.019,2.247,0.668,6.341,1.95,12.282
		c1.281,5.942,1.891,10.469,1.829,13.581c-0.063,3.113-0.483,5.867-1.262,8.263c-1.514,4.661-4.051,8.447-7.61,11.359
		c-3.56,2.913-7.419,4.369-11.58,4.369C368.056,367.342,365.448,366.46,363.225,364.696z"/>
	<path fill="#FFFFFF" d="M427.863,366.443l22.192-68.302h8.788l-22.193,68.302H427.863z"/>
	<path fill="#FFFFFF" d="M526.413,329.746l-10.901,33.552c-5.004,2.696-9.47,4.044-13.397,4.044c-6.924,0-11.399-3.078-13.425-9.237
		c-2.027-6.158-1.256-14.729,2.313-25.713c3.515-10.817,8.244-19.38,14.188-25.688c5.944-6.307,12.178-9.461,18.702-9.461
		c3.927,0,7.758,1.631,11.491,4.893l-3.05,9.386c-3.444-4.46-6.947-6.69-10.508-6.69c-8.721,0-16.061,9.17-22.02,27.511
		c-5.807,17.874-4.085,26.811,5.169,26.811c0.766,0,1.835-0.116,3.209-0.349l6.781-20.871h-6.041l2.661-8.188H526.413z"/>
	<path fill="#FFFFFF" d="M559.175,366.443l22.192-68.302h7.14l1.407,42.231l0.229-0.092l13.692-42.14h8.089l-22.193,68.302h-7.14
		l-1.31-42.529l-0.197-0.01l-13.822,42.539H559.175z"/>
</g>
</svg>
