<?xml version="1.0" encoding="utf-8"?>
<!-- Generator: Adobe Illustrator 17.0.0, SVG Export Plug-In . SVG Version: 6.00 Build 0)  -->
<!DOCTYPE svg PUBLIC "-//W3C//DTD SVG 1.1//EN" "http://www.w3.org/Graphics/SVG/1.1/DTD/svg11.dtd">
<svg version="1.1" id="Layer_1" xmlns="http://www.w3.org/2000/svg" xmlns:xlink="http://www.w3.org/1999/xlink" x="0px" y="0px"
	 width="612px" height="792px" viewBox="0 0 612 792" enable-background="new 0 0 612 792" xml:space="preserve">
<g>
	<g>
		<path fill="#FDFDFD" d="M493.802,583.802c-125.017,0-250.035,0-375.052,0c0-125.017,0-250.035,0-375.052
			c125.017,0,250.035,0,375.052,0C493.802,333.768,493.802,458.785,493.802,583.802z M296.298,215.542
			c-1.098-0.193-2.212-0.324-3.293-0.589c-18.774-4.601-37.437-4.646-55.423,2.936c-16.259,6.853-32.166,14.543-48.206,21.912
			c-2.509,1.153-2.978,3.15-1.783,5.606c1.856,3.815,1.23,7.499-0.632,11.116c-3.906,7.585-9.416,13.781-16.334,18.722
			c-2.529,1.807-4.703,3.745-4.739,7.155c-2.094,2.63-4.315,5.171-6.265,7.904c-30.751,43.101-41.095,90.834-31.619,142.753
			c4.134,22.651,12.616,43.781,25.378,63.075c1.287,2.087,2.575,4.174,4.02,6.517c6.312-3.178,12.379-6.223,18.437-9.287
			c3.343-1.691,6.761-2.403,10.382-0.937c-2.834,10.909-5.688,21.813-8.453,32.739c-0.171,0.676,0.119,1.772,0.608,2.257
			c1.921,1.907,4.008,3.648,6.033,5.451c4.83,4.006,9.659,8.013,14.489,12.019c0.545,0.494,1.045,1.05,1.64,1.473
			c40.221,28.565,84.855,39.193,133.641,32.734c4.974-0.658,9.875-1.869,14.5-2.763c-2.467-19.489-4.845-38.272-7.223-57.054
			c3.068-0.473,6.135-0.946,9.203-1.42c3.169,18.46,6.338,36.92,9.544,55.59c4.503-1.556,8.458-2.923,12.879-4.451
			c-3.474-17.792-6.883-35.249-10.292-52.706c3.184-0.443,6.368-0.887,9.551-1.33c3.65,16.438,7.301,32.877,11.038,49.704
			c3.642-1.808,7.141-3.544,10.502-5.212c-3.315-15.629-6.538-30.819-9.76-46.009c3.282-0.342,6.563-0.684,9.845-1.026
			c3.313,13.577,6.627,27.153,10.182,41.72c7.13-5.416,13.537-10.283,19.943-15.149c2.849-2.383,5.698-4.766,8.523-7.129
			c-0.516-1.291-0.847-2.225-1.255-3.124c-11.991-26.431-24.001-52.853-35.962-79.298c-0.794-1.755-1.225-3.675-1.824-5.518
			c2.018-0.212,4.054-0.714,6.051-0.589c11.845,0.745,23.687,1.557,35.518,2.497c15.811,1.257,31.68,2.403,45.126,13.231
			c0.782-2.439,1.419-4.424,2.055-6.409c8.406-26.742,10.643-53.98,6.338-81.69c-7.839-50.454-32.601-90.777-73.472-121.12
			c-24.913-18.495-53.058-29.617-83.824-33.333C319.806,215.114,307.995,215.804,296.298,215.542z"/>
		<path fill="#040303" d="M372.343,514.964c-3.184,0.443-6.368,0.887-9.55,1.329c-4.043,0.522-8.088,1.045-12.133,1.568
			c-3.068,0.473-6.135,0.946-9.203,1.419c-0.747,0.02-1.514-0.062-2.239,0.075c-19.078,3.622-38.199,7.043-57.215,10.969
			c-21.547,4.448-42.206,11.879-62.751,19.616c-5.085,1.915-6.716,0.888-6.764-4.575c-0.093-10.591-0.276-21.201,0.22-31.773
			c0.397-8.444,1.725-16.846,2.681-25.262c0.464-4.085,1.021-8.16,1.572-12.522c-4.072,1.639-4.56,1.628-5.721,7.214
			c-4.281,20.588-8.253,41.241-12.341,61.87c-4.83-4.006-9.659-8.013-14.489-12.019c2.819-10.247,5.617-20.501,8.466-30.74
			c2.02-7.26,1.448-8.249-5.915-9.728c-0.235-0.047-0.492,0.012-0.739,0.022c-3.621-1.465-7.04-0.753-10.382,0.937
			c-6.058,3.064-12.125,6.109-18.437,9.287c-1.445-2.342-2.732-4.43-4.02-6.517c14.956-8.851,30.422-16.654,46.676-22.863
			c1.351-0.516,2.794-1.369,3.657-2.482c3.491-4.504,8.145-7.353,13.219-9.545c3.091-1.335,4.519-3.562,5.306-6.68
			c1.524-6.038,3.131-12.066,5.036-17.991c0.751-2.334,0.176-3.853-0.983-5.808c-3.927-6.622-7.491-13.458-11.382-20.101
			c-1.063-1.815-2.483-3.862-4.263-4.737c-6.381-3.136-9.951-7.711-9.437-15.062c0.25-3.574-1.388-6.333-3.609-9.103
			c-3.967-4.949-8.087-9.935-11.052-15.488c-3.965-7.427-7.896-15.212-4.482-24.212c0.231-0.608-0.542-1.841-1.161-2.477
			c-1.213-1.245-2.697-2.22-3.981-3.402c-3.931-3.619-6.634-7.513-3.457-13.12c0.824-1.454,0.905-3.346,1.248-5.053
			c2.066-10.276,1.952-20.06-5.533-28.588c-1.638-1.866-2.225-4.656-3.296-7.021c0.035-3.41,2.209-5.349,4.739-7.155
			c6.917-4.941,12.428-11.137,16.334-18.722c1.863-3.617,2.488-7.301,0.632-11.116c-1.195-2.456-0.726-4.453,1.783-5.606
			c16.04-7.369,31.947-15.059,48.206-21.912c17.986-7.581,36.649-7.536,55.423-2.936c1.081,0.265,2.194,0.395,3.295,0.589
			c1.973,0.733,3.932,1.501,5.918,2.192c29.03,10.099,47.526,29.755,54.54,59.919c0.435,1.872,1.68,3.549,2.492,5.342
			c1.13,2.493,3.211,5.049,3.115,7.51c-0.255,6.543-1.628,13.034-2.182,19.578c-0.168,1.982,0.245,4.655,1.486,6.002
			c5.1,5.531,6.773,12.142,5.477,19.062c-1.848,9.87-4.913,19.506-7.075,29.326c-1.056,4.796-1.68,9.784-1.673,14.683
			c0.005,3.107-0.821,4.986-3.04,7.049c-1.613,1.5-2.776,3.991-3.149,6.207c-0.68,4.031-0.177,8.276-0.986,12.266
			c-1.041,5.139-0.474,9.226,4.377,12.06c0.829,0.484,1.543,1.322,2.062,2.152c2.417,3.871,6.173,5.373,10.325,6.791
			c7.49,2.558,14.758,5.762,22.134,8.657c1.033,0.405,2.14,0.737,3.238,0.847c15.616,1.559,31.278,2.75,46.845,4.695
			c14.707,1.837,29.499,3.86,42.122,12.774c-0.637,1.985-1.273,3.969-2.055,6.409c-13.446-10.828-29.315-11.975-45.126-13.231
			c-11.831-0.94-23.673-1.752-35.518-2.497c-1.997-0.126-4.033,0.376-6.051,0.589c0.6,1.843,1.03,3.763,1.824,5.518
			c11.961,26.444,23.971,52.867,35.962,79.298c0.408,0.899,0.739,1.834,1.255,3.124c-2.824,2.362-5.673,4.745-8.522,7.128
			c-0.304-0.534-0.674-1.041-0.904-1.605c-6.489-15.929-13.038-31.834-19.419-47.806c-6.15-15.393-12.108-30.862-18.183-46.285
			c-2-5.077-5.068-6.899-10.411-5.997c0.27,1.408,0.4,2.85,0.828,4.197c6.449,20.314,11.918,40.883,15.436,61.911
			c0.724,4.33,2.432,5.765,6.575,5.427c1.817-0.148,3.701,0.535,5.555,0.84c-0.056,0.372-0.112,0.743-0.169,1.115
			c-3.145,0.544-6.29,1.089-9.434,1.633c-3.282,0.342-6.563,0.684-9.843,1.026C380.198,513.951,376.271,514.457,372.343,514.964z
			 M323.403,351.963c1.543-2.067,3.423-3.966,4.561-6.237c2.429-4.848,1.404-6.312-3.955-6.412
			c-0.619-0.012-1.237-0.074-1.856-0.112c-1.706-3.526-4.21-3.86-7.71-2.48c-6.93,2.733-14.005,3.431-21.084,0.257
			c-0.553-0.248-1.315-0.033-2.224-0.033c0.274,0.8,0.313,1.355,0.605,1.691c1.854,2.14,1.19,3.814-0.848,5.321
			c-2.393,1.77-3.705-0.063-4.91-1.602c-0.983-1.256-1.721-2.733-2.407-4.188c-2.066-4.378-3.416-5.01-8.186-3.65
			c-3.642,1.32-5.149,4.524-5.037,9.186c0.142,5.917,0.161,11.869-0.324,17.759c-0.5,6.073,1.151,9.507,7.003,12.322
			c6.576,3.92,12.783,2.788,18.788-1.349c5.143-3.543,5.139-3.528,3.71-9.544c-0.139-0.586-0.013-1.234-0.01-1.854
			c5.692-0.859,9.67,2.223,13.508,5.768c3.364,3.107,6.397,7.154,10.396,8.843c5.018,2.119,7.265,5.127,7.724,10.125
			c-0.482,4.268,0.134,9.113-1.726,12.659c-2.312,4.408-3.063,8.76-3.662,13.434c-0.25,1.95-1.423,3.782-2.177,5.667
			c-0.536-0.092-1.073-0.185-1.609-0.277c-0.67-2.831-1.414-5.647-1.995-8.496c-0.962-4.722-4.463-6.901-8.616-4.748
			c-7.944,4.119-16.328,5.721-25.197,5.769c-3.739,0.021-7.197,1.408-9.442,4.468c2.822,1.893,5.351,3.59,7.88,5.287
			c0.168,2.376,0.337,4.752,0.565,7.97c-2.748-2.524-4.675-4.294-6.603-6.065c-0.304,0.235-0.608,0.47-0.913,0.705
			c2.493,5.935,2.094,11.942,0.952,18.019c-1.285,6.84,0.207,13.107,5.435,17.809c4.901,4.407,10.287,8.282,15.551,12.271
			c0.859,0.651,2.189,0.683,2.429,0.751c2.013-4.735,3.591-8.995,5.609-13.033c1.943-3.889,3.771-7.608,1.882-12.073
			c-0.254-0.601,0.327-1.556,0.521-2.347c2.491,1.719,4.973,3.599,8.101,1.334c11.338-8.212,20.76-17.885,24.549-31.924
			c2.447-9.065,2.739-18.351,1.406-27.465c-0.844-5.771,1.446-9.984,3.466-14.519c0.957,0.792,1.757,1.455,2.558,2.117
			c0.496-0.618,1.245-1.162,1.448-1.865c2.349-8.116,4.82-16.206,6.84-24.407c1.615-6.559,2.445-13.308,0.244-19.916
			c-0.459-1.379-2.084-2.853-3.476-3.273c-0.971-0.293-3.177,0.87-3.545,1.86c-0.486,1.309-0.149,3.34,0.597,4.612
			c2.215,3.775,1.659,6.041-2.933,8.427c-0.361-1.762-0.72-3.415-1.036-5.076c-0.583-3.057-0.942-6.178-1.821-9.146
			c-0.291-0.984-2.057-2.384-2.868-2.218c-4.194,0.857-6.903,4.614-7.432,8.989c-0.773,6.389-0.615,13.072-4.58,18.643
			c-1.751,2.461-3.429,5.295-7.161,5.088C324.06,353.857,323.731,352.91,323.403,351.963z M255.154,365.761l0.134-0.233
			c5.075-4.602,9.745-9.426,9.587-17.164c-1.613,0.844-2.978,1.557-4.342,2.27c-1.028-1.04-2.056-2.081-3.085-3.121
			c0.59-1.487,1.18-2.973,1.457-3.672c-5.164,0.42-10.26,1.016-15.372,1.192c-4.175,0.144-7.744,1.466-9.908,4.969
			c-2.249,3.64-4.42,3.932-7.899,1.657c-1.017-0.665-3.43,0.217-4.827,1.033c-0.506,0.296-0.32,2.691,0.25,3.753
			c2.48,4.618,6.836,7.066,11.407,9.177c-0.388,1.248-0.822,3.586-1.155,3.572c-2.529-0.109-5.037-0.678-7.549-1.103
			c0.599,4.959,7.882,14.074,12.47,14.953c1.716,0.329,3.86-0.388,5.505-1.226c1.464-0.746,2.507-2.317,3.736-3.524
			c1.353-0.88,2.809-1.638,4.031-2.673c1.239-1.048,2.547-2.211,3.284-3.609c1.025-1.944,1.547-4.154,2.283-6.25L255.154,365.761z
			 M264.147,516.07c-1.995-1.098-4.278-1.873-5.936-3.349c-7.512-6.691-13.832-14.398-18.716-23.228
			c-2.475-4.474-4.814-9.024-7.368-13.451c-0.585-1.013-2.121-2.511-2.669-2.307c-1.352,0.502-2.913,1.655-3.417,2.93
			c-0.702,1.775-0.517,3.902-0.712,5.878c-0.797,14.251-0.333,28.414,2.888,42.395c0.718,3.117,2.454,4.395,5.676,3.803
			c13.596-2.496,27.202-4.933,40.805-7.392c4.6,0.201,7.428-2.154,9.009-6.276c2.88-7.506,5.799-14.999,8.573-22.544
			c0.507-1.38,0.403-2.984,0.581-4.485c-0.368-0.246-0.736-0.492-1.105-0.738c-2.411,2.163-4.823,4.327-7.234,6.49
			c-3.95,4.985-7.9,9.971-11.849,14.956c-0.326-0.16-0.652-0.321-0.978-0.481c1.663-4.058,3.326-8.116,4.988-12.175
			c0.83-1.459,1.659-2.918,2.859-5.027c-1.651,0.147-2.57,0.178-3.472,0.319c-3.322,0.518-6.622,1.266-9.962,1.556
			c-3.21,0.278-5.707-1.005-6.104-4.592c-0.521-4.705-0.884-9.428-1.315-14.143c0.378-0.489,0.756-0.978,1.134-1.467
			c4.081-1.275,8.162-2.55,12.135-3.791c-10.839-6.531-21.761-13.111-33.436-20.145c-0.331,2.212-0.728,4.873-1.126,7.534
			c0.4,4.055,0.269,8.249,1.292,12.139c4.198,15.963,11.448,30.364,22.779,42.575C262.713,512.398,263.27,514.382,264.147,516.07z
			 M373.028,509.534c0.995,0.003,1.995,0.065,2.985,0c5.87-0.384,6.325-0.974,5.418-6.852c-1.065-6.897-1.942-13.829-3.228-20.685
			c-2.548-13.581-5.283-27.127-8.028-40.67c-0.624-3.078-1.775-5.938-5.899-6.837c-0.243,2.693-0.461,5.114-0.679,7.534
			c-0.36,2.97-0.647,5.951-1.091,8.908c-1.967,13.104-5.127,25.895-10.334,38.117c-0.75,1.761-1.932,3.338-2.914,5
			c-0.374-0.191-0.747-0.382-1.121-0.573c0.366-1.397,0.715-2.8,1.1-4.192c5.125-18.533,8.744-37.203,5.065-56.521
			c-0.727-3.817-1.917-7.399-5.649-9.96c-6.302,17.509-18.578,29.787-33.325,40.667c5.606-0.725,10.368-1.44,15.153-1.921
			c2.648-0.266,4.239,1.138,4.557,3.851c0.422,3.595,0.91,7.184,1.268,10.786c0.587,5.901-0.522,7.126-6.459,7.244
			c-2.465,0.049-4.932,0.008-7.397,0.008c-0.224,0.552-0.449,1.105-0.673,1.658c1.209,0.871,2.54,1.614,3.604,2.635
			c3.514,3.372,7.038,6.748,10.303,10.353c0.746,0.824,0.47,2.575,0.665,3.899c-8.82-6.757-17.877-13.094-28.316-16.974
			c-0.277,0.339-0.555,0.678-0.832,1.016c1.141,1.835,2.281,3.67,3.422,5.505c2.827,7.901,5.654,15.801,8.562,23.93
			c0.35,0,1.098,0.071,1.829-0.011c9.169-1.032,18.335-2.088,27.502-3.133C356.686,511.386,364.858,510.462,373.028,509.534z
			 M272.404,259.065c0.299,4.164-4.471,8.385-8.276,7.121c-8.192-2.72-16.362-2.532-24.575-0.225
			c-4.965,0.983-8.427,4.053-11.174,8.09c-7.273,10.69-9.668,22.726-9.963,35.408c-0.048,2.056-0.608,4.76-1.983,5.988
			c-2.802,2.503-2.943,5.215-2.445,8.43c0.314,2.029,1.219,2.794,3.31,2.341c3.642-0.789,7.319-1.418,10.981-2.114
			c3.972-0.345,7.941-0.713,11.915-1.032c8.297-0.665,16.542-0.795,23.863,4.061c3.038,2.015,5.847,2.698,9.38,0.997
			c1.903-0.916,4.421-0.463,6.585-0.959c1.828-0.419,3.634-1.151,5.298-2.033c3.804-2.016,7.278-5.108,11.305-6.163
			c13.069-3.425,26.467-4.884,40.01-4.708c2.546,0.033,5.093,0.005,8.868,0.005c-2.067-4.998-2.875-9.974-5.697-13.178
			c-6.901-7.836-6.652-17.377-8.078-26.607c0.941,0.9,2.143,1.645,2.782,2.724c4.384,7.399,8.652,14.868,12.952,22.317
			c0.648,1.122,1.264,2.263,1.994,3.572c4.143-5.34,0.431-28.26-7.097-42.547c-15.591-29.591-41.86-40.633-73.69-41.152
			c-15.997-0.261-41.573,8.912-44.788,15.742c2.672,0,5.166,0,7.66,0c0.13,0.306,0.259,0.613,0.389,0.919
			c-0.924,0.757-1.807,1.572-2.78,2.261c-5.679,4.021-11.434,7.939-17.034,12.067c-1.412,1.041-2.353,2.722-3.51,4.109
			c0.191,0.347,0.382,0.693,0.573,1.04c1.789-0.491,3.624-0.855,5.359-1.493C234.621,246.671,254.061,246.487,272.404,259.065z
			 M229.93,262.736c-0.136-0.447-0.272-0.894-0.408-1.341c-3.093,0.891-6.577,1.159-9.201,2.8
			c-6.094,3.81-11.636,8.493-17.665,12.419c-4.638,3.02-9.429,6.179-14.611,7.873c-4.443,1.452-4.875,2.584-1.957,5.894
			c3.88,4.401,5.033,9.454,4.847,15.216c-0.172,5.345,0.124,10.747,0.752,16.061c0.492,4.166,1.763,8.245,2.775,12.341
			c0.511,2.071,1.766,2.293,3.676,1.474c2.407-1.032,3.273-2.484,3.075-5.194c-0.427-5.833-1.035-11.755-0.463-17.531
			c0.591-5.973,1.191-12.611,4.177-17.498c3.142-5.144,6.423-10.179,9.238-15.574c2.044-3.917,4.949-7.484,7.947-10.772
			C224.319,266.483,227.296,264.766,229.93,262.736z M323.578,385.925c-0.71-0.466-1.369-1.236-2.113-1.33
			c-4.218-0.531-6.786-3.328-9.37-6.29c-1.705-1.955-3.607-3.813-5.711-5.307c-0.818-0.581-2.823-0.551-3.615,0.066
			c-4.054,3.155-7.801,6.705-11.849,9.869c-1.377,1.077-3.344,2.059-4.998,1.992c-4.056-0.164-8.142-0.709-12.107-1.59
			c-3.135-0.696-6.061-0.846-8.382,1.448c-3.482,3.442-6.677,7.174-10.221,11.029c1.633,2.464,4.384,2.184,7.255,1.463
			c6.391-1.604,12.701-3.86,19.191-4.673c11.74-1.47,23.584-2.117,35.392-3.019C319.768,389.374,322.282,389.096,323.578,385.925z
			 M256.919,426.406c-1.975-2.579-3.962-4.263-4.771-6.394c-2.907-7.651-5.532-15.416-8.02-23.215
			c-1.063-3.33-2.137-4.101-5.298-2.649c-3.811,1.751-6.171,7.107-4.367,12.38c3.829,11.19,9.714,21.156,20.439,27.143
			c2.937,1.64,6.516,2.45,9.897,2.878c2.907,0.369,3.658-1.301,2.446-4.049c-1.656-3.757-3.27-7.532-4.943-11.281
			c-0.412-0.924-0.983-1.778-1.999-3.586C259.061,420.854,258.206,423.07,256.919,426.406z M304.4,399.044
			c-9.58,0.184-19.086,0.496-28.538,3.729C280.355,406.758,296.939,404.566,304.4,399.044z M227.271,341.927
			c0.17,0.418,0.341,0.836,0.511,1.255c4.296,1.028,6.96-2.745,10.488-3.984c3.775-1.326,7.659-2.339,11.465-3.48
			c-2.087-3.327-5.166-4.601-8.754-2.623C236.232,335.713,231.825,338.954,227.271,341.927z M323.618,333.631
			c0.101-0.387,0.202-0.774,0.302-1.161c-3.378-2.175-6.626-4.599-10.166-6.465c-4.802-2.532-10.438-0.108-11.812,4.738
			c0.228,0.077,0.452,0.196,0.686,0.221c0.24,0.025,0.521,0.024,0.73-0.078c4.918-2.387,9.461-1.793,14.056,1.15
			C319.122,333.128,321.53,333.131,323.618,333.631z M204.5,358.28c0.684-0.191,1.368-0.383,2.052-0.574
			c-0.127-1.263-0.101-2.566-0.411-3.782c-0.766-3.004-1.718-5.96-2.531-8.953c-0.349-1.286,0.372-3.486-2.176-2.831
			c-1.923,0.494-4.272,1.373-3.103,4.021C200.159,350.301,202.422,354.25,204.5,358.28z M230.679,333.646
			c-6.764-1.026-12.014,1.289-13.234,5.289c-0.252,0.826-0.231,2.149,0.265,2.675c0.497,0.526,2.083,0.791,2.612,0.395
			C223.633,339.529,226.782,336.835,230.679,333.646z M266.88,376.524c0.261-0.379,0.521-0.759,0.782-1.138
			c-0.601-3.434-1.202-6.868-1.943-11.104c-1.344,0.799-3.463,1.382-3.601,2.273c-0.355,2.288-0.319,4.906,0.516,7.014
			C263.163,374.905,265.406,375.562,266.88,376.524z M316.785,321.291c-0.088,0.447-0.177,0.894-0.265,1.341
			c2.876,1.596,5.694,3.312,8.647,4.751c2.469,1.204,3.511-0.489,2.815-2.416c-0.531-1.471-2.205-3.159-3.673-3.519
			C321.931,320.864,319.306,321.291,316.785,321.291z M295.696,518.172c7.431-0.083,7.623-0.305,6.143-6.797
			c-0.305-1.338-0.687-2.659-1.191-4.592C298.836,510.949,297.334,514.405,295.696,518.172z M206.69,338.839
			c2.404-0.405,4.523-0.762,7.547-1.271c-1.153-1.622-1.79-3.359-2.543-3.411c-1.877-0.13-3.807,0.507-5.863,0.862
			C206.141,336.395,206.355,337.349,206.69,338.839z M337.844,318.267c-2.557,0.318-4.697,0.585-7.477,0.931
			c0.734,1.485,1.146,3.248,1.716,3.301c1.877,0.173,3.81-0.273,5.76-0.486C337.844,320.683,337.844,319.732,337.844,318.267z"/>
		<path fill="#A2090D" d="M482.325,452.653c-12.624-8.914-27.415-10.937-42.122-12.774c-15.567-1.945-31.229-3.135-46.845-4.695
			c-1.098-0.11-2.205-0.441-3.238-0.847c-7.376-2.895-14.644-6.099-22.134-8.657c-4.152-1.418-7.908-2.919-10.325-6.791
			c-0.518-0.83-1.233-1.668-2.062-2.152c-4.851-2.834-5.418-6.921-4.377-12.06c0.808-3.99,0.306-8.235,0.986-12.266
			c0.374-2.216,1.536-4.708,3.149-6.207c2.22-2.064,3.045-3.942,3.04-7.049c-0.007-4.9,0.617-9.887,1.673-14.683
			c2.162-9.82,5.227-19.456,7.075-29.326c1.295-6.919-0.377-13.53-5.477-19.062c-1.242-1.347-1.654-4.02-1.486-6.002
			c0.555-6.544,1.927-13.035,2.182-19.578c0.096-2.46-1.984-5.016-3.115-7.51c-0.813-1.793-2.057-3.47-2.492-5.342
			c-7.013-30.165-25.509-49.82-54.54-59.919c-1.986-0.691-3.944-1.459-5.918-2.192c11.695,0.261,23.507-0.428,35.066,0.968
			c30.765,3.716,58.911,14.837,83.824,33.333c40.871,30.343,65.633,70.666,73.472,121.12
			C492.967,398.673,490.731,425.911,482.325,452.653z M380.369,394.866c2.19,3.015,4.234,5.267,5.637,7.865
			c4.259,7.89,11.582,7.056,18.703,6.889c0.476-0.011,1.318-0.58,1.325-0.905c0.013-0.579-0.378-1.256-0.78-1.742
			c-4.126-4.983-8.288-9.936-12.507-14.977c3.982-3.184,7.068-5.716,10.224-8.158c3.07-2.375,6.211-4.659,9.321-6.983
			c-5.19-0.79-9.913-0.844-14.633-0.75c-1.135,0.022-2.259,0.535-3.389,0.823c0.466,1.028,0.933,2.055,1.601,3.528
			c-4.476,3.402-9.087,6.908-13.698,10.414c-0.345-0.351-0.691-0.702-1.036-1.053c1.958-4.545,3.915-9.091,5.921-13.747
			c-4.809,0-9.675-0.078-14.532,0.098c-0.611,0.022-1.174,1.381-1.76,2.12c3.146,1.999,1.428,4.604,0.807,7.006
			c-1.311,5.063-2.681,10.112-4.118,15.141c-0.817,2.858-1.459,5.877-4.884,7.015c-0.419,0.139-0.544,1.163-0.992,2.212
			c5.643,0,10.846,0.03,16.049-0.038c0.635-0.008,1.713-0.45,1.792-0.849c0.126-0.631-0.438-1.39-0.674-2.107
			c-0.316-0.956-0.998-2.006-0.82-2.871C378.496,401.031,379.39,398.334,380.369,394.866z M480.84,376.474
			c-5.631-0.154-10.481-0.747-15.238-0.311c-7.254,0.665-13.822,3.371-18.653,9.16c-7.532,9.026-4.326,20.496,6.988,23.566
			c4.674,1.268,9.854,1.215,14.759,0.948c6.293-0.342,6.332,0.893,7.32-7.218c-3.286,0.358-6.592,1.1-9.872,0.995
			c-6.232-0.198-10.716-4.272-11.166-9.547c-0.451-5.294,3.743-9.974,9.902-11.337c4.858-1.075,9.27-0.38,13.387,3.257
			C479.126,382.815,479.826,380.227,480.84,376.474z M428.938,382.483c4.971,0.484,9.612,0.936,14.598,1.421
			c0.45-1.856,1.136-4.689,1.898-7.834c-9.865,0-19.212,0.006-28.559-0.005c-1.939-0.002-2.84,1.155-1.372,2.374
			c2.106,1.748,1.38,3.495,0.902,5.376c-0.551,2.17-1.24,4.304-1.831,6.464c-1.734,6.328-3.449,12.662-5.282,19.398
			c4.254,0,7.978,0.007,11.702-0.002c4.32-0.011,4.276,0.006,2.322-3.73c-0.351-0.672-0.371-1.668-0.197-2.435
			c0.571-2.523,1.302-5.011,2.098-7.983c3.884,0.294,7.63,0.578,11.719,0.888c0.446-1.882,1.007-4.247,1.685-7.106
			c-4.074,0-7.714,0-11.596,0C427.684,386.955,428.217,385.054,428.938,382.483z M484.004,381.71
			c1.143-1.754,2.312-2.773,2.155-3.51c-0.183-0.858-1.44-1.762-2.407-2.046c-0.396-0.117-1.751,1.323-1.771,2.078
			C481.959,379.096,482.937,379.985,484.004,381.71z"/>
		<path fill="#A2080C" d="M165.888,282.401c1.071,2.364,1.658,5.154,3.296,7.021c7.486,8.528,7.599,18.311,5.533,28.588
			c-0.343,1.707-0.424,3.599-1.248,5.053c-3.177,5.607-0.475,9.501,3.457,13.12c1.284,1.182,2.768,2.157,3.981,3.402
			c0.62,0.636,1.392,1.869,1.161,2.477c-3.415,9,0.517,16.785,4.482,24.212c2.964,5.553,7.085,10.539,11.052,15.488
			c2.22,2.77,3.858,5.529,3.609,9.103c-0.514,7.35,3.057,11.925,9.437,15.062c1.78,0.875,3.2,2.922,4.263,4.737
			c3.891,6.644,7.455,13.48,11.382,20.101c1.159,1.955,1.734,3.474,0.983,5.808c-1.905,5.925-3.513,11.953-5.036,17.991
			c-0.787,3.119-2.216,5.345-5.306,6.68c-5.074,2.191-9.728,5.04-13.219,9.545c-0.862,1.113-2.306,1.966-3.657,2.482
			c-16.254,6.21-31.72,14.012-46.676,22.863c-12.762-19.294-21.244-40.424-25.378-63.075c-9.477-51.919,0.868-99.653,31.619-142.753
			C161.573,287.571,163.793,285.031,165.888,282.401z"/>
		<path fill="#A2090D" d="M198.899,544.891c4.088-20.629,8.06-41.281,12.341-61.87c1.161-5.585,1.65-5.575,5.721-7.214
			c-0.551,4.363-1.108,8.437-1.572,12.522c-0.956,8.416-2.284,16.818-2.681,25.262c-0.497,10.572-0.314,21.181-0.22,31.773
			c0.048,5.463,1.679,6.49,6.764,4.575c20.545-7.737,41.203-15.168,62.751-19.616c19.016-3.925,38.137-7.346,57.215-10.969
			c0.725-0.138,1.492-0.055,2.239-0.075c2.378,18.783,4.756,37.565,7.223,57.054c-4.626,0.895-9.527,2.105-14.5,2.763
			c-48.787,6.458-93.42-4.169-133.641-32.734C199.944,545.941,199.444,545.385,198.899,544.891z"/>
		<path fill="#A1090D" d="M393.968,512.42c3.145-0.544,6.29-1.089,9.434-1.633c0.056-0.372,0.112-0.743,0.169-1.115
			c-1.854-0.305-3.738-0.988-5.555-0.84c-4.142,0.338-5.85-1.097-6.575-5.427c-3.518-21.028-8.987-41.597-15.436-61.911
			c-0.428-1.347-0.558-2.789-0.828-4.197c5.343-0.901,8.411,0.921,10.411,5.997c6.075,15.423,12.033,30.892,18.183,46.285
			c6.381,15.972,12.93,31.877,19.419,47.806c0.23,0.564,0.6,1.071,0.904,1.605c-6.407,4.867-12.813,9.733-19.944,15.15
			C400.594,539.573,397.281,525.996,393.968,512.42z"/>
		<path fill="#A40C10" d="M350.661,517.861c4.045-0.523,8.089-1.046,12.133-1.568c3.407,17.458,6.816,34.914,10.291,52.707
			c-4.421,1.528-8.377,2.895-12.879,4.451C356.999,554.781,353.83,536.321,350.661,517.861z"/>
		<path fill="#A40C10" d="M372.343,514.964c3.927-0.506,7.855-1.013,11.781-1.519c3.221,15.191,6.443,30.381,9.759,46.01
			c-3.361,1.668-6.859,3.404-10.502,5.212C379.644,547.84,375.994,531.402,372.343,514.964z"/>
		<path fill="#F1D1B4" d="M186.222,492.425c0.247-0.01,0.504-0.069,0.739-0.022c7.362,1.479,7.935,2.468,5.915,9.728
			c-2.849,10.239-5.646,20.493-8.466,30.74c-2.025-1.802-4.112-3.543-6.033-5.45c-0.488-0.485-0.779-1.581-0.608-2.257
			C180.534,514.238,183.388,503.334,186.222,492.425z"/>
		<path fill="#FDEFE0" d="M239.553,265.961c8.213-2.307,16.382-2.496,24.575,0.225c3.805,1.264,8.575-2.957,8.276-7.121
			c0.761-0.37,1.68-0.578,2.259-1.137c5.01-4.831,10.393-7.836,17.9-6.533c10.451,1.813,20.895,3.517,29.384,10.4
			c4.161,3.373,8.368,7.047,9.782,12.694c1.426,9.23,1.177,18.771,8.078,26.607c2.822,3.204,3.63,8.181,5.697,13.178
			c-3.775,0-6.322,0.028-8.868-0.005c-13.544-0.176-26.942,1.282-40.01,4.708c-4.027,1.056-7.502,4.147-11.305,6.163
			c-1.663,0.882-3.469,1.614-5.298,2.033c-2.164,0.496-4.682,0.043-6.585,0.959c-3.533,1.701-6.341,1.018-9.38-0.997
			c-7.321-4.856-15.566-4.726-23.863-4.061c-3.974,0.318-7.943,0.686-11.915,1.032c0.491-9.178,0.65-18.389,1.566-27.524
			c0.935-9.328,3.363-18.324,8.45-26.422C239.044,268.968,239.15,267.371,239.553,265.961z"/>
		<path fill="#FCEEDF" d="M284.603,419.536c-2.529-1.697-5.058-3.394-7.88-5.287c2.245-3.06,5.703-4.447,9.442-4.468
			c8.87-0.049,17.253-1.65,25.197-5.769c4.152-2.153,7.654,0.026,8.616,4.748c0.58,2.849,1.324,5.665,1.995,8.496
			c0.536,0.092,1.073,0.185,1.609,0.277c0.753-1.886,1.927-3.717,2.177-5.667c0.598-4.674,1.35-9.026,3.662-13.434
			c1.86-3.546,1.243-8.391,1.726-12.659c4.423-5.148,3.645-9.786-2.296-14.479c-4.07-3.216-7.978-6.637-12.063-9.834
			c-4.275-3.345-8.837-6.294-14.57-4.076c-1.192,0.461-1.814,2.397-2.699,3.654c-0.003,0.62-0.129,1.268,0.01,1.854
			c1.428,6.016,1.432,6.001-3.71,9.544c-6.005,4.137-12.211,5.269-18.788,1.349c-0.753-4.572-2.039-9.132-2.145-13.719
			c-0.196-8.508,0.297-17.031,0.503-25.548c4.771-1.36,6.12-0.728,8.186,3.65c0.687,1.455,1.424,2.932,2.407,4.188
			c1.205,1.54,2.517,3.372,4.91,1.602c2.038-1.507,2.702-3.181,0.848-5.321c-0.291-0.336-0.33-0.892-0.605-1.691
			c0.91,0,1.671-0.215,2.224,0.033c7.079,3.174,14.154,2.476,21.084-0.257c3.499-1.38,6.004-1.046,7.71,2.48
			c-0.308,0.985-1.122,2.161-0.835,2.921c1.212,3.206,1.046,6.003-1.31,8.639c-0.37,0.414-0.121,1.38-0.158,2.091
			c0.171,1.02,0.342,2.041,0.513,3.061c1.342-0.37,2.684-0.74,4.026-1.11c3.732,0.206,5.41-2.628,7.161-5.089
			c3.965-5.571,3.807-12.254,4.58-18.643c0.529-4.375,3.238-8.131,7.432-8.989c0.811-0.166,2.577,1.234,2.868,2.218
			c0.879,2.968,1.238,6.089,1.821,9.146c0.317,1.661,0.675,3.314,1.036,5.076c4.592-2.386,5.148-4.652,2.933-8.427
			c-0.747-1.272-1.084-3.303-0.597-4.612c0.368-0.99,2.574-2.154,3.545-1.86c1.393,0.421,3.017,1.894,3.476,3.273
			c2.2,6.608,1.371,13.356-0.244,19.916c-2.019,8.2-4.49,16.29-6.84,24.407c-0.203,0.702-0.952,1.247-1.448,1.865
			c-0.8-0.662-1.601-1.325-2.558-2.117c-2.02,4.535-4.31,8.748-3.466,14.519c1.333,9.114,1.041,18.4-1.406,27.465
			c-3.789,14.039-13.212,23.712-24.549,31.924c-3.127,2.265-5.61,0.385-8.101-1.334c-1.231-3.603-2.446-7.211-3.696-10.806
			c-1.248-3.588-2.669-7.124-3.738-10.764c-0.477-1.624-0.279-3.445-0.388-5.177c-0.381-0.026-0.763-0.051-1.144-0.077
			c-0.31,1.213-0.408,2.543-0.99,3.608c-0.593,1.087-1.662,1.913-2.523,2.854c-0.598-0.941-1.493-1.814-1.728-2.838
			c-0.435-1.893-1.222-2.395-3.154-1.967C290.026,418.961,287.297,419.167,284.603,419.536z"/>
		<path fill="#FCFCFC" d="M331.73,274.488c-1.414-5.646-5.621-9.32-9.782-12.694c-8.489-6.883-18.933-8.587-29.384-10.4
			c-7.507-1.303-12.89,1.702-17.9,6.533c-0.58,0.559-1.498,0.766-2.259,1.137c-18.343-12.578-37.783-12.394-57.864-5.017
			c-1.735,0.637-3.57,1.001-5.359,1.493c-0.191-0.347-0.382-0.693-0.573-1.04c1.157-1.387,2.098-3.068,3.51-4.109
			c5.6-4.128,11.355-8.045,17.034-12.067c0.973-0.689,1.856-1.504,2.78-2.261c-0.13-0.306-0.259-0.613-0.389-0.919
			c-2.494,0-4.989,0-7.66,0c3.215-6.83,28.791-16.003,44.788-15.742c31.83,0.519,58.099,11.561,73.69,41.152
			c7.528,14.287,11.24,37.207,7.097,42.547c-0.73-1.309-1.346-2.45-1.994-3.572c-4.299-7.449-8.568-14.917-12.952-22.317
			C333.873,276.133,332.671,275.388,331.73,274.488z"/>
		<path fill="#FBFAFA" d="M336.349,501.984c-0.194-1.324,0.082-3.075-0.665-3.899c-3.265-3.605-6.79-6.981-10.303-10.353
			c-1.064-1.021-2.395-1.765-3.604-2.635c0.224-0.553,0.449-1.105,0.673-1.658c2.466,0,4.932,0.041,7.397-0.008
			c5.937-0.118,7.046-1.342,6.459-7.244c-0.358-3.602-0.846-7.19-1.268-10.786c-0.318-2.713-1.91-4.117-4.557-3.851
			c-4.785,0.481-9.547,1.196-15.153,1.921c14.746-10.88,27.022-23.159,33.325-40.667c3.732,2.561,4.922,6.144,5.649,9.96
			c3.679,19.318,0.06,37.988-5.065,56.521c-0.385,1.392-0.734,2.794-1.1,4.192c0.374,0.191,0.747,0.382,1.121,0.573
			c0.982-1.662,2.164-3.239,2.914-5c5.207-12.222,8.366-25.013,10.334-38.117c0.444-2.957,0.732-5.938,1.091-8.908
			c0.421,0.674,1.1,1.303,1.223,2.027c1.821,10.722,3.9,21.414,5.241,32.198c1.374,11.046,2.008,22.184,2.966,33.282
			c-8.171,0.927-16.342,1.851-24.512,2.783c-9.167,1.045-18.333,2.101-27.502,3.133c-0.731,0.082-1.479,0.011-1.829,0.011
			c-2.909-8.129-5.735-16.029-8.562-23.929c0.858,0.427,1.768,0.773,2.566,1.292c5.454,3.552,10.821,7.243,16.352,10.67
			C332.061,505.055,334.523,504.495,336.349,501.984z"/>
		<path fill="#FBFBFA" d="M276.68,496.096c-1.663,4.058-3.326,8.116-4.988,12.175c0.326,0.16,0.652,0.321,0.978,0.481
			c3.95-4.985,7.9-9.971,11.849-14.956c0.292,0.663,0.983,1.463,0.81,1.967c-0.919,2.68-2.021,5.3-3.122,7.915
			c-2.484,5.899-5.005,11.782-7.511,17.671c-13.603,2.458-27.209,4.895-40.805,7.392c-3.221,0.592-4.957-0.686-5.676-3.803
			c-3.221-13.981-3.685-28.143-2.888-42.394c1.475,2.72,2.969,5.428,4.42,8.16c5.93,11.166,14.212,20.318,24.235,27.892
			c4.107,3.103,8.671,1.789,10.164-2.524c-0.877-1.687-1.434-3.672-2.681-5.016c-11.332-12.21-18.582-26.611-22.779-42.575
			c-1.023-3.891-0.892-8.085-1.292-12.139c6.673,4.613,13.362,9.203,19.999,13.866c0.939,0.66,1.625,1.682,2.428,2.536
			c-0.378,0.489-0.756,0.978-1.134,1.467c-4.125,0.716-5.969,2.481-5.583,6.36c0.366,3.668,1.219,7.332,2.268,10.876
			c1.91,6.456,4.575,7.86,11.099,6.507C269.857,497.25,273.276,496.709,276.68,496.096z"/>
		<path fill="#FCFCFC" d="M284.603,419.536c2.693-0.369,5.423-0.575,8.068-1.161c1.932-0.428,2.718,0.074,3.154,1.967
			c0.236,1.024,1.131,1.897,1.728,2.838c0.861-0.941,1.93-1.767,2.523-2.854c0.582-1.065,0.68-2.394,0.99-3.608
			c0.381,0.026,0.763,0.051,1.144,0.077c0.108,1.732-0.089,3.554,0.388,5.177c1.069,3.64,2.49,7.176,3.738,10.764
			c1.251,3.596,2.466,7.204,3.696,10.806c-0.194,0.791-0.775,1.746-0.521,2.347c1.889,4.465,0.061,8.184-1.882,12.073
			c-2.018,4.039-3.595,8.298-5.609,13.033c-0.24-0.069-1.57-0.1-2.429-0.751c-5.264-3.989-10.65-7.864-15.551-12.271
			c-5.228-4.701-6.72-10.969-5.435-17.809c1.142-6.077,1.541-12.084-0.952-18.019c0.304-0.235,0.608-0.47,0.913-0.705
			c1.928,1.77,3.855,3.541,6.603,6.065C284.94,424.288,284.772,421.912,284.603,419.536z"/>
		<path fill="#F9F9F9" d="M229.93,262.736c-2.634,2.03-5.612,3.747-7.818,6.167c-2.998,3.288-5.903,6.854-7.947,10.772
			c-2.815,5.395-6.096,10.43-9.238,15.574c-2.985,4.888-3.585,11.525-4.177,17.498c-0.572,5.776,0.036,11.698,0.463,17.531
			c0.198,2.71-0.668,4.162-3.075,5.194c-1.91,0.819-3.165,0.597-3.676-1.474c-1.012-4.096-2.282-8.175-2.775-12.341
			c-0.628-5.314-0.924-10.716-0.752-16.061c0.186-5.762-0.967-10.815-4.847-15.216c-2.918-3.31-2.486-4.442,1.957-5.894
			c5.182-1.694,9.974-4.853,14.611-7.873c6.029-3.926,11.571-8.609,17.665-12.419c2.625-1.641,6.108-1.908,9.201-2.8
			C229.659,261.842,229.794,262.289,229.93,262.736z"/>
		<path fill="#F8F8F8" d="M323.578,385.925c-1.296,3.172-3.81,3.449-6.527,3.657c-11.808,0.902-23.652,1.549-35.392,3.019
			c-6.49,0.813-12.8,3.069-19.191,4.673c-2.871,0.721-5.623,1.001-7.255-1.463c3.544-3.855,6.739-7.587,10.221-11.029
			c2.321-2.294,5.247-2.144,8.382-1.448c3.965,0.881,8.052,1.425,12.107,1.59c1.653,0.067,3.621-0.915,4.998-1.992
			c4.048-3.164,7.795-6.713,11.849-9.869c0.792-0.616,2.796-0.647,3.615-0.066c2.103,1.495,4.005,3.352,5.711,5.307
			c2.584,2.962,5.152,5.759,9.37,6.29C322.209,384.689,322.868,385.459,323.578,385.925z"/>
		<path fill="#FBEDDE" d="M232.557,365.621c-4.571-2.111-8.926-4.559-11.407-9.177c-0.57-1.061-0.756-3.457-0.25-3.753
			c1.397-0.816,3.81-1.698,4.827-1.033c3.479,2.275,5.65,1.983,7.899-1.657c2.164-3.504,5.733-4.825,9.908-4.969
			c5.111-0.177,10.208-0.773,15.372-1.192c-0.277,0.699-0.867,2.185-1.457,3.672c-2.498,0.547-6.096,0.741-5.751,3.96
			c0.658,6.144-3,9.322-6.93,12.625c-1.316,3.573,1.378,2.967,3.167,2.826c2.424-0.191,4.819-0.757,7.226-1.163
			c-0.737,2.096-1.259,4.306-2.284,6.25c-0.737,1.398-2.045,2.56-3.284,3.609c-1.222,1.034-2.678,1.793-4.031,2.673
			c-2.62-2.981-5.772-5.661-7.681-9.043C236.5,366.801,235.007,365.851,232.557,365.621z"/>
		<path fill="#F1D1B4" d="M239.553,265.961c-0.403,1.41-0.509,3.006-1.258,4.199c-5.086,8.098-7.514,17.094-8.45,26.422
			c-0.916,9.135-1.074,18.346-1.566,27.524c-3.662,0.696-7.339,1.325-10.982,2.114c-2.091,0.453-2.996-0.312-3.31-2.341
			c-0.498-3.216-0.357-5.927,2.445-8.43c1.375-1.228,1.935-3.932,1.983-5.988c0.295-12.683,2.69-24.718,9.963-35.408
			C231.126,270.015,234.588,266.944,239.553,265.961z"/>
		<path fill="#EFCEB2" d="M256.919,426.406c1.287-3.336,2.141-5.552,3.383-8.773c1.016,1.808,1.587,2.662,1.999,3.586
			c1.673,3.749,3.287,7.524,4.943,11.281c1.212,2.748,0.461,4.418-2.446,4.049c-3.381-0.429-6.959-1.239-9.897-2.878
			c-10.725-5.987-16.61-15.952-20.439-27.143c-1.804-5.272,0.556-10.628,4.367-12.38c3.161-1.453,4.235-0.682,5.298,2.649
			c2.489,7.799,5.114,15.564,8.02,23.215C252.958,422.143,254.944,423.827,256.919,426.406z"/>
		<path fill="#EFD0B4" d="M373.028,509.534c-0.958-11.098-1.592-22.236-2.966-33.282c-1.341-10.784-3.42-21.477-5.241-32.198
			c-0.123-0.724-0.803-1.353-1.223-2.027c0.218-2.422,0.437-4.842,0.679-7.535c4.124,0.899,5.275,3.76,5.899,6.837
			c2.745,13.543,5.48,27.089,8.028,40.67c1.286,6.856,2.163,13.788,3.228,20.685c0.907,5.878,0.452,6.467-5.418,6.852
			C375.023,509.599,374.024,509.538,373.028,509.534z"/>
		<path fill="#F1D1B5" d="M264.147,516.07c-1.493,4.313-6.058,5.628-10.164,2.524c-10.023-7.574-18.305-16.726-24.235-27.892
			c-1.451-2.732-2.946-5.441-4.42-8.16c0.195-1.976,0.01-4.103,0.712-5.878c0.505-1.276,2.066-2.428,3.417-2.93
			c0.549-0.204,2.085,1.294,2.669,2.307c2.554,4.427,4.893,8.978,7.368,13.451c4.884,8.83,11.204,16.537,18.716,23.228
			C259.869,514.197,262.152,514.972,264.147,516.07z"/>
		<path fill="#EFCFB3" d="M259.821,472.742c-0.803-0.854-1.488-1.876-2.428-2.536c-6.637-4.664-13.326-9.253-19.999-13.866
			c0.398-2.66,0.795-5.321,1.126-7.533c11.675,7.034,22.596,13.614,33.436,20.145C267.984,470.192,263.902,471.467,259.821,472.742z
			"/>
		<path fill="#EECEB3" d="M299.518,361.038c0.885-1.256,1.507-3.192,2.699-3.654c5.733-2.218,10.295,0.73,14.57,4.076
			c4.085,3.197,7.993,6.618,12.063,9.834c5.94,4.693,6.719,9.331,2.296,14.479c-0.459-4.998-2.706-8.006-7.724-10.125
			c-3.999-1.689-7.032-5.736-10.396-8.843C309.188,363.261,305.211,360.179,299.518,361.038z"/>
		<path fill="#EFCFB3" d="M276.68,496.096c-3.404,0.614-6.823,1.154-10.209,1.856c-6.525,1.353-9.189-0.051-11.099-6.507
			c-1.049-3.544-1.902-7.208-2.268-10.876c-0.387-3.879,1.457-5.644,5.583-6.36c0.431,4.715,0.794,9.438,1.315,14.143
			c0.397,3.587,2.894,4.87,6.104,4.592c3.34-0.29,6.64-1.038,9.962-1.556c0.902-0.141,1.82-0.172,3.472-0.319
			C278.34,493.178,277.51,494.637,276.68,496.096z"/>
		<path fill="#EECEB3" d="M274.696,521.348c2.506-5.889,5.027-11.773,7.511-17.671c1.101-2.614,2.203-5.234,3.122-7.915
			c0.173-0.504-0.518-1.304-0.81-1.967c2.411-2.163,4.823-4.327,7.234-6.49c0.368,0.246,0.736,0.492,1.105,0.738
			c-0.178,1.501-0.074,3.105-0.581,4.485c-2.774,7.546-5.693,15.038-8.573,22.544C282.124,519.194,279.296,521.549,274.696,521.348z
			"/>
		<path fill="#EFCFB3" d="M232.557,365.621c2.45,0.23,3.943,1.18,5.325,3.629c1.909,3.382,5.061,6.062,7.681,9.043
			c-1.229,1.207-2.272,2.778-3.736,3.524c-1.645,0.838-3.789,1.555-5.505,1.226c-4.588-0.879-11.871-9.994-12.47-14.953
			c2.512,0.425,5.02,0.994,7.549,1.103C231.735,369.207,232.169,366.869,232.557,365.621z"/>
		<path fill="#EFCFB3" d="M336.349,501.984c-1.826,2.512-4.288,3.071-6.809,1.51c-5.531-3.426-10.898-7.118-16.352-10.67
			c-0.797-0.519-1.707-0.865-2.566-1.292c-1.141-1.835-2.281-3.67-3.422-5.505c0.277-0.339,0.555-0.677,0.832-1.016
			C318.472,488.89,327.529,495.226,336.349,501.984z"/>
		<path fill="#EECEB3" d="M275.389,334.518c-0.206,8.517-0.699,17.04-0.503,25.548c0.106,4.587,1.391,9.147,2.145,13.719
			c-5.852-2.815-7.502-6.25-7.003-12.322c0.485-5.891,0.466-11.843,0.324-17.759C270.239,339.042,271.747,335.838,275.389,334.518z"
			/>
		<path fill="#FDFDFD" d="M244.768,364.097c3.93-3.303,7.588-6.481,6.93-12.625c-0.345-3.22,3.253-3.413,5.751-3.96
			c1.028,1.04,2.056,2.081,3.084,3.121c0.535,3.552-0.669,6.891-3.496,8.541C253.272,361.371,248.887,362.506,244.768,364.097z"/>
		<path fill="#F0F0F0" d="M304.4,399.044c-7.461,5.523-24.045,7.715-28.538,3.729C285.314,399.539,294.82,399.227,304.4,399.044z"/>
		<path fill="#EBCDB2" d="M244.768,364.097c4.119-1.591,8.504-2.727,12.269-4.924c2.827-1.65,4.031-4.988,3.496-8.541
			c1.365-0.713,2.729-1.426,4.342-2.27c0.158,7.738-4.512,12.562-9.587,17.164c-0.165-0.067-0.329-0.134-0.494-0.201
			c0.12,0.145,0.24,0.289,0.36,0.434c0,0,0.007,0,0.007,0c-2.407,0.405-4.802,0.972-7.226,1.163
			C246.147,367.064,243.452,367.67,244.768,364.097z"/>
		<path fill="#E4C6AB" d="M227.271,341.927c4.554-2.973,8.961-6.214,13.711-8.832c3.588-1.978,6.667-0.704,8.754,2.623
			c-3.806,1.141-7.691,2.154-11.465,3.48c-3.528,1.239-6.193,5.012-10.488,3.984C227.611,342.763,227.441,342.345,227.271,341.927z"
			/>
		<path fill="#E4C6AB" d="M323.618,333.631c-2.089-0.5-4.496-0.502-6.205-1.597c-4.595-2.943-9.138-3.537-14.056-1.15
			c-0.209,0.101-0.49,0.103-0.73,0.078c-0.234-0.025-0.457-0.143-0.684-0.225c1.373-4.842,7.008-7.265,11.811-4.734
			c3.541,1.867,6.788,4.29,10.166,6.465C323.82,332.857,323.719,333.244,323.618,333.631z"/>
		<path fill="#F9F9F9" d="M319.85,352.853c0.037-0.711-0.211-1.677,0.158-2.091c2.356-2.637,2.522-5.433,1.31-8.639
			c-0.287-0.76,0.527-1.936,0.835-2.921c0.618,0.039,1.237,0.101,1.856,0.112c5.359,0.1,6.383,1.565,3.955,6.412
			c-1.138,2.271-3.017,4.17-4.561,6.237C322.219,352.26,321.034,352.556,319.85,352.853z"/>
		<path fill="#F0F0F0" d="M204.5,358.28c-2.079-4.03-4.341-7.979-6.17-12.119c-1.169-2.648,1.18-3.527,3.103-4.021
			c2.549-0.655,1.827,1.545,2.176,2.831c0.813,2.993,1.764,5.949,2.531,8.953c0.31,1.217,0.284,2.519,0.411,3.782
			C205.869,357.897,205.184,358.088,204.5,358.28z"/>
		<path fill="#E7C8AD" d="M230.679,333.646c-3.896,3.19-7.045,5.883-10.356,8.359c-0.529,0.396-2.115,0.131-2.612-0.395
			c-0.497-0.526-0.518-1.849-0.265-2.675C218.665,334.935,223.915,332.62,230.679,333.646z"/>
		<path fill="#E4C6AB" d="M266.88,376.524c-1.474-0.962-3.717-1.619-4.246-2.955c-0.835-2.107-0.872-4.725-0.516-7.014
			c0.138-0.891,2.258-1.474,3.601-2.273c0.741,4.235,1.342,7.67,1.943,11.104C267.401,375.765,267.14,376.145,266.88,376.524z"/>
		<path fill="#E7C8AD" d="M316.785,321.291c2.521,0,5.146-0.426,7.523,0.157c1.468,0.36,3.142,2.048,3.673,3.519
			c0.696,1.927-0.346,3.62-2.815,2.416c-2.952-1.44-5.77-3.155-8.647-4.751C316.609,322.185,316.697,321.738,316.785,321.291z"/>
		<path fill="#F0F0F0" d="M295.696,518.172c1.638-3.767,3.14-7.222,4.952-11.39c0.504,1.934,0.886,3.254,1.191,4.592
			C303.319,517.867,303.127,518.088,295.696,518.172z"/>
		<path fill="#F0F0F0" d="M206.69,338.839c-0.335-1.49-0.549-2.443-0.859-3.821c2.056-0.354,3.986-0.991,5.863-0.862
			c0.753,0.052,1.39,1.789,2.543,3.411C211.213,338.077,209.094,338.434,206.69,338.839z"/>
		<path fill="#F0F0F0" d="M337.844,318.267c0,1.466,0,2.417,0,3.746c-1.95,0.213-3.884,0.659-5.76,0.486
			c-0.57-0.053-0.982-1.816-1.716-3.301C333.147,318.851,335.287,318.585,337.844,318.267z"/>
		<path fill="#F1D1B5" d="M319.85,352.853c1.184-0.296,2.369-0.592,3.553-0.889c0.328,0.946,0.657,1.893,0.985,2.84
			c-1.342,0.37-2.683,0.74-4.025,1.11C320.192,354.893,320.021,353.873,319.85,352.853z"/>
		<path fill="#FBEDDE" d="M255.154,365.761c-0.12-0.145-0.24-0.289-0.36-0.434c0.165,0.067,0.329,0.134,0.494,0.201
			C255.288,365.527,255.154,365.761,255.154,365.761z"/>
		<path fill="#FCF7F8" d="M380.369,394.866c-0.98,3.468-1.874,6.165-2.444,8.929c-0.178,0.865,0.504,1.915,0.82,2.871
			c0.237,0.717,0.8,1.476,0.674,2.107c-0.08,0.399-1.157,0.841-1.792,0.849c-5.202,0.068-10.406,0.038-16.049,0.038
			c0.447-1.05,0.573-2.073,0.992-2.212c3.425-1.138,4.067-4.157,4.884-7.015c1.437-5.029,2.807-10.078,4.118-15.141
			c0.622-2.401,2.339-5.007-0.807-7.006c0.585-0.739,1.148-2.098,1.76-2.12c4.857-0.176,9.723-0.098,14.532-0.098
			c-2.006,4.657-3.963,9.202-5.921,13.747c0.345,0.351,0.691,0.702,1.036,1.053c4.611-3.506,9.223-7.011,13.698-10.414
			c-0.668-1.472-1.134-2.5-1.601-3.528c1.129-0.287,2.254-0.8,3.389-0.823c4.72-0.094,9.442-0.039,14.633,0.75
			c-3.11,2.324-6.251,4.607-9.321,6.983c-3.156,2.442-6.242,4.974-10.224,8.158c4.219,5.042,8.381,9.994,12.507,14.977
			c0.403,0.486,0.793,1.163,0.78,1.742c-0.007,0.325-0.849,0.894-1.325,0.905c-7.121,0.167-14.444,1.001-18.703-6.889
			C384.604,400.133,382.559,397.881,380.369,394.866z"/>
		<path fill="#FCF7F8" d="M480.84,376.474c-1.015,3.753-1.715,6.342-2.572,9.514c-4.117-3.637-8.529-4.332-13.387-3.257
			c-6.159,1.363-10.353,6.043-9.902,11.337c0.45,5.275,4.933,9.349,11.166,9.547c3.28,0.104,6.586-0.637,9.872-0.995
			c-0.988,8.11-1.028,6.876-7.32,7.218c-4.905,0.267-10.085,0.32-14.759-0.948c-11.314-3.07-14.52-14.54-6.988-23.566
			c4.831-5.789,11.399-8.495,18.653-9.16C470.359,375.726,475.21,376.319,480.84,376.474z"/>
		<path fill="#FCF9F9" d="M428.938,382.483c-0.721,2.571-1.254,4.472-1.914,6.828c3.882,0,7.522,0,11.596,0
			c-0.678,2.858-1.239,5.223-1.685,7.106c-4.089-0.31-7.836-0.594-11.719-0.888c-0.796,2.972-1.526,5.46-2.098,7.983
			c-0.174,0.768-0.154,1.764,0.197,2.435c1.954,3.736,1.998,3.719-2.322,3.73c-3.724,0.009-7.448,0.002-11.702,0.002
			c1.833-6.737,3.548-13.07,5.282-19.398c0.592-2.16,1.28-4.294,1.831-6.464c0.478-1.881,1.204-3.628-0.902-5.376
			c-1.468-1.219-0.566-2.376,1.372-2.374c9.347,0.01,18.694,0.005,28.559,0.005c-0.762,3.145-1.449,5.978-1.898,7.834
			C438.55,383.418,433.908,382.967,428.938,382.483z"/>
		<path fill="#C56668" d="M484.004,381.71c-1.067-1.725-2.045-2.614-2.023-3.478c0.02-0.755,1.375-2.195,1.771-2.078
			c0.967,0.285,2.224,1.188,2.407,2.046C486.316,378.937,485.147,379.957,484.004,381.71z"/>
	</g>
</g>
</svg>
