<?xml version="1.0" encoding="utf-8"?>
<!-- Generator: Adobe Illustrator 17.0.0, SVG Export Plug-In . SVG Version: 6.00 Build 0)  -->
<!DOCTYPE svg PUBLIC "-//W3C//DTD SVG 1.1//EN" "http://www.w3.org/Graphics/SVG/1.1/DTD/svg11.dtd">
<svg version="1.1" id="Layer_1" xmlns="http://www.w3.org/2000/svg" xmlns:xlink="http://www.w3.org/1999/xlink" x="0px" y="0px"
	 width="612px" height="792px" viewBox="0 0 612 792" enable-background="new 0 0 612 792" xml:space="preserve">
<g>
	<g>
		<path fill="#FEFDFD" d="M118.75,208.774c124.97,0,249.941,0,374.982,0c0,124.916,0,249.855,0,374.911
			c-124.947,0-249.964,0-374.982,0C118.75,458.77,118.75,333.783,118.75,208.774z M306.273,517.278
			c47.629,0,95.257,0.011,142.886-0.008c11.316-0.004,17.667-6.349,17.674-17.589c0.014-25.252,0.005-50.504,0.005-75.756
			c0-44.253,0.009-88.507-0.011-132.76c-0.004-8.058-4.579-14.347-11.906-16.103c-2.389-0.573-4.959-0.539-7.446-0.54
			c-81.381-0.025-162.763-0.021-244.144-0.021c-13.501,0-27.003-0.095-40.503,0.041c-9.873,0.099-16.348,6.763-16.351,16.62
			c-0.02,69.755-0.014,139.511,0.008,209.266c0.001,1.606,0.072,3.267,0.471,4.81c2.011,7.77,8.113,12.032,17.18,12.034
			C211.516,517.285,258.895,517.278,306.273,517.278z"/>
		<path fill="#D42C1E" d="M306.273,517.278c-47.379,0-94.757,0.007-142.136-0.006c-9.066-0.003-15.169-4.264-17.18-12.034
			c-0.399-1.542-0.471-3.203-0.471-4.81c-0.022-69.755-0.028-139.511-0.008-209.266c0.003-9.857,6.478-16.52,16.351-16.62
			c13.5-0.136,27.002-0.04,40.503-0.041c81.381-0.001,162.763-0.005,244.144,0.021c2.487,0.001,5.056-0.033,7.446,0.54
			c7.327,1.756,11.902,8.045,11.906,16.103c0.02,44.253,0.011,88.507,0.011,132.76c0,25.252,0.009,50.504-0.005,75.756
			c-0.006,11.24-6.358,17.585-17.674,17.589C401.531,517.288,353.902,517.278,306.273,517.278z M408.131,470.387
			c-0.318,0.45-0.636,0.901-0.954,1.351c-2.707,4.053-2.461,7.395,0.819,11.076c0.254,0.257,0.509,0.513,0.763,0.77
			c0.751,0.521,1.503,1.041,2.254,1.562c4.697,2.481,8.724,1.435,11.866-3.082c3.375-4.763,2.392-10.022-2.463-13.168
			c-3.332-2.53-6.714-2.583-10.139-0.196c-0.456,0.316-0.912,0.633-1.367,0.95C408.651,469.896,408.391,470.142,408.131,470.387z
			 M195.563,489.888c0.109-1.163,0.285-2.13,0.278-3.097c-0.154-23.858,1.564-47.588,4.582-71.247
			c2.996-23.483,7.172-46.712,14.251-69.344c3.093-9.887,6.39-19.732,12.658-28.176c5.228-7.042,11.904-7.225,16.493,0.353
			c4.084,6.745,7.534,14.134,9.787,21.68c7.385,24.737,9.869,50.31,11.381,75.969c0.19,3.22,0.995,4.327,4.32,4.242
			c8.618-0.221,17.247-0.147,25.869-0.028c2.417,0.033,3.289-0.856,3.502-3.186c1.224-13.408,1.924-26.905,4.021-40.18
			c2.191-13.875,5.275-27.663,8.941-41.226c1.718-6.356,5.131-12.49,8.839-18.011c4.484-6.678,10.997-6.5,15.566-0.027
			c2.929,4.15,5.576,8.642,7.509,13.327c9.624,23.32,14.41,47.893,18.219,72.692c0.841,5.479,1.611,10.968,2.387,16.273
			c9.232,0,17.899,0,26.901,0c-1.314-6.292-2.45-12.264-3.815-18.182c-6.04-26.184-13.814-51.782-26.242-75.747
			c-4.67-9.005-10.015-17.582-17.376-24.717c-10.658-10.329-22.233-10.268-32.38,0.611c-3.453,3.702-6.379,8.029-8.906,12.438
			c-7.136,12.451-11.36,26.064-14.716,39.92c-2.22,9.165-3.873,18.467-5.663,27.141c-2.342-10.59-4.41-21.752-7.325-32.687
			c-4.256-15.962-9.596-31.537-20.134-44.734c-10.34-12.948-23.31-13.825-34.954-2.052c-11.279,11.403-18.2,25.552-24.278,40.108
			c-10.218,24.469-17.134,49.902-22.012,75.955c-4.209,22.477-6.653,45.104-7.217,67.949c-0.032,1.315-0.004,2.632-0.004,3.983
			C176.223,489.888,185.797,489.888,195.563,489.888z M397.57,489.893c0.082-0.894,0.235-1.62,0.201-2.337
			c-0.487-10.199-0.933-20.402-1.628-30.587c-0.057-0.836-1.835-2.201-2.839-2.224c-7.858-0.185-15.723-0.114-23.586-0.082
			c-0.816,0.003-1.63,0.272-2.503,0.429c0.443,11.749,0.877,23.255,1.312,34.801C378.49,489.893,387.921,489.893,397.57,489.893z
			 M201.954,451.604c2.915,0,5.501,0,8.385,0c0.752-5.112,1.495-10.16,2.397-16.288c1.729,6.191,3.15,11.278,4.547,16.28
			c2.769,0,5.24,0,7.707,0c1.414-4.98,2.786-9.812,4.158-14.643c0.225,0.021,0.45,0.042,0.676,0.062
			c0.706,4.872,1.412,9.743,2.109,14.554c2.994,0,5.579,0,8.387,0c-1.539-9.732-3.044-19.243-4.524-28.603
			c-3.805,0-7.007,0-10.208,0c-1.461,5.323-2.867,10.446-4.463,16.258c-1.604-5.909-2.999-11.046-4.429-16.313
			c-3.301,0-6.518,0-10.198,0C205.009,432.309,203.518,441.723,201.954,451.604z M267.141,478.537c10.136,0,19.649,0,29.202,0
			c0-8.074,0-15.844,0-23.624c-9.987,0-19.645,0-29.202,0C267.141,462.87,267.141,470.552,267.141,478.537z M268.709,451.757
			c1.406,0,2.639,0.005,3.871-0.001c4.124-0.021,8.271,0.225,12.366-0.128c8.318-0.717,13.597-6.266,13.763-14.026
			c0.173-8.075-4.808-13.777-13.454-14.561c-5.411-0.491-10.904-0.091-16.545-0.091
			C268.709,432.598,268.709,442.045,268.709,451.757z M421.496,450.575c0-9.294,0-18.441,0-27.513c-2.942,0-5.596,0-8.232,0
			c-0.19,1.852-0.347,3.389-0.507,4.943c-1.642-0.376-2.957-0.837-4.303-0.959c-7.779-0.706-12.284,4.361-12.176,13.61
			c0.075,6.459,4.397,11.171,10.57,11.039C411.687,451.592,416.515,450.975,421.496,450.575z M329.446,425.609
			c0,9.096,0,17.15,0,25.176c2.828,0,5.399,0,8.265,0c0-4.191,0.044-8.167-0.015-12.142c-0.044-2.928,1.053-5.007,4.168-5.09
			c3.153-0.084,4.319,1.911,4.271,4.896c-0.066,4.084-0.016,8.17-0.016,12.335c3.113,0,5.789,0,8.764,0
			c0-6.191,0.137-12.169-0.053-18.137c-0.108-3.403-2.39-5.758-5.534-6.239c-2.958-0.452-6.091,0.172-9.139,0.417
			c-0.706,0.057-1.439,0.82-2.06,0.708C335.358,427.04,332.656,426.344,329.446,425.609z M381.366,451.093
			c0-6.368,0.297-12.133-0.162-17.837c-0.16-1.987-1.739-4.603-3.445-5.581c-4.922-2.824-10.38-2.727-15.417-0.197
			c-1.721,0.864-2.716,3.175-4.043,4.825c0.38,0.522,0.759,1.043,1.139,1.565c2.952-0.794,5.876-1.734,8.87-2.309
			c1.217-0.234,2.637,0.185,3.856,0.614c0.384,0.135,0.75,1.726,0.556,1.866c-0.945,0.684-2.034,1.319-3.162,1.57
			c-2.298,0.512-4.755,0.461-6.963,1.194c-4.353,1.444-6.382,5.455-5.159,9.453c1.146,3.744,5.511,6.262,9.587,5.27
			c2-0.487,3.873-1.491,5.402-2.101C375.085,452.398,378.228,450.358,381.366,451.093z M326.549,438.807
			c0.019-7.866-5.026-13.032-12.78-13.088c-7.716-0.056-12.886,5.121-12.919,12.935c-0.033,7.806,5.098,13.069,12.769,13.098
			C321.322,451.782,326.53,446.567,326.549,438.807z M429.883,443.48c-0.26,3.836,1.386,6.182,4.55,7.25
			c4.516,1.524,9.096,1.432,13.558-0.359c3.109-1.248,4.708-3.571,4.625-6.974c-0.079-3.219-1.995-5.05-4.821-5.94
			c-2.243-0.706-4.647-0.908-6.873-1.653c-1.008-0.337-1.882-1.355-2.546-2.262c-0.198-0.27,0.444-1.692,0.838-1.757
			c1.158-0.191,3.055-0.432,3.475,0.172c2.602,3.74,5.96,1.282,9.968,2.152c-1.266-2.216-1.739-3.688-2.718-4.643
			c-3.509-3.425-13.574-3.324-17.23,0.018c-3.701,3.383-2.55,9.279,2.201,10.862c2.115,0.705,4.408,0.904,6.477,1.702
			c0.947,0.365,1.691,1.544,2.227,2.519c0.166,0.302-0.6,1.601-1.041,1.658c-1.157,0.149-3.108,0.283-3.444-0.311
			C436.726,441.667,433.007,444.235,429.883,443.48z M265.166,435.102c-0.952-5.978-5.89-9.758-12.064-9.372
			c-7.124,0.445-11.766,5.504-11.82,12.884c-0.052,6.996,4.639,12.418,11.329,13.093c5.884,0.595,11.297-3.277,12.368-9.098
			c-3.207,0.187-6.48-1.368-9.254,1.958c-0.591,0.709-3.684,0.256-4.868-0.65c-2.314-1.772-2.365-8.448-0.071-10.322
			c1.15-0.94,4.35-1.428,4.839-0.778C258.342,436.43,261.856,434.899,265.166,435.102z M385.271,422.927c0,9.567,0,18.736,0,27.826
			c2.817,0,5.37,0,7.832,0c0-9.411,0-18.569,0-27.826C390.373,422.927,387.922,422.927,385.271,422.927z M424.909,430.264
			c4.2,0.594,5.981-2.108,5.112-7.257c-1.712,0-3.386,0-5.112,0C424.909,425.634,424.909,427.961,424.909,430.264z"/>
		<path fill="#FCC62F" d="M195.563,489.888c-9.767,0-19.341,0-29.518,0c0-1.351-0.028-2.667,0.004-3.983
			c0.564-22.845,3.008-45.472,7.217-67.949c4.878-26.052,11.795-51.485,22.012-75.955c6.078-14.556,13-28.705,24.278-40.108
			c11.643-11.772,24.614-10.896,34.954,2.052c10.538,13.197,15.878,28.772,20.134,44.734c2.916,10.935,4.983,22.097,7.325,32.687
			c1.79-8.675,3.443-17.977,5.663-27.141c3.356-13.856,7.579-27.469,14.716-39.92c2.527-4.408,5.453-8.735,8.906-12.438
			c10.147-10.879,21.722-10.94,32.38-0.611c7.361,7.134,12.706,15.712,17.376,24.717c12.428,23.965,20.202,49.563,26.242,75.747
			c1.365,5.919,2.501,11.89,3.815,18.182c-9.002,0-17.669,0-26.901,0c-0.776-5.305-1.546-10.794-2.387-16.273
			c-3.808-24.799-8.595-49.372-18.219-72.692c-1.934-4.685-4.58-9.177-7.509-13.327c-4.569-6.474-11.082-6.651-15.566,0.027
			c-3.707,5.521-7.121,11.655-8.839,18.011c-3.666,13.563-6.75,27.351-8.941,41.226c-2.097,13.275-2.797,26.772-4.021,40.18
			c-0.213,2.33-1.085,3.219-3.502,3.186c-8.622-0.119-17.251-0.193-25.869,0.028c-3.325,0.085-4.13-1.022-4.32-4.242
			c-1.512-25.659-3.996-51.232-11.381-75.969c-2.253-7.546-5.703-14.935-9.787-21.68c-4.589-7.579-11.265-7.396-16.493-0.353
			c-6.269,8.444-9.566,18.288-12.658,28.176c-7.079,22.632-11.256,45.861-14.251,69.344c-3.018,23.659-4.736,47.389-4.582,71.247
			C195.848,487.757,195.673,488.725,195.563,489.888z"/>
		<path fill="#FCC62F" d="M397.57,489.893c-9.649,0-19.08,0-29.043,0c-0.435-11.547-0.869-23.053-1.312-34.801
			c0.873-0.156,1.688-0.425,2.503-0.429c7.863-0.032,15.727-0.103,23.586,0.082c1.004,0.024,2.782,1.388,2.839,2.224
			c0.695,10.185,1.141,20.388,1.628,30.587C397.806,488.273,397.652,488.999,397.57,489.893z"/>
		<path fill="#FDF9F9" d="M201.954,451.604c1.565-9.881,3.055-19.295,4.543-28.693c3.68,0,6.898,0,10.198,0
			c1.43,5.267,2.825,10.404,4.429,16.313c1.596-5.813,3.002-10.935,4.463-16.258c3.201,0,6.403,0,10.208,0
			c1.48,9.359,2.985,18.871,4.524,28.603c-2.809,0-5.394,0-8.387,0c-0.697-4.81-1.403-9.682-2.109-14.554
			c-0.225-0.021-0.45-0.042-0.676-0.062c-1.372,4.831-2.744,9.663-4.158,14.643c-2.468,0-4.938,0-7.707,0
			c-1.397-5.002-2.818-10.089-4.547-16.28c-0.902,6.128-1.645,11.176-2.397,16.288C207.454,451.604,204.869,451.604,201.954,451.604
			z"/>
		<path fill="#FCC72F" d="M267.141,478.537c0-7.985,0-15.667,0-23.624c9.558,0,19.216,0,29.202,0c0,7.78,0,15.55,0,23.624
			C286.79,478.537,277.277,478.537,267.141,478.537z"/>
		<path fill="#FDF8F8" d="M268.709,451.757c0-9.712,0-19.159,0-28.807c5.642,0,11.134-0.399,16.545,0.091
			c8.646,0.784,13.627,6.486,13.454,14.561c-0.166,7.76-5.445,13.309-13.763,14.026c-4.095,0.353-8.242,0.106-12.366,0.128
			C271.348,451.763,270.115,451.757,268.709,451.757z M278.46,444.776c3.993,0.296,8.105,0.789,9.467-3.232
			c0.933-2.757,0.804-6.544-0.381-9.183c-1.606-3.576-5.554-2.902-9.086-2.517C278.46,434.856,278.46,439.673,278.46,444.776z"/>
		<path fill="#FDF8F8" d="M421.496,450.575c-4.981,0.4-9.809,1.017-14.648,1.12c-6.173,0.131-10.495-4.58-10.57-11.039
			c-0.107-9.249,4.397-14.317,12.176-13.61c1.345,0.122,2.66,0.583,4.303,0.959c0.159-1.555,0.317-3.091,0.507-4.943
			c2.636,0,5.29,0,8.232,0C421.496,432.133,421.496,441.281,421.496,450.575z M413.059,440.122
			c-0.001-5.356-1.089-7.053-4.113-6.983c-2.865,0.066-4.595,2.522-4.554,6.463c0.042,3.974,1.822,6.301,4.818,6.134
			C413.359,445.504,413.22,442.513,413.059,440.122z"/>
		<path fill="#FDF8F8" d="M329.446,425.609c3.21,0.735,5.912,1.431,8.651,1.924c0.621,0.112,1.354-0.651,2.06-0.708
			c3.048-0.245,6.181-0.869,9.139-0.417c3.144,0.481,5.426,2.836,5.534,6.239c0.19,5.968,0.053,11.946,0.053,18.137
			c-2.975,0-5.652,0-8.764,0c0-4.165-0.049-8.251,0.016-12.335c0.048-2.984-1.118-4.98-4.271-4.896
			c-3.115,0.083-4.212,2.161-4.168,5.09c0.059,3.975,0.015,7.951,0.015,12.142c-2.866,0-5.437,0-8.265,0
			C329.446,442.759,329.446,434.705,329.446,425.609z"/>
		<path fill="#FDFAF9" d="M381.366,451.093c-3.139-0.735-6.282,1.305-8.939-1.669c-1.528,0.61-3.402,1.614-5.402,2.101
			c-4.077,0.992-8.441-1.525-9.587-5.27c-1.224-3.998,0.806-8.01,5.159-9.453c2.208-0.732,4.665-0.681,6.963-1.194
			c1.127-0.251,2.216-0.886,3.162-1.57c0.194-0.14-0.172-1.731-0.556-1.866c-1.22-0.429-2.64-0.848-3.856-0.614
			c-2.994,0.575-5.918,1.515-8.87,2.309c-0.38-0.522-0.759-1.043-1.139-1.565c1.327-1.65,2.321-3.96,4.043-4.825
			c5.037-2.53,10.495-2.627,15.417,0.197c1.706,0.979,3.285,3.594,3.445,5.581C381.663,438.96,381.366,444.725,381.366,451.093z
			 M372.841,439.759c-2.985,0.08-6.129-1.016-7,2.718c-0.146,0.626,1.712,2.439,2.685,2.472
			C371.611,445.054,373.148,443.253,372.841,439.759z"/>
		<path fill="#FDF8F8" d="M326.549,438.807c-0.019,7.76-5.227,12.975-12.93,12.946c-7.671-0.029-12.801-5.292-12.769-13.098
			c0.033-7.814,5.203-12.991,12.919-12.935C321.523,425.775,326.568,430.941,326.549,438.807z M318.514,438.732
			c0.005-4.274-1.694-6.583-4.836-6.573c-3.076,0.01-4.953,2.506-4.944,6.576c0.008,4.029,1.956,6.653,4.945,6.662
			C316.717,445.407,318.509,442.937,318.514,438.732z"/>
		<path fill="#FDF8F7" d="M429.883,443.48c3.124,0.755,6.843-1.813,9.245,2.435c0.336,0.594,2.286,0.461,3.444,0.311
			c0.441-0.057,1.207-1.355,1.041-1.658c-0.535-0.975-1.28-2.154-2.227-2.519c-2.07-0.798-4.363-0.997-6.477-1.702
			c-4.75-1.583-5.901-7.479-2.201-10.862c3.656-3.342,13.721-3.443,17.23-0.018c0.978,0.955,1.452,2.427,2.718,4.643
			c-4.008-0.87-7.366,1.588-9.968-2.152c-0.421-0.604-2.317-0.363-3.475-0.172c-0.394,0.065-1.036,1.487-0.838,1.757
			c0.664,0.907,1.539,1.925,2.546,2.262c2.226,0.744,4.63,0.947,6.873,1.653c2.826,0.89,4.742,2.721,4.821,5.94
			c0.083,3.403-1.516,5.726-4.625,6.974c-4.461,1.791-9.042,1.883-13.558,0.359C431.268,449.662,429.623,447.316,429.883,443.48z"/>
		<path fill="#FDF8F7" d="M265.166,435.102c-3.31-0.204-6.824,1.328-9.542-2.286c-0.488-0.65-3.688-0.161-4.839,0.778
			c-2.294,1.874-2.243,8.55,0.071,10.322c1.183,0.906,4.277,1.359,4.868,0.65c2.774-3.326,6.047-1.771,9.254-1.958
			c-1.071,5.822-6.484,9.693-12.368,9.098c-6.689-0.676-11.38-6.098-11.329-13.093c0.054-7.379,4.696-12.439,11.82-12.884
			C259.276,425.344,264.215,429.124,265.166,435.102z"/>
		<path fill="#FDFBFB" d="M385.271,422.927c2.651,0,5.103,0,7.832,0c0,9.258,0,18.415,0,27.826c-2.462,0-5.015,0-7.832,0
			C385.271,441.663,385.271,432.494,385.271,422.927z"/>
		<path fill="#FAECEB" d="M424.909,430.264c0-2.303,0-4.631,0-7.257c1.726,0,3.4,0,5.112,0
			C430.89,428.157,429.109,430.858,424.909,430.264z"/>
		<path fill="#F4AA2B" d="M420.418,468.895c4.854,3.147,5.837,8.406,2.462,13.169c-0.16-0.131-0.32-0.262-0.479-0.392
			c1.906-4.633,1.363-8.768-2.487-12.231C420.083,469.26,420.251,469.078,420.418,468.895z"/>
		<path fill="#F4AA2B" d="M407.993,482.819c-3.277-3.685-3.523-7.028-0.816-11.08c0.168,0.142,0.339,0.281,0.511,0.417
			c-1.56,3.55-1.136,6.956,0.75,10.255C408.288,482.544,408.14,482.68,407.993,482.819z"/>
		<path fill="#F4AA2B" d="M422.88,482.064c-3.143,4.517-7.17,5.563-11.866,3.082c0.123-0.161,0.248-0.321,0.373-0.48
			c4.355,1.517,7.947,0.227,11.013-2.995C422.56,481.803,422.72,481.934,422.88,482.064z"/>
		<path fill="#F4AA2B" d="M410.275,468.696c3.429-2.383,6.811-2.33,10.143,0.199c-0.167,0.182-0.335,0.364-0.5,0.541
			c-3.08-0.081-6.164-0.157-9.248-0.234C410.538,469.035,410.406,468.866,410.275,468.696z"/>
		<path fill="#F4AA2B" d="M411.014,485.146c-0.751-0.521-1.503-1.041-2.254-1.562c0.139-0.146,0.275-0.293,0.41-0.443
			c0.739,0.508,1.479,1.016,2.218,1.524C411.262,484.825,411.137,484.985,411.014,485.146z"/>
		<path fill="#F4AA2B" d="M408.91,469.649c0.456-0.316,0.912-0.633,1.366-0.951c0.129,0.167,0.261,0.336,0.393,0.504
			c-0.447,0.31-0.893,0.62-1.339,0.931C409.191,469.971,409.052,469.809,408.91,469.649z"/>
		<path fill="#F4AA2B" d="M407.177,471.738c0.318-0.45,0.636-0.901,0.954-1.351c0.17,0.149,0.342,0.297,0.513,0.44
			c-0.321,0.441-0.638,0.884-0.955,1.328C407.516,472.019,407.346,471.88,407.177,471.738z"/>
		<path fill="#F4AA2B" d="M408.131,470.387c0.26-0.246,0.52-0.491,0.779-0.737c0.141,0.159,0.281,0.321,0.416,0.48
			c-0.228,0.231-0.454,0.466-0.679,0.701C408.474,470.684,408.302,470.537,408.131,470.387z"/>
		<path fill="#F4AA2B" d="M408.76,483.584c-0.254-0.257-0.509-0.513-0.765-0.768c0.145-0.136,0.293-0.272,0.442-0.406
			c0.243,0.244,0.488,0.487,0.732,0.73C409.035,483.291,408.898,483.439,408.76,483.584z"/>
		<path fill="#D53124" d="M278.46,444.776c0-5.102,0-9.92,0-14.932c3.531-0.384,7.48-1.058,9.086,2.517
			c1.185,2.639,1.314,6.426,0.381,9.183C286.565,445.565,282.452,445.072,278.46,444.776z"/>
		<path fill="#D52F22" d="M413.059,440.122c0.161,2.391,0.3,5.383-3.849,5.614c-2.996,0.167-4.776-2.16-4.818-6.134
			c-0.042-3.941,1.689-6.398,4.554-6.463C411.97,433.069,413.058,434.765,413.059,440.122z"/>
		<path fill="#D6372B" d="M372.841,439.759c0.307,3.494-1.23,5.294-4.315,5.19c-0.973-0.033-2.831-1.846-2.685-2.472
			C366.712,438.744,369.856,439.84,372.841,439.759z"/>
		<path fill="#D63226" d="M318.514,438.732c-0.005,4.204-1.797,6.675-4.836,6.665c-2.989-0.009-4.936-2.633-4.945-6.662
			c-0.008-4.071,1.868-6.566,4.944-6.576C316.819,432.149,318.519,434.459,318.514,438.732z"/>
		<path fill="#D6321F" d="M409.169,483.141c-0.244-0.243-0.488-0.487-0.732-0.73c-1.885-3.299-2.309-6.705-0.749-10.256
			c0.318-0.443,0.635-0.887,0.956-1.327c0.229-0.232,0.454-0.467,0.683-0.698c0.449-0.307,0.895-0.618,1.342-0.927
			c3.085,0.077,6.169,0.154,9.249,0.235c3.846,3.467,4.389,7.602,2.483,12.235c-3.067,3.221-6.659,4.511-11.014,2.994
			C410.648,484.158,409.909,483.649,409.169,483.141z M413.15,478.512c4.16-2.069,4.121,2.605,6.949,4.528
			c-0.108-1.77-0.215-2.711-0.211-3.652c0.006-1.268-0.111-2.588,0.197-3.791c0.578-2.264-0.176-3.857-2.346-4.197
			c-2.228-0.349-4.553-0.077-7.188-0.077c0.525,3.966-0.889,7.579,1.839,10.833C412.648,480.919,412.906,479.68,413.15,478.512z"/>
		<path fill="#F8BA2D" d="M413.15,478.512c-0.244,1.169-0.502,2.407-0.761,3.645c-2.728-3.255-1.313-6.868-1.839-10.833
			c2.635,0,4.96-0.271,7.188,0.077c2.169,0.339,2.924,1.933,2.346,4.197c-0.307,1.203-0.191,2.523-0.197,3.791
			c-0.004,0.941,0.103,1.882,0.211,3.652C417.271,481.117,417.31,476.443,413.15,478.512z M413.736,472.276
			c-0.457,0.599-0.913,1.198-1.37,1.796c0.867,0.808,1.704,2.213,2.611,2.26c0.952,0.05,1.973-1.202,2.963-1.884
			C416.539,473.724,415.138,473,413.736,472.276z"/>
		<path fill="#D6331F" d="M413.736,472.276c1.401,0.724,2.803,1.448,4.204,2.172c-0.991,0.683-2.011,1.934-2.963,1.884
			c-0.907-0.047-1.743-1.452-2.611-2.26C412.823,473.474,413.28,472.875,413.736,472.276z"/>
	</g>
</g>
</svg>
