<?xml version="1.0" encoding="utf-8"?>
<!-- Generator: Adobe Illustrator 17.0.0, SVG Export Plug-In . SVG Version: 6.00 Build 0)  -->
<!DOCTYPE svg PUBLIC "-//W3C//DTD SVG 1.1//EN" "http://www.w3.org/Graphics/SVG/1.1/DTD/svg11.dtd">
<svg version="1.1" id="Layer_1" xmlns="http://www.w3.org/2000/svg" xmlns:xlink="http://www.w3.org/1999/xlink" x="0px" y="0px"
	 width="612px" height="792px" viewBox="0 0 612 792" enable-background="new 0 0 612 792" xml:space="preserve">
<g>
	<g>
		<path fill="#FEFEFE" d="M118.75,208.795c124.956,0,249.913,0,374.961,0c0,124.881,0,249.806,0,374.87
			c-124.926,0-249.943,0-374.961,0C118.75,458.811,118.75,333.825,118.75,208.795z M256.831,468.29l-0.074-0.073
			c-0.068,0.288-0.29,0.736-0.182,0.84c2.779,2.664,6.483,3.019,9.789,0.982c3.337-2.056,4.985-6.068,3.906-9.508
			c-1.241-3.956-4.905-6.74-8.529-6.482c-3.566,0.254-7.289,3.361-7.959,6.642C252.994,464.544,254.136,467.387,256.831,468.29z
			 M213.782,440.532c0-16.753,0-33.041,0-49.264c-4.281,0-8.329,0-12.704,0c0,8.501,0,16.762,0,25.765
			c-6.706-7.798-12.865-15.025-19.115-22.172c-1.254-1.434-2.748-3.469-4.319-3.657c-4.261-0.509-8.622-0.175-12.922-0.175
			c0,16.721,0,33.009,0,49.25c4.762,0,9.306,0,14.119,0c0-8.41,0-16.571,0-25.169c6.792,7.638,13.191,14.932,19.729,22.1
			c1.243,1.362,2.929,2.933,4.589,3.173C206.566,440.877,210.094,440.532,213.782,440.532z M293.426,391.227
			c-4.341,0-8.38,0-12.751,0c0,8.464,0,16.731,0,25.833c-7.302-8.487-14.031-16.338-20.812-24.143
			c-0.669-0.77-1.638-1.764-2.503-1.8c-4.432-0.182-8.875-0.084-13.115-0.084c0,16.818,0,33.105,0,49.233c4.832,0,9.384,0,14.226,0
			c0-8.406,0-16.547,0-25.288c6.909,7.875,13.365,15.269,19.873,22.617c0.961,1.085,2.105,2.678,3.277,2.783
			c3.901,0.352,7.853,0.133,11.805,0.133C293.426,423.833,293.426,407.73,293.426,391.227z M352.995,441.394
			c15.354,0.972,27.488-13.359,26.768-27.289c-0.749-14.499-12.341-25.606-26.809-25.465c-14.895,0.145-26.296,11.511-26.27,26.64
			C326.709,430.417,339.444,442.225,352.995,441.394z M408.247,347.887c-4.309-0.808-8.426-1.536-12.525-2.357
			c-11.565-2.318-23.109-4.737-34.685-6.997c-12.538-2.448-25.11-4.717-37.651-7.149c-10.621-2.06-21.211-4.281-31.829-6.356
			c-13.014-2.543-26.046-4.993-39.064-7.511c-14.124-2.732-28.239-5.511-42.363-8.241c-7.126-1.378-14.244-2.811-21.402-4.001
			c-5.148-0.856-10.646,1.976-13.221,6.416c-2.889,4.982-2.531,8.982,1.289,14.023c5.218,6.886,10.427,13.78,15.683,20.637
			c9.467,12.351,18.953,24.687,28.483,36.99c0.575,0.742,1.599,1.612,2.42,1.618c12.952,0.102,25.905,0.071,38.983,0.071
			c-6.591-12.287-13.048-24.324-19.507-36.366c2.853-2.758,5.769-1.94,8.492-1.64c5.032,0.555,10.03,1.406,15.06,1.983
			c7.632,0.875,15.29,1.526,22.916,2.445c11.308,1.362,22.587,2.964,33.897,4.299c11.689,1.38,23.407,2.514,35.102,3.843
			c12.553,1.426,25.098,2.92,37.636,4.464c2.876,0.354,5.713,1.035,8.607,1.572c0,2.471-0.176,4.487,0.055,6.455
			c0.191,1.634,0.364,3.796,1.42,4.696c2.302,1.961,3.21-1.115,4.729-2.038c0.425-0.258,0.855-0.518,1.24-0.829
			c6.313-5.095,12.619-10.199,18.896-15.276c-0.374-0.639-0.52-0.998-0.758-1.278c-6.226-7.31-12.439-14.631-18.729-21.885
			c-0.65-0.75-1.77-1.094-3.175-1.924C408.247,338.866,408.247,343.349,408.247,347.887z M386.537,390.412
			c0,11.027-0.34,21.764,0.124,32.466c0.291,6.707,3.514,12.271,10.066,15.09c5.982,2.574,12.334,2.769,18.596,1.6
			c7.791-1.455,14.349-7.906,14.606-14.946c0.413-11.317,0.111-22.661,0.111-34.185c-4.64,0-9.186,0-14.105,0
			c0,1.371,0.004,2.591-0.001,3.811c-0.036,8.989,0.013,17.981-0.188,26.966c-0.038,1.697-0.714,3.631-1.716,5.003
			c-2.236,3.062-5.718,2.939-8.767,1.888c-3.332-1.148-4.778-4.085-4.774-7.652c0.012-9.96,0.004-19.92,0.004-30.042
			C395.624,390.412,391.3,390.412,386.537,390.412z M461.844,441.142c0-12.937,0-25.484,0-38.303c3.753,0,7.203,0,10.728,0
			c0-4.066,0-7.849,0-11.594c-12.014,0-23.798,0-35.49,0c0,4.01,0,7.792,0,11.79c3.489,0,6.692,0,10.345,0
			c0,12.858,0,25.494,0,38.107C452.347,441.142,456.805,441.142,461.844,441.142z M142.919,440.355c4.207,0,8.249,0,12.43,0
			c0-16.447,0-32.724,0-49.164c-4.199,0-8.242,0-12.43,0C142.919,407.63,142.919,423.904,142.919,440.355z M423.711,452.293
			c-2.266-6.17-12.332-8.02-17.417-3.261c-3.669,3.434-4.396,10.654-1.431,15.837c2.239,3.914,9.258,5.656,14.014,3.499
			c1.867-0.847,4.425-2.005,4.938-3.584c0.828-2.545,0.222-5.557,0.222-8.269c-3.549,0-6.608,0-9.509,0c0,1.559,0,2.877,0,4.144
			c1.561,0.122,2.871,0.225,4.181,0.328c0.164,0.391,0.327,0.783,0.491,1.174c-1.524,0.788-3.077,2.244-4.563,2.178
			c-1.52-0.068-3.515-1.289-4.339-2.607c-1.568-2.51-1.418-5.372,0.067-8.127c1.241-2.303,3.505-3.199,5.13-1.772
			C418.383,454.369,420.929,453.286,423.711,452.293z M379.42,447.276c0,7.525,0,14.57,0,21.586c1.965,0,3.668,0,5.824,0
			c0-3.038,0-5.904,0-8.769c0.383-0.123,0.766-0.245,1.148-0.368c1.757,3.086,3.514,6.172,5.23,9.186c2.039,0,4.016,0,6.751,0
			c-1.907-3.489-3.586-6.563-5.295-9.69c2.562-1.584,4.312-3.884,3.362-7.624c-1.039-4.089-4.006-4.457-7.446-4.343
			C385.885,447.357,382.769,447.276,379.42,447.276z M467.991,460.102c1.131-2.789,2.938-5.316,2.895-7.812
			c-0.029-1.674-2.49-4.445-4.194-4.727c-4.178-0.691-8.547-0.226-12.793-0.226c0,7.492,0,14.515,0,21.454c1.95,0,3.618,0,5.577,0
			c0-3.038,0-5.824,0-8.609c0.396-0.173,0.793-0.346,1.189-0.519c1.758,3.019,3.516,6.038,5.361,9.206c1.747,0,3.815,0,6.607,0
			C470.798,465.405,469.201,462.386,467.991,460.102z M329.528,469.037c3.392,0,6.48-0.115,9.557,0.033
			c2.946,0.142,5.788-0.5,6.665-3.361c0.921-3,1.1-6.438-1.515-7.674c0.345-3.074,1.088-5.651,0.698-8.044
			c-0.177-1.09-2.531-2.435-4.007-2.584c-3.667-0.371-7.396-0.122-11.398-0.122c0,6.274,0,12.224,0,18.173
			C329.529,466.546,329.528,467.633,329.528,469.037z M372.628,447.296c-2.825,0-4.867,0-7.095,0c0,4.359-0.072,8.464,0.028,12.564
			c0.056,2.301-0.395,4.018-3.118,4.025c-2.654,0.006-3.731-1.407-3.681-4.013c0.082-4.209,0.022-8.42,0.022-12.633
			c-2.221,0-4.032,0-5.996,0c0,5.035-0.242,9.888,0.075,14.703c0.261,3.963,3.505,6.809,7.222,7.093
			c6.782,0.519,10.492-1.112,11.349-6C372.325,457.962,372.259,452.721,372.628,447.296z M312.728,469.786
			c-4.655-7.94-8.784-15.18-13.166-22.264c-0.73-1.179-2.523-2.307-3.885-2.381c-5.096-0.279-10.217-0.112-15.328-0.112
			c-3.507,0-7.015,0-10.938,0c6.101,8.257,11.766,15.963,17.507,23.612c0.44,0.586,1.408,1.089,2.136,1.096
			C296.729,469.816,304.406,469.786,312.728,469.786z M445.696,447.446c-4.726,0-9.054,0-13.48,0c0,7.242,0,14.317,0,21.312
			c4.746,0,9.297,0,13.826,0c0-1.492,0-2.703,0-4.355c-3.077,0-5.998,0-8.933,0c0-1.645,0-2.84,0-4.386c2.729,0,5.295,0,7.926,0
			c0-1.666,0-2.976,0-4.685c-2.722,0-5.284,0-7.934,0c0-1.343,0-2.284,0-3.612c2.955,0,5.769,0,8.597,0
			C445.696,450.112,445.696,448.892,445.696,447.446z M221.926,420.763c5.018,0,9.695,0,14.387,0c0-4.775,0-9.325,0-13.865
			c-4.889,0-9.56,0-14.387,0C221.926,411.568,221.926,416.013,221.926,420.763z M302.951,420.788c4.951,0,9.626,0,14.397,0
			c0-4.746,0-9.295,0-13.922c-4.867,0-9.542,0-14.397,0C302.951,411.506,302.951,415.952,302.951,420.788z"/>
		<path fill="#C5011D" d="M213.782,440.532c-3.688,0-7.216,0.344-10.623-0.148c-1.66-0.24-3.347-1.811-4.589-3.173
			c-6.537-7.168-12.937-14.462-19.729-22.1c0,8.597,0,16.758,0,25.169c-4.813,0-9.356,0-14.119,0c0-16.241,0-32.529,0-49.25
			c4.301,0,8.662-0.334,12.922,0.175c1.571,0.188,3.065,2.223,4.319,3.657c6.25,7.147,12.408,14.374,19.115,22.172
			c0-9.003,0-17.264,0-25.765c4.375,0,8.423,0,12.704,0C213.782,407.491,213.782,423.779,213.782,440.532z"/>
		<path fill="#C5011E" d="M293.426,391.227c0,16.503,0,32.606,0,49.284c-3.952,0-7.904,0.219-11.805-0.133
			c-1.172-0.106-2.316-1.698-3.277-2.783c-6.509-7.348-12.965-14.742-19.873-22.617c0,8.741,0,16.882,0,25.288
			c-4.842,0-9.394,0-14.226,0c0-16.127,0-32.414,0-49.233c4.24,0,8.683-0.098,13.115,0.084c0.865,0.036,1.834,1.03,2.503,1.8
			c6.781,7.805,13.51,15.656,20.812,24.143c0-9.102,0-17.369,0-25.833C285.045,391.227,289.085,391.227,293.426,391.227z"/>
		<path fill="#C6011E" d="M352.995,441.394c-13.551,0.83-26.285-10.977-26.311-26.115c-0.026-15.129,11.376-26.495,26.27-26.64
			c14.469-0.141,26.061,10.967,26.809,25.465C380.482,428.035,368.348,442.366,352.995,441.394z M365.628,414.954
			c0.065-7.906-4.674-12.812-12.403-12.842c-7.487-0.029-12.576,4.9-12.687,12.29c-0.111,7.374,5.587,13.482,12.693,13.344
			C358.456,427.643,366.104,423.319,365.628,414.954z"/>
		<path fill="#DB0720" d="M408.247,347.887c0-4.538,0-9.021,0-14.336c1.405,0.83,2.524,1.174,3.175,1.924
			c6.29,7.254,12.503,14.576,18.729,21.885c0.238,0.28,0.384,0.639,0.758,1.278c-6.277,5.077-12.583,10.181-18.896,15.276
			c-0.386,0.311-0.815,0.571-1.24,0.829c-1.519,0.922-2.426,3.998-4.729,2.038c-1.056-0.9-1.229-3.061-1.42-4.696
			c-0.23-1.968-0.055-3.984-0.055-6.455c-2.895-0.538-5.731-1.218-8.607-1.572c-12.539-1.544-25.084-3.038-37.636-4.464
			c-11.695-1.329-23.413-2.464-35.102-3.843c-11.311-1.335-22.59-2.937-33.897-4.299c-7.626-0.919-15.284-1.57-22.916-2.445
			c-5.03-0.577-10.029-1.428-15.06-1.983c-2.723-0.3-5.64-1.118-8.492,1.64c6.459,12.042,12.916,24.08,19.507,36.366
			c-13.078,0-26.031,0.03-38.983-0.071c-0.821-0.006-1.845-0.876-2.42-1.618c-9.53-12.303-19.016-24.639-28.483-36.99
			c-5.256-6.857-10.464-13.751-15.683-20.637c-3.82-5.041-4.178-9.041-1.289-14.023c2.575-4.441,8.073-7.272,13.221-6.416
			c7.158,1.19,14.276,2.623,21.402,4.001c14.124,2.731,28.239,5.509,42.363,8.241c13.019,2.518,26.051,4.968,39.064,7.511
			c10.618,2.075,21.208,4.297,31.829,6.356c12.541,2.432,25.114,4.7,37.651,7.149c11.576,2.26,23.12,4.68,34.685,6.997
			C399.821,346.352,403.938,347.079,408.247,347.887z M410.513,350.94c-3.087-0.706-5.672-1.381-8.29-1.883
			c-14.53-2.785-29.078-5.478-43.601-8.3c-16.343-3.175-32.664-6.463-48.998-9.683c-10.296-2.03-20.595-4.045-30.898-6.033
			c-13.067-2.522-26.141-5.009-39.211-7.516c-11.754-2.255-23.501-4.547-35.263-6.761c-5.682-1.07-11.361-2.271-17.097-2.905
			c-4.464-0.494-7.725,1.854-9.927,5.807c-2.311,4.149-0.765,7.76,1.653,10.957c11.927,15.775,24.001,31.44,36.037,47.133
			c2.787,3.635,4.939,8.632,8.638,10.447c3.744,1.837,9.042,0.51,13.66,0.561c1.374,0.015,2.749,0.002,4.123,0.002
			c5.563,0,11.125,0,16.67,0c-5.458-10.737-10.799-21.114-16.009-31.556c-2.072-4.151-0.377-6.862,4.354-6.632
			c6.063,0.296,12.109,1.015,18.149,1.673c7.881,0.858,15.748,1.836,23.621,2.76c7.506,0.881,15.014,1.749,22.519,2.64
			c9.349,1.111,18.695,2.241,28.043,3.36c7.38,0.884,14.763,1.75,22.141,2.647c9.099,1.106,18.193,2.254,27.293,3.348
			c6.26,0.752,12.528,1.443,19.336,2.223c0,3.775,0,7.164,0,11.188c7.128-5.723,13.567-10.893,20.232-16.245
			c-5.507-6.397-11.079-12.87-17.175-19.951C410.513,342.76,410.513,346.365,410.513,350.94z"/>
		<path fill="#C6021F" d="M386.537,390.412c4.763,0,9.088,0,13.957,0c0,10.122,0.008,20.082-0.004,30.042
			c-0.004,3.567,1.442,6.504,4.774,7.652c3.049,1.051,6.531,1.174,8.767-1.888c1.002-1.372,1.678-3.306,1.716-5.003
			c0.201-8.986,0.152-17.977,0.188-26.966c0.005-1.22,0.001-2.439,0.001-3.811c4.919,0,9.465,0,14.105,0
			c0,11.524,0.302,22.867-0.111,34.185c-0.257,7.04-6.815,13.491-14.606,14.946c-6.262,1.169-12.615,0.974-18.596-1.6
			c-6.552-2.82-9.776-8.383-10.066-15.09C386.197,412.176,386.537,401.44,386.537,390.412z"/>
		<path fill="#C5011E" d="M461.844,441.142c-5.039,0-9.497,0-14.416,0c0-12.613,0-25.249,0-38.107c-3.653,0-6.856,0-10.345,0
			c0-3.999,0-7.781,0-11.79c11.691,0,23.476,0,35.49,0c0,3.746,0,7.529,0,11.594c-3.525,0-6.976,0-10.728,0
			C461.844,415.658,461.844,428.205,461.844,441.142z"/>
		<path fill="#C5001D" d="M142.919,440.355c0-16.451,0-32.725,0-49.164c4.188,0,8.231,0,12.43,0c0,16.44,0,32.717,0,49.164
			C151.169,440.355,147.127,440.355,142.919,440.355z"/>
		<path fill="#C60420" d="M423.711,452.293c-2.782,0.993-5.328,2.075-8.215-0.46c-1.625-1.427-3.889-0.531-5.13,1.772
			c-1.485,2.756-1.635,5.618-0.067,8.127c0.824,1.318,2.819,2.539,4.339,2.607c1.486,0.066,3.039-1.39,4.563-2.178
			c-0.164-0.391-0.327-0.783-0.491-1.174c-1.31-0.103-2.62-0.205-4.181-0.328c0-1.267,0-2.586,0-4.144c2.901,0,5.961,0,9.509,0
			c0,2.712,0.605,5.723-0.222,8.269c-0.513,1.579-3.071,2.737-4.938,3.584c-4.756,2.157-11.775,0.415-14.014-3.499
			c-2.965-5.183-2.238-12.403,1.431-15.837C411.379,444.273,421.446,446.124,423.711,452.293z"/>
		<path fill="#C60522" d="M379.42,447.276c3.349,0,6.465,0.081,9.574-0.022c3.439-0.114,6.406,0.254,7.446,4.343
			c0.951,3.741-0.8,6.04-3.362,7.624c1.709,3.127,3.389,6.201,5.295,9.69c-2.735,0-4.713,0-6.751,0
			c-1.716-3.014-3.473-6.1-5.23-9.186c-0.383,0.123-0.766,0.245-1.148,0.368c0,2.866,0,5.731,0,8.769c-2.156,0-3.86,0-5.824,0
			C379.42,461.846,379.42,454.801,379.42,447.276z M385.13,457.113c2.156-1.017,3.738-1.651,5.169-2.531
			c0.284-0.175,0.157-1.815-0.06-1.883c-1.61-0.502-3.29-0.777-5.109-1.156C385.13,453.445,385.13,454.65,385.13,457.113z"/>
		<path fill="#C70824" d="M467.991,460.102c1.209,2.284,2.807,5.303,4.641,8.768c-2.792,0-4.859,0-6.607,0
			c-1.845-3.169-3.603-6.187-5.361-9.206c-0.396,0.173-0.793,0.346-1.189,0.519c0,2.785,0,5.571,0,8.609c-1.959,0-3.626,0-5.577,0
			c0-6.939,0-13.962,0-21.454c4.246,0,8.615-0.465,12.793,0.226c1.704,0.282,4.165,3.053,4.194,4.727
			C470.929,454.785,469.123,457.313,467.991,460.102z M459.407,457.083c2.203-1.039,3.88-1.739,5.428-2.656
			c0.242-0.143,0.039-1.805-0.202-1.871c-1.648-0.451-3.362-0.662-5.226-0.98C459.407,453.391,459.407,454.6,459.407,457.083z"/>
		<path fill="#C5011E" d="M329.528,469.037c0-1.404,0-2.492,0-3.58c0-5.949,0-11.899,0-18.173c4.002,0,7.732-0.249,11.398,0.122
			c1.476,0.149,3.829,1.494,4.007,2.584c0.39,2.393-0.354,4.971-0.698,8.044c2.615,1.236,2.436,4.674,1.515,7.674
			c-0.878,2.861-3.72,3.503-6.665,3.361C336.009,468.922,332.92,469.037,329.528,469.037z M335.144,464.944
			c1.986-0.511,3.706-0.796,5.252-1.476c0.332-0.146,0.297-2.403-0.014-2.523c-1.578-0.604-3.303-0.824-5.238-1.233
			C335.144,461.658,335.144,462.94,335.144,464.944z M335.089,456.328c2.034-0.859,3.494-1.43,4.864-2.167
			c0.082-0.044-0.395-1.919-0.874-2.063c-1.207-0.361-2.565-0.217-3.989-0.282C335.089,453.186,335.089,454.142,335.089,456.328z"/>
		<path fill="#C5011E" d="M372.628,447.296c-0.369,5.425-0.303,10.666-1.193,15.74c-0.857,4.888-4.567,6.519-11.349,6
			c-3.717-0.285-6.961-3.131-7.222-7.093c-0.317-4.816-0.075-9.668-0.075-14.703c1.964,0,3.775,0,5.996,0
			c0,4.212,0.06,8.424-0.022,12.633c-0.051,2.606,1.026,4.019,3.681,4.013c2.724-0.006,3.174-1.724,3.118-4.025
			c-0.1-4.1-0.028-8.205-0.028-12.564C367.761,447.296,369.804,447.296,372.628,447.296z"/>
		<path fill="#DB031E" d="M312.728,469.786c-8.322,0-15.999,0.03-23.674-0.049c-0.728-0.007-1.696-0.51-2.136-1.096
			c-5.74-7.649-11.405-15.355-17.507-23.612c3.923,0,7.431,0,10.938,0c5.111,0,10.232-0.168,15.328,0.112
			c1.361,0.075,3.155,1.202,3.885,2.381C303.944,454.607,308.073,461.847,312.728,469.786z M273.871,447.286
			c5.039,6.535,9.596,12.5,14.239,18.397c0.604,0.768,1.645,1.661,2.504,1.683c5.765,0.149,11.536,0.077,17.89,0.077
			c-3.944-6.807-7.533-13.072-11.238-19.268c-0.318-0.533-1.405-0.845-2.139-0.852C288.29,447.26,281.453,447.286,273.871,447.286z"
			/>
		<path fill="#C6021F" d="M445.696,447.446c0,1.446,0,2.666,0,4.274c-2.828,0-5.641,0-8.597,0c0,1.328,0,2.269,0,3.612
			c2.65,0,5.212,0,7.934,0c0,1.709,0,3.02,0,4.685c-2.631,0-5.197,0-7.926,0c0,1.545,0,2.741,0,4.386c2.935,0,5.856,0,8.933,0
			c0,1.652,0,2.862,0,4.355c-4.529,0-9.08,0-13.826,0c0-6.995,0-14.071,0-21.312C436.641,447.446,440.97,447.446,445.696,447.446z"
			/>
		<path fill="#C70723" d="M221.926,420.763c0-4.75,0-9.195,0-13.865c4.827,0,9.498,0,14.387,0c0,4.54,0,9.09,0,13.865
			C231.621,420.763,226.944,420.763,221.926,420.763z"/>
		<path fill="#C70723" d="M302.951,420.788c0-4.836,0-9.283,0-13.922c4.855,0,9.529,0,14.397,0c0,4.627,0,9.175,0,13.922
			C312.577,420.788,307.902,420.788,302.951,420.788z"/>
		<path fill="#C80F2A" d="M256.833,468.289c-2.697-0.902-3.839-3.745-3.051-7.597c0.671-3.282,4.393-6.388,7.959-6.642
			c3.624-0.259,7.289,2.526,8.529,6.482c1.079,3.44-0.569,7.452-3.906,9.508c-3.306,2.037-7.01,1.682-9.789-0.982
			c-0.108-0.104,0.114-0.552,0.181-0.839c1.008,0.43,1.996,0.918,3.029,1.277c3.282,1.138,6.215,0.076,6.732-2.389l-0.021,0.064
			c0.502-0.122,1.234-0.074,1.468-0.392c1.78-2.422,1.976-5.174,0.253-7.52c-1.838-2.502-4.252-4.667-7.834-3.24
			c-0.818,0.326-1.419,1.194-2.12,1.813c0,0,0.05-0.049,0.05-0.049c-0.719,0.362-1.653,0.546-2.122,1.114
			C253.484,462.182,255.324,465.24,256.833,468.289z"/>
		<path fill="#FEFDFD" d="M365.628,414.954c0.476,8.366-7.173,12.69-12.397,12.792c-7.106,0.139-12.804-5.97-12.693-13.344
			c0.111-7.39,5.2-12.32,12.687-12.29C360.955,402.142,365.693,407.048,365.628,414.954z"/>
		<path fill="#FEED00" d="M410.513,350.94c0-4.575,0-8.18,0-12.719c6.096,7.081,11.668,13.553,17.175,19.951
			c-6.665,5.352-13.104,10.522-20.232,16.245c0-4.024,0-7.413,0-11.188c-6.808-0.78-13.076-1.471-19.336-2.223
			c-9.1-1.094-18.194-2.242-27.293-3.348c-7.379-0.897-14.761-1.763-22.141-2.647c-9.348-1.119-18.694-2.25-28.043-3.36
			c-7.505-0.892-15.013-1.759-22.519-2.64c-7.873-0.924-15.741-1.902-23.621-2.76c-6.04-0.658-12.086-1.377-18.149-1.673
			c-4.731-0.231-6.426,2.48-4.354,6.632c5.211,10.441,10.551,20.818,16.009,31.556c-5.545,0-11.107,0-16.67,0
			c-1.374,0-2.749,0.013-4.123-0.002c-4.618-0.051-9.916,1.276-13.66-0.561c-3.698-1.815-5.85-6.813-8.638-10.447
			c-12.036-15.693-24.109-31.358-36.037-47.133c-2.417-3.197-3.964-6.807-1.653-10.957c2.202-3.953,5.463-6.301,9.927-5.807
			c5.736,0.635,11.415,1.835,17.097,2.905c11.762,2.214,23.509,4.506,35.263,6.761c13.07,2.507,26.144,4.993,39.211,7.516
			c10.304,1.989,20.603,4.003,30.898,6.033c16.334,3.22,32.655,6.508,48.998,9.683c14.523,2.822,29.071,5.515,43.601,8.3
			C404.841,349.559,407.427,350.234,410.513,350.94z"/>
		<path fill="#FDF8F8" d="M385.13,457.113c0-2.463,0-3.668,0-5.57c1.819,0.38,3.499,0.655,5.109,1.156
			c0.217,0.068,0.345,1.708,0.06,1.883C388.868,455.461,387.287,456.096,385.13,457.113z"/>
		<path fill="#FDF8F9" d="M459.407,457.083c0-2.483,0-3.692,0-5.507c1.865,0.318,3.578,0.53,5.226,0.98
			c0.241,0.066,0.444,1.727,0.202,1.871C463.287,455.344,461.61,456.044,459.407,457.083z"/>
		<path fill="#FBEEF0" d="M335.144,464.944c0-2.004,0-3.286,0-5.232c1.935,0.41,3.66,0.629,5.238,1.233
			c0.312,0.119,0.347,2.377,0.014,2.523C338.85,464.148,337.129,464.433,335.144,464.944z"/>
		<path fill="#FBF0F1" d="M335.089,456.328c0-2.186,0-3.142,0-4.512c1.425,0.065,2.782-0.079,3.989,0.282
			c0.48,0.143,0.957,2.018,0.874,2.063C338.582,454.898,337.123,455.469,335.089,456.328z"/>
		<path fill="#FEEC00" d="M273.871,447.286c7.582,0,14.419-0.026,21.255,0.038c0.734,0.007,1.821,0.32,2.139,0.852
			c3.705,6.196,7.294,12.461,11.238,19.268c-6.353,0-12.125,0.071-17.89-0.077c-0.859-0.022-1.899-0.916-2.504-1.683
			C283.466,459.786,278.91,453.821,273.871,447.286z"/>
		<path fill="#C60521" d="M266.498,467.17c0,0,0.021-0.064,0.021-0.064c-3.617,2.128-3.036-3.599-5.44-3.231
			c-0.586,1.461-1.07,2.671-1.555,3.881c-0.403-0.142-0.806-0.284-1.208-0.426c0-3.183,0-6.365,0-9.548c0,0-0.05,0.049-0.05,0.049
			c1.617,0.033,3.281-0.162,4.841,0.153c2.106,0.426,3.8,2.196,2.36,3.999C263.382,464.592,265.222,465.648,266.498,467.17z"/>
		<path fill="#FCF6F7" d="M258.315,457.782c0,3.183,0,6.365,0,9.548c0.403,0.142,0.806,0.284,1.208,0.426
			c0.485-1.21,0.97-2.42,1.555-3.881c2.404-0.368,1.823,5.359,5.44,3.231c-0.517,2.465-3.45,3.527-6.732,2.389
			c-1.033-0.358-2.021-0.847-3.029-1.277c0.001-0.001,0.074,0.072,0.075,0.071c-1.508-3.049-3.348-6.107-0.639-9.393
			C256.662,458.328,257.596,458.144,258.315,457.782z"/>
		<path fill="#FCF6F7" d="M266.498,467.17c-1.275-1.521-3.115-2.578-1.031-5.186c1.44-1.802-0.255-3.573-2.36-3.999
			c-1.56-0.316-3.224-0.121-4.841-0.153c0.701-0.619,1.303-1.487,2.12-1.813c3.581-1.428,5.995,0.738,7.834,3.24
			c1.723,2.345,1.527,5.097-0.253,7.52C267.732,467.096,266.999,467.048,266.498,467.17z"/>
	</g>
</g>
</svg>
