<?xml version="1.0" encoding="utf-8"?>
<!-- Generator: Adobe Illustrator 17.0.0, SVG Export Plug-In . SVG Version: 6.00 Build 0)  -->
<!DOCTYPE svg PUBLIC "-//W3C//DTD SVG 1.1//EN" "http://www.w3.org/Graphics/SVG/1.1/DTD/svg11.dtd">
<svg version="1.1" id="Layer_1" xmlns="http://www.w3.org/2000/svg" xmlns:xlink="http://www.w3.org/1999/xlink" x="0px" y="0px"
	 width="612px" height="792px" viewBox="0 0 612 792" enable-background="new 0 0 612 792" xml:space="preserve">
<g>
	<g>
		<path d="M118.75,583.802c0-125.017,0-250.035,0-375.052c125.017,0,250.035,0,375.052,0c0,125.017,0,250.035,0,375.052
			C368.785,583.802,243.768,583.802,118.75,583.802z M264.243,435.329c8.047-0.205,15.451-2.566,22.414-7.22
			c0.058,1.166,0.109,1.783,0.116,2.401c0.066,6.005-0.782,5.509,5.729,5.513c23.107,0.015,46.214-0.067,69.32,0.081
			c3.644,0.023,6.122-0.586,7.5-4.373c0.841-2.311,2.635-4.275,4.001-6.395c0.373,0.197,0.747,0.394,1.12,0.591
			c-0.501,2.923-1.002,5.846-1.554,9.069c1.707,0.124,2.8,0.271,3.893,0.272c19.11,0.014,38.22,0.017,57.33,0.005
			c3.934-0.003,8.048-2.799,8.631-5.789c0.865-4.438-0.926-8.038-5.312-9.829c-2.24-0.915-2.569-2.166-1.6-4.038
			c2.451-4.739,4.665-9.641,7.569-14.09c2.022-3.097,5.028-5.55,7.595-8.291l0.061,0.048c0.074,1.781,0.159,3.404,2.769,2.342
			c11.723-4.774,23.457-9.519,35.217-14.199c2.54-1.011,2.708-2.033,1.218-4.387c-5.759-9.1-11.208-18.397-16.871-27.559
			c-1.437-2.325-3.237-4.426-5.056-6.881c-0.799,1.017-1.241,1.351-1.369,1.78c-1.027,3.435-2.1,6.863-2.946,10.345
			c-0.597,2.457-1.873,3.143-4.417,3.437c-4.222,0.488-8.724,1.099-12.415,3.001c-4.97,2.561-9.283,6.397-14.324,10.005
			c-0.209-2.611-0.416-4.932-0.575-7.257c-0.368-5.384-0.881-5.883-6.238-5.883c-41.984-0.001-83.967-0.027-125.951,0.074
			c-2.157,0.005-4.312,1.098-7.311,1.913c-2.532-0.506-6.238-1.86-9.953-1.888c-25.114-0.19-50.23-0.135-75.345-0.013
			c-1.564,0.008-3.088,1.359-4.694,1.895c-1.032,0.345-2.364,0.788-3.246,0.423c-7.203-2.977-14.506-3.648-22.26-2.501
			c-11.872,1.757-25.639,14.269-24.788,27.994c0.243,3.916,0.384,7.838,0.589,12.107c-9.584,3.861-19.35,7.858-29.174,11.709
			c-2.441,0.957-3.616,1.827-1.894,4.56c6.748,10.705,13.329,21.515,20.052,32.235c0.622,0.992,1.816,1.624,3.112,2.739
			c1.528-4.695,2.821-8.668,4.168-12.808c13.894,2.62,26.368-0.204,35.352-7.725c2.719,1.681,5.072,3.078,7.368,4.565
			c7.503,4.86,15.638,5.23,23.978,3.113c4.155-1.055,8.15-2.736,12.218-4.133l-0.007-0.005c0.26,1.016,0.519,2.032,0.779,3.048
			c0.635,0.234,1.269,0.668,1.905,0.671c10.463,0.042,20.926,0.042,31.389,0C262.974,435.997,263.608,435.562,264.243,435.329z"/>
		<path fill="#025644" d="M450.994,393.234c-2.567,2.741-5.573,5.195-7.595,8.291c-2.904,4.449-5.118,9.351-7.569,14.09
			c-0.969,1.873-0.64,3.124,1.6,4.038c4.387,1.791,6.177,5.392,5.312,9.829c-0.583,2.99-4.697,5.786-8.631,5.789
			c-19.11,0.013-38.22,0.01-57.33-0.005c-1.093-0.001-2.186-0.148-3.893-0.272c0.552-3.223,1.053-6.146,1.554-9.069
			c-0.373-0.197-0.747-0.394-1.12-0.591c-1.366,2.12-3.16,4.084-4.001,6.395c-1.378,3.787-3.856,4.396-7.5,4.373
			c-23.106-0.148-46.213-0.066-69.32-0.081c-6.511-0.004-5.663,0.492-5.729-5.513c-0.007-0.618-0.058-1.235-0.116-2.401
			c-6.963,4.654-14.367,7.015-22.415,7.22c-11.733,0-23.467,0-35.2,0c-0.26-1.016-0.519-2.032-0.779-3.048
			c0.17-0.268,0.34-0.536,0.51-0.804c-0.105-0.043-0.21-0.086-0.315-0.129c-0.063,0.313-0.126,0.626-0.189,0.939
			c-4.068,1.398-8.063,3.078-12.218,4.133c-8.34,2.117-16.475,1.747-23.978-3.113c-2.296-1.487-4.65-2.885-7.368-4.565
			c-8.984,7.521-21.459,10.345-35.352,7.725c-1.347,4.14-2.64,8.113-4.168,12.808c-1.296-1.115-2.491-1.748-3.112-2.739
			c-6.724-10.72-13.304-21.531-20.052-32.235c-1.722-2.732-0.547-3.603,1.894-4.56c9.824-3.851,19.59-7.848,29.174-11.709
			c-0.205-4.269-0.347-8.191-0.589-12.107c-0.851-13.725,12.916-26.236,24.788-27.994c7.753-1.148,15.056-0.476,22.26,2.501
			c0.882,0.364,2.214-0.079,3.246-0.423c1.606-0.536,3.131-1.888,4.694-1.895c25.115-0.122,50.231-0.177,75.345,0.013
			c3.716,0.028,7.421,1.383,9.953,1.888c2.999-0.815,5.153-1.908,7.311-1.913c41.983-0.101,83.967-0.075,125.951-0.074
			c5.357,0,5.87,0.499,6.238,5.883c0.159,2.324,0.367,4.646,0.575,7.257c5.041-3.608,9.354-7.444,14.324-10.005
			c3.692-1.902,8.194-2.513,12.415-3.001c2.544-0.294,3.82-0.98,4.417-3.437c0.846-3.482,1.919-6.909,2.946-10.345
			c0.128-0.428,0.571-0.763,1.369-1.78c1.819,2.454,3.619,4.555,5.056,6.881c5.663,9.162,11.111,18.459,16.871,27.559
			c1.49,2.354,1.322,3.376-1.218,4.387c-11.76,4.68-23.495,9.425-35.217,14.199c-2.609,1.063-2.695-0.561-2.769-2.342
			c0.171-0.265,0.343-0.531,0.514-0.796c-0.1-0.055-0.199-0.11-0.299-0.165C451.178,392.625,451.086,392.93,450.994,393.234z
			 M433.768,429.309c0.48,0.327,0.961,0.653,1.441,0.979c0.25-0.659,0.499-1.319,0.965-2.549c-1.217,0.782-1.784,1.146-2.351,1.51
			c-0.509-0.989-1.017-1.978-1.526-2.967c0.907-0.45,1.815-0.9,2.722-1.349c-0.367-0.377-0.734-0.755-1.101-1.132
			c-0.542,0.826-1.084,1.651-1.626,2.477c-0.36,0.48-0.719,0.961-1.079,1.442C432.064,428.25,432.916,428.78,433.768,429.309z
			 M339.932,400.94c-0.304-0.135-0.608-0.271-0.912-0.406c2.059-12.089,4.117-24.178,6.217-36.509c-4.752,0-9.122-0.11-13.479,0.084
			c-0.985,0.044-2.383,0.914-2.813,1.787c-4.172,8.482-8.147,17.061-12.247,25.579c-1.537,3.193-3.258,6.297-4.896,9.441
			c-0.246-0.114-0.492-0.228-0.738-0.343c2.282-12.11,4.565-24.22,6.847-36.328c-6.101,0-11.805,0-17.532,0
			c-2.407,21.814-4.791,43.412-7.203,65.276c5.587,0,10.454,0.097,15.311-0.081c0.98-0.036,2.392-0.883,2.807-1.741
			c3.202-6.629,6.181-13.365,9.282-20.043c2.532-5.453,5.139-10.871,7.712-16.305c0.197,0.074,0.395,0.148,0.592,0.221
			c-2.176,12.553-4.351,25.106-6.577,37.953c4.717,0,9.088-0.182,13.435,0.062c3.08,0.173,4.599-1.086,5.978-3.753
			c5.878-11.367,12-22.609,18.049-33.889c4.909-9.154,9.841-18.296,15.02-27.921c-5.101,0-9.685,0.186-14.244-0.076
			c-2.413-0.139-3.694,0.8-4.602,2.766c-2.057,4.455-4.096,8.92-6.178,13.364C346.5,387.038,343.21,393.986,339.932,400.94z
			 M283.105,395.726c7.069-4.069,11.246-9.939,12.149-18.164c0.746-6.801-3.158-12.333-9.969-12.735
			c-8.316-0.491-16.657-0.633-24.988-0.694c-0.935-0.007-2.395,1.317-2.745,2.325c-5.981,17.206-11.842,34.454-17.685,51.707
			c-1.285,3.793-2.399,7.645-3.7,11.815c9.563,0,18.68,0.391,27.742-0.14c5.822-0.341,11.694-1.613,16.755-5.034
			C291.217,417.671,294.92,404.228,283.105,395.726z M252.116,364.701c-5.22,0-10.095,0.156-14.952-0.067
			c-2.357-0.108-3.295,0.838-3.955,2.877c-3.615,11.167-7.238,22.333-11.023,33.443c-1.292,3.794-2.712,7.637-4.774,11.032
			c-0.873,1.438-3.552,1.78-5.41,2.62c-0.578-1.717-1.797-3.516-1.59-5.132c0.351-2.736,1.591-5.361,2.479-8.025
			c4.056-12.171,8.12-24.339,12.261-36.747c-5.438,0-10.558-0.087-15.669,0.077c-0.966,0.031-2.493,0.861-2.762,1.659
			c-5.122,15.174-10.286,30.339-15.026,45.635c-2.802,9.041,0.186,16.109,8.181,18.115c4.963,1.245,10.712,1.137,15.735-0.005
			c10.464-2.379,17.31-9.582,20.855-19.558C241.827,395.531,246.818,380.308,252.116,364.701z M382.248,418.851
			c-0.766,3.802-1.471,7.3-2.169,10.762c6.411,0,12.615,0,18.783,0c2.557-21.921,5.088-43.611,7.652-65.59
			c-7.444,0-14.55,0.11-21.649-0.064c-2.251-0.055-3.24,0.852-4.213,2.681c-6.633,12.47-13.396,24.871-20.07,37.319
			c-4.45,8.3-8.823,16.641-13.458,25.393c2.882,0,5.397-0.332,7.793,0.063c6.693,1.104,10.945-1.266,13.022-7.853
			c0.362-1.149,2.174-2.459,3.431-2.588C374.818,418.618,378.326,418.851,382.248,418.851z M423.829,429.414
			c3.938-9.12,7.192-18.288,11.742-26.76c5.072-9.442,12.004-17.628,21.565-23.07c1.447-0.823,3.247-1.024,5.432-1.676
			c-0.889,3.18-1.525,5.452-2.316,8.281c7.38-2.966,14.212-5.658,20.965-8.534c0.505-0.215,0.93-2.035,0.58-2.628
			c-3.779-6.381-7.722-12.665-11.748-19.183c-1.025,2.942-1.939,5.565-2.871,8.239c-19.259-2.927-28.503,10.396-38.368,23.24
			c-0.881-7.03-1.634-13.617-2.599-20.173c-0.163-1.106-1.198-2.937-1.905-2.973c-5.05-0.258-10.12-0.138-15.341-0.138
			c1.466,9.794,2.53,19.13,4.361,28.313c1.133,5.686,0.887,10.892-1.207,16.264c-2.642,6.778-4.886,13.712-7.378,20.797
			C411.575,429.414,417.927,429.414,423.829,429.414z M192.976,381.182c1.975-3.763,3.801-7.639,6.001-11.29
			c1.334-2.213,0.653-2.753-1.421-3.709c-7.563-3.486-15.295-3.988-23.052-1.308c-9.547,3.298-17.745,13.899-16.25,24.655
			c0.809,5.818,3.411,10.489,7.121,14.731c3.643,4.165,2.703,8.028-2.378,10.021c-4.219,1.655-7.955,0.153-12.17-1.36
			c0.69-2.776,1.362-5.483,2.102-8.458c-7.937,3.268-15.458,6.365-23.528,9.688c4.563,7.393,8.979,14.548,13.474,21.831
			c0.941-2.701,1.701-4.883,2.417-6.939c0.381-0.077,0.515-0.147,0.624-0.119c0.707,0.18,1.406,0.393,2.112,0.575
			c10.865,2.805,21.37,2.184,30.835-4.27c9.761-6.656,13.533-17.862,4.538-28.581c-2.031-2.42-3.765-5.123-5.389-7.843
			c-1.756-2.941-0.846-5.878,1.183-8.21c1.997-2.294,4.728-3.069,7.756-1.829C188.864,379.553,190.788,380.307,192.976,381.182z"/>
		<path fill="#7FA9A0" d="M229.043,435.329c11.733,0,23.467-0.001,35.2,0c-0.635,0.234-1.269,0.669-1.905,0.671
			c-10.463,0.042-20.926,0.042-31.389,0C230.312,435.997,229.678,435.562,229.043,435.329z"/>
		<path fill="#FDF001" d="M339.932,400.94c3.278-6.954,6.568-13.902,9.829-20.863c2.082-4.444,4.121-8.908,6.178-13.364
			c0.908-1.966,2.189-2.904,4.602-2.766c4.559,0.262,9.143,0.076,14.244,0.076c-5.179,9.625-10.111,18.767-15.02,27.921
			c-6.049,11.279-12.17,22.521-18.049,33.889c-1.379,2.667-2.898,3.926-5.978,3.753c-4.347-0.244-8.718-0.062-13.435-0.062
			c2.226-12.847,4.402-25.4,6.577-37.953c-0.197-0.074-0.395-0.148-0.592-0.221c-2.574,5.434-5.18,10.852-7.712,16.305
			c-3.102,6.678-6.08,13.414-9.282,20.043c-0.415,0.859-1.827,1.705-2.807,1.741c-4.857,0.177-9.724,0.081-15.311,0.081
			c2.413-21.864,4.796-43.463,7.203-65.276c5.728,0,11.431,0,17.532,0c-2.282,12.108-4.564,24.218-6.847,36.328
			c0.246,0.114,0.492,0.228,0.738,0.343c1.637-3.144,3.358-6.248,4.896-9.441c4.101-8.518,8.076-17.096,12.247-25.579
			c0.429-0.873,1.827-1.743,2.813-1.787c4.357-0.193,8.727-0.084,13.479-0.084c-2.1,12.331-4.159,24.42-6.217,36.509
			C339.324,400.669,339.628,400.805,339.932,400.94z"/>
		<path fill="#FDFDFD" d="M283.105,395.726c11.815,8.502,8.112,21.945-2.442,29.081c-5.061,3.421-10.933,4.693-16.755,5.034
			c-9.062,0.531-18.179,0.14-27.742,0.14c1.301-4.171,2.415-8.022,3.7-11.815c5.843-17.254,11.704-34.501,17.685-51.707
			c0.35-1.008,1.81-2.332,2.745-2.325c8.332,0.06,16.672,0.203,24.988,0.694c6.811,0.402,10.716,5.934,9.969,12.735
			C294.351,385.787,290.173,391.657,283.105,395.726z M259.295,415.992c3.187-0.368,5.784-0.514,8.315-1.002
			c2.932-0.565,5.523-4.612,4.86-7.223c-0.663-2.608-5.621-4.995-8.334-3.903c-0.568,0.229-1.108,0.946-1.324,1.558
			C261.674,408.641,260.644,411.898,259.295,415.992z M266.622,390.481c3.677-1.067,6.556-1.561,9.12-2.739
			c2.71-1.245,3.855-4.046,3.164-6.785c-0.69-2.734-3.415-2.82-5.867-2.694c-0.732,0.038-1.467,0.006-2.367,0.006
			C269.448,381.959,268.27,385.512,266.622,390.481z"/>
		<path fill="#FDFDFD" d="M252.116,364.701c-5.298,15.607-10.288,30.831-15.651,45.922c-3.545,9.977-10.391,17.179-20.855,19.558
			c-5.023,1.142-10.772,1.25-15.735,0.005c-7.995-2.006-10.983-9.074-8.181-18.115c4.74-15.296,9.904-30.461,15.026-45.635
			c0.27-0.798,1.796-1.628,2.762-1.659c5.111-0.164,10.23-0.077,15.669-0.077c-4.141,12.408-8.205,24.576-12.261,36.747
			c-0.888,2.664-2.128,5.289-2.479,8.025c-0.207,1.616,1.012,3.415,1.59,5.132c1.858-0.84,4.537-1.182,5.41-2.62
			c2.062-3.395,3.481-7.238,4.774-11.032c3.784-11.11,7.408-22.276,11.023-33.443c0.66-2.038,1.598-2.985,3.955-2.877
			C242.021,364.857,246.896,364.701,252.116,364.701z"/>
		<path fill="#FDF001" d="M382.248,418.851c-3.922,0-7.43-0.233-10.878,0.123c-1.256,0.13-3.068,1.44-3.431,2.588
			c-2.077,6.587-6.329,8.957-13.022,7.853c-2.396-0.395-4.911-0.063-7.793-0.063c4.635-8.752,9.008-17.093,13.458-25.393
			c6.674-12.448,13.438-24.849,20.07-37.319c0.973-1.829,1.962-2.736,4.213-2.681c7.099,0.174,14.204,0.064,21.649,0.064
			c-2.564,21.979-5.095,43.669-7.652,65.59c-6.169,0-12.372,0-18.783,0C380.777,426.151,381.482,422.653,382.248,418.851z
			 M388.859,383.781c-0.252-0.088-0.503-0.177-0.755-0.265c-3.913,7.316-7.826,14.632-11.852,22.16c3.16,0,5.759,0,8.676,0
			C386.246,398.333,387.553,391.057,388.859,383.781z"/>
		<path fill="#FDF001" d="M423.829,429.414c-5.902,0-12.254,0-19.088,0c2.493-7.085,4.737-14.019,7.378-20.797
			c2.094-5.372,2.34-10.578,1.207-16.264c-1.83-9.183-2.895-18.519-4.361-28.313c5.221,0,10.291-0.12,15.341,0.138
			c0.707,0.036,1.742,1.867,1.905,2.973c0.965,6.556,1.718,13.143,2.599,20.173c9.865-12.844,19.109-26.167,38.368-23.24
			c0.932-2.674,1.846-5.297,2.871-8.239c4.026,6.518,7.968,12.802,11.748,19.183c0.351,0.592-0.074,2.413-0.58,2.628
			c-6.753,2.876-13.585,5.568-20.965,8.534c0.791-2.828,1.427-5.101,2.316-8.281c-2.184,0.652-3.985,0.853-5.432,1.676
			c-9.561,5.442-16.494,13.628-21.565,23.07C431.021,411.126,427.767,420.294,423.829,429.414z"/>
		<path fill="#FDFDFD" d="M192.976,381.182c-2.189-0.875-4.112-1.63-6.024-2.413c-3.028-1.241-5.759-0.466-7.756,1.829
			c-2.03,2.332-2.939,5.268-1.183,8.21c1.624,2.72,3.358,5.423,5.389,7.843c8.996,10.719,5.224,21.925-4.538,28.581
			c-9.465,6.454-19.97,7.074-30.835,4.27c-0.706-0.182-1.405-0.395-2.112-0.575c-0.109-0.028-0.243,0.042-0.624,0.119
			c-0.716,2.056-1.476,4.238-2.417,6.939c-4.495-7.283-8.912-14.439-13.474-21.831c8.07-3.323,15.591-6.42,23.528-9.688
			c-0.739,2.975-1.412,5.682-2.102,8.458c4.215,1.513,7.951,3.016,12.17,1.36c5.081-1.994,6.021-5.856,2.378-10.021
			c-3.71-4.241-6.312-8.913-7.121-14.731c-1.495-10.757,6.702-21.357,16.25-24.655c7.757-2.68,15.489-2.177,23.052,1.308
			c2.075,0.956,2.755,1.495,1.421,3.709C196.777,373.543,194.951,377.419,192.976,381.182z"/>
		<path fill="#166445" d="M432.291,426.279c0.542-0.826,1.084-1.651,1.627-2.477c0.367,0.377,0.734,0.755,1.101,1.132
			c-0.907,0.45-1.815,0.9-2.722,1.349C432.297,426.283,432.291,426.279,432.291,426.279z"/>
		<path fill="#166445" d="M433.767,429.309c-0.851-0.53-1.703-1.06-2.554-1.589c0.36-0.48,0.719-0.961,1.079-1.442
			c0,0,0.005,0.005,0.005,0.005c0.509,0.989,1.017,1.978,1.526,2.967L433.767,429.309z"/>
		<path fill="#166445" d="M433.822,429.25c0.567-0.364,1.135-0.729,2.351-1.51c-0.466,1.23-0.715,1.889-0.965,2.549
			c-0.48-0.326-0.961-0.653-1.441-0.979C433.767,429.309,433.822,429.25,433.822,429.25z"/>
		<path d="M450.994,393.234c0.092-0.304,0.184-0.608,0.276-0.913c0.1,0.055,0.199,0.11,0.299,0.165
			c-0.171,0.265-0.343,0.531-0.514,0.796C451.056,393.282,450.994,393.234,450.994,393.234z"/>
		<path d="M228.27,432.285c0.063-0.313,0.126-0.626,0.189-0.939c0.105,0.043,0.21,0.086,0.315,0.129
			c-0.17,0.268-0.34,0.536-0.51,0.804C228.264,432.28,228.27,432.285,228.27,432.285z"/>
		<path fill="#045846" d="M259.295,415.992c1.348-4.094,2.379-7.351,3.517-10.57c0.216-0.611,0.756-1.329,1.324-1.558
			c2.712-1.092,7.671,1.295,8.334,3.903c0.663,2.61-1.928,6.657-4.86,7.223C265.079,415.478,262.482,415.624,259.295,415.992z"/>
		<path fill="#045846" d="M266.622,390.481c1.648-4.97,2.825-8.522,4.049-12.212c0.9,0,1.635,0.032,2.367-0.006
			c2.453-0.126,5.178-0.041,5.867,2.694c0.691,2.739-0.453,5.54-3.164,6.785C273.178,388.92,270.299,389.414,266.622,390.481z"/>
		<path fill="#0A5B43" d="M388.859,383.781c-1.306,7.276-2.613,14.552-3.931,21.894c-2.917,0-5.516,0-8.676,0
			c4.026-7.528,7.939-14.844,11.852-22.16C388.356,383.605,388.607,383.693,388.859,383.781z"/>
	</g>
</g>
</svg>
